999
dxflib 2.2.0.0
  0
SECTION
  2
HEADER
  9
$ACADVER
  1
AC1015
  9
$HANDSEED
  5
FFFF
  9
$DIMASZ
 40
2.5
  9
$PLIMMIN
 10
0.0
 20
0.0
  9
$DIMEXE
 40
1.25
  9
$DIMGAP
 40
0.625
  9
$PLIMMAX
 10
210.0
 20
297.0
  9
$EXTMIN
 10
0.0
 20
0.0
 30
0.0
  9
$EXTMAX
 10
0.0
 20
0.0
 30
0.0
  9
$INSUNITS
 70
4
  9
$DIMSTYLE
  2
Standard
  9
$DIMEXO
 40
0.625
  9
$INSBASE
 10
0.0
 20
0.0
 30
0.0
  9
$DIMTXT
 40
2.5
  0
ENDSEC
  0
SECTION
  2
TABLES
  0
TABLE
  2
VPORT
  5
8
100
AcDbSymbolTable
 70
1
  0
VPORT
  5
30
100
AcDbSymbolTableRecord
100
AcDbViewportTableRecord
  2
*Active
 70
0
 10
0.0
 20
0.0
 11
1.0
 21
1.0
 12
286.3055555555554861
 22
148.5
 13
0.0
 23
0.0
 14
10.0
 24
10.0
 15
10.0
 25
10.0
 16
0.0
 26
0.0
 36
1.0
 17
0.0
 27
0.0
 37
0.0
 40
297.0
 41
1.92798353909465
 42
50.0
 43
0.0
 44
0.0
 50
0.0
 51
0.0
 71
0
 72
100
 73
1
 74
3
 75
1
 76
1
 77
0
 78
0
281
0
 65
1
110
0.0
120
0.0
130
0.0
111
1.0
121
0.0
131
0.0
112
0.0
122
1.0
132
0.0
 79
0
146
0.0
  0
ENDTAB
  0
TABLE
  2
LTYPE
  5
5
100
AcDbSymbolTable
 70
21
  0
LTYPE
  5
14
100
AcDbSymbolTableRecord
100
AcDbLinetypeTableRecord
  2
ByBlock
 70
0
  3

 72
65
 73
0
 40
0.0
  0
LTYPE
  5
15
100
AcDbSymbolTableRecord
100
AcDbLinetypeTableRecord
  2
ByLayer
 70
0
  3

 72
65
 73
0
 40
0.0
  0
LTYPE
  5
16
100
AcDbSymbolTableRecord
100
AcDbLinetypeTableRecord
  2
CONTINUOUS
 70
0
  3
Solid line
 72
65
 73
0
 40
0.0
  0
LTYPE
  5
31
100
AcDbSymbolTableRecord
100
AcDbLinetypeTableRecord
  2
DOT
 70
0
  3
Dot . . . . . . . . . . . . . . . . . . . . . .
 72
65
 73
2
 40
6.3499999999999996
 49
0.0
 74
0
 49
-6.3499999999999996
 74
0
  0
LTYPE
  5
32
100
AcDbSymbolTableRecord
100
AcDbLinetypeTableRecord
  2
DOT2
 70
0
  3
Dot (.5x) .....................................
 72
65
 73
2
 40
3.1749999999999998
 49
0.0
 74
0
 49
-3.1749999999999998
 74
0
  0
LTYPE
  5
33
100
AcDbSymbolTableRecord
100
AcDbLinetypeTableRecord
  2
DOTX2
 70
0
  3
Dot (2x) .  .  .  .  .  .  .  .  .  .  .  .  .
 72
65
 73
2
 40
12.6999999999999993
 49
0.0
 74
0
 49
-12.6999999999999993
 74
0
  0
LTYPE
  5
34
100
AcDbSymbolTableRecord
100
AcDbLinetypeTableRecord
  2
DASHED
 70
0
  3
Dashed __ __ __ __ __ __ __ __ __ __ __ __ __ _
 72
65
 73
2
 40
19.0500000000000007
 49
12.6999999999999993
 74
0
 49
-6.3499999999999996
 74
0
  0
LTYPE
  5
35
100
AcDbSymbolTableRecord
100
AcDbLinetypeTableRecord
  2
DASHED2
 70
0
  3
Dashed (.5x) _ _ _ _ _ _ _ _ _ _ _ _ _ _ _ _ _
 72
65
 73
2
 40
9.5250000000000004
 49
6.3499999999999996
 74
0
 49
-3.1749999999999998
 74
0
  0
LTYPE
  5
36
100
AcDbSymbolTableRecord
100
AcDbLinetypeTableRecord
  2
DASHEDX2
 70
0
  3
Dashed (2x) ____  ____  ____  ____  ____  ___
 72
65
 73
2
 40
38.1000000000000014
 49
25.3999999999999986
 74
0
 49
-12.6999999999999993
 74
0
  0
LTYPE
  5
37
100
AcDbSymbolTableRecord
100
AcDbLinetypeTableRecord
  2
DASHDOT
 70
0
  3
Dash dot __ . __ . __ . __ . __ . __ . __ . __
 72
65
 73
4
 40
25.3999999999999986
 49
12.6999999999999993
 74
0
 49
-6.3499999999999996
 74
0
 49
0.0
 74
0
 49
-6.3499999999999996
 74
0
  0
LTYPE
  5
38
100
AcDbSymbolTableRecord
100
AcDbLinetypeTableRecord
  2
DASHDOT2
 70
0
  3
Dash dot (.5x) _._._._._._._._._._._._._._._.
 72
65
 73
4
 40
12.6999999999999993
 49
6.3499999999999996
 74
0
 49
-3.1749999999999998
 74
0
 49
0.0
 74
0
 49
-3.1749999999999998
 74
0
  0
LTYPE
  5
39
100
AcDbSymbolTableRecord
100
AcDbLinetypeTableRecord
  2
DASHDOTX2
 70
0
  3
Dash dot (2x) ____  .  ____  .  ____  .  ___
 72
65
 73
4
 40
50.7999999999999972
 49
25.3999999999999986
 74
0
 49
-12.6999999999999993
 74
0
 49
0.0
 74
0
 49
-12.6999999999999993
 74
0
  0
LTYPE
  5
3A
100
AcDbSymbolTableRecord
100
AcDbLinetypeTableRecord
  2
DIVIDE
 70
0
  3
Divide ____ . . ____ . . ____ . . ____ . . ____
 72
65
 73
6
 40
31.75
 49
12.6999999999999993
 74
0
 49
-6.3499999999999996
 74
0
 49
0.0
 74
0
 49
-6.3499999999999996
 74
0
 49
0.0
 74
0
 49
-6.3499999999999996
 74
0
  0
LTYPE
  5
3B
100
AcDbSymbolTableRecord
100
AcDbLinetypeTableRecord
  2
DIVIDE2
 70
0
  3
Divide (.5x) __..__..__..__..__..__..__..__.._
 72
65
 73
6
 40
15.875
 49
6.3499999999999996
 74
0
 49
-3.1749999999999998
 74
0
 49
0.0
 74
0
 49
-3.1749999999999998
 74
0
 49
0.0
 74
0
 49
-3.1749999999999998
 74
0
  0
LTYPE
  5
3C
100
AcDbSymbolTableRecord
100
AcDbLinetypeTableRecord
  2
DIVIDEX2
 70
0
  3
Divide (2x) ________  .  .  ________  .  .  _
 72
65
 73
6
 40
63.5
 49
25.3999999999999986
 74
0
 49
-12.6999999999999993
 74
0
 49
0.0
 74
0
 49
-12.6999999999999993
 74
0
 49
0.0
 74
0
 49
-12.6999999999999993
 74
0
  0
LTYPE
  5
3D
100
AcDbSymbolTableRecord
100
AcDbLinetypeTableRecord
  2
CENTER
 70
0
  3
Center ____ _ ____ _ ____ _ ____ _ ____ _ ____
 72
65
 73
4
 40
50.7999999999999972
 49
31.75
 74
0
 49
-6.3499999999999996
 74
0
 49
6.3499999999999996
 74
0
 49
-6.3499999999999996
 74
0
  0
LTYPE
  5
3E
100
AcDbSymbolTableRecord
100
AcDbLinetypeTableRecord
  2
CENTER2
 70
0
  3
Center (.5x) ___ _ ___ _ ___ _ ___ _ ___ _ ___
 72
65
 73
4
 40
28.5749999999999993
 49
19.0500000000000007
 74
0
 49
-3.1749999999999998
 74
0
 49
3.1749999999999998
 74
0
 49
-3.1749999999999998
 74
0
  0
LTYPE
  5
3F
100
AcDbSymbolTableRecord
100
AcDbLinetypeTableRecord
  2
CENTERX2
 70
0
  3
Center (2x) ________  __  ________  __  _____
 72
65
 73
4
 40
101.5999999999999943
 49
63.5
 74
0
 49
-12.6999999999999993
 74
0
 49
12.6999999999999993
 74
0
 49
-12.6999999999999993
 74
0
  0
LTYPE
  5
40
100
AcDbSymbolTableRecord
100
AcDbLinetypeTableRecord
  2
BORDER
 70
0
  3
Border __ __ . __ __ . __ __ . __ __ . __ __ .
 72
65
 73
6
 40
44.4500000000000028
 49
12.6999999999999993
 74
0
 49
-6.3499999999999996
 74
0
 49
12.6999999999999993
 74
0
 49
-6.3499999999999996
 74
0
 49
0.0
 74
0
 49
-6.3499999999999996
 74
0
  0
LTYPE
  5
41
100
AcDbSymbolTableRecord
100
AcDbLinetypeTableRecord
  2
BORDER2
 70
0
  3
Border (.5x) __.__.__.__.__.__.__.__.__.__.__.
 72
65
 73
6
 40
22.2250000000000014
 49
6.3499999999999996
 74
0
 49
-3.1749999999999998
 74
0
 49
6.3499999999999996
 74
0
 49
-3.1749999999999998
 74
0
 49
0.0
 74
0
 49
-3.1749999999999998
 74
0
  0
LTYPE
  5
42
100
AcDbSymbolTableRecord
100
AcDbLinetypeTableRecord
  2
BORDERX2
 70
0
  3
Border (2x) ____  ____  .  ____  ____  .  ___
 72
65
 73
6
 40
88.9000000000000057
 49
25.3999999999999986
 74
0
 49
-12.6999999999999993
 74
0
 49
25.3999999999999986
 74
0
 49
-12.6999999999999993
 74
0
 49
0.0
 74
0
 49
-12.6999999999999993
 74
0
  0
ENDTAB
  0
TABLE
  2
LAYER
  5
2
100
AcDbSymbolTable
 70
2
  0
LAYER
  5
10
100
AcDbSymbolTableRecord
100
AcDbLayerTableRecord
  2
0
 70
0
 62
7
  6
CONTINUOUS
290
1
370
0
390
F
  0
LAYER
  5
43
100
AcDbSymbolTableRecord
100
AcDbLayerTableRecord
  2
PYDXF
 70
0
 62
7
  6
CONTINUOUS
290
1
390
F
  0
ENDTAB
  0
TABLE
  2
STYLE
  5
3
100
AcDbSymbolTable
 70
1
  0
STYLE
  5
11
100
AcDbSymbolTableRecord
100
AcDbTextStyleTableRecord
  2
Standard
 70
0
 40
0.0
 41
0.75
 50
0.0
 71
0
 42
2.5
  3
txt
  4

  0
ENDTAB
  0
TABLE
  2
VIEW
  5
6
100
AcDbSymbolTable
 70
0
  0
ENDTAB
  0
TABLE
  2
UCS
  5
7
100
AcDbSymbolTable
 70
0
  0
ENDTAB
  0
TABLE
  2
APPID
  5
9
100
AcDbSymbolTable
 70
1
  0
APPID
  5
12
100
AcDbSymbolTableRecord
100
AcDbRegAppTableRecord
  2
ACAD
 70
0
  0
ENDTAB
  0
TABLE
  2
DIMSTYLE
  5
A
100
AcDbSymbolTable
 70
1
100
AcDbDimStyleTable
 71
0
  0
DIMSTYLE
105
27
100
AcDbSymbolTableRecord
100
AcDbDimStyleTableRecord
  2
Standard
 41
2.5
 42
0.625
 43
3.75
 44
1.25
 70
0
 73
0
 74
0
 77
1
 78
8
140
2.5
141
2.5
143
0.03937007874016
147
0.625
171
3
172
1
271
2
272
2
274
3
278
44
283
0
284
8
340
11
  0
ENDTAB
  0
TABLE
  2
BLOCK_RECORD
  5
1
100
AcDbSymbolTable
 70
1
  0
BLOCK_RECORD
  5
1F
100
AcDbSymbolTableRecord
100
AcDbBlockTableRecord
  2
*Model_Space
340
22
  0
BLOCK_RECORD
  5
1B
100
AcDbSymbolTableRecord
100
AcDbBlockTableRecord
  2
*Paper_Space
340
1E
  0
BLOCK_RECORD
  5
23
100
AcDbSymbolTableRecord
100
AcDbBlockTableRecord
  2
*Paper_Space0
340
26
  0
ENDTAB
  0
ENDSEC
  0
SECTION
  2
BLOCKS
  0
BLOCK
  5
20
100
AcDbEntity
  8
0
100
AcDbBlockBegin
  2
*Model_Space
 70
0
 10
0.0
 20
0.0
 30
0.0
  3
*Model_Space
  1

  0
ENDBLK
  5
21
100
AcDbEntity
  8
0
100
AcDbBlockEnd
  0
BLOCK
  5
1C
100
AcDbEntity
 67
1
  8
0
100
AcDbBlockBegin
  2
*Paper_Space
 70
0
 10
0.0
 20
0.0
 30
0.0
  3
*Paper_Space
  1

  0
ENDBLK
  5
1D
100
AcDbEntity
 67
1
  8
0
100
AcDbBlockEnd
  0
BLOCK
  5
24
100
AcDbEntity
  8
0
100
AcDbBlockBegin
  2
*Paper_Space0
 70
0
 10
0.0
 20
0.0
 30
0.0
  3
*Paper_Space0
  1

  0
ENDBLK
  5
25
100
AcDbEntity
  8
0
100
AcDbBlockEnd
  0
ENDSEC
  0
SECTION
  2
ENTITIES
  0
LINE
  5
44
100
AcDbEntity
100
AcDbLine
  8
0
 62
256
370
-1
  6
ByLayer
 10
0.0
 20
26.6240601103999985
 30
0.0
 11
0.00110905852873
 21
26.6573193884000013
 31
0.0
  0
LINE
  5
45
100
AcDbEntity
100
AcDbLine
  8
0
 62
256
370
-1
  6
ByLayer
 10
0.00110905852873
 20
26.6573193884000013
 30
0.0
 11
0.00886581518571
 21
26.7568477949999988
 31
0.0
  0
LINE
  5
46
100
AcDbEntity
100
AcDbLine
  8
0
 62
256
370
-1
  6
ByLayer
 10
0.00886581518571
 20
26.7568477949999988
 30
0.0
 11
0.0298847296039
 21
26.9218980877000007
 31
0.0
  0
LINE
  5
47
100
AcDbEntity
100
AcDbLine
  8
0
 62
256
370
-1
  6
ByLayer
 10
0.0298847296039
 20
26.9218980877000007
 30
0.0
 11
0.0707139090528
 21
27.1512283216999997
 31
0.0
  0
LINE
  5
48
100
AcDbEntity
100
AcDbLine
  8
0
 62
256
370
-1
  6
ByLayer
 10
0.0707139090528
 20
27.1512283216999997
 30
0.0
 11
0.137802243409
 21
27.443107028
 31
0.0
  0
LINE
  5
49
100
AcDbEntity
100
AcDbLine
  8
0
 62
256
370
-1
  6
ByLayer
 10
0.137802243409
 20
27.443107028
 30
0.0
 11
0.237466912348
 21
27.795320435899999
 31
0.0
  0
LINE
  5
4A
100
AcDbEntity
100
AcDbLine
  8
0
 62
256
370
-1
  6
ByLayer
 10
0.237466912348
 20
27.795320435899999
 30
0.0
 11
0.375861386897
 21
28.2051817159999985
 31
0.0
  0
LINE
  5
4B
100
AcDbEntity
100
AcDbLine
  8
0
 62
256
370
-1
  6
ByLayer
 10
0.375861386897
 20
28.2051817159999985
 30
0.0
 11
0.558944045847
 21
28.6695422111999996
 31
0.0
  0
LINE
  5
4C
100
AcDbEntity
100
AcDbLine
  8
0
 62
256
370
-1
  6
ByLayer
 10
0.558944045847
 20
28.6695422111999996
 30
0.0
 11
0.792447525457
 21
29.184804616000001
 31
0.0
  0
LINE
  5
4D
100
AcDbEntity
100
AcDbLine
  8
0
 62
256
370
-1
  6
ByLayer
 10
0.792447525457
 20
29.184804616000001
 30
0.0
 11
1.08184891846
 21
29.7469380586999996
 31
0.0
  0
LINE
  5
4E
100
AcDbEntity
100
AcDbLine
  8
0
 62
256
370
-1
  6
ByLayer
 10
1.08184891846
 20
29.7469380586999996
 30
0.0
 11
1.4323409354900001
 21
30.351495031999999
 31
0.0
  0
LINE
  5
4F
100
AcDbEntity
100
AcDbLine
  8
0
 62
256
370
-1
  6
ByLayer
 10
1.4323409354900001
 20
30.351495031999999
 30
0.0
 11
1.8488041389900001
 21
30.9936301141000001
 31
0.0
  0
LINE
  5
50
100
AcDbEntity
100
AcDbLine
  8
0
 62
256
370
-1
  6
ByLayer
 10
1.8488041389900001
 20
30.9936301141000001
 30
0.0
 11
2.3357803557499999
 21
31.6681204142999988
 31
0.0
  0
LINE
  5
51
100
AcDbEntity
100
AcDbLine
  8
0
 62
256
370
-1
  6
ByLayer
 10
2.3357803557499999
 20
31.6681204142999988
 30
0.0
 11
2.8974473707400001
 21
32.3693876696999965
 31
0.0
  0
LINE
  5
52
100
AcDbEntity
100
AcDbLine
  8
0
 62
256
370
-1
  6
ByLayer
 10
2.8974473707400001
 20
32.3693876696999965
 30
0.0
 11
2.8984310480633093
 21
32.3704973310516593
 31
0.0
  0
LINE
  5
53
100
AcDbEntity
100
AcDbLine
  8
PYDXF
 62
256
370
-1
  6
ByLayer
 10
7.5008645284029187
 20
25.5455986050188173
 30
0.0
 11
7.5091706159669176
 21
25.5778231064622972
 31
0.0
  0
LINE
  5
54
100
AcDbEntity
100
AcDbLine
  8
PYDXF
 62
256
370
-1
  6
ByLayer
 10
7.5091706159669176
 20
25.5778231064622972
 30
0.0
 11
7.5297684549262751
 21
25.6755052441558078
 31
0.0
  0
LINE
  5
55
100
AcDbEntity
100
AcDbLine
  8
PYDXF
 62
256
370
-1
  6
ByLayer
 10
7.5297684549262751
 20
25.6755052441558078
 30
0.0
 11
7.5561009951988183
 21
25.8397915527955426
 31
0.0
  0
LINE
  5
56
100
AcDbEntity
100
AcDbLine
  8
PYDXF
 62
256
370
-1
  6
ByLayer
 10
7.5561009951988183
 20
25.8397915527955426
 30
0.0
 11
7.5815354775850166
 21
26.0713352100757874
 31
0.0
  0
LINE
  5
57
100
AcDbEntity
100
AcDbLine
  8
PYDXF
 62
256
370
-1
  6
ByLayer
 10
7.5815354775850166
 20
26.0713352100757874
 30
0.0
 11
7.5993964263722091
 21
26.3702917458907322
 31
0.0
  0
LINE
  5
58
100
AcDbEntity
100
AcDbLine
  8
PYDXF
 62
256
370
-1
  6
ByLayer
 10
7.5993964263722091
 20
26.3702917458907322
 30
0.0
 11
7.6029988607691248
 21
26.7363168179905379
 31
0.0
  0
LINE
  5
59
100
AcDbEntity
100
AcDbLine
  8
PYDXF
 62
256
370
-1
  6
ByLayer
 10
7.6029988607691248
 20
26.7363168179905379
 30
0.0
 11
7.5856816012451649
 21
27.1685660655705483
 31
0.0
  0
LINE
  5
5A
100
AcDbEntity
100
AcDbLine
  8
PYDXF
 62
256
370
-1
  6
ByLayer
 10
7.5856816012451649
 20
27.1685660655705483
 30
0.0
 11
7.5408405460008279
 21
27.6656970435584064
 31
0.0
  0
LINE
  5
5B
100
AcDbEntity
100
AcDbLine
  8
PYDXF
 62
256
370
-1
  6
ByLayer
 10
7.5408405460008279
 20
27.6656970435584064
 30
0.0
 11
7.4619617927490642
 21
28.2258732328736137
 31
0.0
  0
LINE
  5
5C
100
AcDbEntity
100
AcDbLine
  8
PYDXF
 62
256
370
-1
  6
ByLayer
 10
7.4619617927490642
 20
28.2258732328736137
 30
0.0
 11
7.3426544817063846
 21
28.8467701157821992
 31
0.0
  0
LINE
  5
5D
100
AcDbEntity
100
AcDbLine
  8
PYDXF
 62
256
370
-1
  6
ByLayer
 10
7.3426544817063846
 20
28.8467701157821992
 30
0.0
 11
7.1766832359022512
 21
29.5255832959235676
 31
0.0
  0
LINE
  5
5E
100
AcDbEntity
100
AcDbLine
  8
PYDXF
 62
256
370
-1
  6
ByLayer
 10
7.1766832359022512
 20
29.5255832959235676
 30
0.0
 11
6.9580000768926293
 21
30.2590386384623109
 31
0.0
  0
LINE
  5
5F
100
AcDbEntity
100
AcDbLine
  8
PYDXF
 62
256
370
-1
  6
ByLayer
 10
6.9580000768926293
 20
30.2590386384623109
 30
0.0
 11
6.6807756954341295
 21
31.0434043969441049
 31
0.0
  0
LINE
  5
60
100
AcDbEntity
100
AcDbLine
  8
PYDXF
 62
256
370
-1
  6
ByLayer
 10
6.6807756954341295
 20
31.0434043969441049
 30
0.0
 11
6.3394299579332092
 21
31.8745052853529529
 31
0.0
  0
LINE
  5
61
100
AcDbEntity
100
AcDbLine
  8
PYDXF
 62
256
370
-1
  6
ByLayer
 10
6.3394299579332092
 20
31.8745052853529529
 30
0.0
 11
6.3387987541830215
 21
31.8758471315503655
 31
0.0
  0
LINE
  5
62
100
AcDbEntity
100
AcDbLine
  8
PYDXF
 62
256
370
-1
  6
ByLayer
 10
0.0000000000000013
 20
21.7149999999999999
 30
0.0
 11
0.0
 21
26.6240601103999985
 31
0.0
  0
LINE
  5
63
100
AcDbEntity
100
AcDbLine
  8
PYDXF
 62
256
370
-1
  6
ByLayer
 10
6.1178224718116443
 20
20.8353899220388108
 30
0.0
 11
7.5008645284029072
 21
25.5455986050188208
 31
0.0
  0
ARC
  5
64
100
AcDbEntity
  8
0
 62
256
370
-1
  6
CONTINUOUS
100
AcDbCircle
 10
0.0
 20
0.0
 30
0.0
 40
21.7149999999999999
100
AcDbArc
 50
57.2727272727272876
 51
73.6363636363636402
  0
ARC
  5
65
100
AcDbEntity
  8
0
 62
256
370
-1
  6
CONTINUOUS
100
AcDbCircle
 10
0.0
 20
0.0
 30
0.0
 40
32.5
100
AcDbArc
 50
78.7529419494500615
 51
84.8834216869135787
  0
LINE
  5
66
100
AcDbEntity
100
AcDbLine
  8
0
 62
256
370
-1
  6
ByLayer
 10
-14.3940536220736259
 20
22.3975846261837255
 30
0.0
 11
-14.4111019459141296
 21
22.4261637136102117
 31
0.0
  0
LINE
  5
67
100
AcDbEntity
100
AcDbLine
  8
0
 62
256
370
-1
  6
ByLayer
 10
-14.4111019459141296
 20
22.4261637136102117
 30
0.0
 11
-14.4583856660773922
 21
22.5140859565393612
 31
0.0
  0
LINE
  5
68
100
AcDbEntity
100
AcDbLine
  8
0
 62
256
370
-1
  6
ByLayer
 10
-14.4583856660773922
 20
22.5140859565393612
 30
0.0
 11
-14.5299363552334295
 21
22.6642987814411399
 31
0.0
  0
LINE
  5
69
100
AcDbEntity
100
AcDbLine
  8
0
 62
256
370
-1
  6
ByLayer
 10
-14.5299363552334295
 20
22.6642987814411399
 30
0.0
 11
-14.619573948956484
 21
22.8792975719319394
 31
0.0
  0
LINE
  5
6A
100
AcDbEntity
100
AcDbLine
  8
0
 62
256
370
-1
  6
ByLayer
 10
-14.619573948956484
 20
22.8792975719319394
 30
0.0
 11
-14.7209371930395019
 21
23.1611122566930661
 31
0.0
  0
LINE
  5
6B
100
AcDbEntity
100
AcDbLine
  8
0
 62
256
370
-1
  6
ByLayer
 10
-14.7209371930395019
 20
23.1611122566930661
 30
0.0
 11
-14.827514882961994
 21
23.5112958184860723
 31
0.0
  0
LINE
  5
6C
100
AcDbEntity
100
AcDbLine
  8
0
 62
256
370
-1
  6
ByLayer
 10
-14.827514882961994
 20
23.5112958184860723
 30
0.0
 11
-14.9326777798399988
 21
23.9309147701924196
 31
0.0
  0
LINE
  5
6D
100
AcDbEntity
100
AcDbLine
  8
0
 62
256
370
-1
  6
ByLayer
 10
-14.9326777798399988
 20
23.9309147701924196
 30
0.0
 11
-15.0297110839171992
 21
24.4205416356833283
 31
0.0
  0
LINE
  5
6E
100
AcDbEntity
100
AcDbLine
  8
0
 62
256
370
-1
  6
ByLayer
 10
-15.0297110839171992
 20
24.4205416356833283
 30
0.0
 11
-15.1118473445021166
 21
24.9802494661514984
 31
0.0
  0
LINE
  5
6F
100
AcDbEntity
100
AcDbLine
  8
0
 62
256
370
-1
  6
ByLayer
 10
-15.1118473445021166
 20
24.9802494661514984
 30
0.0
 11
-15.1722996842125397
 21
25.6096084164313496
 31
0.0
  0
LINE
  5
70
100
AcDbEntity
100
AcDbLine
  8
0
 62
256
370
-1
  6
ByLayer
 10
-15.1722996842125397
 20
25.6096084164313496
 30
0.0
 11
-15.2042952129003144
 21
26.307684396616466
 31
0.0
  0
LINE
  5
71
100
AcDbEntity
100
AcDbLine
  8
0
 62
256
370
-1
  6
ByLayer
 10
-15.2042952129003144
 20
26.307684396616466
 30
0.0
 11
-15.201108507365209
 21
27.0730398097683498
 31
0.0
  0
LINE
  5
72
100
AcDbEntity
100
AcDbLine
  8
0
 62
256
370
-1
  6
ByLayer
 10
-15.201108507365209
 20
27.0730398097683498
 30
0.0
 11
-15.1560950318770988
 21
27.9037363775825256
 31
0.0
  0
LINE
  5
73
100
AcDbEntity
100
AcDbLine
  8
0
 62
256
370
-1
  6
ByLayer
 10
-15.1560950318770988
 20
27.9037363775825256
 30
0.0
 11
-15.0627243734562999
 21
28.7973400477686425
 31
0.0
  0
LINE
  5
74
100
AcDbEntity
100
AcDbLine
  8
0
 62
256
370
-1
  6
ByLayer
 10
-15.0627243734562999
 20
28.7973400477686425
 30
0.0
 11
-15.0624967796531628
 21
28.798805370413163
 31
0.0
  0
LINE
  5
75
100
AcDbEntity
100
AcDbLine
  8
PYDXF
 62
256
370
-1
  6
ByLayer
 10
-7.5008645284029134
 20
25.5455986050188173
 30
0.0
 11
-7.5112988836981831
 21
25.5771981906723305
 31
0.0
  0
LINE
  5
76
100
AcDbEntity
100
AcDbLine
  8
PYDXF
 62
256
370
-1
  6
ByLayer
 10
-7.5112988836981831
 20
25.5771981906723305
 30
0.0
 11
-7.5467818296783795
 21
25.6705096665942989
 31
0.0
  0
LINE
  5
77
100
AcDbEntity
100
AcDbLine
  8
PYDXF
 62
256
370
-1
  6
ByLayer
 10
-7.5467818296783795
 20
25.6705096665942989
 30
0.0
 11
-7.6134493713454177
 21
25.8229525502319071
 31
0.0
  0
LINE
  5
78
100
AcDbEntity
100
AcDbLine
  8
PYDXF
 62
256
370
-1
  6
ByLayer
 10
-7.6134493713454177
 20
25.8229525502319071
 30
0.0
 11
-7.7172344753309501
 21
26.0314903892724026
 31
0.0
  0
LINE
  5
79
100
AcDbEntity
100
AcDbLine
  8
PYDXF
 62
256
370
-1
  6
ByLayer
 10
-7.7172344753309501
 20
26.0314903892724026
 30
0.0
 11
-7.8638369949706943
 21
26.2926449891425307
 31
0.0
  0
LINE
  5
7A
100
AcDbEntity
100
AcDbLine
  8
PYDXF
 62
256
370
-1
  6
ByLayer
 10
-7.8638369949706943
 20
26.2926449891425307
 30
0.0
 11
-8.0586945284967832
 21
26.6025124972284601
 31
0.0
  0
LINE
  5
7B
100
AcDbEntity
100
AcDbLine
  8
PYDXF
 62
256
370
-1
  6
ByLayer
 10
-8.0586945284967832
 20
26.6025124972284601
 30
0.0
 11
-8.3069543208064882
 21
26.9567812864736389
 31
0.0
  0
LINE
  5
7C
100
AcDbEntity
100
AcDbLine
  8
PYDXF
 62
256
370
-1
  6
ByLayer
 10
-8.3069543208064882
 20
26.9567812864736389
 30
0.0
 11
-8.6134463152685221
 21
27.3507515732228725
 31
0.0
  0
LINE
  5
7D
100
AcDbEntity
100
AcDbLine
  8
PYDXF
 62
256
370
-1
  6
ByLayer
 10
-8.6134463152685221
 20
27.3507515732228725
 30
0.0
 11
-8.9826574580174245
 21
27.7793566978542863
 31
0.0
  0
LINE
  5
7E
100
AcDbEntity
100
AcDbLine
  8
PYDXF
 62
256
370
-1
  6
ByLayer
 10
-8.9826574580174245
 20
27.7793566978542863
 30
0.0
 11
-9.4187073532559911
 21
28.2371859919544583
 31
0.0
  0
LINE
  5
7F
100
AcDbEntity
100
AcDbLine
  8
PYDXF
 62
256
370
-1
  6
ByLayer
 10
-9.4187073532559911
 20
28.2371859919544583
 30
0.0
 11
-9.9253253627483797
 21
28.7185091478750856
 31
0.0
  0
LINE
  5
80
100
AcDbEntity
100
AcDbLine
  8
PYDXF
 62
256
370
-1
  6
ByLayer
 10
-9.9253253627483797
 20
28.7185091478750856
 30
0.0
 11
-10.5058292387932291
 21
29.2173020041089728
 31
0.0
  0
LINE
  5
81
100
AcDbEntity
100
AcDbLine
  8
PYDXF
 62
256
370
-1
  6
ByLayer
 10
-10.5058292387932291
 20
29.2173020041089728
 30
0.0
 11
-11.1631053739319057
 21
29.727273653253242
 31
0.0
  0
LINE
  5
82
100
AcDbEntity
100
AcDbLine
  8
PYDXF
 62
256
370
-1
  6
ByLayer
 10
-11.1631053739319057
 20
29.727273653253242
 30
0.0
 11
-11.8995907452188412
 21
30.2418947732088448
 31
0.0
  0
LINE
  5
83
100
AcDbEntity
100
AcDbLine
  8
PYDXF
 62
256
370
-1
  6
ByLayer
 10
-11.8995907452188412
 20
30.2418947732088448
 30
0.0
 11
-11.9008472044286933
 21
30.2426823515514549
 31
0.0
  0
LINE
  5
84
100
AcDbEntity
100
AcDbLine
  8
PYDXF
 62
256
370
-1
  6
ByLayer
 10
-11.740015351048303
 20
18.2678204654290965
 30
0.0
 11
-14.3940536220736259
 21
22.3975846261837255
 31
0.0
  0
LINE
  5
85
100
AcDbEntity
100
AcDbLine
  8
PYDXF
 62
256
370
-1
  6
ByLayer
 10
-6.1178224718116505
 20
20.8353899220388108
 30
0.0
 11
-7.5008645284029152
 21
25.5455986050188208
 31
0.0
  0
ARC
  5
86
100
AcDbEntity
  8
0
 62
256
370
-1
  6
CONTINUOUS
100
AcDbCircle
 10
0.0
 20
0.0
 30
0.0
 40
21.7149999999999999
100
AcDbArc
 50
90.0000000000000284
 51
106.363636363636374
  0
ARC
  5
87
100
AcDbEntity
  8
0
 62
256
370
-1
  6
CONTINUOUS
100
AcDbCircle
 10
0.0
 20
0.0
 30
0.0
 40
32.5
100
AcDbArc
 50
111.4802146767227953
 51
117.6106944141863124
  0
LINE
  5
88
100
AcDbEntity
100
AcDbLine
  8
0
 62
256
370
-1
  6
ByLayer
 10
-24.2180969226617897
 20
11.060034276924819
 30
0.0
 11
-24.2478899065098581
 21
11.0748595154500613
 31
0.0
  0
LINE
  5
89
100
AcDbEntity
100
AcDbLine
  8
0
 62
256
370
-1
  6
ByLayer
 10
-24.2478899065098581
 20
11.0748595154500613
 30
0.0
 11
-24.3352018564323487
 21
11.123260903807239
 31
0.0
  0
LINE
  5
8A
100
AcDbEntity
100
AcDbLine
  8
0
 62
256
370
-1
  6
ByLayer
 10
-24.3352018564323487
 20
11.123260903807239
 30
0.0
 11
-24.4766053109085817
 21
11.2109447503575854
 31
0.0
  0
LINE
  5
8B
100
AcDbEntity
100
AcDbLine
  8
0
 62
256
370
-1
  6
ByLayer
 10
-24.4766053109085817
 20
11.2109447503575854
 30
0.0
 11
-24.6682503751454973
 21
11.3433515004672145
 31
0.0
  0
LINE
  5
8C
100
AcDbEntity
100
AcDbLine
  8
0
 62
256
370
-1
  6
ByLayer
 10
-24.6682503751454973
 20
11.3433515004672145
 30
0.0
 11
-24.90588308386981
 21
11.5256279924852247
 31
0.0
  0
LINE
  5
8D
100
AcDbEntity
100
AcDbLine
  8
0
 62
256
370
-1
  6
ByLayer
 10
-24.90588308386981
 20
11.5256279924852247
 30
0.0
 11
-25.1848654691453788
 21
11.7626009015807735
 31
0.0
  0
LINE
  5
8E
100
AcDbEntity
100
AcDbLine
  8
0
 62
256
370
-1
  6
ByLayer
 10
-25.1848654691453788
 20
11.7626009015807735
 30
0.0
 11
-25.5001972607371421
 21
12.0587514726125296
 31
0.0
  0
LINE
  5
8F
100
AcDbEntity
100
AcDbLine
  8
0
 62
256
370
-1
  6
ByLayer
 10
-25.5001972607371421
 20
12.0587514726125296
 30
0.0
 11
-25.846539139401596
 21
12.4181916381390991
 31
0.0
  0
LINE
  5
90
100
AcDbEntity
100
AcDbLine
  8
0
 62
256
370
-1
  6
ByLayer
 10
-25.846539139401596
 20
12.4181916381390991
 30
0.0
 11
-26.2182374577928137
 21
12.8446416128083456
 31
0.0
  0
LINE
  5
91
100
AcDbEntity
100
AcDbLine
  8
0
 62
256
370
-1
  6
ByLayer
 10
-26.2182374577928137
 20
12.8446416128083456
 30
0.0
 11
-26.6093503394944122
 21
13.3414090507920502
 31
0.0
  0
LINE
  5
92
100
AcDbEntity
100
AcDbLine
  8
0
 62
256
370
-1
  6
ByLayer
 10
-26.6093503394944122
 20
13.3414090507920502
 30
0.0
 11
-27.0136750596112059
 21
13.9113698465226854
 31
0.0
  0
LINE
  5
93
100
AcDbEntity
100
AcDbLine
  8
0
 62
256
370
-1
  6
ByLayer
 10
-27.0136750596112059
 20
13.9113698465226854
 30
0.0
 11
-27.424776608532202
 21
14.5569506547936651
 31
0.0
  0
LINE
  5
94
100
AcDbEntity
100
AcDbLine
  8
0
 62
256
370
-1
  6
ByLayer
 10
-27.424776608532202
 20
14.5569506547936651
 30
0.0
 11
-27.8360173347334374
 21
15.2801131993624839
 31
0.0
  0
LINE
  5
95
100
AcDbEntity
100
AcDbLine
  8
0
 62
256
370
-1
  6
ByLayer
 10
-27.8360173347334374
 20
15.2801131993624839
 30
0.0
 11
-28.2405875572049112
 21
16.0823404329524564
 31
0.0
  0
LINE
  5
96
100
AcDbEntity
100
AcDbLine
  8
0
 62
256
370
-1
  6
ByLayer
 10
-28.2405875572049112
 20
16.0823404329524564
 30
0.0
 11
-28.2411883063463414
 21
16.0836961873036728
 31
0.0
  0
LINE
  5
97
100
AcDbEntity
100
AcDbLine
  8
PYDXF
 62
256
370
-1
  6
ByLayer
 10
-20.1211220960169896
 20
17.4350515444999239
 30
0.0
 11
-20.1469840600909258
 21
17.4559935691904862
 31
0.0
  0
LINE
  5
98
100
AcDbEntity
100
AcDbLine
  8
PYDXF
 62
256
370
-1
  6
ByLayer
 10
-20.1469840600909258
 20
17.4559935691904862
 30
0.0
 11
-20.2272822063724647
 21
17.5153086490430674
 31
0.0
  0
LINE
  5
99
100
AcDbEntity
100
AcDbLine
  8
PYDXF
 62
256
370
-1
  6
ByLayer
 10
-20.2272822063724647
 20
17.5153086490430674
 30
0.0
 11
-20.3657833565501569
 21
17.6075085692335556
 31
0.0
  0
LINE
  5
9A
100
AcDbEntity
100
AcDbLine
  8
PYDXF
 62
256
370
-1
  6
ByLayer
 10
-20.3657833565501569
 20
17.6075085692335556
 30
0.0
 11
-20.5658370097025127
 21
17.7268312995968991
 31
0.0
  0
LINE
  5
9B
100
AcDbEntity
100
AcDbLine
  8
PYDXF
 62
256
370
-1
  6
ByLayer
 10
-20.5658370097025127
 20
17.7268312995968991
 30
0.0
 11
-20.8303577336274763
 21
17.8672692232936789
 31
0.0
  0
LINE
  5
9C
100
AcDbEntity
100
AcDbLine
  8
PYDXF
 62
256
370
-1
  6
ByLayer
 10
-20.8303577336274763
 20
17.8672692232936789
 30
0.0
 11
-21.1618093449795737
 21
18.0225984229676364
 31
0.0
  0
LINE
  5
9D
100
AcDbEntity
100
AcDbLine
  8
PYDXF
 62
256
370
-1
  6
ByLayer
 10
-21.1618093449795737
 20
18.0225984229676364
 30
0.0
 11
-21.562190940136567
 21
18.1864089164362923
 31
0.0
  0
LINE
  5
9E
100
AcDbEntity
100
AcDbLine
  8
PYDXF
 62
256
370
-1
  6
ByLayer
 10
-21.562190940136567
 20
18.1864089164362923
 30
0.0
 11
-22.0330248311435497
 21
18.3521357295650489
 31
0.0
  0
LINE
  5
9F
100
AcDbEntity
100
AcDbLine
  8
PYDXF
 62
256
370
-1
  6
ByLayer
 10
-22.0330248311435497
 20
18.3521357295650489
 30
0.0
 11
-22.5753464342880896
 21
18.5130906908212864
 31
0.0
  0
LINE
  5
A0
100
AcDbEntity
100
AcDbLine
  8
PYDXF
 62
256
370
-1
  6
ByLayer
 10
-22.5753464342880896
 20
18.5130906908212864
 30
0.0
 11
-23.189696152965638
 21
18.6624948301034586
 31
0.0
  0
LINE
  5
A1
100
AcDbEntity
100
AcDbLine
  8
PYDXF
 62
256
370
-1
  6
ByLayer
 10
-23.189696152965638
 20
18.6624948301034586
 30
0.0
 11
-23.8761132877242446
 21
18.7935112606654471
 31
0.0
  0
LINE
  5
A2
100
AcDbEntity
100
AcDbLine
  8
PYDXF
 62
256
370
-1
  6
ByLayer
 10
-23.8761132877242446
 20
18.7935112606654471
 30
0.0
 11
-24.6341320018044705
 21
18.89927842304213
 31
0.0
  0
LINE
  5
A3
100
AcDbEntity
100
AcDbLine
  8
PYDXF
 62
256
370
-1
  6
ByLayer
 10
-24.6341320018044705
 20
18.89927842304213
 30
0.0
 11
-25.4627793618080425
 21
18.9729435675330613
 31
0.0
  0
LINE
  5
A4
100
AcDbEntity
100
AcDbLine
  8
PYDXF
 62
256
370
-1
  6
ByLayer
 10
-25.4627793618080425
 20
18.9729435675330613
 30
0.0
 11
-26.3605754652543709
 21
19.0076963495885884
 31
0.0
  0
LINE
  5
A5
100
AcDbEntity
100
AcDbLine
  8
PYDXF
 62
256
370
-1
  6
ByLayer
 10
-26.3605754652543709
 20
19.0076963495885884
 30
0.0
 11
-26.3620582630024813
 21
19.0076796095173783
 31
0.0
  0
LINE
  5
A6
100
AcDbEntity
100
AcDbLine
  8
PYDXF
 62
256
370
-1
  6
ByLayer
 10
-19.7526587791233688
 20
9.0207370073359616
 30
0.0
 11
-24.2180969226617897
 21
11.060034276924819
 31
0.0
  0
LINE
  5
A7
100
AcDbEntity
100
AcDbLine
  8
PYDXF
 62
256
370
-1
  6
ByLayer
 10
-16.4111020071027234
 20
14.2203008376218616
 30
0.0
 11
-20.1211220960169932
 21
17.4350515444999274
 31
0.0
  0
ARC
  5
A8
100
AcDbEntity
  8
0
 62
256
370
-1
  6
CONTINUOUS
100
AcDbCircle
 10
0.0
 20
0.0
 30
0.0
 40
21.7149999999999999
100
AcDbArc
 50
122.7272727272727622
 51
139.0909090909091219
  0
ARC
  5
A9
100
AcDbEntity
  8
0
 62
256
370
-1
  6
CONTINUOUS
100
AcDbCircle
 10
0.0
 20
0.0
 30
0.0
 40
32.5
100
AcDbArc
 50
144.2074874039955432
 51
150.3379671414590462
  0
LINE
  5
AA
100
AcDbEntity
100
AcDbLine
  8
0
 62
256
370
-1
  6
ByLayer
 10
-26.3530655672007548
 20
-3.7889988087897919
 30
0.0
 11
-26.3861441491917823
 21
-3.792634327647427
 31
0.0
  0
LINE
  5
AB
100
AcDbEntity
100
AcDbLine
  8
0
 62
256
370
-1
  6
ByLayer
 10
-26.3861441491917823
 20
-3.792634327647427
 30
0.0
 11
-26.4857634016898693
 21
-3.7991208926777542
 31
0.0
  0
LINE
  5
AC
100
AcDbEntity
100
AcDbLine
  8
0
 62
256
370
-1
  6
ByLayer
 10
-26.4857634016898693
 20
-3.7991208926777542
 30
0.0
 11
-26.6521250237991616
 21
-3.8018050262141254
 31
0.0
  0
LINE
  5
AD
100
AcDbEntity
100
AcDbLine
  8
0
 62
256
370
-1
  6
ByLayer
 10
-26.6521250237991616
 20
-3.8018050262141254
 30
0.0
 11
-26.8849316047540334
 21
-3.7940285241040805
 31
0.0
  0
LINE
  5
AE
100
AcDbEntity
100
AcDbLine
  8
0
 62
256
370
-1
  6
ByLayer
 10
-26.8849316047540334
 20
-3.7940285241040805
 30
0.0
 11
-27.1833870721321631
 21
-3.7691617231407557
 31
0.0
  0
LINE
  5
AF
100
AcDbEntity
100
AcDbLine
  8
0
 62
256
370
-1
  6
ByLayer
 10
-27.1833870721321631
 20
-3.7691617231407557
 30
0.0
 11
-27.5461992166311518
 21
-3.7206366910099384
 31
0.0
  0
LINE
  5
B0
100
AcDbEntity
100
AcDbLine
  8
0
 62
256
370
-1
  6
ByLayer
 10
-27.5461992166311518
 20
-3.7206366910099384
 30
0.0
 11
-27.9715842871342595
 21
-3.641980214455411
 31
0.0
  0
LINE
  5
B1
100
AcDbEntity
100
AcDbLine
  8
0
 62
256
370
-1
  6
ByLayer
 10
-27.9715842871342595
 20
-3.641980214455411
 30
0.0
 11
-28.4572736410447789
 21
-3.5268464617650159
 31
0.0
  0
LINE
  5
B2
100
AcDbEntity
100
AcDbLine
  8
0
 62
256
370
-1
  6
ByLayer
 10
-28.4572736410447789
 20
-3.5268464617650159
 30
0.0
 11
-29.0005224274479012
 21
-3.369049196700642
 31
0.0
  0
LINE
  5
B3
100
AcDbEntity
100
AcDbLine
  8
0
 62
256
370
-1
  6
ByLayer
 10
-29.0005224274479012
 20
-3.369049196700642
 30
0.0
 11
-29.598120274671988
 21
-3.1625934225819243
 31
0.0
  0
LINE
  5
B4
100
AcDbEntity
100
AcDbLine
  8
0
 62
256
370
-1
  6
ByLayer
 10
-29.598120274671988
 20
-3.1625934225819243
 30
0.0
 11
-30.2464039444026724
 21
-2.9017063367997049
 31
0.0
  0
LINE
  5
B5
100
AcDbEntity
100
AcDbLine
  8
0
 62
256
370
-1
  6
ByLayer
 10
-30.2464039444026724
 20
-2.9017063367997049
 30
0.0
 11
-30.941271910702099
 21
-2.5808674785796444
 31
0.0
  0
LINE
  5
B6
100
AcDbEntity
100
AcDbLine
  8
0
 62
256
370
-1
  6
ByLayer
 10
-30.941271910702099
 20
-2.5808674785796444
 30
0.0
 11
-31.6782008137119035
 21
-2.194837955534406
 31
0.0
  0
LINE
  5
B7
100
AcDbEntity
100
AcDbLine
  8
0
 62
256
370
-1
  6
ByLayer
 10
-31.6782008137119035
 20
-2.194837955534406
 30
0.0
 11
-32.4522637299975543
 21
-1.7386886369386274
 31
0.0
  0
LINE
  5
B8
100
AcDbEntity
100
AcDbLine
  8
0
 62
256
370
-1
  6
ByLayer
 10
-32.4522637299975543
 20
-1.7386886369386274
 30
0.0
 11
-32.4535020884758367
 21
-1.737872893307925
 31
0.0
  0
LINE
  5
B9
100
AcDbEntity
100
AcDbLine
  8
PYDXF
 62
256
370
-1
  6
ByLayer
 10
-26.3530655672007512
 20
3.7889988087897986
 30
0.0
 11
-26.3861441491917823
 21
3.7926343276474332
 31
0.0
  0
LINE
  5
BA
100
AcDbEntity
100
AcDbLine
  8
PYDXF
 62
256
370
-1
  6
ByLayer
 10
-26.3861441491917823
 20
3.7926343276474332
 30
0.0
 11
-26.4857634016898693
 21
3.7991208926777609
 31
0.0
  0
LINE
  5
BB
100
AcDbEntity
100
AcDbLine
  8
PYDXF
 62
256
370
-1
  6
ByLayer
 10
-26.4857634016898693
 20
3.7991208926777609
 30
0.0
 11
-26.6521250237991616
 21
3.8018050262141552
 31
0.0
  0
LINE
  5
BC
100
AcDbEntity
100
AcDbLine
  8
PYDXF
 62
256
370
-1
  6
ByLayer
 10
-26.6521250237991616
 20
3.8018050262141552
 30
0.0
 11
-26.8849316047540334
 21
3.7940285241041112
 31
0.0
  0
LINE
  5
BD
100
AcDbEntity
100
AcDbLine
  8
PYDXF
 62
256
370
-1
  6
ByLayer
 10
-26.8849316047540334
 20
3.7940285241041112
 30
0.0
 11
-27.1833870721321667
 21
3.7691617231407633
 31
0.0
  0
LINE
  5
BE
100
AcDbEntity
100
AcDbLine
  8
PYDXF
 62
256
370
-1
  6
ByLayer
 10
-27.1833870721321667
 20
3.7691617231407633
 30
0.0
 11
-27.5461992166311553
 21
3.720636691009946
 31
0.0
  0
LINE
  5
BF
100
AcDbEntity
100
AcDbLine
  8
PYDXF
 62
256
370
-1
  6
ByLayer
 10
-27.5461992166311553
 20
3.720636691009946
 30
0.0
 11
-27.9715842871342595
 21
3.6419802144554176
 31
0.0
  0
LINE
  5
C0
100
AcDbEntity
100
AcDbLine
  8
PYDXF
 62
256
370
-1
  6
ByLayer
 10
-27.9715842871342595
 20
3.6419802144554176
 30
0.0
 11
-28.4572736410447789
 21
3.526846461765023
 31
0.0
  0
LINE
  5
C1
100
AcDbEntity
100
AcDbLine
  8
PYDXF
 62
256
370
-1
  6
ByLayer
 10
-28.4572736410447789
 20
3.526846461765023
 30
0.0
 11
-29.0005224274478977
 21
3.3690491967006495
 31
0.0
  0
LINE
  5
C2
100
AcDbEntity
100
AcDbLine
  8
PYDXF
 62
256
370
-1
  6
ByLayer
 10
-29.0005224274478977
 20
3.3690491967006495
 30
0.0
 11
-29.5981202746719916
 21
3.1625934225819323
 31
0.0
  0
LINE
  5
C3
100
AcDbEntity
100
AcDbLine
  8
PYDXF
 62
256
370
-1
  6
ByLayer
 10
-29.5981202746719916
 20
3.1625934225819323
 30
0.0
 11
-30.2464039444026724
 21
2.9017063367997125
 31
0.0
  0
LINE
  5
C4
100
AcDbEntity
100
AcDbLine
  8
PYDXF
 62
256
370
-1
  6
ByLayer
 10
-30.2464039444026724
 20
2.9017063367997125
 30
0.0
 11
-30.941271910702099
 21
2.5808674785796524
 31
0.0
  0
LINE
  5
C5
100
AcDbEntity
100
AcDbLine
  8
PYDXF
 62
256
370
-1
  6
ByLayer
 10
-30.941271910702099
 20
2.5808674785796524
 30
0.0
 11
-31.6782008137119
 21
2.194837955534414
 31
0.0
  0
LINE
  5
C6
100
AcDbEntity
100
AcDbLine
  8
PYDXF
 62
256
370
-1
  6
ByLayer
 10
-31.6782008137119
 20
2.194837955534414
 30
0.0
 11
-32.4522637299975543
 21
1.7386886369386643
 31
0.0
  0
LINE
  5
C7
100
AcDbEntity
100
AcDbLine
  8
PYDXF
 62
256
370
-1
  6
ByLayer
 10
-32.4522637299975543
 20
1.7386886369386643
 30
0.0
 11
-32.4535020884758367
 21
1.7378728933079619
 31
0.0
  0
LINE
  5
C8
100
AcDbEntity
100
AcDbLine
  8
PYDXF
 62
256
370
-1
  6
ByLayer
 10
-21.4939726104444553
 20
-3.0903667131043822
 30
0.0
 11
-26.3530655672007548
 21
-3.7889988087897919
 31
0.0
  0
LINE
  5
C9
100
AcDbEntity
100
AcDbLine
  8
PYDXF
 62
256
370
-1
  6
ByLayer
 10
-21.4939726104444517
 20
3.0903667131043875
 30
0.0
 11
-26.3530655672007548
 21
3.7889988087897994
 31
0.0
  0
ARC
  5
CA
100
AcDbEntity
  8
0
 62
256
370
-1
  6
CONTINUOUS
100
AcDbCircle
 10
0.0
 20
0.0
 30
0.0
 40
21.7149999999999999
100
AcDbArc
 50
155.4545454545454675
 51
171.818181818181813
  0
ARC
  5
CB
100
AcDbEntity
  8
0
 62
256
370
-1
  6
CONTINUOUS
100
AcDbCircle
 10
0.0
 20
0.0
 30
0.0
 40
32.5
100
AcDbArc
 50
176.9347601312682343
 51
183.0652398687317657
  0
LINE
  5
CC
100
AcDbEntity
100
AcDbLine
  8
0
 62
256
370
-1
  6
ByLayer
 10
-20.1211220960169896
 20
-17.4350515444999274
 30
0.0
 11
-20.1469840600909222
 21
-17.4559935691904897
 31
0.0
  0
LINE
  5
CD
100
AcDbEntity
100
AcDbLine
  8
0
 62
256
370
-1
  6
ByLayer
 10
-20.1469840600909222
 20
-17.4559935691904897
 30
0.0
 11
-20.2272822063724611
 21
-17.5153086490430745
 31
0.0
  0
LINE
  5
CE
100
AcDbEntity
100
AcDbLine
  8
0
 62
256
370
-1
  6
ByLayer
 10
-20.2272822063724611
 20
-17.5153086490430745
 30
0.0
 11
-20.3657833565501676
 21
-17.6075085692335449
 31
0.0
  0
LINE
  5
CF
100
AcDbEntity
100
AcDbLine
  8
0
 62
256
370
-1
  6
ByLayer
 10
-20.3657833565501676
 20
-17.6075085692335449
 30
0.0
 11
-20.5658370097025198
 21
-17.7268312995968813
 31
0.0
  0
LINE
  5
D0
100
AcDbEntity
100
AcDbLine
  8
0
 62
256
370
-1
  6
ByLayer
 10
-20.5658370097025198
 20
-17.7268312995968813
 30
0.0
 11
-20.8303577336274728
 21
-17.8672692232936825
 31
0.0
  0
LINE
  5
D1
100
AcDbEntity
100
AcDbLine
  8
0
 62
256
370
-1
  6
ByLayer
 10
-20.8303577336274728
 20
-17.8672692232936825
 30
0.0
 11
-21.1618093449795666
 21
-18.0225984229676364
 31
0.0
  0
LINE
  5
D2
100
AcDbEntity
100
AcDbLine
  8
0
 62
256
370
-1
  6
ByLayer
 10
-21.1618093449795666
 20
-18.0225984229676364
 30
0.0
 11
-21.5621909401365635
 21
-18.1864089164362959
 31
0.0
  0
LINE
  5
D3
100
AcDbEntity
100
AcDbLine
  8
0
 62
256
370
-1
  6
ByLayer
 10
-21.5621909401365635
 20
-18.1864089164362959
 30
0.0
 11
-22.0330248311435497
 21
-18.3521357295650525
 31
0.0
  0
LINE
  5
D4
100
AcDbEntity
100
AcDbLine
  8
0
 62
256
370
-1
  6
ByLayer
 10
-22.0330248311435497
 20
-18.3521357295650525
 30
0.0
 11
-22.5753464342880861
 21
-18.5130906908212935
 31
0.0
  0
LINE
  5
D5
100
AcDbEntity
100
AcDbLine
  8
0
 62
256
370
-1
  6
ByLayer
 10
-22.5753464342880861
 20
-18.5130906908212935
 30
0.0
 11
-23.1896961529656309
 21
-18.6624948301034621
 31
0.0
  0
LINE
  5
D6
100
AcDbEntity
100
AcDbLine
  8
0
 62
256
370
-1
  6
ByLayer
 10
-23.1896961529656309
 20
-18.6624948301034621
 30
0.0
 11
-23.8761132877242375
 21
-18.7935112606654506
 31
0.0
  0
LINE
  5
D7
100
AcDbEntity
100
AcDbLine
  8
0
 62
256
370
-1
  6
ByLayer
 10
-23.8761132877242375
 20
-18.7935112606654506
 30
0.0
 11
-24.6341320018044669
 21
-18.8992784230421336
 31
0.0
  0
LINE
  5
D8
100
AcDbEntity
100
AcDbLine
  8
0
 62
256
370
-1
  6
ByLayer
 10
-24.6341320018044669
 20
-18.8992784230421336
 30
0.0
 11
-25.4627793618080425
 21
-18.9729435675330684
 31
0.0
  0
LINE
  5
D9
100
AcDbEntity
100
AcDbLine
  8
0
 62
256
370
-1
  6
ByLayer
 10
-25.4627793618080425
 20
-18.9729435675330684
 30
0.0
 11
-26.3605754652543887
 21
-19.0076963495885707
 31
0.0
  0
LINE
  5
DA
100
AcDbEntity
100
AcDbLine
  8
0
 62
256
370
-1
  6
ByLayer
 10
-26.3605754652543887
 20
-19.0076963495885707
 30
0.0
 11
-26.362058263002492
 21
-19.0076796095173606
 31
0.0
  0
LINE
  5
DB
100
AcDbEntity
100
AcDbLine
  8
PYDXF
 62
256
370
-1
  6
ByLayer
 10
-24.2180969226617897
 20
-11.0600342769248225
 30
0.0
 11
-24.2478899065098545
 21
-11.0748595154500649
 31
0.0
  0
LINE
  5
DC
100
AcDbEntity
100
AcDbLine
  8
PYDXF
 62
256
370
-1
  6
ByLayer
 10
-24.2478899065098545
 20
-11.0748595154500649
 30
0.0
 11
-24.3352018564323451
 21
-11.1232609038072443
 31
0.0
  0
LINE
  5
DD
100
AcDbEntity
100
AcDbLine
  8
PYDXF
 62
256
370
-1
  6
ByLayer
 10
-24.3352018564323451
 20
-11.1232609038072443
 30
0.0
 11
-24.4766053109085924
 21
-11.2109447503575677
 31
0.0
  0
LINE
  5
DE
100
AcDbEntity
100
AcDbLine
  8
PYDXF
 62
256
370
-1
  6
ByLayer
 10
-24.4766053109085924
 20
-11.2109447503575677
 30
0.0
 11
-24.668250375145508
 21
-11.3433515004671985
 31
0.0
  0
LINE
  5
DF
100
AcDbEntity
100
AcDbLine
  8
PYDXF
 62
256
370
-1
  6
ByLayer
 10
-24.668250375145508
 20
-11.3433515004671985
 30
0.0
 11
-24.90588308386981
 21
-11.5256279924852301
 31
0.0
  0
LINE
  5
E0
100
AcDbEntity
100
AcDbLine
  8
PYDXF
 62
256
370
-1
  6
ByLayer
 10
-24.90588308386981
 20
-11.5256279924852301
 30
0.0
 11
-25.1848654691453788
 21
-11.7626009015807789
 31
0.0
  0
LINE
  5
E1
100
AcDbEntity
100
AcDbLine
  8
PYDXF
 62
256
370
-1
  6
ByLayer
 10
-25.1848654691453788
 20
-11.7626009015807789
 30
0.0
 11
-25.5001972607371421
 21
-12.0587514726125331
 31
0.0
  0
LINE
  5
E2
100
AcDbEntity
100
AcDbLine
  8
PYDXF
 62
256
370
-1
  6
ByLayer
 10
-25.5001972607371421
 20
-12.0587514726125331
 30
0.0
 11
-25.8465391394015924
 21
-12.4181916381391044
 31
0.0
  0
LINE
  5
E3
100
AcDbEntity
100
AcDbLine
  8
PYDXF
 62
256
370
-1
  6
ByLayer
 10
-25.8465391394015924
 20
-12.4181916381391044
 30
0.0
 11
-26.2182374577928101
 21
-12.8446416128083509
 31
0.0
  0
LINE
  5
E4
100
AcDbEntity
100
AcDbLine
  8
PYDXF
 62
256
370
-1
  6
ByLayer
 10
-26.2182374577928101
 20
-12.8446416128083509
 30
0.0
 11
-26.6093503394944122
 21
-13.3414090507920573
 31
0.0
  0
LINE
  5
E5
100
AcDbEntity
100
AcDbLine
  8
PYDXF
 62
256
370
-1
  6
ByLayer
 10
-26.6093503394944122
 20
-13.3414090507920573
 30
0.0
 11
-27.0136750596112059
 21
-13.9113698465226925
 31
0.0
  0
LINE
  5
E6
100
AcDbEntity
100
AcDbLine
  8
PYDXF
 62
256
370
-1
  6
ByLayer
 10
-27.0136750596112059
 20
-13.9113698465226925
 30
0.0
 11
-27.424776608532202
 21
-14.5569506547936705
 31
0.0
  0
LINE
  5
E7
100
AcDbEntity
100
AcDbLine
  8
PYDXF
 62
256
370
-1
  6
ByLayer
 10
-27.424776608532202
 20
-14.5569506547936705
 30
0.0
 11
-27.8360173347334303
 21
-15.2801131993624875
 31
0.0
  0
LINE
  5
E8
100
AcDbEntity
100
AcDbLine
  8
PYDXF
 62
256
370
-1
  6
ByLayer
 10
-27.8360173347334303
 20
-15.2801131993624875
 30
0.0
 11
-28.2405875572049219
 21
-16.0823404329524386
 31
0.0
  0
LINE
  5
E9
100
AcDbEntity
100
AcDbLine
  8
PYDXF
 62
256
370
-1
  6
ByLayer
 10
-28.2405875572049219
 20
-16.0823404329524386
 30
0.0
 11
-28.241188306346352
 21
-16.0836961873036515
 31
0.0
  0
LINE
  5
EA
100
AcDbEntity
100
AcDbLine
  8
PYDXF
 62
256
370
-1
  6
ByLayer
 10
-16.4111020071027198
 20
-14.2203008376218634
 30
0.0
 11
-20.1211220960169896
 21
-17.4350515444999274
 31
0.0
  0
LINE
  5
EB
100
AcDbEntity
100
AcDbLine
  8
PYDXF
 62
256
370
-1
  6
ByLayer
 10
-19.7526587791233652
 20
-9.0207370073359652
 30
0.0
 11
-24.2180969226617897
 21
-11.0600342769248243
 31
0.0
  0
ARC
  5
EC
100
AcDbEntity
  8
0
 62
256
370
-1
  6
CONTINUOUS
100
AcDbCircle
 10
0.0
 20
0.0
 30
0.0
 40
21.7149999999999999
100
AcDbArc
 50
188.1818181818182154
 51
204.545454545454561
  0
ARC
  5
ED
100
AcDbEntity
  8
0
 62
256
370
-1
  6
CONTINUOUS
100
AcDbCircle
 10
0.0
 20
0.0
 30
0.0
 40
32.5
100
AcDbArc
 50
209.6620328585409823
 51
215.7925125960044852
  0
LINE
  5
EE
100
AcDbEntity
100
AcDbLine
  8
0
 62
256
370
-1
  6
ByLayer
 10
-7.500864528402909
 20
-25.5455986050188173
 30
0.0
 11
-7.5112988836981787
 21
-25.5771981906723305
 31
0.0
  0
LINE
  5
EF
100
AcDbEntity
100
AcDbLine
  8
0
 62
256
370
-1
  6
ByLayer
 10
-7.5112988836981787
 20
-25.5771981906723305
 30
0.0
 11
-7.5467818296783751
 21
-25.6705096665942989
 31
0.0
  0
LINE
  5
F0
100
AcDbEntity
100
AcDbLine
  8
0
 62
256
370
-1
  6
ByLayer
 10
-7.5467818296783751
 20
-25.6705096665942989
 30
0.0
 11
-7.6134493713454354
 21
-25.8229525502319035
 31
0.0
  0
LINE
  5
F1
100
AcDbEntity
100
AcDbLine
  8
0
 62
256
370
-1
  6
ByLayer
 10
-7.6134493713454354
 20
-25.8229525502319035
 30
0.0
 11
-7.717234475330967
 21
-26.0314903892723919
 31
0.0
  0
LINE
  5
F2
100
AcDbEntity
100
AcDbLine
  8
0
 62
256
370
-1
  6
ByLayer
 10
-7.717234475330967
 20
-26.0314903892723919
 30
0.0
 11
-7.8638369949706881
 21
-26.2926449891425307
 31
0.0
  0
LINE
  5
F3
100
AcDbEntity
100
AcDbLine
  8
0
 62
256
370
-1
  6
ByLayer
 10
-7.8638369949706881
 20
-26.2926449891425307
 30
0.0
 11
-8.0586945284967761
 21
-26.6025124972284566
 31
0.0
  0
LINE
  5
F4
100
AcDbEntity
100
AcDbLine
  8
0
 62
256
370
-1
  6
ByLayer
 10
-8.0586945284967761
 20
-26.6025124972284566
 30
0.0
 11
-8.3069543208064829
 21
-26.9567812864736389
 31
0.0
  0
LINE
  5
F5
100
AcDbEntity
100
AcDbLine
  8
0
 62
256
370
-1
  6
ByLayer
 10
-8.3069543208064829
 20
-26.9567812864736389
 30
0.0
 11
-8.613446315268515
 21
-27.3507515732228761
 31
0.0
  0
LINE
  5
F6
100
AcDbEntity
100
AcDbLine
  8
0
 62
256
370
-1
  6
ByLayer
 10
-8.613446315268515
 20
-27.3507515732228761
 30
0.0
 11
-8.982657458017421
 21
-27.7793566978542863
 31
0.0
  0
LINE
  5
F7
100
AcDbEntity
100
AcDbLine
  8
0
 62
256
370
-1
  6
ByLayer
 10
-8.982657458017421
 20
-27.7793566978542863
 30
0.0
 11
-9.4187073532559857
 21
-28.2371859919544583
 31
0.0
  0
LINE
  5
F8
100
AcDbEntity
100
AcDbLine
  8
0
 62
256
370
-1
  6
ByLayer
 10
-9.4187073532559857
 20
-28.2371859919544583
 30
0.0
 11
-9.9253253627483726
 21
-28.7185091478750856
 31
0.0
  0
LINE
  5
F9
100
AcDbEntity
100
AcDbLine
  8
0
 62
256
370
-1
  6
ByLayer
 10
-9.9253253627483726
 20
-28.7185091478750856
 30
0.0
 11
-10.5058292387932237
 21
-29.2173020041089728
 31
0.0
  0
LINE
  5
FA
100
AcDbEntity
100
AcDbLine
  8
0
 62
256
370
-1
  6
ByLayer
 10
-10.5058292387932237
 20
-29.2173020041089728
 30
0.0
 11
-11.1631053739319004
 21
-29.7272736532532491
 31
0.0
  0
LINE
  5
FB
100
AcDbEntity
100
AcDbLine
  8
0
 62
256
370
-1
  6
ByLayer
 10
-11.1631053739319004
 20
-29.7272736532532491
 30
0.0
 11
-11.8995907452188643
 21
-30.2418947732088341
 31
0.0
  0
LINE
  5
FC
100
AcDbEntity
100
AcDbLine
  8
0
 62
256
370
-1
  6
ByLayer
 10
-11.8995907452188643
 20
-30.2418947732088341
 30
0.0
 11
-11.9008472044287146
 21
-30.2426823515514478
 31
0.0
  0
LINE
  5
FD
100
AcDbEntity
100
AcDbLine
  8
PYDXF
 62
256
370
-1
  6
ByLayer
 10
-14.3940536220736188
 20
-22.3975846261837255
 30
0.0
 11
-14.4111019459141261
 21
-22.4261637136102152
 31
0.0
  0
LINE
  5
FE
100
AcDbEntity
100
AcDbLine
  8
PYDXF
 62
256
370
-1
  6
ByLayer
 10
-14.4111019459141261
 20
-22.4261637136102152
 30
0.0
 11
-14.4583856660773904
 21
-22.5140859565393647
 31
0.0
  0
LINE
  5
FF
100
AcDbEntity
100
AcDbLine
  8
PYDXF
 62
256
370
-1
  6
ByLayer
 10
-14.4583856660773904
 20
-22.5140859565393647
 30
0.0
 11
-14.5299363552334437
 21
-22.6642987814411327
 31
0.0
  0
LINE
  5
100
100
AcDbEntity
100
AcDbLine
  8
PYDXF
 62
256
370
-1
  6
ByLayer
 10
-14.5299363552334437
 20
-22.6642987814411327
 30
0.0
 11
-14.6195739489565
 21
-22.8792975719319287
 31
0.0
  0
LINE
  5
101
100
AcDbEntity
100
AcDbLine
  8
PYDXF
 62
256
370
-1
  6
ByLayer
 10
-14.6195739489565
 20
-22.8792975719319287
 30
0.0
 11
-14.7209371930394965
 21
-23.1611122566930696
 31
0.0
  0
LINE
  5
102
100
AcDbEntity
100
AcDbLine
  8
PYDXF
 62
256
370
-1
  6
ByLayer
 10
-14.7209371930394965
 20
-23.1611122566930696
 30
0.0
 11
-14.8275148829619887
 21
-23.5112958184860794
 31
0.0
  0
LINE
  5
103
100
AcDbEntity
100
AcDbLine
  8
PYDXF
 62
256
370
-1
  6
ByLayer
 10
-14.8275148829619887
 20
-23.5112958184860794
 30
0.0
 11
-14.9326777798399952
 21
-23.9309147701924196
 31
0.0
  0
LINE
  5
104
100
AcDbEntity
100
AcDbLine
  8
PYDXF
 62
256
370
-1
  6
ByLayer
 10
-14.9326777798399952
 20
-23.9309147701924196
 30
0.0
 11
-15.0297110839171921
 21
-24.4205416356833318
 31
0.0
  0
LINE
  5
105
100
AcDbEntity
100
AcDbLine
  8
PYDXF
 62
256
370
-1
  6
ByLayer
 10
-15.0297110839171921
 20
-24.4205416356833318
 30
0.0
 11
-15.1118473445021131
 21
-24.980249466151502
 31
0.0
  0
LINE
  5
106
100
AcDbEntity
100
AcDbLine
  8
PYDXF
 62
256
370
-1
  6
ByLayer
 10
-15.1118473445021131
 20
-24.980249466151502
 30
0.0
 11
-15.1722996842125362
 21
-25.6096084164313567
 31
0.0
  0
LINE
  5
107
100
AcDbEntity
100
AcDbLine
  8
PYDXF
 62
256
370
-1
  6
ByLayer
 10
-15.1722996842125362
 20
-25.6096084164313567
 30
0.0
 11
-15.2042952129003126
 21
-26.3076843966164731
 31
0.0
  0
LINE
  5
108
100
AcDbEntity
100
AcDbLine
  8
PYDXF
 62
256
370
-1
  6
ByLayer
 10
-15.2042952129003126
 20
-26.3076843966164731
 30
0.0
 11
-15.2011085073652037
 21
-27.0730398097683498
 31
0.0
  0
LINE
  5
109
100
AcDbEntity
100
AcDbLine
  8
PYDXF
 62
256
370
-1
  6
ByLayer
 10
-15.2011085073652037
 20
-27.0730398097683498
 30
0.0
 11
-15.1560950318770917
 21
-27.903736377582522
 31
0.0
  0
LINE
  5
10A
100
AcDbEntity
100
AcDbLine
  8
PYDXF
 62
256
370
-1
  6
ByLayer
 10
-15.1560950318770917
 20
-27.903736377582522
 30
0.0
 11
-15.0627243734563194
 21
-28.7973400477686319
 31
0.0
  0
LINE
  5
10B
100
AcDbEntity
100
AcDbLine
  8
PYDXF
 62
256
370
-1
  6
ByLayer
 10
-15.0627243734563194
 20
-28.7973400477686319
 30
0.0
 11
-15.0624967796531823
 21
-28.7988053704131524
 31
0.0
  0
LINE
  5
10C
100
AcDbEntity
100
AcDbLine
  8
PYDXF
 62
256
370
-1
  6
ByLayer
 10
-6.1178224718116461
 20
-20.8353899220388108
 30
0.0
 11
-7.500864528402909
 21
-25.5455986050188173
 31
0.0
  0
LINE
  5
10D
100
AcDbEntity
100
AcDbLine
  8
PYDXF
 62
256
370
-1
  6
ByLayer
 10
-11.7400153510482976
 20
-18.2678204654291001
 30
0.0
 11
-14.3940536220736206
 21
-22.397584626183729
 31
0.0
  0
ARC
  5
10E
100
AcDbEntity
  8
0
 62
256
370
-1
  6
CONTINUOUS
100
AcDbCircle
 10
0.0
 20
0.0
 30
0.0
 40
21.7149999999999999
100
AcDbArc
 50
220.9090909090909349
 51
237.2727272727272805
  0
ARC
  5
10F
100
AcDbEntity
  8
0
 62
256
370
-1
  6
CONTINUOUS
100
AcDbCircle
 10
0.0
 20
0.0
 30
0.0
 40
32.5
100
AcDbArc
 50
242.3893055858137018
 51
248.5197853232772331
  0
LINE
  5
110
100
AcDbEntity
100
AcDbLine
  8
0
 62
256
370
-1
  6
ByLayer
 10
7.5008645284028992
 20
-25.5455986050188208
 30
0.0
 11
7.5091706159669123
 21
-25.5778231064622972
 31
0.0
  0
LINE
  5
111
100
AcDbEntity
100
AcDbLine
  8
0
 62
256
370
-1
  6
ByLayer
 10
7.5091706159669123
 20
-25.5778231064622972
 30
0.0
 11
7.5297684549262556
 21
-25.6755052441558114
 31
0.0
  0
LINE
  5
112
100
AcDbEntity
100
AcDbLine
  8
0
 62
256
370
-1
  6
ByLayer
 10
7.5297684549262556
 20
-25.6755052441558114
 30
0.0
 11
7.5561009951987925
 21
-25.8397915527955497
 31
0.0
  0
LINE
  5
113
100
AcDbEntity
100
AcDbLine
  8
0
 62
256
370
-1
  6
ByLayer
 10
7.5561009951987925
 20
-25.8397915527955497
 30
0.0
 11
7.5815354775849864
 21
-26.0713352100757945
 31
0.0
  0
LINE
  5
114
100
AcDbEntity
100
AcDbLine
  8
0
 62
256
370
-1
  6
ByLayer
 10
7.5815354775849864
 20
-26.0713352100757945
 30
0.0
 11
7.5993964263721985
 21
-26.3702917458907322
 31
0.0
  0
LINE
  5
115
100
AcDbEntity
100
AcDbLine
  8
0
 62
256
370
-1
  6
ByLayer
 10
7.5993964263721985
 20
-26.3702917458907322
 30
0.0
 11
7.6029988607691124
 21
-26.7363168179905415
 31
0.0
  0
LINE
  5
116
100
AcDbEntity
100
AcDbLine
  8
0
 62
256
370
-1
  6
ByLayer
 10
7.6029988607691124
 20
-26.7363168179905415
 30
0.0
 11
7.585681601245156
 21
-27.1685660655705483
 31
0.0
  0
LINE
  5
117
100
AcDbEntity
100
AcDbLine
  8
0
 62
256
370
-1
  6
ByLayer
 10
7.585681601245156
 20
-27.1685660655705483
 30
0.0
 11
7.5408405460008181
 21
-27.6656970435584064
 31
0.0
  0
LINE
  5
118
100
AcDbEntity
100
AcDbLine
  8
0
 62
256
370
-1
  6
ByLayer
 10
7.5408405460008181
 20
-27.6656970435584064
 30
0.0
 11
7.46196179274905
 21
-28.2258732328736173
 31
0.0
  0
LINE
  5
119
100
AcDbEntity
100
AcDbLine
  8
0
 62
256
370
-1
  6
ByLayer
 10
7.46196179274905
 20
-28.2258732328736173
 30
0.0
 11
7.3426544817063757
 21
-28.8467701157821956
 31
0.0
  0
LINE
  5
11A
100
AcDbEntity
100
AcDbLine
  8
0
 62
256
370
-1
  6
ByLayer
 10
7.3426544817063757
 20
-28.8467701157821956
 30
0.0
 11
7.1766832359022388
 21
-29.5255832959235676
 31
0.0
  0
LINE
  5
11B
100
AcDbEntity
100
AcDbLine
  8
0
 62
256
370
-1
  6
ByLayer
 10
7.1766832359022388
 20
-29.5255832959235676
 30
0.0
 11
6.9580000768926169
 21
-30.2590386384623145
 31
0.0
  0
LINE
  5
11C
100
AcDbEntity
100
AcDbLine
  8
0
 62
256
370
-1
  6
ByLayer
 10
6.9580000768926169
 20
-30.2590386384623145
 30
0.0
 11
6.6807756954341198
 21
-31.0434043969441085
 31
0.0
  0
LINE
  5
11D
100
AcDbEntity
100
AcDbLine
  8
0
 62
256
370
-1
  6
ByLayer
 10
6.6807756954341198
 20
-31.0434043969441085
 30
0.0
 11
6.3394299579331808
 21
-31.8745052853529565
 31
0.0
  0
LINE
  5
11E
100
AcDbEntity
100
AcDbLine
  8
0
 62
256
370
-1
  6
ByLayer
 10
6.3394299579331808
 20
-31.8745052853529565
 30
0.0
 11
6.338798754182994
 21
-31.8758471315503726
 31
0.0
  0
LINE
  5
11F
100
AcDbEntity
100
AcDbLine
  8
PYDXF
 62
256
370
-1
  6
ByLayer
 10
-0.0000000000000049
 20
-26.6240601103999985
 30
0.0
 11
0.0011090585287093
 21
-26.6573193884000013
 31
0.0
  0
LINE
  5
120
100
AcDbEntity
100
AcDbLine
  8
PYDXF
 62
256
370
-1
  6
ByLayer
 10
0.0011090585287093
 20
-26.6573193884000013
 30
0.0
 11
0.0088658151857067
 21
-26.7568477949999952
 31
0.0
  0
LINE
  5
121
100
AcDbEntity
100
AcDbLine
  8
PYDXF
 62
256
370
-1
  6
ByLayer
 10
0.0088658151857067
 20
-26.7568477949999952
 30
0.0
 11
0.0298847296038767
 21
-26.9218980877000007
 31
0.0
  0
LINE
  5
122
100
AcDbEntity
100
AcDbLine
  8
PYDXF
 62
256
370
-1
  6
ByLayer
 10
0.0298847296038767
 20
-26.9218980877000007
 30
0.0
 11
0.0707139090527802
 21
-27.1512283217000032
 31
0.0
  0
LINE
  5
123
100
AcDbEntity
100
AcDbLine
  8
PYDXF
 62
256
370
-1
  6
ByLayer
 10
0.0707139090527802
 20
-27.1512283217000032
 30
0.0
 11
0.1378022434089842
 21
-27.443107028
 31
0.0
  0
LINE
  5
124
100
AcDbEntity
100
AcDbLine
  8
PYDXF
 62
256
370
-1
  6
ByLayer
 10
0.1378022434089842
 20
-27.443107028
 30
0.0
 11
0.2374669123479856
 21
-27.7953204359000026
 31
0.0
  0
LINE
  5
125
100
AcDbEntity
100
AcDbLine
  8
PYDXF
 62
256
370
-1
  6
ByLayer
 10
0.2374669123479856
 20
-27.7953204359000026
 30
0.0
 11
0.3758613868969813
 21
-28.205181716000002
 31
0.0
  0
LINE
  5
126
100
AcDbEntity
100
AcDbLine
  8
PYDXF
 62
256
370
-1
  6
ByLayer
 10
0.3758613868969813
 20
-28.205181716000002
 30
0.0
 11
0.5589440458469825
 21
-28.6695422111999996
 31
0.0
  0
LINE
  5
127
100
AcDbEntity
100
AcDbLine
  8
PYDXF
 62
256
370
-1
  6
ByLayer
 10
0.5589440458469825
 20
-28.6695422111999996
 30
0.0
 11
0.792447525456987
 21
-29.1848046159999974
 31
0.0
  0
LINE
  5
128
100
AcDbEntity
100
AcDbLine
  8
PYDXF
 62
256
370
-1
  6
ByLayer
 10
0.792447525456987
 20
-29.1848046159999974
 30
0.0
 11
1.0818489184599798
 21
-29.7469380586999996
 31
0.0
  0
LINE
  5
129
100
AcDbEntity
100
AcDbLine
  8
PYDXF
 62
256
370
-1
  6
ByLayer
 10
1.0818489184599798
 20
-29.7469380586999996
 30
0.0
 11
1.4323409354899848
 21
-30.3514950320000025
 31
0.0
  0
LINE
  5
12A
100
AcDbEntity
100
AcDbLine
  8
PYDXF
 62
256
370
-1
  6
ByLayer
 10
1.4323409354899848
 20
-30.3514950320000025
 30
0.0
 11
1.8488041389899865
 21
-30.9936301141000001
 31
0.0
  0
LINE
  5
12B
100
AcDbEntity
100
AcDbLine
  8
PYDXF
 62
256
370
-1
  6
ByLayer
 10
1.8488041389899865
 20
-30.9936301141000001
 30
0.0
 11
2.3357803557499821
 21
-31.6681204142999988
 31
0.0
  0
LINE
  5
12C
100
AcDbEntity
100
AcDbLine
  8
PYDXF
 62
256
370
-1
  6
ByLayer
 10
2.3357803557499821
 20
-31.6681204142999988
 30
0.0
 11
2.8974473707399717
 21
-32.3693876696999965
 31
0.0
  0
LINE
  5
12D
100
AcDbEntity
100
AcDbLine
  8
PYDXF
 62
256
370
-1
  6
ByLayer
 10
2.8974473707399717
 20
-32.3693876696999965
 30
0.0
 11
2.8984310480632804
 21
-32.3704973310516664
 31
0.0
  0
LINE
  5
12E
100
AcDbEntity
100
AcDbLine
  8
PYDXF
 62
256
370
-1
  6
ByLayer
 10
6.1178224718116381
 20
-20.8353899220388143
 30
0.0
 11
7.5008645284028992
 21
-25.5455986050188208
 31
0.0
  0
LINE
  5
12F
100
AcDbEntity
100
AcDbLine
  8
PYDXF
 62
256
370
-1
  6
ByLayer
 10
-0.000000000000004
 20
-21.7149999999999999
 30
0.0
 11
-0.0000000000000049
 21
-26.6240601104000021
 31
0.0
  0
ARC
  5
130
100
AcDbEntity
  8
0
 62
256
370
-1
  6
CONTINUOUS
100
AcDbCircle
 10
0.0
 20
0.0
 30
0.0
 40
21.7149999999999999
100
AcDbArc
 50
253.6363636363636545
 51
270.0
  0
ARC
  5
131
100
AcDbEntity
  8
0
 62
256
370
-1
  6
CONTINUOUS
100
AcDbCircle
 10
0.0
 20
0.0
 30
0.0
 40
32.5
100
AcDbArc
 50
275.1165783130863929
 51
281.2470580505499242
  0
LINE
  5
132
100
AcDbEntity
100
AcDbLine
  8
0
 62
256
370
-1
  6
ByLayer
 10
20.1211220960169719
 20
-17.4350515444999417
 30
0.0
 11
20.1455315023267012
 21
-17.4576699102125268
 31
0.0
  0
LINE
  5
133
100
AcDbEntity
100
AcDbLine
  8
0
 62
256
370
-1
  6
ByLayer
 10
20.1455315023267012
 20
-17.4576699102125268
 30
0.0
 11
20.2156704578933706
 21
-17.5287093211488987
 31
0.0
  0
LINE
  5
134
100
AcDbEntity
100
AcDbLine
  8
0
 62
256
370
-1
  6
ByLayer
 10
20.2156704578933706
 20
-17.5287093211488987
 30
0.0
 11
20.3266426846258135
 21
-17.6526793125892496
 31
0.0
  0
LINE
  5
135
100
AcDbEntity
100
AcDbLine
  8
0
 62
256
370
-1
  6
ByLayer
 10
20.3266426846258135
 20
-17.6526793125892496
 30
0.0
 11
20.4732214849375787
 21
-17.8337153129320711
 31
0.0
  0
LINE
  5
136
100
AcDbEntity
100
AcDbLine
  8
0
 62
256
370
-1
  6
ByLayer
 10
20.4732214849375787
 20
-17.8337153129320711
 30
0.0
 11
20.6498751771112374
 21
-18.0755571968964901
 31
0.0
  0
LINE
  5
137
100
AcDbEntity
100
AcDbLine
  8
0
 62
256
370
-1
  6
ByLayer
 10
20.6498751771112374
 20
-18.0755571968964901
 30
0.0
 11
20.8507938319637169
 21
-18.3815294588280658
 31
0.0
  0
LINE
  5
138
100
AcDbEntity
100
AcDbLine
  8
0
 62
256
370
-1
  6
ByLayer
 10
20.8507938319637169
 20
-18.3815294588280658
 30
0.0
 11
21.0699172127664447
 21
-18.7545230827635088
 31
0.0
  0
LINE
  5
139
100
AcDbEntity
100
AcDbLine
  8
0
 62
256
370
-1
  6
ByLayer
 10
21.0699172127664447
 20
-18.7545230827635088
 30
0.0
 11
21.3009638149481191
 21
-19.1969791790384861
 31
0.0
  0
LINE
  5
13A
100
AcDbEntity
100
AcDbLine
  8
0
 62
256
370
-1
  6
ByLayer
 10
21.3009638149481191
 20
-19.1969791790384861
 30
0.0
 11
21.5374608980203064
 21
-19.7108744509457061
 31
0.0
  0
LINE
  5
13B
100
AcDbEntity
100
AcDbLine
  8
0
 62
256
370
-1
  6
ByLayer
 10
21.5374608980203064
 20
-19.7108744509457061
 30
0.0
 11
21.7727753994443773
 21
-20.2977085493869787
 31
0.0
  0
LINE
  5
13C
100
AcDbEntity
100
AcDbLine
  8
0
 62
256
370
-1
  6
ByLayer
 10
21.7727753994443773
 20
-20.2977085493869787
 30
0.0
 11
22.0001456151745387
 21
-20.9584933653189331
 31
0.0
  0
LINE
  5
13D
100
AcDbEntity
100
AcDbLine
  8
0
 62
256
370
-1
  6
ByLayer
 10
22.0001456151745387
 20
-20.9584933653189331
 30
0.0
 11
22.2127135310443329
 21
-21.6937443052542882
 31
0.0
  0
LINE
  5
13E
100
AcDbEntity
100
AcDbLine
  8
0
 62
256
370
-1
  6
ByLayer
 10
22.2127135310443329
 20
-21.6937443052542882
 30
0.0
 11
22.4035576856051897
 21
-22.5034735868192719
 31
0.0
  0
LINE
  5
13F
100
AcDbEntity
100
AcDbLine
  8
0
 62
256
370
-1
  6
ByLayer
 10
22.4035576856051897
 20
-22.5034735868192719
 30
0.0
 11
22.5657264417130925
 21
-23.3871855838898384
 31
0.0
  0
LINE
  5
140
100
AcDbEntity
100
AcDbLine
  8
0
 62
256
370
-1
  6
ByLayer
 10
22.5657264417130925
 20
-23.3871855838898384
 30
0.0
 11
22.5659208961533864
 21
-23.3886556712554139
 31
0.0
  0
LINE
  5
141
100
AcDbEntity
100
AcDbLine
  8
PYDXF
 62
256
370
-1
  6
ByLayer
 10
14.3940536220736099
 20
-22.3975846261837326
 30
0.0
 11
14.4129679447249135
 21
-22.4249645089910814
 31
0.0
  0
LINE
  5
142
100
AcDbEntity
100
AcDbLine
  8
PYDXF
 62
256
370
-1
  6
ByLayer
 10
14.4129679447249135
 20
-22.4249645089910814
 30
0.0
 11
14.4733024627701994
 21
-22.5044995134005426
 31
0.0
  0
LINE
  5
143
100
AcDbEntity
100
AcDbLine
  8
PYDXF
 62
256
370
-1
  6
ByLayer
 10
14.4733024627701994
 20
-22.5044995134005426
 30
0.0
 11
14.580217623947398
 21
-22.631984972156161
 31
0.0
  0
LINE
  5
144
100
AcDbEntity
100
AcDbLine
  8
PYDXF
 62
256
370
-1
  6
ByLayer
 10
14.580217623947398
 20
-22.631984972156161
 30
0.0
 11
14.7385506005784297
 21
-22.8028359207403639
 31
0.0
  0
LINE
  5
145
100
AcDbEntity
100
AcDbLine
  8
PYDXF
 62
256
370
-1
  6
ByLayer
 10
14.7385506005784297
 20
-22.8028359207403639
 30
0.0
 11
14.9527904412392587
 21
-23.0121092216453604
 31
0.0
  0
LINE
  5
146
100
AcDbEntity
100
AcDbLine
  8
PYDXF
 62
256
370
-1
  6
ByLayer
 10
14.9527904412392587
 20
-23.0121092216453604
 30
0.0
 11
15.2270546408485217
 21
-23.2545272072651237
 31
0.0
  0
LINE
  5
147
100
AcDbEntity
100
AcDbLine
  8
PYDXF
 62
256
370
-1
  6
ByLayer
 10
15.2270546408485217
 20
-23.2545272072651237
 30
0.0
 11
15.5650672190038204
 21
-23.5245027552684647
 31
0.0
  0
LINE
  5
148
100
AcDbEntity
100
AcDbLine
  8
PYDXF
 62
256
370
-1
  6
ByLayer
 10
15.5650672190038204
 20
-23.5245027552684647
 30
0.0
 11
15.9701383903646459
 21
-23.8161657039660248
 31
0.0
  0
LINE
  5
149
100
AcDbEntity
100
AcDbLine
  8
PYDXF
 62
256
370
-1
  6
ByLayer
 10
15.9701383903646459
 20
-23.8161657039660248
 30
0.0
 11
16.4451459052501683
 21
-24.1233905102440254
 31
0.0
  0
LINE
  5
14A
100
AcDbEntity
100
AcDbLine
  8
PYDXF
 62
256
370
-1
  6
ByLayer
 10
16.4451459052501683
 20
-24.1233905102440254
 30
0.0
 11
16.992518133500635
 21
-24.4398250491520415
 31
0.0
  0
LINE
  5
14B
100
AcDbEntity
100
AcDbLine
  8
PYDXF
 62
256
370
-1
  6
ByLayer
 10
16.992518133500635
 20
-24.4398250491520415
 30
0.0
 11
17.6142189572996735
 21
-24.7589204481396195
 31
0.0
  0
LINE
  5
14C
100
AcDbEntity
100
AcDbLine
  8
PYDXF
 62
256
370
-1
  6
ByLayer
 10
17.6142189572996735
 20
-24.7589204481396195
 30
0.0
 11
18.3117345342417011
 21
-25.0739618477306614
 31
0.0
  0
LINE
  5
14D
100
AcDbEntity
100
AcDbLine
  8
PYDXF
 62
256
370
-1
  6
ByLayer
 10
18.3117345342417011
 20
-25.0739618477306614
 30
0.0
 11
19.0860619842617858
 21
-25.3780999757237318
 31
0.0
  0
LINE
  5
14E
100
AcDbEntity
100
AcDbLine
  8
PYDXF
 62
256
370
-1
  6
ByLayer
 10
19.0860619842617858
 20
-25.3780999757237318
 30
0.0
 11
19.9377000471111785
 21
-25.664383417665757
 31
0.0
  0
LINE
  5
14F
100
AcDbEntity
100
AcDbLine
  8
PYDXF
 62
256
370
-1
  6
ByLayer
 10
19.9377000471111785
 20
-25.664383417665757
 30
0.0
 11
19.9391274973548427
 21
-25.6647851080859049
 31
0.0
  0
LINE
  5
150
100
AcDbEntity
100
AcDbLine
  8
PYDXF
 62
256
370
-1
  6
ByLayer
 10
16.4111020071027092
 20
-14.2203008376218758
 30
0.0
 11
20.1211220960169719
 21
-17.4350515444999417
 31
0.0
  0
LINE
  5
151
100
AcDbEntity
100
AcDbLine
  8
PYDXF
 62
256
370
-1
  6
ByLayer
 10
11.7400153510482905
 20
-18.2678204654291036
 30
0.0
 11
14.3940536220736117
 21
-22.3975846261837361
 31
0.0
  0
ARC
  5
152
100
AcDbEntity
  8
0
 62
256
370
-1
  6
CONTINUOUS
100
AcDbCircle
 10
0.0
 20
0.0
 30
0.0
 40
21.7149999999999999
100
AcDbArc
 50
286.363636363636374
 51
302.7272727272726911
  0
ARC
  5
153
100
AcDbEntity
  8
0
 62
256
370
-1
  6
CONTINUOUS
100
AcDbCircle
 10
0.0
 20
0.0
 30
0.0
 40
32.5
100
AcDbArc
 50
307.8438510403591408
 51
313.9743307778226722
  0
LINE
  5
154
100
AcDbEntity
100
AcDbLine
  8
0
 62
256
370
-1
  6
ByLayer
 10
26.3530655672007512
 20
-3.7889988087898026
 30
0.0
 11
26.3858284782214838
 21
-3.7948298674714804
 31
0.0
  0
LINE
  5
155
100
AcDbEntity
100
AcDbLine
  8
0
 62
256
370
-1
  6
ByLayer
 10
26.3858284782214838
 20
-3.7948298674714804
 30
0.0
 11
26.4832399275812342
 21
-3.8166720406189056
 31
0.0
  0
LINE
  5
156
100
AcDbEntity
100
AcDbLine
  8
0
 62
256
370
-1
  6
ByLayer
 10
26.4832399275812342
 20
-3.8166720406189056
 30
0.0
 11
26.6436189428783194
 21
-3.8609661185076538
 31
0.0
  0
LINE
  5
157
100
AcDbEntity
100
AcDbLine
  8
0
 62
256
370
-1
  6
ByLayer
 10
26.6436189428783194
 20
-3.8609661185076538
 30
0.0
 11
26.8648043276929869
 21
-3.9340168109434677
 31
0.0
  0
LINE
  5
158
100
AcDbEntity
100
AcDbLine
  8
0
 62
256
370
-1
  6
ByLayer
 10
26.8648043276929869
 20
-3.9340168109434677
 30
0.0
 11
27.1441644641632713
 21
-4.0419609536717918
 31
0.0
  0
LINE
  5
159
100
AcDbEntity
100
AcDbLine
  8
0
 62
256
370
-1
  6
ByLayer
 10
27.1441644641632713
 20
-4.0419609536717918
 30
0.0
 11
27.4786090861790306
 21
-4.1907363741685515
 31
0.0
  0
LINE
  5
15A
100
AcDbEntity
100
AcDbLine
  8
0
 62
256
370
-1
  6
ByLayer
 10
27.4786090861790306
 20
-4.1907363741685515
 30
0.0
 11
27.8646029821554251
 21
-4.3860515343069055
 31
0.0
  0
LINE
  5
15B
100
AcDbEntity
100
AcDbLine
  8
0
 62
256
370
-1
  6
ByLayer
 10
27.8646029821554251
 20
-4.3860515343069055
 30
0.0
 11
28.2981815780677159
 21
-4.6333560645470815
 31
0.0
  0
LINE
  5
15C
100
AcDbEntity
100
AcDbLine
  8
0
 62
256
370
-1
  6
ByLayer
 10
28.2981815780677159
 20
-4.6333560645470815
 30
0.0
 11
28.7749683445969424
 21
-4.9378123012262867
 31
0.0
  0
LINE
  5
15D
100
AcDbEntity
100
AcDbLine
  8
0
 62
256
370
-1
  6
ByLayer
 10
28.7749683445969424
 20
-4.9378123012262867
 30
0.0
 11
29.2901939669384639
 21
-5.304267935316715
 31
0.0
  0
LINE
  5
15E
100
AcDbEntity
100
AcDbLine
  8
0
 62
256
370
-1
  6
ByLayer
 10
29.2901939669384639
 20
-5.304267935316715
 30
0.0
 11
29.8387172072297417
 21
-5.7372298768632888
 31
0.0
  0
LINE
  5
15F
100
AcDbEntity
100
AcDbLine
  8
0
 62
256
370
-1
  6
ByLayer
 10
29.8387172072297417
 20
-5.7372298768632888
 30
0.0
 11
30.4150473866234172
 21
-6.2408394358006767
 31
0.0
  0
LINE
  5
160
100
AcDbEntity
100
AcDbLine
  8
0
 62
256
370
-1
  6
ByLayer
 10
30.4150473866234172
 20
-6.2408394358006767
 30
0.0
 11
31.013368406570951
 21
-6.8188489148256402
 31
0.0
  0
LINE
  5
161
100
AcDbEntity
100
AcDbLine
  8
0
 62
256
370
-1
  6
ByLayer
 10
31.013368406570951
 20
-6.8188489148256402
 30
0.0
 11
31.6275642220531132
 21
-7.4745997054986208
 31
0.0
  0
LINE
  5
162
100
AcDbEntity
100
AcDbLine
  8
0
 62
256
370
-1
  6
ByLayer
 10
31.6275642220531132
 20
-7.4745997054986208
 30
0.0
 11
31.6285225967730383
 21
-7.4757312916809235
 31
0.0
  0
LINE
  5
163
100
AcDbEntity
100
AcDbLine
  8
PYDXF
 62
256
370
-1
  6
ByLayer
 10
24.2180969226617897
 20
-11.0600342769248208
 30
0.0
 11
24.2488113456361063
 21
-11.0728418452051862
 31
0.0
  0
LINE
  5
164
100
AcDbEntity
100
AcDbLine
  8
PYDXF
 62
256
370
-1
  6
ByLayer
 10
24.2488113456361063
 20
-11.0728418452051862
 30
0.0
 11
24.3425678418936364
 21
-11.1071316454915969
 31
0.0
  0
LINE
  5
165
100
AcDbEntity
100
AcDbLine
  8
PYDXF
 62
256
370
-1
  6
ByLayer
 10
24.3425678418936364
 20
-11.1071316454915969
 30
0.0
 11
24.5014344415825001
 21
-11.1565765379171484
 31
0.0
  0
LINE
  5
166
100
AcDbEntity
100
AcDbLine
  8
PYDXF
 62
256
370
-1
  6
ByLayer
 10
24.5014344415825001
 20
-11.1565765379171484
 30
0.0
 11
24.7270016140426634
 21
-11.2147042320851895
 31
0.0
  0
LINE
  5
167
100
AcDbEntity
100
AcDbLine
  8
PYDXF
 62
256
370
-1
  6
ByLayer
 10
24.7270016140426634
 20
-11.2147042320851895
 30
0.0
 11
25.0203733253446821
 21
-11.2749293332123326
 31
0.0
  0
LINE
  5
168
100
AcDbEntity
100
AcDbLine
  8
PYDXF
 62
256
370
-1
  6
ByLayer
 10
25.0203733253446821
 20
-11.2749293332123326
 30
0.0
 11
25.3821601101064971
 21
-11.3305858989612194
 31
0.0
  0
LINE
  5
169
100
AcDbEntity
100
AcDbLine
  8
PYDXF
 62
256
370
-1
  6
ByLayer
 10
25.3821601101064971
 20
-11.3305858989612194
 30
0.0
 11
25.8124741865865772
 21
-11.3749603859328872
 31
0.0
  0
LINE
  5
16A
100
AcDbEntity
100
AcDbLine
  8
PYDXF
 62
256
370
-1
  6
ByLayer
 10
25.8124741865865772
 20
-11.3749603859328872
 30
0.0
 11
26.3109266355473004
 21
-11.4013248627084565
 31
0.0
  0
LINE
  5
16B
100
AcDbEntity
100
AcDbLine
  8
PYDXF
 62
256
370
-1
  6
ByLayer
 10
26.3109266355473004
 20
-11.4013248627084565
 30
0.0
 11
26.8766266559748672
 21
-11.4029703652179588
 31
0.0
  0
LINE
  5
16C
100
AcDbEntity
100
AcDbLine
  8
PYDXF
 62
256
370
-1
  6
ByLayer
 10
26.8766266559748672
 20
-11.4029703652179588
 30
0.0
 11
27.5081829045506794
 21
-11.373240270050287
 31
0.0
  0
LINE
  5
16D
100
AcDbEntity
100
AcDbLine
  8
PYDXF
 62
256
370
-1
  6
ByLayer
 10
27.5081829045506794
 20
-11.373240270050287
 30
0.0
 11
28.2037069162906242
 21
-11.3055635601672542
 31
0.0
  0
LINE
  5
16E
100
AcDbEntity
100
AcDbLine
  8
PYDXF
 62
256
370
-1
  6
ByLayer
 10
28.2037069162906242
 20
-11.3055635601672542
 30
0.0
 11
28.9608185994051404
 21
-11.1934878588553506
 31
0.0
  0
LINE
  5
16F
100
AcDbEntity
100
AcDbLine
  8
PYDXF
 62
256
370
-1
  6
ByLayer
 10
28.9608185994051404
 20
-11.1934878588553506
 30
0.0
 11
29.7766537884402958
 21
-11.0307121079409907
 31
0.0
  0
LINE
  5
170
100
AcDbEntity
100
AcDbLine
  8
PYDXF
 62
256
370
-1
  6
ByLayer
 10
29.7766537884402958
 20
-11.0307121079409907
 30
0.0
 11
30.6478738315813821
 21
-10.8111187663906172
 31
0.0
  0
LINE
  5
171
100
AcDbEntity
100
AcDbLine
  8
PYDXF
 62
256
370
-1
  6
ByLayer
 10
30.6478738315813821
 20
-10.8111187663906172
 30
0.0
 11
30.6492918493789155
 21
-10.8106849520090602
 31
0.0
  0
LINE
  5
172
100
AcDbEntity
100
AcDbLine
  8
PYDXF
 62
256
370
-1
  6
ByLayer
 10
21.4939726104444517
 20
-3.0903667131043906
 30
0.0
 11
26.3530655672007512
 21
-3.7889988087898026
 31
0.0
  0
LINE
  5
173
100
AcDbEntity
100
AcDbLine
  8
PYDXF
 62
256
370
-1
  6
ByLayer
 10
19.7526587791233652
 20
-9.0207370073359634
 30
0.0
 11
24.2180969226617897
 21
-11.0600342769248225
 31
0.0
  0
ARC
  5
174
100
AcDbEntity
  8
0
 62
256
370
-1
  6
CONTINUOUS
100
AcDbCircle
 10
0.0
 20
0.0
 30
0.0
 40
21.7149999999999999
100
AcDbArc
 50
319.0909090909091219
 51
335.454545454545439
  0
ARC
  5
175
100
AcDbEntity
  8
0
 62
256
370
-1
  6
CONTINUOUS
100
AcDbCircle
 10
0.0
 20
0.0
 30
0.0
 40
32.5
100
AcDbArc
 50
340.5711237676318888
 51
346.7016035050954201
  0
LINE
  5
176
100
AcDbEntity
100
AcDbLine
  8
0
 62
256
370
-1
  6
ByLayer
 10
24.2180969226617933
 20
11.0600342769248101
 30
0.0
 11
24.2488113456361134
 21
11.0728418452051738
 31
0.0
  0
LINE
  5
177
100
AcDbEntity
100
AcDbLine
  8
0
 62
256
370
-1
  6
ByLayer
 10
24.2488113456361134
 20
11.0728418452051738
 30
0.0
 11
24.3425678418936435
 21
11.1071316454915845
 31
0.0
  0
LINE
  5
178
100
AcDbEntity
100
AcDbLine
  8
0
 62
256
370
-1
  6
ByLayer
 10
24.3425678418936435
 20
11.1071316454915845
 30
0.0
 11
24.5014344415825143
 21
11.1565765379171147
 31
0.0
  0
LINE
  5
179
100
AcDbEntity
100
AcDbLine
  8
0
 62
256
370
-1
  6
ByLayer
 10
24.5014344415825143
 20
11.1565765379171147
 30
0.0
 11
24.727001614042674
 21
11.2147042320851558
 31
0.0
  0
LINE
  5
17A
100
AcDbEntity
100
AcDbLine
  8
0
 62
256
370
-1
  6
ByLayer
 10
24.727001614042674
 20
11.2147042320851558
 30
0.0
 11
25.0203733253446856
 21
11.2749293332123184
 31
0.0
  0
LINE
  5
17B
100
AcDbEntity
100
AcDbLine
  8
0
 62
256
370
-1
  6
ByLayer
 10
25.0203733253446856
 20
11.2749293332123184
 30
0.0
 11
25.3821601101065006
 21
11.3305858989612052
 31
0.0
  0
LINE
  5
17C
100
AcDbEntity
100
AcDbLine
  8
0
 62
256
370
-1
  6
ByLayer
 10
25.3821601101065006
 20
11.3305858989612052
 30
0.0
 11
25.8124741865865843
 21
11.3749603859328747
 31
0.0
  0
LINE
  5
17D
100
AcDbEntity
100
AcDbLine
  8
0
 62
256
370
-1
  6
ByLayer
 10
25.8124741865865843
 20
11.3749603859328747
 30
0.0
 11
26.3109266355473075
 21
11.401324862708444
 31
0.0
  0
LINE
  5
17E
100
AcDbEntity
100
AcDbLine
  8
0
 62
256
370
-1
  6
ByLayer
 10
26.3109266355473075
 20
11.401324862708444
 30
0.0
 11
26.8766266559748743
 21
11.4029703652179464
 31
0.0
  0
LINE
  5
17F
100
AcDbEntity
100
AcDbLine
  8
0
 62
256
370
-1
  6
ByLayer
 10
26.8766266559748743
 20
11.4029703652179464
 30
0.0
 11
27.5081829045506794
 21
11.3732402700502728
 31
0.0
  0
LINE
  5
180
100
AcDbEntity
100
AcDbLine
  8
0
 62
256
370
-1
  6
ByLayer
 10
27.5081829045506794
 20
11.3732402700502728
 30
0.0
 11
28.2037069162906278
 21
11.30556356016724
 31
0.0
  0
LINE
  5
181
100
AcDbEntity
100
AcDbLine
  8
0
 62
256
370
-1
  6
ByLayer
 10
28.2037069162906278
 20
11.30556356016724
 30
0.0
 11
28.9608185994051475
 21
11.1934878588553364
 31
0.0
  0
LINE
  5
182
100
AcDbEntity
100
AcDbLine
  8
0
 62
256
370
-1
  6
ByLayer
 10
28.9608185994051475
 20
11.1934878588553364
 30
0.0
 11
29.7766537884403029
 21
11.0307121079409747
 31
0.0
  0
LINE
  5
183
100
AcDbEntity
100
AcDbLine
  8
0
 62
256
370
-1
  6
ByLayer
 10
29.7766537884403029
 20
11.0307121079409747
 30
0.0
 11
30.6478738315813963
 21
10.8111187663905746
 31
0.0
  0
LINE
  5
184
100
AcDbEntity
100
AcDbLine
  8
0
 62
256
370
-1
  6
ByLayer
 10
30.6478738315813963
 20
10.8111187663905746
 30
0.0
 11
30.6492918493789297
 21
10.8106849520090194
 31
0.0
  0
LINE
  5
185
100
AcDbEntity
100
AcDbLine
  8
PYDXF
 62
256
370
-1
  6
ByLayer
 10
26.3530655672007548
 20
3.7889988087897892
 30
0.0
 11
26.3858284782214838
 21
3.794829867471468
 31
0.0
  0
LINE
  5
186
100
AcDbEntity
100
AcDbLine
  8
PYDXF
 62
256
370
-1
  6
ByLayer
 10
26.3858284782214838
 20
3.794829867471468
 30
0.0
 11
26.4832399275812378
 21
3.8166720406188928
 31
0.0
  0
LINE
  5
187
100
AcDbEntity
100
AcDbLine
  8
PYDXF
 62
256
370
-1
  6
ByLayer
 10
26.4832399275812378
 20
3.8166720406188928
 30
0.0
 11
26.6436189428783265
 21
3.8609661185076174
 31
0.0
  0
LINE
  5
188
100
AcDbEntity
100
AcDbLine
  8
PYDXF
 62
256
370
-1
  6
ByLayer
 10
26.6436189428783265
 20
3.8609661185076174
 30
0.0
 11
26.8648043276929975
 21
3.9340168109434313
 31
0.0
  0
LINE
  5
189
100
AcDbEntity
100
AcDbLine
  8
PYDXF
 62
256
370
-1
  6
ByLayer
 10
26.8648043276929975
 20
3.9340168109434313
 30
0.0
 11
27.1441644641632749
 21
4.0419609536717793
 31
0.0
  0
LINE
  5
18A
100
AcDbEntity
100
AcDbLine
  8
PYDXF
 62
256
370
-1
  6
ByLayer
 10
27.1441644641632749
 20
4.0419609536717793
 30
0.0
 11
27.4786090861790342
 21
4.1907363741685382
 31
0.0
  0
LINE
  5
18B
100
AcDbEntity
100
AcDbLine
  8
PYDXF
 62
256
370
-1
  6
ByLayer
 10
27.4786090861790342
 20
4.1907363741685382
 30
0.0
 11
27.8646029821554251
 21
4.3860515343068922
 31
0.0
  0
LINE
  5
18C
100
AcDbEntity
100
AcDbLine
  8
PYDXF
 62
256
370
-1
  6
ByLayer
 10
27.8646029821554251
 20
4.3860515343068922
 30
0.0
 11
28.2981815780677195
 21
4.6333560645470682
 31
0.0
  0
LINE
  5
18D
100
AcDbEntity
100
AcDbLine
  8
PYDXF
 62
256
370
-1
  6
ByLayer
 10
28.2981815780677195
 20
4.6333560645470682
 30
0.0
 11
28.774968344596946
 21
4.9378123012262733
 31
0.0
  0
LINE
  5
18E
100
AcDbEntity
100
AcDbLine
  8
PYDXF
 62
256
370
-1
  6
ByLayer
 10
28.774968344596946
 20
4.9378123012262733
 30
0.0
 11
29.290193966938471
 21
5.3042679353167017
 31
0.0
  0
LINE
  5
18F
100
AcDbEntity
100
AcDbLine
  8
PYDXF
 62
256
370
-1
  6
ByLayer
 10
29.290193966938471
 20
5.3042679353167017
 30
0.0
 11
29.8387172072297489
 21
5.7372298768632746
 31
0.0
  0
LINE
  5
190
100
AcDbEntity
100
AcDbLine
  8
PYDXF
 62
256
370
-1
  6
ByLayer
 10
29.8387172072297489
 20
5.7372298768632746
 30
0.0
 11
30.4150473866234172
 21
6.2408394358006625
 31
0.0
  0
LINE
  5
191
100
AcDbEntity
100
AcDbLine
  8
PYDXF
 62
256
370
-1
  6
ByLayer
 10
30.4150473866234172
 20
6.2408394358006625
 30
0.0
 11
31.013368406570951
 21
6.8188489148256251
 31
0.0
  0
LINE
  5
192
100
AcDbEntity
100
AcDbLine
  8
PYDXF
 62
256
370
-1
  6
ByLayer
 10
31.013368406570951
 20
6.8188489148256251
 30
0.0
 11
31.6275642220531239
 21
7.4745997054985773
 31
0.0
  0
LINE
  5
193
100
AcDbEntity
100
AcDbLine
  8
PYDXF
 62
256
370
-1
  6
ByLayer
 10
31.6275642220531239
 20
7.4745997054985773
 30
0.0
 11
31.628522596773049
 21
7.47573129168088
 31
0.0
  0
LINE
  5
194
100
AcDbEntity
100
AcDbLine
  8
PYDXF
 62
256
370
-1
  6
ByLayer
 10
19.7526587791233688
 20
9.0207370073359545
 30
0.0
 11
24.2180969226617933
 21
11.0600342769248101
 31
0.0
  0
LINE
  5
195
100
AcDbEntity
100
AcDbLine
  8
PYDXF
 62
256
370
-1
  6
ByLayer
 10
21.4939726104444553
 20
3.0903667131043795
 30
0.0
 11
26.3530655672007583
 21
3.7889988087897897
 31
0.0
  0
ARC
  5
196
100
AcDbEntity
  8
0
 62
256
370
-1
  6
CONTINUOUS
100
AcDbCircle
 10
0.0
 20
0.0
 30
0.0
 40
21.7149999999999999
100
AcDbArc
 50
351.818181818181813
 51
8.1818181818181763
  0
ARC
  5
197
100
AcDbEntity
  8
0
 62
256
370
-1
  6
CONTINUOUS
100
AcDbCircle
 10
0.0
 20
0.0
 30
0.0
 40
32.5
100
AcDbArc
 50
13.2983964949045941
 51
19.4288762323681148
  0
LINE
  5
198
100
AcDbEntity
100
AcDbLine
  8
0
 62
256
370
-1
  6
ByLayer
 10
14.3940536220736224
 20
22.3975846261837255
 30
0.0
 11
14.4129679447249242
 21
22.4249645089910707
 31
0.0
  0
LINE
  5
199
100
AcDbEntity
100
AcDbLine
  8
0
 62
256
370
-1
  6
ByLayer
 10
14.4129679447249242
 20
22.4249645089910707
 30
0.0
 11
14.47330246277021
 21
22.5044995134005319
 31
0.0
  0
LINE
  5
19A
100
AcDbEntity
100
AcDbLine
  8
0
 62
256
370
-1
  6
ByLayer
 10
14.47330246277021
 20
22.5044995134005319
 30
0.0
 11
14.5802176239474068
 21
22.6319849721561503
 31
0.0
  0
LINE
  5
19B
100
AcDbEntity
100
AcDbLine
  8
0
 62
256
370
-1
  6
ByLayer
 10
14.5802176239474068
 20
22.6319849721561503
 30
0.0
 11
14.7385506005784368
 21
22.8028359207403568
 31
0.0
  0
LINE
  5
19C
100
AcDbEntity
100
AcDbLine
  8
0
 62
256
370
-1
  6
ByLayer
 10
14.7385506005784368
 20
22.8028359207403568
 30
0.0
 11
14.9527904412392463
 21
23.012109221645364
 31
0.0
  0
LINE
  5
19D
100
AcDbEntity
100
AcDbLine
  8
0
 62
256
370
-1
  6
ByLayer
 10
14.9527904412392463
 20
23.012109221645364
 30
0.0
 11
15.227054640848511
 21
23.2545272072651272
 31
0.0
  0
LINE
  5
19E
100
AcDbEntity
100
AcDbLine
  8
0
 62
256
370
-1
  6
ByLayer
 10
15.227054640848511
 20
23.2545272072651272
 30
0.0
 11
15.5650672190038328
 21
23.5245027552684576
 31
0.0
  0
LINE
  5
19F
100
AcDbEntity
100
AcDbLine
  8
0
 62
256
370
-1
  6
ByLayer
 10
15.5650672190038328
 20
23.5245027552684576
 30
0.0
 11
15.9701383903646601
 21
23.8161657039660177
 31
0.0
  0
LINE
  5
1A0
100
AcDbEntity
100
AcDbLine
  8
0
 62
256
370
-1
  6
ByLayer
 10
15.9701383903646601
 20
23.8161657039660177
 30
0.0
 11
16.4451459052501576
 21
24.1233905102440325
 31
0.0
  0
LINE
  5
1A1
100
AcDbEntity
100
AcDbLine
  8
0
 62
256
370
-1
  6
ByLayer
 10
16.4451459052501576
 20
24.1233905102440325
 30
0.0
 11
16.9925181335006492
 21
24.4398250491520308
 31
0.0
  0
LINE
  5
1A2
100
AcDbEntity
100
AcDbLine
  8
0
 62
256
370
-1
  6
ByLayer
 10
16.9925181335006492
 20
24.4398250491520308
 30
0.0
 11
17.6142189572996593
 21
24.758920448139623
 31
0.0
  0
LINE
  5
1A3
100
AcDbEntity
100
AcDbLine
  8
0
 62
256
370
-1
  6
ByLayer
 10
17.6142189572996593
 20
24.758920448139623
 30
0.0
 11
18.3117345342416904
 21
25.0739618477306685
 31
0.0
  0
LINE
  5
1A4
100
AcDbEntity
100
AcDbLine
  8
0
 62
256
370
-1
  6
ByLayer
 10
18.3117345342416904
 20
25.0739618477306685
 30
0.0
 11
19.0860619842618
 21
25.3780999757237247
 31
0.0
  0
LINE
  5
1A5
100
AcDbEntity
100
AcDbLine
  8
0
 62
256
370
-1
  6
ByLayer
 10
19.0860619842618
 20
25.3780999757237247
 30
0.0
 11
19.9377000471111927
 21
25.6643834176657464
 31
0.0
  0
LINE
  5
1A6
100
AcDbEntity
100
AcDbLine
  8
0
 62
256
370
-1
  6
ByLayer
 10
19.9377000471111927
 20
25.6643834176657464
 30
0.0
 11
19.9391274973548533
 21
25.6647851080858942
 31
0.0
  0
LINE
  5
1A7
100
AcDbEntity
100
AcDbLine
  8
PYDXF
 62
256
370
-1
  6
ByLayer
 10
20.1211220960169825
 20
17.4350515444999346
 30
0.0
 11
20.1455315023267119
 21
17.4576699102125161
 31
0.0
  0
LINE
  5
1A8
100
AcDbEntity
100
AcDbLine
  8
PYDXF
 62
256
370
-1
  6
ByLayer
 10
20.1455315023267119
 20
17.4576699102125161
 30
0.0
 11
20.2156704578933812
 21
17.5287093211488916
 31
0.0
  0
LINE
  5
1A9
100
AcDbEntity
100
AcDbLine
  8
PYDXF
 62
256
370
-1
  6
ByLayer
 10
20.2156704578933812
 20
17.5287093211488916
 30
0.0
 11
20.3266426846258383
 21
17.6526793125892176
 31
0.0
  0
LINE
  5
1AA
100
AcDbEntity
100
AcDbLine
  8
PYDXF
 62
256
370
-1
  6
ByLayer
 10
20.3266426846258383
 20
17.6526793125892176
 30
0.0
 11
20.4732214849376106
 21
17.8337153129320463
 31
0.0
  0
LINE
  5
1AB
100
AcDbEntity
100
AcDbLine
  8
PYDXF
 62
256
370
-1
  6
ByLayer
 10
20.4732214849376106
 20
17.8337153129320463
 30
0.0
 11
20.6498751771112339
 21
18.0755571968965008
 31
0.0
  0
LINE
  5
1AC
100
AcDbEntity
100
AcDbLine
  8
PYDXF
 62
256
370
-1
  6
ByLayer
 10
20.6498751771112339
 20
18.0755571968965008
 30
0.0
 11
20.8507938319637134
 21
18.3815294588280764
 31
0.0
  0
LINE
  5
1AD
100
AcDbEntity
100
AcDbLine
  8
PYDXF
 62
256
370
-1
  6
ByLayer
 10
20.8507938319637134
 20
18.3815294588280764
 30
0.0
 11
21.0699172127664518
 21
18.7545230827634981
 31
0.0
  0
LINE
  5
1AE
100
AcDbEntity
100
AcDbLine
  8
PYDXF
 62
256
370
-1
  6
ByLayer
 10
21.0699172127664518
 20
18.7545230827634981
 30
0.0
 11
21.3009638149481297
 21
19.1969791790384754
 31
0.0
  0
LINE
  5
1AF
100
AcDbEntity
100
AcDbLine
  8
PYDXF
 62
256
370
-1
  6
ByLayer
 10
21.3009638149481297
 20
19.1969791790384754
 30
0.0
 11
21.5374608980202957
 21
19.7108744509457168
 31
0.0
  0
LINE
  5
1B0
100
AcDbEntity
100
AcDbLine
  8
PYDXF
 62
256
370
-1
  6
ByLayer
 10
21.5374608980202957
 20
19.7108744509457168
 30
0.0
 11
21.7727753994443916
 21
20.297708549386968
 31
0.0
  0
LINE
  5
1B1
100
AcDbEntity
100
AcDbLine
  8
PYDXF
 62
256
370
-1
  6
ByLayer
 10
21.7727753994443916
 20
20.297708549386968
 30
0.0
 11
22.0001456151745352
 21
20.9584933653189402
 31
0.0
  0
LINE
  5
1B2
100
AcDbEntity
100
AcDbLine
  8
PYDXF
 62
256
370
-1
  6
ByLayer
 10
22.0001456151745352
 20
20.9584933653189402
 30
0.0
 11
22.2127135310443258
 21
21.6937443052542989
 31
0.0
  0
LINE
  5
1B3
100
AcDbEntity
100
AcDbLine
  8
PYDXF
 62
256
370
-1
  6
ByLayer
 10
22.2127135310443258
 20
21.6937443052542989
 30
0.0
 11
22.4035576856052003
 21
22.5034735868192577
 31
0.0
  0
LINE
  5
1B4
100
AcDbEntity
100
AcDbLine
  8
PYDXF
 62
256
370
-1
  6
ByLayer
 10
22.4035576856052003
 20
22.5034735868192577
 30
0.0
 11
22.5657264417131245
 21
23.3871855838898064
 31
0.0
  0
LINE
  5
1B5
100
AcDbEntity
100
AcDbLine
  8
PYDXF
 62
256
370
-1
  6
ByLayer
 10
22.5657264417131245
 20
23.3871855838898064
 30
0.0
 11
22.5659208961534183
 21
23.3886556712553819
 31
0.0
  0
LINE
  5
1B6
100
AcDbEntity
100
AcDbLine
  8
PYDXF
 62
256
370
-1
  6
ByLayer
 10
11.7400153510483012
 20
18.2678204654291001
 30
0.0
 11
14.3940536220736224
 21
22.3975846261837255
 31
0.0
  0
LINE
  5
1B7
100
AcDbEntity
100
AcDbLine
  8
PYDXF
 62
256
370
-1
  6
ByLayer
 10
16.4111020071027163
 20
14.2203008376218687
 30
0.0
 11
20.1211220960169861
 21
17.4350515444999381
 31
0.0
  0
ARC
  5
1B8
100
AcDbEntity
  8
0
 62
256
370
-1
  6
CONTINUOUS
100
AcDbCircle
 10
0.0
 20
0.0
 30
0.0
 40
21.7149999999999999
100
AcDbArc
 50
24.5454545454545823
 51
40.9090909090909349
  0
ARC
  5
1B9
100
AcDbEntity
  8
0
 62
256
370
-1
  6
CONTINUOUS
100
AcDbCircle
 10
0.0
 20
0.0
 30
0.0
 40
32.5
100
AcDbArc
 50
46.0256692221773562
 51
52.1561489596408734
  0
LINE
  5
1BA
100
AcDbEntity
100
AcDbLine
  8
PYDXF
 62
256
370
-1
  6
ByLayer
 10
0.0
 20
0.0
 30
0.0
 11
10.0
 21
0.0
 31
0.0
  0
ENDSEC
  0
SECTION
  2
OBJECTS
  0
DICTIONARY
  5
C
100
AcDbDictionary
280
0
281
1
  3
ACAD_GROUP
350
D
  3
ACAD_LAYOUT
350
1A
  3
ACAD_MLINESTYLE
350
17
  3
ACAD_PLOTSETTINGS
350
19
  3
ACAD_PLOTSTYLENAME
350
E
  3
AcDbVariableDictionary
350
1BB
  0
DICTIONARY
  5
D
100
AcDbDictionary
280
0
281
1
  0
ACDBDICTIONARYWDFLT
  5
E
100
AcDbDictionary
281
1
  3
Normal
350
F
100
AcDbDictionaryWithDefault
340
F
  0
ACDBPLACEHOLDER
  5
F
  0
DICTIONARY
  5
17
100
AcDbDictionary
280
0
281
1
  3
Standard
350
18
  0
MLINESTYLE
  5
18
100
AcDbMlineStyle
  2
STANDARD
 70
0
  3

 62
256
 51
90.0
 52
90.0
 71
2
 49
0.5
 62
256
  6
BYLAYER
 49
-0.5
 62
256
  6
BYLAYER
  0
DICTIONARY
  5
19
100
AcDbDictionary
280
0
281
1
  0
DICTIONARY
  5
1A
100
AcDbDictionary
281
1
  3
Layout1
350
1E
  3
Layout2
350
26
  3
Model
350
22
  0
LAYOUT
  5
1E
100
AcDbPlotSettings
  1

  2
C:\Program Files\AutoCAD 2002\plotters\DWF ePlot (optimized for plotting).pc3
  4

  6

 40
0.0
 41
0.0
 42
0.0
 43
0.0
 44
0.0
 45
0.0
 46
0.0
 47
0.0
 48
0.0
 49
0.0
140
0.0
141
0.0
142
1.0
143
1.0
 70
688
 72
0
 73
0
 74
5
  7

 75
16
147
1.0
148
0.0
149
0.0
100
AcDbLayout
  1
Layout1
 70
1
 71
1
 10
0.0
 20
0.0
 11
420.0
 21
297.0
 12
0.0
 22
0.0
 32
0.0
 14
100000000000000000000.0
 24
100000000000000000000.0
 34
100000000000000000000.0
 15
-100000000000000000000.0
 25
-100000000000000000000.0
 35
-100000000000000000000.0
146
0.0
 13
0.0
 23
0.0
 33
0.0
 16
1.0
 26
0.0
 36
0.0
 17
0.0
 27
1.0
 37
0.0
 76
0
330
1B
  0
LAYOUT
  5
22
100
AcDbPlotSettings
  1

  2
C:\Program Files\AutoCAD 2002\plotters\DWF ePlot (optimized for plotting).pc3
  4

  6

 40
0.0
 41
0.0
 42
0.0
 43
0.0
 44
0.0
 45
0.0
 46
0.0
 47
0.0
 48
0.0
 49
0.0
140
0.0
141
0.0
142
1.0
143
1.0
 70
1712
 72
0
 73
0
 74
0
  7

 75
0
147
1.0
148
0.0
149
0.0
100
AcDbLayout
  1
Model
 70
1
 71
0
 10
0.0
 20
0.0
 11
12.0
 21
9.0
 12
0.0
 22
0.0
 32
0.0
 14
0.0
 24
0.0
 34
0.0
 15
0.0
 25
0.0
 35
0.0
146
0.0
 13
0.0
 23
0.0
 33
0.0
 16
1.0
 26
0.0
 36
0.0
 17
0.0
 27
1.0
 37
0.0
 76
0
330
1F
  0
LAYOUT
  5
26
100
AcDbPlotSettings
  1

  2
C:\Program Files\AutoCAD 2002\plotters\DWF ePlot (optimized for plotting).pc3
  4

  6

 40
0.0
 41
0.0
 42
0.0
 43
0.0
 44
0.0
 45
0.0
 46
0.0
 47
0.0
 48
0.0
 49
0.0
140
0.0
141
0.0
142
1.0
143
1.0
 70
688
 72
0
 73
0
 74
5
  7

 75
16
147
1.0
148
0.0
149
0.0
100
AcDbLayout
  1
Layout2
 70
1
 71
2
 10
0.0
 20
0.0
 11
12.0
 21
9.0
 12
0.0
 22
0.0
 32
0.0
 14
0.0
 24
0.0
 34
0.0
 15
0.0
 25
0.0
 35
0.0
146
0.0
 13
0.0
 23
0.0
 33
0.0
 16
1.0
 26
0.0
 36
0.0
 17
0.0
 27
1.0
 37
0.0
 76
0
330
23
  0
DICTIONARY
  5
1BB
100
AcDbDictionary
281
1
  3
DIMASSOC
350
1BD
  3
HIDETEXT
350
1BC
  0
DICTIONARYVAR
  5
1BC
100
DictionaryVariables
280
0
  1
2
  0
DICTIONARYVAR
  5
1BD
100
DictionaryVariables
280
0
  1
1
  0
ENDSEC
  0
EOF
