999
dxflib 2.2.0.0
  0
SECTION
  2
HEADER
  9
$ACADVER
  1
AC1015
  9
$HANDSEED
  5
FFFF
  9
$DIMASZ
 40
2.5
  9
$PLIMMIN
 10
0.0
 20
0.0
  9
$DIMEXE
 40
1.25
  9
$DIMGAP
 40
0.625
  9
$PLIMMAX
 10
210.0
 20
297.0
  9
$INSUNITS
 70
4
  9
$DIMSTYLE
  2
Standard
  9
$MEASUREMENT
 70
1
  9
$DIMEXO
 40
0.625
  9
$DIMTXT
 40
2.5
  0
ENDSEC
  0
SECTION
  2
TABLES
  0
TABLE
  2
VPORT
  5
8
100
AcDbSymbolTable
 70
1
  0
VPORT
  5
30
100
AcDbSymbolTableRecord
100
AcDbViewportTableRecord
  2
*Active
 70
0
 10
0.0
 20
0.0
 11
1.0
 21
1.0
 12
286.3055555555554861
 22
148.5
 13
0.0
 23
0.0
 14
10.0
 24
10.0
 15
10.0
 25
10.0
 16
0.0
 26
0.0
 36
1.0
 17
0.0
 27
0.0
 37
0.0
 40
297.0
 41
1.92798353909465
 42
50.0
 43
0.0
 44
0.0
 50
0.0
 51
0.0
 71
0
 72
100
 73
1
 74
3
 75
1
 76
1
 77
0
 78
0
281
0
 65
1
110
0.0
120
0.0
130
0.0
111
1.0
121
0.0
131
0.0
112
0.0
122
1.0
132
0.0
 79
0
146
0.0
  0
ENDTAB
  0
TABLE
  2
LTYPE
  5
5
100
AcDbSymbolTable
 70
21
  0
LTYPE
  5
14
100
AcDbSymbolTableRecord
100
AcDbLinetypeTableRecord
  2
ByBlock
 70
0
  3

 72
65
 73
0
 40
0.0
  0
LTYPE
  5
15
100
AcDbSymbolTableRecord
100
AcDbLinetypeTableRecord
  2
ByLayer
 70
0
  3

 72
65
 73
0
 40
0.0
  0
LTYPE
  5
16
100
AcDbSymbolTableRecord
100
AcDbLinetypeTableRecord
  2
CONTINUOUS
 70
0
  3
Solid line
 72
65
 73
0
 40
0.0
  0
LTYPE
  5
31
100
AcDbSymbolTableRecord
100
AcDbLinetypeTableRecord
  2
DOT
 70
0
  3
Dot . . . . . . . . . . . . . . . . . . . . . .
 72
65
 73
2
 40
6.3499999999999996
 49
0.0
 74
0
 49
-6.3499999999999996
 74
0
  0
LTYPE
  5
32
100
AcDbSymbolTableRecord
100
AcDbLinetypeTableRecord
  2
DOT2
 70
0
  3
Dot (.5x) .....................................
 72
65
 73
2
 40
3.1749999999999998
 49
0.0
 74
0
 49
-3.1749999999999998
 74
0
  0
LTYPE
  5
33
100
AcDbSymbolTableRecord
100
AcDbLinetypeTableRecord
  2
DOTX2
 70
0
  3
Dot (2x) .  .  .  .  .  .  .  .  .  .  .  .  .
 72
65
 73
2
 40
12.6999999999999993
 49
0.0
 74
0
 49
-12.6999999999999993
 74
0
  0
LTYPE
  5
34
100
AcDbSymbolTableRecord
100
AcDbLinetypeTableRecord
  2
DASHED
 70
0
  3
Dashed __ __ __ __ __ __ __ __ __ __ __ __ __ _
 72
65
 73
2
 40
19.0500000000000007
 49
12.6999999999999993
 74
0
 49
-6.3499999999999996
 74
0
  0
LTYPE
  5
35
100
AcDbSymbolTableRecord
100
AcDbLinetypeTableRecord
  2
DASHED2
 70
0
  3
Dashed (.5x) _ _ _ _ _ _ _ _ _ _ _ _ _ _ _ _ _
 72
65
 73
2
 40
9.5250000000000004
 49
6.3499999999999996
 74
0
 49
-3.1749999999999998
 74
0
  0
LTYPE
  5
36
100
AcDbSymbolTableRecord
100
AcDbLinetypeTableRecord
  2
DASHEDX2
 70
0
  3
Dashed (2x) ____  ____  ____  ____  ____  ___
 72
65
 73
2
 40
38.1000000000000014
 49
25.3999999999999986
 74
0
 49
-12.6999999999999993
 74
0
  0
LTYPE
  5
37
100
AcDbSymbolTableRecord
100
AcDbLinetypeTableRecord
  2
DASHDOT
 70
0
  3
Dash dot __ . __ . __ . __ . __ . __ . __ . __
 72
65
 73
4
 40
25.3999999999999986
 49
12.6999999999999993
 74
0
 49
-6.3499999999999996
 74
0
 49
0.0
 74
0
 49
-6.3499999999999996
 74
0
  0
LTYPE
  5
38
100
AcDbSymbolTableRecord
100
AcDbLinetypeTableRecord
  2
DASHDOT2
 70
0
  3
Dash dot (.5x) _._._._._._._._._._._._._._._.
 72
65
 73
4
 40
12.6999999999999993
 49
6.3499999999999996
 74
0
 49
-3.1749999999999998
 74
0
 49
0.0
 74
0
 49
-3.1749999999999998
 74
0
  0
LTYPE
  5
39
100
AcDbSymbolTableRecord
100
AcDbLinetypeTableRecord
  2
DASHDOTX2
 70
0
  3
Dash dot (2x) ____  .  ____  .  ____  .  ___
 72
65
 73
4
 40
50.7999999999999972
 49
25.3999999999999986
 74
0
 49
-12.6999999999999993
 74
0
 49
0.0
 74
0
 49
-12.6999999999999993
 74
0
  0
LTYPE
  5
3A
100
AcDbSymbolTableRecord
100
AcDbLinetypeTableRecord
  2
DIVIDE
 70
0
  3
Divide ____ . . ____ . . ____ . . ____ . . ____
 72
65
 73
6
 40
31.75
 49
12.6999999999999993
 74
0
 49
-6.3499999999999996
 74
0
 49
0.0
 74
0
 49
-6.3499999999999996
 74
0
 49
0.0
 74
0
 49
-6.3499999999999996
 74
0
  0
LTYPE
  5
3B
100
AcDbSymbolTableRecord
100
AcDbLinetypeTableRecord
  2
DIVIDE2
 70
0
  3
Divide (.5x) __..__..__..__..__..__..__..__.._
 72
65
 73
6
 40
15.875
 49
6.3499999999999996
 74
0
 49
-3.1749999999999998
 74
0
 49
0.0
 74
0
 49
-3.1749999999999998
 74
0
 49
0.0
 74
0
 49
-3.1749999999999998
 74
0
  0
LTYPE
  5
3C
100
AcDbSymbolTableRecord
100
AcDbLinetypeTableRecord
  2
DIVIDEX2
 70
0
  3
Divide (2x) ________  .  .  ________  .  .  _
 72
65
 73
6
 40
63.5
 49
25.3999999999999986
 74
0
 49
-12.6999999999999993
 74
0
 49
0.0
 74
0
 49
-12.6999999999999993
 74
0
 49
0.0
 74
0
 49
-12.6999999999999993
 74
0
  0
LTYPE
  5
3D
100
AcDbSymbolTableRecord
100
AcDbLinetypeTableRecord
  2
CENTER
 70
0
  3
Center ____ _ ____ _ ____ _ ____ _ ____ _ ____
 72
65
 73
4
 40
50.7999999999999972
 49
31.75
 74
0
 49
-6.3499999999999996
 74
0
 49
6.3499999999999996
 74
0
 49
-6.3499999999999996
 74
0
  0
LTYPE
  5
3E
100
AcDbSymbolTableRecord
100
AcDbLinetypeTableRecord
  2
CENTER2
 70
0
  3
Center (.5x) ___ _ ___ _ ___ _ ___ _ ___ _ ___
 72
65
 73
4
 40
28.5749999999999993
 49
19.0500000000000007
 74
0
 49
-3.1749999999999998
 74
0
 49
3.1749999999999998
 74
0
 49
-3.1749999999999998
 74
0
  0
LTYPE
  5
3F
100
AcDbSymbolTableRecord
100
AcDbLinetypeTableRecord
  2
CENTERX2
 70
0
  3
Center (2x) ________  __  ________  __  _____
 72
65
 73
4
 40
101.5999999999999943
 49
63.5
 74
0
 49
-12.6999999999999993
 74
0
 49
12.6999999999999993
 74
0
 49
-12.6999999999999993
 74
0
  0
LTYPE
  5
40
100
AcDbSymbolTableRecord
100
AcDbLinetypeTableRecord
  2
BORDER
 70
0
  3
Border __ __ . __ __ . __ __ . __ __ . __ __ .
 72
65
 73
6
 40
44.4500000000000028
 49
12.6999999999999993
 74
0
 49
-6.3499999999999996
 74
0
 49
12.6999999999999993
 74
0
 49
-6.3499999999999996
 74
0
 49
0.0
 74
0
 49
-6.3499999999999996
 74
0
  0
LTYPE
  5
41
100
AcDbSymbolTableRecord
100
AcDbLinetypeTableRecord
  2
BORDER2
 70
0
  3
Border (.5x) __.__.__.__.__.__.__.__.__.__.__.
 72
65
 73
6
 40
22.2250000000000014
 49
6.3499999999999996
 74
0
 49
-3.1749999999999998
 74
0
 49
6.3499999999999996
 74
0
 49
-3.1749999999999998
 74
0
 49
0.0
 74
0
 49
-3.1749999999999998
 74
0
  0
LTYPE
  5
42
100
AcDbSymbolTableRecord
100
AcDbLinetypeTableRecord
  2
BORDERX2
 70
0
  3
Border (2x) ____  ____  .  ____  ____  .  ___
 72
65
 73
6
 40
88.9000000000000057
 49
25.3999999999999986
 74
0
 49
-12.6999999999999993
 74
0
 49
25.3999999999999986
 74
0
 49
-12.6999999999999993
 74
0
 49
0.0
 74
0
 49
-12.6999999999999993
 74
0
  0
ENDTAB
  0
TABLE
  2
LAYER
  5
2
100
AcDbSymbolTable
 70
10
  0
LAYER
  5
10
100
AcDbSymbolTableRecord
100
AcDbLayerTableRecord
  2
0
 70
0
 62
7
  6
CONTINUOUS
290
1
390
F
  0
LAYER
  5
43
100
AcDbSymbolTableRecord
100
AcDbLayerTableRecord
  2
59_teeth
 70
5
 62
7
  6
CONTINUOUS
290
1
370
0
390
F
  0
LAYER
  5
44
100
AcDbSymbolTableRecord
100
AcDbLayerTableRecord
  2
11_teeth
 70
0
 62
7
  6
CONTINUOUS
290
1
370
0
390
F
  0
LAYER
  5
45
100
AcDbSymbolTableRecord
100
AcDbLayerTableRecord
  2
face_plate
 70
5
 62
7
  6
CONTINUOUS
290
1
370
0
390
F
  0
LAYER
  5
46
100
AcDbSymbolTableRecord
100
AcDbLayerTableRecord
  2
rear_plate
 70
5
 62
7
  6
CONTINUOUS
290
1
370
0
390
F
  0
LAYER
  5
47
100
AcDbSymbolTableRecord
100
AcDbLayerTableRecord
  2
bolt_rear_support
 70
5
 62
7
  6
CONTINUOUS
290
1
370
0
390
F
  0
LAYER
  5
48
100
AcDbSymbolTableRecord
100
AcDbLayerTableRecord
  2
bolt_front_support
 70
5
 62
7
  6
CONTINUOUS
290
1
370
0
390
F
  0
LAYER
  5
49
100
AcDbSymbolTableRecord
100
AcDbLayerTableRecord
  2
side_plate
 70
5
 62
7
  6
CONTINUOUS
290
1
370
0
390
F
  0
LAYER
  5
4A
100
AcDbSymbolTableRecord
100
AcDbLayerTableRecord
  2
clamp_base
 70
5
 62
7
  6
CONTINUOUS
290
1
370
0
390
F
  0
LAYER
  5
4B
100
AcDbSymbolTableRecord
100
AcDbLayerTableRecord
  2
clamp_side
 70
5
 62
7
  6
CONTINUOUS
290
1
370
0
390
F
  0
ENDTAB
  0
TABLE
  2
STYLE
  5
3
100
AcDbSymbolTable
 70
1
  0
STYLE
  5
11
100
AcDbSymbolTableRecord
100
AcDbTextStyleTableRecord
  2
Standard
 70
0
 40
0.0
 41
0.75
 50
0.0
 71
0
 42
2.5
  3
txt
  4

  0
ENDTAB
  0
TABLE
  2
VIEW
  5
6
100
AcDbSymbolTable
 70
0
  0
ENDTAB
  0
TABLE
  2
UCS
  5
7
100
AcDbSymbolTable
 70
0
  0
ENDTAB
  0
TABLE
  2
APPID
  5
9
100
AcDbSymbolTable
 70
1
  0
APPID
  5
12
100
AcDbSymbolTableRecord
100
AcDbRegAppTableRecord
  2
ACAD
 70
0
  0
ENDTAB
  0
TABLE
  2
DIMSTYLE
  5
A
100
AcDbSymbolTable
 70
1
100
AcDbDimStyleTable
 71
0
  0
DIMSTYLE
105
27
100
AcDbSymbolTableRecord
100
AcDbDimStyleTableRecord
  2
Standard
 41
2.5
 42
0.625
 43
3.75
 44
1.25
 70
0
 73
0
 74
0
 77
1
 78
8
140
2.5
141
2.5
143
0.03937007874016
147
0.625
171
3
172
1
271
2
272
2
274
3
278
44
283
0
284
8
340
11
  0
ENDTAB
  0
TABLE
  2
BLOCK_RECORD
  5
1
100
AcDbSymbolTable
 70
1
  0
BLOCK_RECORD
  5
1F
100
AcDbSymbolTableRecord
100
AcDbBlockTableRecord
  2
*Model_Space
340
22
  0
BLOCK_RECORD
  5
1B
100
AcDbSymbolTableRecord
100
AcDbBlockTableRecord
  2
*Paper_Space
340
1E
  0
BLOCK_RECORD
  5
23
100
AcDbSymbolTableRecord
100
AcDbBlockTableRecord
  2
*Paper_Space0
340
26
  0
ENDTAB
  0
ENDSEC
  0
SECTION
  2
BLOCKS
  0
BLOCK
  5
20
100
AcDbEntity
  8
0
100
AcDbBlockBegin
  2
*Model_Space
 70
0
 10
0.0
 20
0.0
 30
0.0
  3
*Model_Space
  1

  0
ENDBLK
  5
21
100
AcDbEntity
  8
0
100
AcDbBlockEnd
  0
BLOCK
  5
1C
100
AcDbEntity
 67
1
  8
0
100
AcDbBlockBegin
  2
*Paper_Space
 70
0
 10
0.0
 20
0.0
 30
0.0
  3
*Paper_Space
  1

  0
ENDBLK
  5
1D
100
AcDbEntity
 67
1
  8
0
100
AcDbBlockEnd
  0
BLOCK
  5
24
100
AcDbEntity
  8
0
100
AcDbBlockBegin
  2
*Paper_Space0
 70
0
 10
0.0
 20
0.0
 30
0.0
  3
*Paper_Space0
  1

  0
ENDBLK
  5
25
100
AcDbEntity
  8
0
100
AcDbBlockEnd
  0
ENDSEC
  0
SECTION
  2
ENTITIES
  0
LWPOLYLINE
  5
4C
  8
11_teeth
 62
7
370
-1
  6
ByLayer
100
AcDbEntity
100
AcDbPolyline
 90
89
 70
0
 10
50.6117895900000008
 20
0.8379439612500014
 10
51.6395275649999945
 20
0.9915205162499902
 10
51.8635601099999946
 20
0.9861769912500081
 10
53.1796506824999966
 20
0.4832923837500028
 10
53.1796506824999966
 20
-0.4832923837500028
 10
51.8635601099999946
 20
-0.9861769912500081
 10
51.6395275649999945
 20
-0.9915205162500101
 10
50.6117895900000008
 20
-0.8379439612500014
 10
50.1748084574999993
 20
-2.3266100549999966
 10
51.1223935575000041
 20
-2.7531025912500038
 10
51.3078335100000018
 20
-2.8785765524999918
 10
52.1432045850000065
 20
-4.0133827800000024
 10
51.6205285987499991
 20
-4.826390291250001
 10
50.2415036437500007
 20
-4.5378399412499935
 10
50.0503239600000001
 20
-4.4214703087499991
 10
49.2685858874999951
 20
-3.7365089437499917
 10
48.096177232499997
 20
-4.7525704050000064
 10
48.6627886349999983
 20
-5.6235649799999932
 10
48.7508579212499953
 20
-5.8295880225000065
 10
48.8401144237499949
 20
-7.235726808750008
 10
47.9610056850000035
 20
-7.6372821937499937
 10
46.9568184900000034
 20
-6.6489285225000003
 10
46.8588538650000004
 20
-6.447457293749995
 10
46.5716891849999968
 20
-5.4488120774999951
 10
45.035920830000002
 20
-5.6694800250000057
 10
45.0416598600000029
 20
-6.7086967612499961
 10
45.0044529374999982
 20
-6.9295624612500051
 10
44.3192945212500007
 20
-8.1607498912499921
 10
43.3626057937499993
 20
-8.0232039112500093
 10
43.0520873850000001
 20
-6.6489285225000003
 10
43.0786072574999963
 20
-6.4264794000000025
 10
43.3770529462500036
 20
-5.4310003275000023
 10
41.9657683874999989
 20
-4.7866111837500034
 10
41.4086568187499964
 20
-5.6639387475000049
 10
41.2580486549999961
 20
-5.8295880225000065
 10
40.0159757212500011
 20
-6.4949557612499955
 10
39.285496218750005
 20
-5.8620446774999966
 10
39.7674029324999978
 20
-4.5378399412499935
 10
39.909896932499997
 20
-4.3652637187500005
 10
40.6991552100000007
 20
-3.6890111775000087
 10
39.8602217850000002
 20
-2.3838061087500089
 10
38.9173862512500008
 20
-2.8207872412500028
 10
38.7010723650000017
 20
-2.8785765524999918
 10
37.2965170012500025
 20
-2.7669564862500047
 10
37.0241956800000054
 20
-1.8395575687500003
 10
38.1453457650000018
 20
-0.9861769912500081
 10
38.3586912600000005
 20
-0.9178990837499925
 10
39.3882104099999992
 20
-0.7758005887500037
 10
39.3882104099999992
 20
0.7758005887500037
 10
38.3586912600000005
 20
0.9178990837499925
 10
38.1453457650000018
 20
0.9861769912500081
 10
37.0241956800000054
 20
1.8395582699999986
 10
37.2965170012500025
 20
2.7669564862500047
 10
38.7010723650000017
 20
2.8785765524999918
 10
38.9173862512500008
 20
2.8207872412500028
 10
39.8602217850000002
 20
2.3838061087500089
 10
40.6991552100000007
 20
3.6890111775000087
 10
39.909896932499997
 20
4.365264419999999
 10
39.7674029324999978
 20
4.5378399412499935
 10
39.285496218750005
 20
5.8620446774999966
 10
40.0159757212500011
 20
6.4949557612499955
 10
41.2580486549999961
 20
5.8295880225000065
 10
41.4086568187499964
 20
5.6639387475000049
 10
41.9657683874999989
 20
4.7866111837500034
 10
43.3770529462500036
 20
5.4310003275000023
 10
43.0786072574999963
 20
6.4264794000000025
 10
43.0520873850000001
 20
6.6489285225000003
 10
43.3626057937499993
 20
8.0232039112500093
 10
44.3192945212500007
 20
8.1607498912499921
 10
45.0044529374999982
 20
6.9295624612500051
 10
45.0416598600000029
 20
6.7086967612499961
 10
45.035920830000002
 20
5.6694800250000057
 10
46.5716891849999968
 20
5.4488120774999951
 10
46.8588538650000004
 20
6.4474579949999926
 10
46.9568184900000034
 20
6.6489285225000003
 10
47.9610056850000035
 20
7.6372828949999922
 10
48.8401144237499949
 20
7.235726808750008
 10
48.7508579212499953
 20
5.8295880225000065
 10
48.6627886349999983
 20
5.6235656812499917
 10
48.096177232499997
 20
4.7525711062500049
 10
49.2685858874999951
 20
3.7365096449999897
 10
50.0503239600000001
 20
4.4214703087499991
 10
50.2415036437500007
 20
4.5378399412499935
 10
51.6205285987499991
 20
4.826390291250001
 10
52.1432045850000065
 20
4.0133834812500009
 10
51.3078335100000018
 20
2.8785765524999918
 10
51.1223935575000041
 20
2.7531025912500038
 10
50.1748084574999993
 20
2.3266107562499951
 10
50.6117895900000008
 20
0.8379439612500014
  0
LWPOLYLINE
  5
4D
  8
59_teeth
 62
7
370
-1
  6
ByLayer
100
AcDbEntity
100
AcDbPolyline
 90
473
 70
0
 10
35.8945352287500086
 20
1.1549929359375024
 10
35.9705324962500086
 20
1.1573680696875048
 10
37.1597634374999899
 20
0.9893436609375003
 10
38.427960037499993
 20
0.6137134884375116
 10
38.427960037499993
 20
-0.6137138390625008
 10
37.1597634374999899
 20
-0.9893440115624894
 10
35.9705324962500086
 20
-1.1573677190624958
 10
35.8945352287500086
 20
-1.1549932865624915
 10
35.8139868487499982
 20
-2.6664191503125041
 10
35.8897856625000031
 20
-2.6721581803125041
 10
37.0544763599999953
 20
-2.9654580965624993
 10
38.2755706987499948
 20
-3.4738846828125038
 10
38.1451494187500018
 20
-4.6941880115625052
 10
36.8440999574999921
 20
-4.9330632140624866
 10
35.6437857599999859
 20
-4.9736340328124991
 10
35.5683824512500024
 20
-4.9631454365624927
 10
35.327726073749993
 20
-6.4575512615625064
 10
35.4025354237500025
 20
-6.4712067028124896
 10
36.5294252399999948
 20
-6.8868144365624939
 10
37.689564123750003
 20
-7.5220999528124972
 10
37.4301065325000053
 20
-8.7216224390624877
 10
36.1110475687500028
 20
-8.8209720328125023
 10
34.9131078037500089
 20
-8.7336944578125024
 10
34.8394863712500111
 20
-8.7150909965624948
 10
34.4410964287500008
 20
-10.1754567440624903
 10
34.5141246037500053
 20
-10.1970285965624967
 10
35.5905482625000076
 20
-10.7299961278125071
 10
36.6764710537500065
 20
-11.485016575312498
 10
36.2909462437500068
 20
-12.6503005303124922
 10
34.9689181874999875
 20
-12.6087395465624876
 10
33.7870096987499906
 20
-12.3946030415624904
 10
33.7157626987499981
 20
-12.3684793753124946
 10
33.1643901599999964
 20
-13.7781805115624909
 10
33.2346476962500006
 20
-13.8072725690625049
 10
34.2483340237499903
 20
-14.4516624140625023
 10
35.2479687037500042
 20
-15.3179067215625064
 10
34.7407300349999915
 20
-16.4354951578125004
 10
33.4305769462500066
 20
-16.2538153078124914
 10
32.2781567212499994
 20
-15.9151943053124985
 10
32.2100758650000074
 20
-15.8815497328124984
 10
31.5120537187499892
 20
-17.2247541365625061
 10
31.5787482037499956
 20
-17.2611686465625063
 10
32.5182191399999923
 20
-18.0096583528125045
 10
33.4200876487499983
 20
-18.9772318828125037
 10
32.7970719037499947
 20
-20.0346565753125034
 10
31.5136364399999991
 20
-19.7146383328125019
 10
30.40376666249999
 20
-19.2554913890625059
 10
30.3394466100000066
 20
-19.2147221165624948
 10
29.5026898649999971
 20
-20.4761895215625067
 10
29.5652294437499918
 20
-20.5195316803124967
 10
30.4197972374999956
 20
-21.3636108778124942
 10
31.2136073287499904
 20
-22.4214310753125012
 10
30.4817428574999951
 20
-23.4066186028124932
 10
29.2396699237500073
 20
-22.9520227715625005
 10
28.1848188187500064
 20
-22.3774949578124946
 10
28.1252483324999893
 20
-22.3301949440625016
 10
27.1590597712499999
 20
-23.4954796003124962
 10
27.2166506287499921
 20
-23.5453525003125002
 10
27.976619096249987
 20
-24.4753236028124945
 10
28.653465596249994
 20
-25.6117132528124962
 10
27.8210629124999933
 20
-26.5135817615625022
 10
26.634404857499991
 20
-25.929356361562494
 10
25.6464459899999966
 20
-25.2459784190624958
 10
25.5924174825000001
 20
-25.1927409215624962
 10
24.5078796599999933
 20
-26.2485821915624982
 10
24.5597314875000059
 20
-26.3041941215624924
 10
25.2165895574999936
 20
-27.3099647390624973
 10
25.768951560000005
 20
-28.5116639053124956
 10
24.8453134462499925
 20
-29.3199218503125003
 10
23.7273288037500052
 20
-28.6129931278124943
 10
22.8177423374999933
 20
-27.8284844165624925
 10
22.7696506124999942
 20
-27.7697056415625028
 10
21.579034001250001
 20
-28.7044270115624975
 10
21.6247512937499948
 20
-28.765184714062503
 10
22.1707803074999923
 20
-29.8350769303124963
 10
22.5923248237499941
 20
-31.0888263778125022
 10
21.5879398762499974
 20
-31.7941716778124928
 10
20.5514937787499861
 20
-30.972456044062497
 10
19.7305705575000019
 20
-30.0957224390625022
 10
19.688811821249999
 20
-30.0319956440624978
 10
18.4057718625000035
 20
-30.8349100640624947
 10
18.4445622074999882
 20
-30.9002195803125019
 10
18.8740231349999945
 20
-32.0219643253124957
 10
19.1598028462500025
 20
-33.3135139528124995
 10
18.0861498262499971
 20
-33.9082286503125019
 10
17.1429187875000046
 20
-32.9808297328124951
 10
16.4197617375000071
 20
-32.0219643253124957
 10
16.3851277012499921
 20
-31.9542796753124954
 10
15.0239144962499918
 20
-32.6160850640625029
 10
15.0557778937500046
 20
-32.6851546828124953
 10
15.3633272099999978
 20
-33.8462830303124989
 10
15.5103730237499935
 20
-35.160790180312496
 10
14.3795246512499961
 20
-35.6379473278124976
 10
13.5401957212500026
 20
-34.6157506303125047
 10
12.9231174599999914
 20
-33.5852420165624963
 10
12.895805876250007
 20
-33.5141927690624968
 10
11.4718553399999923
 20
-34.0277651278125006
 10
11.4961985324999976
 20
-34.0998038390624956
 10
11.6786700937500001
 20
-35.2870558528124931
 10
11.6852008349999945
 20
-36.6096771665625056
 10
10.5100208399999904
 20
-36.9639332390625057
 10
9.7840931512499925
 20
-35.8582190690624927
 10
9.280020626249998
 20
-34.7679422165625027
 10
9.2604277012499967
 20
-34.6945185365625051
 10
7.7899688624999923
 20
-35.0537219278124965
 10
7.806593396249994
 20
-35.1279373190625037
 10
7.8618098212500014
 20
-36.3278560115624956
 10
7.7276277374999953
 20
-37.6437481303124954
 10
6.5215745099999909
 20
-37.8711445715625032
 10
5.9173599787499889
 20
-36.6945796078124999
 10
5.5318351687499883
 20
-35.5570027415624992
 10
5.520157953749993
 20
-35.4817978865625037
 10
4.0200130987499998
 20
-35.6826744553124939
 10
4.0285234687499978
 20
-35.7582755165624988
 10
3.9558907987499956
 20
-36.9572040440625003
 10
3.6825793124999993
 20
-38.2513265578124972
 10
2.4591098399999991
 20
-38.3492911828125003
 10
1.9833383625000021
 20
-37.1151353615624942
 10
1.7211101325000058
 20
-35.942923757812494
 10
1.7175477824999912
 20
-35.8669271915624961
 10
0.204340743749991
 20
-35.9073002578125013
 10
0.204736248749989
 20
-35.9832975253125014
 10
0.0052446487500075
 20
-37.1677789003124985
 10
-0.4042278487500005
 20
-38.4254862028125004
 10
-1.6310612174999977
 20
-38.3928310940625082
 10
-1.972849065000007
 20
-37.1151353615624942
 10
-2.1090100762499984
 20
-35.9217481115625006
 10
-2.1046560149999998
 20
-35.8457508440624935
 10
-3.6135089925000008
 20
-35.7250271503124992
 10
-3.6212276512500057
 20
-35.800628211562497
 10
-3.9454015012500006
 20
-36.9572040440625003
 10
-4.486284742500005
 20
-38.1642474365624977
 10
-5.7026295150000053
 20
-38.0013688003124912
 10
-5.9068706812500036
 20
-36.6945796078124999
 10
-5.9153810512500025
 20
-35.4934744003125004
 10
-5.9029128262500015
 20
-35.4184665965624959
 10
-7.3903917037500042
 20
-35.1380311115624977
 10
-7.4060267737500025
 20
-35.2124442553124979
 10
-7.8513205237500063
 20
-36.3278560115624956
 10
-8.5174799737499995
 20
-37.470578650312504
 10
-9.7096793062500026
 20
-37.1794554140625024
 10
-9.7736038537500072
 20
-35.8582190690624927
 10
-9.6544628812500051
 20
-34.6630506440624941
 10
-9.6340789462499981
 20
-34.5898247165624966
 10
-11.0833614375000042
 20
-34.1528428828125001
 10
-11.1069122175000068
 20
-34.2250793465625023
 10
-11.6681807962500041
 20
-35.2870558528124931
 10
-12.4518977962500017
 20
-36.3523962553124989
 10
-13.6064947012500035
 20
-35.9361952640624978
 10
-13.5297064237499978
 20
-34.6157506303125047
 10
-13.2842997787500039
 20
-33.4399773778125038
 10
-13.2561971850000031
 20
-33.3693243365625065
 10
-14.6508572100000052
 20
-32.7807448753125001
 10
-14.6817304425000081
 20
-32.8500122465624997
 10
-15.3528379125000072
 20
-33.8462830303124989
 10
-16.2454043400000074
 20
-34.8223669303124979
 10
-17.3491388812499991
 20
-34.2856392965625005
 10
-17.1324294899999998
 20
-32.9808297328124951
 10
-16.7635285125000024
 20
-31.8379093415624936
 10
-16.7279050125000097
 20
-31.7706201965625006
 10
-18.0521097487499986
 20
-31.0371723028124968
 10
-18.0903061350000023
 20
-31.1028780253125028
 10
-18.8635338375000039
 20
-32.0219643253124957
 10
-19.854856601249999
 20
-32.8977084665624986
 10
-20.8952605537500027
 20
-32.2467878803124961
 10
-20.5410044812500026
 20
-30.972456044062497
 10
-20.0525670262500064
 20
-29.8750544915624978
 10
-20.0102143312500083
 20
-29.8119216553125028
 10
-21.2489226675000005
 20
-28.9419165440624937
 10
-21.2938482487500025
 20
-29.0032682053124979
 10
-22.1602910100000052
 20
-29.8350769303124963
 10
-23.2390891012500092
 20
-30.6003882215624969
 10
-24.2044859512500032
 20
-29.8425978365625042
 10
-23.7168395062500004
 20
-28.6129931278124943
 10
-23.1144068512500027
 20
-27.5737763915624967
 10
-23.0657211675000013
 20
-27.5155915753124951
 10
-24.2048814562500034
 20
-26.5187268328125008
 10
-24.2561400262500051
 20
-26.5749327215625009
 10
-25.206100260000003
 20
-27.3099647390624973
 10
-26.3601032062500025
 20
-27.9563335115624945
 10
-27.2394103987500031
 20
-27.100181594062505
 10
-26.6239155600000075
 20
-25.929356361562494
 10
-25.9144139512500047
 20
-24.9601987078125021
 10
-25.8595930312500037
 20
-24.9073574165624976
 10
-26.8863415425000021
 20
-23.7951125053124919
 10
-26.9433391425000117
 20
-23.8455793640624947
 10
-27.9661297987500035
 20
-24.4753236028124945
 10
-29.1822761175000096
 20
-24.9954267028124981
 10
-29.9655976125000052
 20
-24.0506122415624972
 10
-29.2291806262500025
 20
-22.9520227715625005
 10
-28.4207249287500048
 20
-22.0636126528124983
 10
-28.3605611849999981
 20
-22.0171043503124935
 10
-29.263418456250001
 20
-20.8019467940624949
 10
-29.325364076249997
 20
-20.8460806640624945
 10
-30.409307940000005
 20
-21.3636108778124942
 10
-31.6737444374999981
 20
-21.7515108215624977
 10
-32.3521743600000065
 20
-20.7287208665624973
 10
-31.5031471425000049
 20
-19.7146383328125019
 10
-30.6048416850000002
 20
-18.9170681390624935
 10
-30.5401254262500004
 20
-18.8770905778124956
 10
-31.3086035625000072
 20
-17.5730727253125067
 10
-31.3749025425000063
 20
-17.6102789465625058
 10
-32.5077298425000052
 20
-18.0096583528125045
 10
-33.8064048712500096
 20
-18.2610017803124975
 10
-34.3722245625000014
 20
-17.1719121440625031
 10
-33.4200876487499983
 20
-16.2538153078124914
 10
-32.4422225737500085
 20
-15.5563864190624894
 10
-32.3737462125000022
 20
-15.5235335578125042
 10
-32.999136390000011
 20
-14.1451025615625028
 10
-33.0689984212500079
 20
-14.1749863303124908
 10
-34.2378447262500032
 20
-14.4516624140625023
 10
-35.5557164737500102
 20
-14.5634802328124877
 10
-36.0027913987500128
 20
-13.4205598415624952
 10
-34.9584288900000004
 20
-12.6087395465624876
 10
-33.9118897012500042
 20
-12.0191706215625
 10
-33.8402471962500044
 20
-11.9938386665624996
 10
-34.3156224675000061
 20
-10.5568259465624994
 10
-34.3884528900000106
 20
-10.5791902115624978
 10
-35.5800589649999992
 20
-10.7299961278125071
 10
-36.9022847737499973
 20
-10.7011011215624929
 10
-37.2252707062500079
 20
-9.5170159528124927
 10
-36.1005582712500015
 20
-8.8209720328125023
 10
-34.997416987500003
 20
-8.345992266562499
 10
-34.923399348750003
 20
-8.3283782690625046
 10
-35.2434168900000131
 20
-6.8488158028125046
 10
-35.3180284875000083
 20
-6.8634607078125009
 10
-36.5189359425000077
 20
-6.8868144365624939
 10
-37.8306724537499974
 20
-6.7174043578124998
 10
-38.0260084462500032
 20
-5.5058098528124946
 10
-36.8336106600000051
 20
-4.9330632140624866
 10
-35.6861377537500033
 20
-4.5782131828124912
 10
-35.6107351462500006
 20
-4.5685155965625004
 10
-35.77163415375
 20
-3.0634227215625027
 10
-35.847432967500005
 20
-3.0699541640624952
 10
-37.0439870625000083
 20
-2.9654580965624993
 10
-38.3303909175000044
 20
-2.6577110278125065
 10
-38.395701135000003
 20
-1.4322626278125006
 10
-37.1492741400000028
 20
-0.9893440115624894
 10
-35.9705324962500086
 20
-0.7583845190624929
 10
-35.8945352287500086
 20
-0.7568010965625045
 10
-35.8945352287500086
 20
0.7568014471874936
 10
-35.9705324962500086
 20
0.758384869687502
 10
-37.1492741400000028
 20
0.9893436609375003
 10
-38.395701135000003
 20
1.4322629784375096
 10
-38.3303909175000044
 20
2.6577113784374959
 10
-37.0439870625000083
 20
2.9654584471875083
 10
-35.847432967500005
 20
3.0699538134375057
 10
-35.77163415375
 20
3.0634230721875118
 10
-35.6107351462500006
 20
4.5685159471875094
 10
-35.6861377537500033
 20
4.5782135334375003
 10
-36.8336106600000051
 20
4.933062863437498
 10
-38.0260084462500032
 20
5.5058102034375036
 10
-37.8306724537499974
 20
6.7174047084375088
 10
-36.5189359425000077
 20
6.8868140859375044
 10
-35.3180284875000083
 20
6.8634610584375109
 10
-35.2434168900000131
 20
6.8488161534374941
 10
-34.923399348750003
 20
8.3283786196875127
 10
-34.997416987500003
 20
8.3459926171875072
 10
-36.1005582712500015
 20
8.8209723834375104
 10
-37.2252707062500079
 20
9.5170163034375008
 10
-36.9022847737499973
 20
10.7011014721875028
 10
-35.5800589649999992
 20
10.7299964784374957
 10
-34.3884528900000106
 20
10.5791898609375092
 10
-34.3156224675000061
 20
10.5568262971875075
 10
-33.8402471962500044
 20
11.9938390171875096
 10
-33.9118897012500042
 20
12.01917097218751
 10
-34.9584288900000004
 20
12.6087398971874975
 10
-36.0027913987500128
 20
13.4205601921875033
 10
-35.5557164737500102
 20
14.5634805834374976
 10
-34.2378447262500032
 20
14.4516620634375137
 10
-33.0689984212500079
 20
14.1749866809374989
 10
-32.999136390000011
 20
14.1451022109375124
 10
-32.3737462125000022
 20
15.5235339084375088
 10
-32.4422225737500085
 20
15.5563867696874958
 10
-33.4200876487499983
 20
16.253815658437496
 10
-34.3722245625000014
 20
17.1719124946875077
 10
-33.8064048712500096
 20
18.2610021309375021
 10
-32.5077298425000052
 20
18.0096587034375091
 10
-31.3749025425000063
 20
17.6102792971875104
 10
-31.3086035625000072
 20
17.5730723746874951
 10
-30.5401254262500004
 20
18.8770909284375037
 10
-30.6048416850000002
 20
18.9170677884374996
 10
-31.5031471425000049
 20
19.7146386834375065
 10
-32.3521743600000065
 20
20.7287212171874948
 10
-31.6737444374999981
 20
21.7515111721875023
 10
-30.409307940000005
 20
21.3636112284375024
 10
-29.325364076249997
 20
20.8460803134375041
 10
-29.263418456250001
 20
20.8019471446874959
 10
-28.3605611849999981
 20
22.017103999687496
 10
-28.4207249287500048
 20
22.0636130034375029
 10
-29.2291806262500025
 20
22.9520231221875086
 10
-29.9655976125000052
 20
24.0506125921874947
 10
-29.1822761175000096
 20
24.9954270534374956
 10
-27.9661297987500035
 20
24.4753239534374956
 10
-26.9433391425000117
 20
23.8455790134374936
 10
-26.8863415425000021
 20
23.7951128559375107
 10
-25.8595930312500037
 20
24.9073577671875022
 10
-25.9144139512500047
 20
24.9601990584375066
 10
-26.6239155600000075
 20
25.9293560109374965
 10
-27.2394103987500031
 20
27.1001819446875096
 10
-26.3601032062500025
 20
27.9563331609375041
 10
-25.206100260000003
 20
27.3099643884374998
 10
-24.2561400262500051
 20
26.5749330721875054
 10
-24.2048814562500034
 20
26.5187271834375053
 10
-23.0657211675000013
 20
27.5155912246874976
 10
-23.1144068512500027
 20
27.5737767421875013
 10
-23.7168395062500004
 20
28.6129934784375131
 10
-24.2044859512500032
 20
29.8425974859375103
 10
-23.2390891012500092
 20
30.6003885721875015
 10
-22.1602910100000052
 20
29.8350772809375044
 10
-21.2938482487500025
 20
29.003268555937499
 10
-21.2489226675000005
 20
28.9419168946874947
 10
-20.0102143312500083
 20
29.8119220059375074
 10
-20.0525670262500064
 20
29.8750548421874988
 10
-20.5410044812500026
 20
30.9724563946874945
 10
-20.8952605537500027
 20
32.2467882309374971
 10
-19.854856601249999
 20
32.8977088171875067
 10
-18.8635338375000039
 20
32.021963974687516
 10
-18.0903061350000023
 20
31.1028776746875089
 10
-18.0521097487499986
 20
31.0371726534374943
 10
-16.7279050125000097
 20
31.7706205471875016
 10
-16.7635285125000024
 20
31.8379096921875018
 10
-17.1324294899999998
 20
32.9808300834374961
 10
-17.3491388812499991
 20
34.2856396471874945
 10
-16.2454043400000074
 20
34.8223672809374989
 10
-15.3528379125000072
 20
33.8462833809374999
 10
-14.6817304425000081
 20
32.8500125971875079
 10
-14.6508572100000052
 20
32.7807445246874991
 10
-13.2561971850000031
 20
33.3693239859375126
 10
-13.2842997787500039
 20
33.4399777284375119
 10
-13.5297064237499978
 20
34.6157509809375057
 10
-13.6064947012500035
 20
35.9361949134375038
 10
-12.4518977962500017
 20
36.3523966059374999
 10
-11.6681807962500041
 20
35.2870562034374942
 10
-11.1069122175000068
 20
34.2250796971875104
 10
-11.0833614375000042
 20
34.1528432334375012
 10
-9.6340789462499981
 20
34.5898250671875118
 10
-9.6544628812500051
 20
34.6630509946875094
 10
-9.7736038537500072
 20
35.8582194196874937
 10
-9.7096793062500026
 20
37.1794550634375014
 10
-8.5174799737499995
 20
37.4705782996875101
 10
-7.8513205237500063
 20
36.3278556609374945
 10
-7.4060267737500025
 20
35.212444605937506
 10
-7.3903917037500042
 20
35.1380307609374967
 10
-5.9029128262500015
 20
35.418466947187504
 10
-5.9153810512500025
 20
35.4934740496875065
 10
-5.9068706812500036
 20
36.6945799584375081
 10
-5.7026295150000053
 20
38.0013684496874973
 10
-4.486284742500005
 20
38.1642470859374967
 10
-3.9454015012500006
 20
36.9572043946875013
 10
-3.6212276512500057
 20
35.800627860937503
 10
-3.6135089925000008
 20
35.7250267996875053
 10
-2.1046560149999998
 20
35.8457511946875016
 10
-2.1090100762499984
 20
35.9217477609374995
 10
-1.972849065000007
 20
37.1151350109375002
 10
-1.6310612174999977
 20
38.3928314446875092
 10
-0.4042278487500005
 20
38.4254865534375014
 10
0.0052446487500075
 20
37.1677785496875046
 10
0.204736248749989
 20
35.9832971746875074
 10
0.204340743749991
 20
35.9073006084375024
 10
1.7175477824999912
 20
35.8669275421875113
 10
1.7211101325000058
 20
35.9429241084375093
 10
1.9833383625000021
 20
37.1151350109375002
 10
2.4591098399999991
 20
38.3492915334375013
 10
3.6825793124999993
 20
38.2513269084374983
 10
3.9558907987499956
 20
36.9572043946875013
 10
4.0285234687499978
 20
35.7582758671875069
 10
4.0200130987499998
 20
35.6826748059375021
 10
5.520157953749993
 20
35.4817975359375097
 10
5.5318351687499883
 20
35.5570030921874931
 10
5.9173599787499889
 20
36.6945799584375081
 10
6.5215745099999909
 20
37.8711449221875043
 10
7.7276277374999953
 20
37.6437484809374965
 10
7.8618098212500014
 20
36.3278556609374945
 10
7.806593396249994
 20
35.1279376696875048
 10
7.7899688624999923
 20
35.0537222784374976
 10
9.2604277012499967
 20
34.6945181859375111
 10
9.280020626249998
 20
34.7679425671875038
 10
9.7840931512499925
 20
35.8582194196874937
 10
10.5100208399999904
 20
36.9639328884375118
 10
11.6852008349999945
 20
36.6096775171875066
 10
11.6786700937500001
 20
35.2870562034374942
 10
11.4961985324999976
 20
34.0998034884375016
 10
11.4718553399999923
 20
34.0277654784375088
 10
12.895805876250007
 20
33.5141931196875049
 10
12.9231174599999914
 20
33.5852423671874973
 10
13.5401957212500026
 20
34.6157509809375057
 10
14.3795246512499961
 20
35.6379476784374987
 10
15.5103730237499935
 20
35.1607905309375113
 10
15.3633272099999978
 20
33.8462833809374999
 10
15.0557778937500046
 20
32.6851550334374963
 10
15.0239144962499918
 20
32.6160847134375089
 10
16.3851277012499921
 20
31.9542793246874943
 10
16.4197617375000071
 20
32.021963974687516
 10
17.1429187875000046
 20
32.9808300834374961
 10
18.0861498262499971
 20
33.9082282996875009
 10
19.1598028462500025
 20
33.3135143034375076
 10
18.8740231349999945
 20
32.021963974687516
 10
18.4445622074999882
 20
30.9002199309375101
 10
18.4057718625000035
 20
30.8349097134374937
 10
19.688811821249999
 20
30.0319959946875024
 10
19.7305705575000019
 20
30.0957220884375118
 10
20.5514937787499861
 20
30.9724563946874945
 10
21.5879398762499974
 20
31.7941720284375116
 10
22.5923248237499941
 20
31.0888267284375068
 10
22.1707803074999923
 20
29.8350772809375044
 10
21.6247512937499948
 20
28.7651843634375126
 10
21.579034001250001
 20
28.7044266609375036
 10
22.7696506124999942
 20
27.7697059921875073
 10
22.8177423374999933
 20
27.8284847671875113
 10
23.7273288037500052
 20
28.6129934784375131
 10
24.8453134462499925
 20
29.3199214996875064
 10
25.768951560000005
 20
28.5116642559375144
 10
25.2165895574999936
 20
27.3099643884374998
 10
24.5597314875000059
 20
26.3041944721875112
 10
24.5078796599999933
 20
26.2485825421875063
 10
25.5924174825000001
 20
25.1927412721874937
 10
25.6464459899999966
 20
25.2459787696874933
 10
26.634404857499991
 20
25.9293560109374965
 10
27.8210629124999933
 20
26.5135814109375012
 10
28.653465596249994
 20
25.6117136034374937
 10
27.976619096249987
 20
24.4753239534374956
 10
27.2166506287499921
 20
23.5453521496875098
 10
27.1590597712499999
 20
23.4954792496875022
 10
28.1252483324999893
 20
22.3301952946875097
 10
28.1848188187500064
 20
22.3774953084375134
 10
29.2396699237500073
 20
22.9520231221875086
 10
30.4817428574999951
 20
23.4066189534374942
 10
31.2136073287499904
 20
22.4214307246875002
 10
30.4197972374999956
 20
21.3636112284375024
 10
29.5652294437499918
 20
20.5195320309375049
 10
29.5026898649999971
 20
20.4761898721875113
 10
30.3394466100000066
 20
19.214722467187503
 10
30.40376666249999
 20
19.2554910384374942
 10
31.5136364399999991
 20
19.7146386834375065
 10
32.7970719037499947
 20
20.0346562246875131
 10
33.4200876487499983
 20
18.9772322334375119
 10
32.5182191399999923
 20
18.0096587034375091
 10
31.5787482037499956
 20
17.2611689971874931
 10
31.5120537187499892
 20
17.2247537859375122
 10
32.2100758650000074
 20
15.881550083437503
 10
32.2781567212499994
 20
15.915194655937503
 10
33.4305769462500066
 20
16.253815658437496
 10
34.7407300349999915
 20
16.435495508437505
 10
35.2479687037500042
 20
15.317907072187511
 10
34.2483340237499903
 20
14.4516620634375137
 10
33.2346476962500006
 20
13.8072729196874953
 10
33.1643901599999964
 20
13.7781801609375023
 10
33.7157626987499981
 20
12.368479024687506
 10
33.7870096987499906
 20
12.3946033921874985
 10
34.9689181874999875
 20
12.6087398971874975
 10
36.2909462437500068
 20
12.6503008809375022
 10
36.6764710537500065
 20
11.4850162246875076
 10
35.5905482625000076
 20
10.7299964784374957
 10
34.5141246037500053
 20
10.1970289471875066
 10
34.4410964287500008
 20
10.1754570946875003
 10
34.8394863712500111
 20
8.7150913471875047
 10
34.9131078037500089
 20
8.7336948084375123
 10
36.1110475687500028
 20
8.8209723834375104
 10
37.4301065325000053
 20
8.7216220884374991
 10
37.689564123750003
 20
7.5221003034375062
 10
36.5294252399999948
 20
6.8868140859375044
 10
35.4025354237500025
 20
6.4712070534374986
 10
35.327726073749993
 20
6.4575509109374973
 10
35.5683824512500024
 20
4.9631450859375033
 10
35.6437857599999859
 20
4.973634383437509
 10
36.8440999574999921
 20
4.933062863437498
 10
38.1451494187500018
 20
4.6941876609374962
 10
38.2755706987499948
 20
3.4738850334375129
 10
37.0544763599999953
 20
2.9654584471875083
 10
35.8897856625000031
 20
2.6721585309375135
 10
35.8139868487499982
 20
2.6664187996874951
 10
35.8945352287500086
 20
1.1549929359375024
  0
CIRCLE
  5
4E
100
AcDbEntity
100
AcDbCircle
  8
59_teeth
 62
256
370
-1
  6
ByLayer
 10
0.0
 20
0.0
 30
0.0
 40
3.0
  0
LINE
  5
4F
100
AcDbEntity
100
AcDbLine
  8
59_teeth
 62
256
370
-1
  6
ByLayer
 10
-8.5248562562443357
 20
5.2275066533072714
 30
0.0
 11
-20.3189654454830091
 21
22.0712401832173306
 31
0.0
  0
LINE
  5
50
100
AcDbEntity
100
AcDbLine
  8
59_teeth
 62
256
370
-1
  6
ByLayer
 10
-0.2647254320940895
 20
9.9964954081719366
 30
0.0
 11
-8.9547719689526044
 21
28.6323603460151475
 31
0.0
  0
LINE
  5
51
100
AcDbEntity
100
AcDbLine
  8
59_teeth
 62
256
370
-1
  6
ByLayer
 10
-0.2647254320941033
 20
-9.9964954081719366
 30
0.0
 11
-8.9547719689526186
 21
-28.6323603460151439
 31
0.0
  0
LINE
  5
52
100
AcDbEntity
100
AcDbLine
  8
59_teeth
 62
256
370
-1
  6
ByLayer
 10
-8.5248562562443464
 20
-5.2275066533072554
 30
0.0
 11
-20.3189654454830304
 21
-22.0712401832173128
 31
0.0
  0
LINE
  5
53
100
AcDbEntity
100
AcDbLine
  8
59_teeth
 62
256
370
-1
  6
ByLayer
 10
8.7895816883384388
 20
4.7689887548646634
 30
0.0
 11
29.2737374144356224
 21
6.5611201627978142
 31
0.0
  0
LINE
  5
54
100
AcDbEntity
100
AcDbLine
  8
59_teeth
 62
256
370
-1
  6
ByLayer
 10
8.7895816883384352
 20
-4.7689887548646706
 30
0.0
 11
29.2737374144356259
 21
-6.5611201627978089
 31
0.0
  0
ARC
  5
55
100
AcDbEntity
  8
59_teeth
 62
256
370
-1
  6
ByLayer
100
AcDbCircle
 10
0.0
 20
0.0
 30
0.0
 40
10.0
100
AcDbArc
 50
268.4830577882064517
 51
331.5169422117934346
  0
ARC
  5
56
100
AcDbEntity
  8
59_teeth
 62
256
370
-1
  6
ByLayer
100
AcDbCircle
 10
0.0
 20
0.0
 30
0.0
 40
10.0
100
AcDbArc
 50
28.4830577882064979
 51
91.516942211793463
  0
ARC
  5
57
100
AcDbEntity
  8
59_teeth
 62
256
370
-1
  6
ByLayer
100
AcDbCircle
 10
0.0
 20
0.0
 30
0.0
 40
10.0
100
AcDbArc
 50
148.4830577882064517
 51
211.5169422117934062
  0
ARC
  5
58
100
AcDbEntity
  8
59_teeth
 62
256
370
-1
  6
ByLayer
100
AcDbCircle
 10
0.0
 20
0.0
 30
0.0
 40
30.0
100
AcDbArc
 50
132.6329244038462889
 51
227.3670755961536827
  0
ARC
  5
59
100
AcDbEntity
  8
59_teeth
 62
256
370
-1
  6
ByLayer
100
AcDbCircle
 10
0.0
 20
0.0
 30
0.0
 40
30.0
100
AcDbArc
 50
252.6329244038462321
 51
347.3670755961537111
  0
ARC
  5
5A
100
AcDbEntity
  8
59_teeth
 62
256
370
-1
  6
ByLayer
100
AcDbCircle
 10
0.0
 20
0.0
 30
0.0
 40
30.0
100
AcDbArc
 50
12.6329244038462623
 51
107.3670755961537537
  0
CIRCLE
  5
5B
100
AcDbEntity
100
AcDbCircle
  8
face_plate
 62
256
370
-1
  6
ByLayer
 10
45.0
 20
0.0
 30
0.0
 40
11.0
  0
CIRCLE
  5
5C
100
AcDbEntity
100
AcDbCircle
  8
face_plate
 62
256
370
-1
  6
ByLayer
 10
0.0
 20
0.0
 30
0.0
 40
9.5
  0
CIRCLE
  5
5D
100
AcDbEntity
100
AcDbCircle
  8
face_plate
 62
256
370
-1
  6
ByLayer
 10
29.25
 20
15.75
 30
0.0
 40
1.5
  0
CIRCLE
  5
5E
100
AcDbEntity
100
AcDbCircle
  8
face_plate
 62
256
370
-1
  6
ByLayer
 10
60.75
 20
15.75
 30
0.0
 40
1.5
  0
CIRCLE
  5
5F
100
AcDbEntity
100
AcDbCircle
  8
face_plate
 62
256
370
-1
  6
ByLayer
 10
60.75
 20
-15.75
 30
0.0
 40
1.5
  0
CIRCLE
  5
60
100
AcDbEntity
100
AcDbCircle
  8
face_plate
 62
256
370
-1
  6
ByLayer
 10
29.25
 20
-15.75
 30
0.0
 40
1.5
  0
LINE
  5
61
100
AcDbEntity
100
AcDbLine
  8
face_plate
 62
256
370
-1
  6
ByLayer
 10
-5.0
 20
25.0
 30
0.0
 11
-5.0
 21
19.0
 31
0.0
  0
LINE
  5
62
100
AcDbEntity
100
AcDbLine
  8
face_plate
 62
256
370
-1
  6
ByLayer
 10
-5.0
 20
19.0
 30
0.0
 11
5.0
 21
19.0
 31
0.0
  0
LINE
  5
63
100
AcDbEntity
100
AcDbLine
  8
face_plate
 62
256
370
-1
  6
ByLayer
 10
5.0
 20
19.0
 30
0.0
 11
5.0
 21
25.0
 31
0.0
  0
LINE
  5
64
100
AcDbEntity
100
AcDbLine
  8
face_plate
 62
256
370
-1
  6
ByLayer
 10
-5.0
 20
-25.0
 30
0.0
 11
-5.0
 21
-19.0
 31
0.0
  0
LINE
  5
65
100
AcDbEntity
100
AcDbLine
  8
face_plate
 62
256
370
-1
  6
ByLayer
 10
-5.0
 20
-19.0
 30
0.0
 11
5.0
 21
-19.0
 31
0.0
  0
LINE
  5
66
100
AcDbEntity
100
AcDbLine
  8
face_plate
 62
256
370
-1
  6
ByLayer
 10
5.0
 20
-19.0
 30
0.0
 11
5.0
 21
-25.0
 31
0.0
  0
LINE
  5
67
100
AcDbEntity
100
AcDbLine
  8
face_plate
 62
256
370
-1
  6
ByLayer
 10
66.0
 20
25.0
 30
0.0
 11
66.0
 21
-25.0
 31
0.0
  0
LINE
  5
68
100
AcDbEntity
100
AcDbLine
  8
face_plate
 62
256
370
-1
  6
ByLayer
 10
66.0
 20
-25.0
 30
0.0
 11
5.0
 21
-25.0
 31
0.0
  0
LINE
  5
69
100
AcDbEntity
100
AcDbLine
  8
face_plate
 62
256
370
-1
  6
ByLayer
 10
66.0
 20
25.0
 30
0.0
 11
5.0
 21
25.0
 31
0.0
  0
LINE
  5
6A
100
AcDbEntity
100
AcDbLine
  8
bolt_rear_support
 62
256
370
-1
  6
ByLayer
 10
-19.9999999999999964
 20
-25.0
 30
0.0
 11
19.9999999999999893
 21
-25.0000000000000071
 31
0.0
  0
LINE
  5
6B
100
AcDbEntity
100
AcDbLine
  8
bolt_rear_support
 62
256
370
-1
  6
ByLayer
 10
-19.9999999999999929
 20
25.0000000000000036
 30
0.0
 11
20.0
 21
24.9999999999999964
 31
0.0
  0
LINE
  5
6C
100
AcDbEntity
100
AcDbLine
  8
bolt_rear_support
 62
256
370
-1
  6
ByLayer
 10
19.9999999999999964
 20
-10.0000000000000071
 30
0.0
 11
26.0
 21
-10.0000000000000036
 31
0.0
  0
LINE
  5
6D
100
AcDbEntity
100
AcDbLine
  8
bolt_rear_support
 62
256
370
-1
  6
ByLayer
 10
26.0
 20
-10.0000000000000036
 30
0.0
 11
26.0000000000000036
 21
9.9999999999999911
 31
0.0
  0
LINE
  5
6E
100
AcDbEntity
100
AcDbLine
  8
bolt_rear_support
 62
256
370
-1
  6
ByLayer
 10
26.0000000000000036
 20
9.9999999999999911
 30
0.0
 11
20.0000000000000036
 21
9.9999999999999964
 31
0.0
  0
LINE
  5
6F
100
AcDbEntity
100
AcDbLine
  8
bolt_rear_support
 62
256
370
-1
  6
ByLayer
 10
20.0000000000000036
 20
9.9999999999999964
 30
0.0
 11
20.0
 21
24.9999999999999964
 31
0.0
  0
LINE
  5
70
100
AcDbEntity
100
AcDbLine
  8
bolt_rear_support
 62
256
370
-1
  6
ByLayer
 10
19.9999999999999964
 20
-10.0000000000000071
 30
0.0
 11
19.9999999999999893
 21
-25.0000000000000071
 31
0.0
  0
LINE
  5
71
100
AcDbEntity
100
AcDbLine
  8
bolt_rear_support
 62
256
370
-1
  6
ByLayer
 10
-19.9999999999999964
 20
-25.0
 30
0.0
 11
-19.9999999999999929
 21
-10.000000000000016
 31
0.0
  0
LINE
  5
72
100
AcDbEntity
100
AcDbLine
  8
bolt_rear_support
 62
256
370
-1
  6
ByLayer
 10
-19.9999999999999929
 20
-10.000000000000016
 30
0.0
 11
-26.0000000000000036
 21
-9.9999999999999947
 31
0.0
  0
LINE
  5
73
100
AcDbEntity
100
AcDbLine
  8
bolt_rear_support
 62
256
370
-1
  6
ByLayer
 10
-26.0000000000000036
 20
-9.9999999999999947
 30
0.0
 11
-26.0
 21
10.0
 31
0.0
  0
LINE
  5
74
100
AcDbEntity
100
AcDbLine
  8
bolt_rear_support
 62
256
370
-1
  6
ByLayer
 10
-26.0
 20
10.0
 30
0.0
 11
-20.0
 21
10.0000000000000036
 31
0.0
  0
LINE
  5
75
100
AcDbEntity
100
AcDbLine
  8
bolt_rear_support
 62
256
370
-1
  6
ByLayer
 10
-20.0
 20
10.0000000000000036
 30
0.0
 11
-19.9999999999999929
 21
25.0000000000000036
 31
0.0
  0
LINE
  5
76
100
AcDbEntity
100
AcDbLine
  8
bolt_front_support
 62
256
370
-1
  6
ByLayer
 10
-19.9999999999999964
 20
-25.0
 30
0.0
 11
19.9999999999999893
 21
-25.0000000000000071
 31
0.0
  0
LINE
  5
77
100
AcDbEntity
100
AcDbLine
  8
bolt_front_support
 62
256
370
-1
  6
ByLayer
 10
-19.9999999999999929
 20
25.0000000000000036
 30
0.0
 11
20.0
 21
24.9999999999999964
 31
0.0
  0
LINE
  5
78
100
AcDbEntity
100
AcDbLine
  8
bolt_front_support
 62
256
370
-1
  6
ByLayer
 10
-20.0
 20
10.0000000000000036
 30
0.0
 11
20.0000000000000036
 21
9.9999999999999964
 31
0.0
  0
LINE
  5
79
100
AcDbEntity
100
AcDbLine
  8
bolt_front_support
 62
256
370
-1
  6
ByLayer
 10
19.9999999999999964
 20
-10.0000000000000071
 30
0.0
 11
-19.9999999999999929
 21
-10.000000000000016
 31
0.0
  0
LINE
  5
7A
100
AcDbEntity
100
AcDbLine
  8
bolt_front_support
 62
256
370
-1
  6
ByLayer
 10
-20.0
 20
20.0
 30
0.0
 11
-26.0
 21
20.0
 31
0.0
  0
LINE
  5
7B
100
AcDbEntity
100
AcDbLine
  8
bolt_front_support
 62
256
370
-1
  6
ByLayer
 10
-26.0
 20
20.0
 30
0.0
 11
-26.0
 21
10.0
 31
0.0
  0
LINE
  5
7C
100
AcDbEntity
100
AcDbLine
  8
bolt_front_support
 62
256
370
-1
  6
ByLayer
 10
-26.0
 20
10.0
 30
0.0
 11
-20.0
 21
10.0
 31
0.0
  0
LINE
  5
7D
100
AcDbEntity
100
AcDbLine
  8
bolt_front_support
 62
256
370
-1
  6
ByLayer
 10
-20.0
 20
20.0
 30
0.0
 11
-20.0
 21
25.0
 31
0.0
  0
LINE
  5
7E
100
AcDbEntity
100
AcDbLine
  8
bolt_front_support
 62
256
370
-1
  6
ByLayer
 10
20.0
 20
25.0
 30
0.0
 11
20.0
 21
20.0
 31
0.0
  0
LINE
  5
7F
100
AcDbEntity
100
AcDbLine
  8
bolt_front_support
 62
256
370
-1
  6
ByLayer
 10
20.0
 20
20.0
 30
0.0
 11
26.0
 21
20.0
 31
0.0
  0
LINE
  5
80
100
AcDbEntity
100
AcDbLine
  8
bolt_front_support
 62
256
370
-1
  6
ByLayer
 10
26.0
 20
20.0
 30
0.0
 11
26.0
 21
10.0
 31
0.0
  0
LINE
  5
81
100
AcDbEntity
100
AcDbLine
  8
bolt_front_support
 62
256
370
-1
  6
ByLayer
 10
26.0
 20
10.0
 30
0.0
 11
20.0
 21
10.0
 31
0.0
  0
LINE
  5
82
100
AcDbEntity
100
AcDbLine
  8
bolt_front_support
 62
256
370
-1
  6
ByLayer
 10
20.0
 20
-25.0
 30
0.0
 11
20.0
 21
-20.0
 31
0.0
  0
LINE
  5
83
100
AcDbEntity
100
AcDbLine
  8
bolt_front_support
 62
256
370
-1
  6
ByLayer
 10
20.0
 20
-20.0
 30
0.0
 11
26.0
 21
-20.0
 31
0.0
  0
LINE
  5
84
100
AcDbEntity
100
AcDbLine
  8
bolt_front_support
 62
256
370
-1
  6
ByLayer
 10
26.0
 20
-20.0
 30
0.0
 11
26.0
 21
-10.0
 31
0.0
  0
LINE
  5
85
100
AcDbEntity
100
AcDbLine
  8
bolt_front_support
 62
256
370
-1
  6
ByLayer
 10
26.0
 20
-10.0
 30
0.0
 11
20.0
 21
-10.0
 31
0.0
  0
LINE
  5
86
100
AcDbEntity
100
AcDbLine
  8
bolt_front_support
 62
256
370
-1
  6
ByLayer
 10
-20.0
 20
-25.0
 30
0.0
 11
-20.0
 21
-20.0
 31
0.0
  0
LINE
  5
87
100
AcDbEntity
100
AcDbLine
  8
bolt_front_support
 62
256
370
-1
  6
ByLayer
 10
-20.0
 20
-20.0
 30
0.0
 11
-26.0
 21
-20.0
 31
0.0
  0
LINE
  5
88
100
AcDbEntity
100
AcDbLine
  8
bolt_front_support
 62
256
370
-1
  6
ByLayer
 10
-26.0
 20
-20.0
 30
0.0
 11
-26.0
 21
-10.0
 31
0.0
  0
LINE
  5
89
100
AcDbEntity
100
AcDbLine
  8
bolt_front_support
 62
256
370
-1
  6
ByLayer
 10
-26.0
 20
-10.0
 30
0.0
 11
-20.0
 21
-10.0
 31
0.0
  0
LINE
  5
8A
100
AcDbEntity
100
AcDbLine
  8
face_plate
 62
256
370
-1
  6
ByLayer
 10
11.0
 20
10.0
 30
0.0
 11
17.0
 21
10.0
 31
0.0
  0
LINE
  5
8B
100
AcDbEntity
100
AcDbLine
  8
face_plate
 62
256
370
-1
  6
ByLayer
 10
17.0
 20
10.0
 30
0.0
 11
17.0
 21
-10.0
 31
0.0
  0
LINE
  5
8C
100
AcDbEntity
100
AcDbLine
  8
face_plate
 62
256
370
-1
  6
ByLayer
 10
17.0
 20
-10.0
 30
0.0
 11
11.0
 21
-10.0
 31
0.0
  0
LINE
  5
8D
100
AcDbEntity
100
AcDbLine
  8
face_plate
 62
256
370
-1
  6
ByLayer
 10
11.0
 20
-10.0
 30
0.0
 11
11.0
 21
10.0
 31
0.0
  0
LINE
  5
8E
100
AcDbEntity
100
AcDbLine
  8
face_plate
 62
256
370
-1
  6
ByLayer
 10
-11.0
 20
20.0
 30
0.0
 11
-17.0
 21
20.0
 31
0.0
  0
LINE
  5
8F
100
AcDbEntity
100
AcDbLine
  8
face_plate
 62
256
370
-1
  6
ByLayer
 10
-17.0
 20
20.0
 30
0.0
 11
-17.0
 21
10.0
 31
0.0
  0
LINE
  5
90
100
AcDbEntity
100
AcDbLine
  8
face_plate
 62
256
370
-1
  6
ByLayer
 10
-17.0
 20
10.0
 30
0.0
 11
-11.0
 21
10.0
 31
0.0
  0
LINE
  5
91
100
AcDbEntity
100
AcDbLine
  8
face_plate
 62
256
370
-1
  6
ByLayer
 10
-11.0
 20
-10.0
 30
0.0
 11
-17.0
 21
-10.0
 31
0.0
  0
LINE
  5
92
100
AcDbEntity
100
AcDbLine
  8
face_plate
 62
256
370
-1
  6
ByLayer
 10
-17.0
 20
-10.0
 30
0.0
 11
-17.0
 21
-20.0
 31
0.0
  0
LINE
  5
93
100
AcDbEntity
100
AcDbLine
  8
face_plate
 62
256
370
-1
  6
ByLayer
 10
-17.0
 20
-20.0
 30
0.0
 11
-11.0
 21
-20.0
 31
0.0
  0
LINE
  5
94
100
AcDbEntity
100
AcDbLine
  8
face_plate
 62
256
370
-1
  6
ByLayer
 10
-11.0
 20
-20.0
 30
0.0
 11
-11.0
 21
-10.0
 31
0.0
  0
LINE
  5
95
100
AcDbEntity
100
AcDbLine
  8
face_plate
 62
256
370
-1
  6
ByLayer
 10
-11.0
 20
20.0
 30
0.0
 11
-11.0
 21
10.0
 31
0.0
  0
LINE
  5
96
100
AcDbEntity
100
AcDbLine
  8
face_plate
 62
256
370
-1
  6
ByLayer
 10
-22.0
 20
20.0
 30
0.0
 11
-22.0
 21
-20.0
 31
0.0
  0
ARC
  5
97
100
AcDbEntity
  8
face_plate
 62
256
370
-1
  6
ByLayer
100
AcDbCircle
 10
-17.0
 20
20.0
 30
0.0
 40
5.0
100
AcDbArc
 50
90.0
 51
180.0
  0
ARC
  5
98
100
AcDbEntity
  8
face_plate
 62
256
370
-1
  6
ByLayer
100
AcDbCircle
 10
-17.0
 20
-20.0
 30
0.0
 40
5.0
100
AcDbArc
 50
180.0
 51
270.0
  0
LINE
  5
99
100
AcDbEntity
100
AcDbLine
  8
face_plate
 62
256
370
-1
  6
ByLayer
 10
-17.0
 20
25.0
 30
0.0
 11
-5.0
 21
25.0
 31
0.0
  0
LINE
  5
9A
100
AcDbEntity
100
AcDbLine
  8
face_plate
 62
256
370
-1
  6
ByLayer
 10
-17.0
 20
-25.0
 30
0.0
 11
-5.0
 21
-25.0
 31
0.0
  0
CIRCLE
  5
9B
100
AcDbEntity
100
AcDbCircle
  8
rear_plate
 62
256
370
-1
  6
ByLayer
 10
0.0
 20
0.0
 30
0.0
 40
9.5
  0
LINE
  5
9C
100
AcDbEntity
100
AcDbLine
  8
rear_plate
 62
256
370
-1
  6
ByLayer
 10
-5.0
 20
25.0
 30
0.0
 11
-5.0
 21
19.0
 31
0.0
  0
LINE
  5
9D
100
AcDbEntity
100
AcDbLine
  8
rear_plate
 62
256
370
-1
  6
ByLayer
 10
-5.0
 20
19.0
 30
0.0
 11
5.0
 21
19.0
 31
0.0
  0
LINE
  5
9E
100
AcDbEntity
100
AcDbLine
  8
rear_plate
 62
256
370
-1
  6
ByLayer
 10
5.0
 20
19.0
 30
0.0
 11
5.0
 21
25.0
 31
0.0
  0
LINE
  5
9F
100
AcDbEntity
100
AcDbLine
  8
rear_plate
 62
256
370
-1
  6
ByLayer
 10
-5.0
 20
-25.0
 30
0.0
 11
-5.0
 21
-19.0
 31
0.0
  0
LINE
  5
A0
100
AcDbEntity
100
AcDbLine
  8
rear_plate
 62
256
370
-1
  6
ByLayer
 10
-5.0
 20
-19.0
 30
0.0
 11
5.0
 21
-19.0
 31
0.0
  0
LINE
  5
A1
100
AcDbEntity
100
AcDbLine
  8
rear_plate
 62
256
370
-1
  6
ByLayer
 10
5.0
 20
-19.0
 30
0.0
 11
5.0
 21
-25.0
 31
0.0
  0
LINE
  5
A2
100
AcDbEntity
100
AcDbLine
  8
rear_plate
 62
256
370
-1
  6
ByLayer
 10
11.0
 20
10.0
 30
0.0
 11
17.0
 21
10.0
 31
0.0
  0
LINE
  5
A3
100
AcDbEntity
100
AcDbLine
  8
rear_plate
 62
256
370
-1
  6
ByLayer
 10
17.0
 20
-10.0
 30
0.0
 11
11.0
 21
-10.0
 31
0.0
  0
LINE
  5
A4
100
AcDbEntity
100
AcDbLine
  8
rear_plate
 62
256
370
-1
  6
ByLayer
 10
11.0
 20
-10.0
 30
0.0
 11
11.0
 21
10.0
 31
0.0
  0
LINE
  5
A5
100
AcDbEntity
100
AcDbLine
  8
rear_plate
 62
256
370
-1
  6
ByLayer
 10
-11.0
 20
20.0
 30
0.0
 11
-17.0
 21
20.0
 31
0.0
  0
LINE
  5
A6
100
AcDbEntity
100
AcDbLine
  8
rear_plate
 62
256
370
-1
  6
ByLayer
 10
-17.0
 20
20.0
 30
0.0
 11
-17.0
 21
10.0
 31
0.0
  0
LINE
  5
A7
100
AcDbEntity
100
AcDbLine
  8
rear_plate
 62
256
370
-1
  6
ByLayer
 10
-17.0
 20
10.0
 30
0.0
 11
-11.0
 21
10.0
 31
0.0
  0
LINE
  5
A8
100
AcDbEntity
100
AcDbLine
  8
rear_plate
 62
256
370
-1
  6
ByLayer
 10
-11.0
 20
-10.0
 30
0.0
 11
-17.0
 21
-10.0
 31
0.0
  0
LINE
  5
A9
100
AcDbEntity
100
AcDbLine
  8
rear_plate
 62
256
370
-1
  6
ByLayer
 10
-17.0
 20
-10.0
 30
0.0
 11
-17.0
 21
-20.0
 31
0.0
  0
LINE
  5
AA
100
AcDbEntity
100
AcDbLine
  8
rear_plate
 62
256
370
-1
  6
ByLayer
 10
-17.0
 20
-20.0
 30
0.0
 11
-11.0
 21
-20.0
 31
0.0
  0
LINE
  5
AB
100
AcDbEntity
100
AcDbLine
  8
rear_plate
 62
256
370
-1
  6
ByLayer
 10
-11.0
 20
-20.0
 30
0.0
 11
-11.0
 21
-10.0
 31
0.0
  0
LINE
  5
AC
100
AcDbEntity
100
AcDbLine
  8
rear_plate
 62
256
370
-1
  6
ByLayer
 10
-11.0
 20
20.0
 30
0.0
 11
-11.0
 21
10.0
 31
0.0
  0
LINE
  5
AD
100
AcDbEntity
100
AcDbLine
  8
rear_plate
 62
256
370
-1
  6
ByLayer
 10
-22.0
 20
20.0
 30
0.0
 11
-22.0
 21
-20.0
 31
0.0
  0
ARC
  5
AE
100
AcDbEntity
  8
rear_plate
 62
256
370
-1
  6
ByLayer
100
AcDbCircle
 10
-17.0
 20
20.0
 30
0.0
 40
5.0
100
AcDbArc
 50
90.0
 51
180.0
  0
ARC
  5
AF
100
AcDbEntity
  8
rear_plate
 62
256
370
-1
  6
ByLayer
100
AcDbCircle
 10
-17.0
 20
-20.0
 30
0.0
 40
5.0
100
AcDbArc
 50
180.0
 51
270.0
  0
LINE
  5
B0
100
AcDbEntity
100
AcDbLine
  8
rear_plate
 62
256
370
-1
  6
ByLayer
 10
-17.0
 20
25.0
 30
0.0
 11
-5.0
 21
25.0
 31
0.0
  0
LINE
  5
B1
100
AcDbEntity
100
AcDbLine
  8
rear_plate
 62
256
370
-1
  6
ByLayer
 10
-17.0
 20
-25.0
 30
0.0
 11
-5.0
 21
-25.0
 31
0.0
  0
LINE
  5
B2
100
AcDbEntity
100
AcDbLine
  8
rear_plate
 62
256
370
-1
  6
ByLayer
 10
5.0
 20
25.0
 30
0.0
 11
17.0
 21
25.0
 31
0.0
  0
LINE
  5
B3
100
AcDbEntity
100
AcDbLine
  8
rear_plate
 62
256
370
-1
  6
ByLayer
 10
17.0
 20
25.0
 30
0.0
 11
17.0
 21
10.0
 31
0.0
  0
LINE
  5
B4
100
AcDbEntity
100
AcDbLine
  8
rear_plate
 62
256
370
-1
  6
ByLayer
 10
17.0
 20
-10.0
 30
0.0
 11
17.0
 21
-25.0
 31
0.0
  0
LINE
  5
B5
100
AcDbEntity
100
AcDbLine
  8
rear_plate
 62
256
370
-1
  6
ByLayer
 10
17.0
 20
-25.0
 30
0.0
 11
5.0
 21
-25.0
 31
0.0
  0
LINE
  5
B6
100
AcDbEntity
100
AcDbLine
  8
side_plate
 62
256
370
-1
  6
ByLayer
 10
26.0
 20
5.0
 30
0.0
 11
20.0
 21
5.0
 31
0.0
  0
LINE
  5
B7
100
AcDbEntity
100
AcDbLine
  8
side_plate
 62
256
370
-1
  6
ByLayer
 10
20.0
 20
5.0
 30
0.0
 11
20.0
 21
11.0
 31
0.0
  0
LINE
  5
B8
100
AcDbEntity
100
AcDbLine
  8
side_plate
 62
256
370
-1
  6
ByLayer
 10
20.0
 20
11.0
 30
0.0
 11
-20.0
 21
11.0
 31
0.0
  0
LINE
  5
B9
100
AcDbEntity
100
AcDbLine
  8
side_plate
 62
256
370
-1
  6
ByLayer
 10
-20.0
 20
11.0
 30
0.0
 11
-20.0
 21
5.0
 31
0.0
  0
LINE
  5
BA
100
AcDbEntity
100
AcDbLine
  8
side_plate
 62
256
370
-1
  6
ByLayer
 10
-20.0
 20
5.0
 30
0.0
 11
-26.0
 21
5.0
 31
0.0
  0
LINE
  5
BB
100
AcDbEntity
100
AcDbLine
  8
side_plate
 62
256
370
-1
  6
ByLayer
 10
-26.0
 20
5.0
 30
0.0
 11
-26.0
 21
-5.0
 31
0.0
  0
LINE
  5
BC
100
AcDbEntity
100
AcDbLine
  8
side_plate
 62
256
370
-1
  6
ByLayer
 10
-26.0
 20
-5.0
 30
0.0
 11
-20.0
 21
-5.0
 31
0.0
  0
LINE
  5
BD
100
AcDbEntity
100
AcDbLine
  8
side_plate
 62
256
370
-1
  6
ByLayer
 10
-20.0
 20
-5.0
 30
0.0
 11
-20.0
 21
-11.0
 31
0.0
  0
LINE
  5
BE
100
AcDbEntity
100
AcDbLine
  8
side_plate
 62
256
370
-1
  6
ByLayer
 10
-20.0
 20
-11.0
 30
0.0
 11
20.0
 21
-11.0
 31
0.0
  0
LINE
  5
BF
100
AcDbEntity
100
AcDbLine
  8
side_plate
 62
256
370
-1
  6
ByLayer
 10
20.0
 20
-11.0
 30
0.0
 11
20.0
 21
-5.0
 31
0.0
  0
LINE
  5
C0
100
AcDbEntity
100
AcDbLine
  8
side_plate
 62
256
370
-1
  6
ByLayer
 10
20.0
 20
-5.0
 30
0.0
 11
26.0
 21
-5.0
 31
0.0
  0
LINE
  5
C1
100
AcDbEntity
100
AcDbLine
  8
side_plate
 62
256
370
-1
  6
ByLayer
 10
26.0
 20
-5.0
 30
0.0
 11
26.0
 21
5.0
 31
0.0
  0
LINE
  5
C2
100
AcDbEntity
100
AcDbLine
  8
clamp_base
 62
256
370
-1
  6
ByLayer
 10
-4.0
 20
-5.0
 30
0.0
 11
-10.0
 21
-5.0
 31
0.0
  0
LINE
  5
C3
100
AcDbEntity
100
AcDbLine
  8
clamp_base
 62
256
370
-1
  6
ByLayer
 10
4.0
 20
-5.0
 30
0.0
 11
10.0
 21
-5.0
 31
0.0
  0
LINE
  5
C4
100
AcDbEntity
100
AcDbLine
  8
side_plate
 62
256
370
-1
  6
ByLayer
 10
-1.5
 20
5.0
 30
0.0
 11
-1.5
 21
-5.0
 31
0.0
  0
LINE
  5
C5
100
AcDbEntity
100
AcDbLine
  8
side_plate
 62
256
370
-1
  6
ByLayer
 10
1.5
 20
5.0
 30
0.0
 11
1.5
 21
-5.0
 31
0.0
  0
ARC
  5
C6
100
AcDbEntity
  8
side_plate
 62
256
370
-1
  6
ByLayer
100
AcDbCircle
 10
0.0
 20
5.0
 30
0.0
 40
1.5
100
AcDbArc
 50
0.0
 51
180.0
  0
ARC
  5
C7
100
AcDbEntity
  8
side_plate
 62
256
370
-1
  6
ByLayer
100
AcDbCircle
 10
0.0
 20
-5.0
 30
0.0
 40
1.5
100
AcDbArc
 50
180.0
 51
0.0
  0
LINE
  5
C8
100
AcDbEntity
100
AcDbLine
  8
clamp_side
 62
256
370
-1
  6
ByLayer
 10
-6.0
 20
5.0
 30
0.0
 11
-6.0
 21
-5.0
 31
0.0
  0
LINE
  5
C9
100
AcDbEntity
100
AcDbLine
  8
clamp_side
 62
256
370
-1
  6
ByLayer
 10
-6.0
 20
-5.0
 30
0.0
 11
0.0
 21
-5.0
 31
0.0
  0
LINE
  5
CA
100
AcDbEntity
100
AcDbLine
  8
clamp_side
 62
256
370
-1
  6
ByLayer
 10
0.0
 20
-5.0
 30
0.0
 11
0.0
 21
-9.0
 31
0.0
  0
LINE
  5
CB
100
AcDbEntity
100
AcDbLine
  8
clamp_side
 62
256
370
-1
  6
ByLayer
 10
-6.0
 20
5.0
 30
0.0
 11
0.0
 21
5.0
 31
0.0
  0
LINE
  5
CC
100
AcDbEntity
100
AcDbLine
  8
clamp_side
 62
256
370
-1
  6
ByLayer
 10
0.0
 20
5.0
 30
0.0
 11
0.0
 21
9.0
 31
0.0
  0
CIRCLE
  5
CD
100
AcDbEntity
100
AcDbCircle
  8
clamp_side
 62
256
370
-1
  6
ByLayer
 10
10.0
 20
0.0
 30
0.0
 40
3.0
  0
LINE
  5
CE
100
AcDbEntity
100
AcDbLine
  8
clamp_side
 62
256
370
-1
  6
ByLayer
 10
10.0
 20
9.0
 30
0.0
 11
0.0
 21
9.0
 31
0.0
  0
LINE
  5
CF
100
AcDbEntity
100
AcDbLine
  8
clamp_side
 62
256
370
-1
  6
ByLayer
 10
10.0
 20
-9.0
 30
0.0
 11
0.0
 21
-9.0
 31
0.0
  0
ARC
  5
D0
100
AcDbEntity
  8
clamp_side
 62
256
370
-1
  6
ByLayer
100
AcDbCircle
 10
10.0
 20
0.0
 30
0.0
 40
9.0
100
AcDbArc
 50
270.0
 51
90.0
  0
LINE
  5
D1
100
AcDbEntity
100
AcDbLine
  8
clamp_base
 62
256
370
-1
  6
ByLayer
 10
-4.0
 20
-5.0
 30
0.0
 11
-4.0
 21
5.0
 31
0.0
  0
LINE
  5
D2
100
AcDbEntity
100
AcDbLine
  8
clamp_base
 62
256
370
-1
  6
ByLayer
 10
-4.0
 20
5.0
 30
0.0
 11
-10.0
 21
5.0
 31
0.0
  0
LINE
  5
D3
100
AcDbEntity
100
AcDbLine
  8
clamp_base
 62
256
370
-1
  6
ByLayer
 10
4.0
 20
5.0
 30
0.0
 11
4.0
 21
-5.0
 31
0.0
  0
LINE
  5
D4
100
AcDbEntity
100
AcDbLine
  8
clamp_base
 62
256
370
-1
  6
ByLayer
 10
10.0
 20
5.0
 30
0.0
 11
4.0
 21
5.0
 31
0.0
  0
LINE
  5
D5
100
AcDbEntity
100
AcDbLine
  8
side_plate
 62
256
370
-1
  6
ByLayer
 10
-12.0
 20
5.0
 30
0.0
 11
-12.0
 21
-5.0
 31
0.0
  0
LINE
  5
D6
100
AcDbEntity
100
AcDbLine
  8
side_plate
 62
256
370
-1
  6
ByLayer
 10
-8.0
 20
4.9999999999999991
 30
0.0
 11
-8.0
 21
-5.0000000000000009
 31
0.0
  0
LINE
  5
D7
100
AcDbEntity
100
AcDbLine
  8
side_plate
 62
256
370
-1
  6
ByLayer
 10
8.0
 20
5.0
 30
0.0
 11
8.0
 21
-5.0
 31
0.0
  0
LINE
  5
D8
100
AcDbEntity
100
AcDbLine
  8
side_plate
 62
256
370
-1
  6
ByLayer
 10
12.0
 20
4.9999999999999991
 30
0.0
 11
12.0
 21
-5.0000000000000009
 31
0.0
  0
ARC
  5
D9
100
AcDbEntity
  8
side_plate
 62
256
370
-1
  6
ByLayer
100
AcDbCircle
 10
-10.0
 20
5.0
 30
0.0
 40
2.0
100
AcDbArc
 50
0.0
 51
180.0
  0
ARC
  5
DA
100
AcDbEntity
  8
side_plate
 62
256
370
-1
  6
ByLayer
100
AcDbCircle
 10
10.0
 20
5.0
 30
0.0
 40
2.0
100
AcDbArc
 50
0.0
 51
180.0
  0
ARC
  5
DB
100
AcDbEntity
  8
side_plate
 62
256
370
-1
  6
ByLayer
100
AcDbCircle
 10
-10.0
 20
-5.0
 30
0.0
 40
2.0
100
AcDbArc
 50
180.0
 51
0.0
  0
ARC
  5
DC
100
AcDbEntity
  8
side_plate
 62
256
370
-1
  6
ByLayer
100
AcDbCircle
 10
10.0
 20
-5.0
 30
0.0
 40
2.0
100
AcDbArc
 50
180.0
 51
0.0
  0
CIRCLE
  5
DD
100
AcDbEntity
100
AcDbCircle
  8
bolt_rear_support
 62
256
370
-1
  6
ByLayer
 10
5.0
 20
15.0
 30
0.0
 40
3.0
  0
CIRCLE
  5
DE
100
AcDbEntity
100
AcDbCircle
  8
bolt_rear_support
 62
256
370
-1
  6
ByLayer
 10
5.0
 20
-15.0
 30
0.0
 40
3.0
  0
CIRCLE
  5
DF
100
AcDbEntity
100
AcDbCircle
  8
bolt_front_support
 62
256
370
-1
  6
ByLayer
 10
5.0
 20
15.0
 30
0.0
 40
3.0
  0
CIRCLE
  5
E0
100
AcDbEntity
100
AcDbCircle
  8
bolt_front_support
 62
256
370
-1
  6
ByLayer
 10
5.0
 20
-15.0
 30
0.0
 40
3.0
  0
CIRCLE
  5
E1
100
AcDbEntity
100
AcDbCircle
  8
clamp_base
 62
256
370
-1
  6
ByLayer
 10
5.0
 20
15.0
 30
0.0
 40
3.0
  0
CIRCLE
  5
E2
100
AcDbEntity
100
AcDbCircle
  8
clamp_base
 62
256
370
-1
  6
ByLayer
 10
5.0
 20
-15.0
 30
0.0
 40
3.0
  0
LINE
  5
E3
100
AcDbEntity
100
AcDbLine
  8
clamp_base
 62
256
370
-1
  6
ByLayer
 10
-10.0
 20
5.0
 30
0.0
 11
-10.0
 21
9.0
 31
0.0
  0
LINE
  5
E4
100
AcDbEntity
100
AcDbLine
  8
clamp_base
 62
256
370
-1
  6
ByLayer
 10
-10.0
 20
-5.0
 30
0.0
 11
-10.0
 21
-9.0
 31
0.0
  0
LINE
  5
E5
100
AcDbEntity
100
AcDbLine
  8
clamp_base
 62
256
370
-1
  6
ByLayer
 10
-3.6640408138964431
 20
19.9934353680744366
 30
0.0
 11
-10.0
 21
9.0
 31
0.0
  0
LINE
  5
E6
100
AcDbEntity
100
AcDbLine
  8
clamp_base
 62
256
370
-1
  6
ByLayer
 10
-3.6640408138964431
 20
-19.9934353680744366
 30
0.0
 11
-10.0
 21
-9.0
 31
0.0
  0
LINE
  5
E7
100
AcDbEntity
100
AcDbLine
  8
clamp_base
 62
256
370
-1
  6
ByLayer
 10
13.0
 20
-9.0
 30
0.0
 11
10.0
 21
-5.0
 31
0.0
  0
LINE
  5
E8
100
AcDbEntity
100
AcDbLine
  8
clamp_base
 62
256
370
-1
  6
ByLayer
 10
13.0
 20
9.0
 30
0.0
 11
10.0
 21
5.0
 31
0.0
  0
ARC
  5
E9
100
AcDbEntity
  8
clamp_base
 62
7
370
0
  6
CONTINUOUS
100
AcDbCircle
 10
5.0
 20
15.0
 30
0.0
 40
10.0
100
AcDbArc
 50
323.1301023541560085
 51
150.0434217598590294
  0
ARC
  5
EA
100
AcDbEntity
  8
clamp_base
 62
7
370
0
  6
CONTINUOUS
100
AcDbCircle
 10
5.0
 20
-15.0
 30
0.0
 40
10.0
100
AcDbArc
 50
209.9565782401409706
 51
36.8698976458440129
  0
ARC
  5
EB
100
AcDbEntity
  8
11_teeth
 62
256
370
-1
  6
ByLayer
100
AcDbCircle
 10
45.0
 20
0.0
 30
0.0
 40
2.5
100
AcDbArc
 50
216.8698976458443042
 51
143.1301023541556674
  0
LINE
  5
EC
100
AcDbEntity
100
AcDbLine
  8
11_teeth
 62
256
370
-1
  6
ByLayer
 10
43.0000000000000071
 20
1.5000000000000095
 30
0.0
 11
43.0000000000000071
 21
-1.5000000000000091
 31
0.0
  0
ENDSEC
  0
SECTION
  2
OBJECTS
  0
DICTIONARY
  5
C
100
AcDbDictionary
280
0
281
1
  3
ACAD_GROUP
350
D
  3
ACAD_LAYOUT
350
1A
  3
ACAD_MLINESTYLE
350
17
  3
ACAD_PLOTSETTINGS
350
19
  3
ACAD_PLOTSTYLENAME
350
E
  3
AcDbVariableDictionary
350
ED
  0
DICTIONARY
  5
D
100
AcDbDictionary
280
0
281
1
  0
ACDBDICTIONARYWDFLT
  5
E
100
AcDbDictionary
281
1
  3
Normal
350
F
100
AcDbDictionaryWithDefault
340
F
  0
ACDBPLACEHOLDER
  5
F
  0
DICTIONARY
  5
17
100
AcDbDictionary
280
0
281
1
  3
Standard
350
18
  0
MLINESTYLE
  5
18
100
AcDbMlineStyle
  2
STANDARD
 70
0
  3

 62
256
 51
90.0
 52
90.0
 71
2
 49
0.5
 62
256
  6
BYLAYER
 49
-0.5
 62
256
  6
BYLAYER
  0
DICTIONARY
  5
19
100
AcDbDictionary
280
0
281
1
  0
DICTIONARY
  5
1A
100
AcDbDictionary
281
1
  3
Layout1
350
1E
  3
Layout2
350
26
  3
Model
350
22
  0
LAYOUT
  5
1E
100
AcDbPlotSettings
  1

  2
C:\Program Files\AutoCAD 2002\plotters\DWF ePlot (optimized for plotting).pc3
  4

  6

 40
0.0
 41
0.0
 42
0.0
 43
0.0
 44
0.0
 45
0.0
 46
0.0
 47
0.0
 48
0.0
 49
0.0
140
0.0
141
0.0
142
1.0
143
1.0
 70
688
 72
0
 73
0
 74
5
  7

 75
16
147
1.0
148
0.0
149
0.0
100
AcDbLayout
  1
Layout1
 70
1
 71
1
 10
0.0
 20
0.0
 11
420.0
 21
297.0
 12
0.0
 22
0.0
 32
0.0
 14
100000000000000000000.0
 24
100000000000000000000.0
 34
100000000000000000000.0
 15
-100000000000000000000.0
 25
-100000000000000000000.0
 35
-100000000000000000000.0
146
0.0
 13
0.0
 23
0.0
 33
0.0
 16
1.0
 26
0.0
 36
0.0
 17
0.0
 27
1.0
 37
0.0
 76
0
330
1B
  0
LAYOUT
  5
22
100
AcDbPlotSettings
  1

  2
C:\Program Files\AutoCAD 2002\plotters\DWF ePlot (optimized for plotting).pc3
  4

  6

 40
0.0
 41
0.0
 42
0.0
 43
0.0
 44
0.0
 45
0.0
 46
0.0
 47
0.0
 48
0.0
 49
0.0
140
0.0
141
0.0
142
1.0
143
1.0
 70
1712
 72
0
 73
0
 74
0
  7

 75
0
147
1.0
148
0.0
149
0.0
100
AcDbLayout
  1
Model
 70
1
 71
0
 10
0.0
 20
0.0
 11
12.0
 21
9.0
 12
0.0
 22
0.0
 32
0.0
 14
0.0
 24
0.0
 34
0.0
 15
0.0
 25
0.0
 35
0.0
146
0.0
 13
0.0
 23
0.0
 33
0.0
 16
1.0
 26
0.0
 36
0.0
 17
0.0
 27
1.0
 37
0.0
 76
0
330
1F
  0
LAYOUT
  5
26
100
AcDbPlotSettings
  1

  2
C:\Program Files\AutoCAD 2002\plotters\DWF ePlot (optimized for plotting).pc3
  4

  6

 40
0.0
 41
0.0
 42
0.0
 43
0.0
 44
0.0
 45
0.0
 46
0.0
 47
0.0
 48
0.0
 49
0.0
140
0.0
141
0.0
142
1.0
143
1.0
 70
688
 72
0
 73
0
 74
5
  7

 75
16
147
1.0
148
0.0
149
0.0
100
AcDbLayout
  1
Layout2
 70
1
 71
2
 10
0.0
 20
0.0
 11
12.0
 21
9.0
 12
0.0
 22
0.0
 32
0.0
 14
0.0
 24
0.0
 34
0.0
 15
0.0
 25
0.0
 35
0.0
146
0.0
 13
0.0
 23
0.0
 33
0.0
 16
1.0
 26
0.0
 36
0.0
 17
0.0
 27
1.0
 37
0.0
 76
0
330
23
  0
DICTIONARY
  5
ED
100
AcDbDictionary
281
1
  3
DIMASSOC
350
EF
  3
HIDETEXT
350
EE
  0
DICTIONARYVAR
  5
EE
100
DictionaryVariables
280
0
  1
2
  0
DICTIONARYVAR
  5
EF
100
DictionaryVariables
280
0
  1
1
  0
ENDSEC
  0
EOF
