999
dxflib 2.2.0.0
  0
SECTION
  2
HEADER
  9
$ACADVER
  1
AC1015
  9
$HANDSEED
  5
FFFF
  9
$DIMASZ
 40
2.5
  9
$PLIMMIN
 10
0.0
 20
0.0
  9
$DIMEXE
 40
1.25
  9
$DIMGAP
 40
0.625
  9
$PLIMMAX
 10
210.0
 20
297.0
  9
$INSUNITS
 70
4
  9
$DIMSTYLE
  2
Standard
  9
$MEASUREMENT
 70
1
  9
$DIMEXO
 40
0.625
  9
$DIMTXT
 40
2.5
  0
ENDSEC
  0
SECTION
  2
TABLES
  0
TABLE
  2
VPORT
  5
8
100
AcDbSymbolTable
 70
1
  0
VPORT
  5
30
100
AcDbSymbolTableRecord
100
AcDbViewportTableRecord
  2
*Active
 70
0
 10
0.0
 20
0.0
 11
1.0
 21
1.0
 12
286.3055555555554861
 22
148.5
 13
0.0
 23
0.0
 14
10.0
 24
10.0
 15
10.0
 25
10.0
 16
0.0
 26
0.0
 36
1.0
 17
0.0
 27
0.0
 37
0.0
 40
297.0
 41
1.92798353909465
 42
50.0
 43
0.0
 44
0.0
 50
0.0
 51
0.0
 71
0
 72
100
 73
1
 74
3
 75
1
 76
1
 77
0
 78
0
281
0
 65
1
110
0.0
120
0.0
130
0.0
111
1.0
121
0.0
131
0.0
112
0.0
122
1.0
132
0.0
 79
0
146
0.0
  0
ENDTAB
  0
TABLE
  2
LTYPE
  5
5
100
AcDbSymbolTable
 70
21
  0
LTYPE
  5
14
100
AcDbSymbolTableRecord
100
AcDbLinetypeTableRecord
  2
ByBlock
 70
0
  3

 72
65
 73
0
 40
0.0
  0
LTYPE
  5
15
100
AcDbSymbolTableRecord
100
AcDbLinetypeTableRecord
  2
ByLayer
 70
0
  3

 72
65
 73
0
 40
0.0
  0
LTYPE
  5
16
100
AcDbSymbolTableRecord
100
AcDbLinetypeTableRecord
  2
CONTINUOUS
 70
0
  3
Solid line
 72
65
 73
0
 40
0.0
  0
LTYPE
  5
31
100
AcDbSymbolTableRecord
100
AcDbLinetypeTableRecord
  2
DOT
 70
0
  3
Dot . . . . . . . . . . . . . . . . . . . . . .
 72
65
 73
2
 40
6.3499999999999996
 49
0.0
 74
0
 49
-6.3499999999999996
 74
0
  0
LTYPE
  5
32
100
AcDbSymbolTableRecord
100
AcDbLinetypeTableRecord
  2
DOT2
 70
0
  3
Dot (.5x) .....................................
 72
65
 73
2
 40
3.1749999999999998
 49
0.0
 74
0
 49
-3.1749999999999998
 74
0
  0
LTYPE
  5
33
100
AcDbSymbolTableRecord
100
AcDbLinetypeTableRecord
  2
DOTX2
 70
0
  3
Dot (2x) .  .  .  .  .  .  .  .  .  .  .  .  .
 72
65
 73
2
 40
12.6999999999999993
 49
0.0
 74
0
 49
-12.6999999999999993
 74
0
  0
LTYPE
  5
34
100
AcDbSymbolTableRecord
100
AcDbLinetypeTableRecord
  2
DASHED
 70
0
  3
Dashed __ __ __ __ __ __ __ __ __ __ __ __ __ _
 72
65
 73
2
 40
19.0500000000000007
 49
12.6999999999999993
 74
0
 49
-6.3499999999999996
 74
0
  0
LTYPE
  5
35
100
AcDbSymbolTableRecord
100
AcDbLinetypeTableRecord
  2
DASHED2
 70
0
  3
Dashed (.5x) _ _ _ _ _ _ _ _ _ _ _ _ _ _ _ _ _
 72
65
 73
2
 40
9.5250000000000004
 49
6.3499999999999996
 74
0
 49
-3.1749999999999998
 74
0
  0
LTYPE
  5
36
100
AcDbSymbolTableRecord
100
AcDbLinetypeTableRecord
  2
DASHEDX2
 70
0
  3
Dashed (2x) ____  ____  ____  ____  ____  ___
 72
65
 73
2
 40
38.1000000000000014
 49
25.3999999999999986
 74
0
 49
-12.6999999999999993
 74
0
  0
LTYPE
  5
37
100
AcDbSymbolTableRecord
100
AcDbLinetypeTableRecord
  2
DASHDOT
 70
0
  3
Dash dot __ . __ . __ . __ . __ . __ . __ . __
 72
65
 73
4
 40
25.3999999999999986
 49
12.6999999999999993
 74
0
 49
-6.3499999999999996
 74
0
 49
0.0
 74
0
 49
-6.3499999999999996
 74
0
  0
LTYPE
  5
38
100
AcDbSymbolTableRecord
100
AcDbLinetypeTableRecord
  2
DASHDOT2
 70
0
  3
Dash dot (.5x) _._._._._._._._._._._._._._._.
 72
65
 73
4
 40
12.6999999999999993
 49
6.3499999999999996
 74
0
 49
-3.1749999999999998
 74
0
 49
0.0
 74
0
 49
-3.1749999999999998
 74
0
  0
LTYPE
  5
39
100
AcDbSymbolTableRecord
100
AcDbLinetypeTableRecord
  2
DASHDOTX2
 70
0
  3
Dash dot (2x) ____  .  ____  .  ____  .  ___
 72
65
 73
4
 40
50.7999999999999972
 49
25.3999999999999986
 74
0
 49
-12.6999999999999993
 74
0
 49
0.0
 74
0
 49
-12.6999999999999993
 74
0
  0
LTYPE
  5
3A
100
AcDbSymbolTableRecord
100
AcDbLinetypeTableRecord
  2
DIVIDE
 70
0
  3
Divide ____ . . ____ . . ____ . . ____ . . ____
 72
65
 73
6
 40
31.75
 49
12.6999999999999993
 74
0
 49
-6.3499999999999996
 74
0
 49
0.0
 74
0
 49
-6.3499999999999996
 74
0
 49
0.0
 74
0
 49
-6.3499999999999996
 74
0
  0
LTYPE
  5
3B
100
AcDbSymbolTableRecord
100
AcDbLinetypeTableRecord
  2
DIVIDE2
 70
0
  3
Divide (.5x) __..__..__..__..__..__..__..__.._
 72
65
 73
6
 40
15.875
 49
6.3499999999999996
 74
0
 49
-3.1749999999999998
 74
0
 49
0.0
 74
0
 49
-3.1749999999999998
 74
0
 49
0.0
 74
0
 49
-3.1749999999999998
 74
0
  0
LTYPE
  5
3C
100
AcDbSymbolTableRecord
100
AcDbLinetypeTableRecord
  2
DIVIDEX2
 70
0
  3
Divide (2x) ________  .  .  ________  .  .  _
 72
65
 73
6
 40
63.5
 49
25.3999999999999986
 74
0
 49
-12.6999999999999993
 74
0
 49
0.0
 74
0
 49
-12.6999999999999993
 74
0
 49
0.0
 74
0
 49
-12.6999999999999993
 74
0
  0
LTYPE
  5
3D
100
AcDbSymbolTableRecord
100
AcDbLinetypeTableRecord
  2
CENTER
 70
0
  3
Center ____ _ ____ _ ____ _ ____ _ ____ _ ____
 72
65
 73
4
 40
50.7999999999999972
 49
31.75
 74
0
 49
-6.3499999999999996
 74
0
 49
6.3499999999999996
 74
0
 49
-6.3499999999999996
 74
0
  0
LTYPE
  5
3E
100
AcDbSymbolTableRecord
100
AcDbLinetypeTableRecord
  2
CENTER2
 70
0
  3
Center (.5x) ___ _ ___ _ ___ _ ___ _ ___ _ ___
 72
65
 73
4
 40
28.5749999999999993
 49
19.0500000000000007
 74
0
 49
-3.1749999999999998
 74
0
 49
3.1749999999999998
 74
0
 49
-3.1749999999999998
 74
0
  0
LTYPE
  5
3F
100
AcDbSymbolTableRecord
100
AcDbLinetypeTableRecord
  2
CENTERX2
 70
0
  3
Center (2x) ________  __  ________  __  _____
 72
65
 73
4
 40
101.5999999999999943
 49
63.5
 74
0
 49
-12.6999999999999993
 74
0
 49
12.6999999999999993
 74
0
 49
-12.6999999999999993
 74
0
  0
LTYPE
  5
40
100
AcDbSymbolTableRecord
100
AcDbLinetypeTableRecord
  2
BORDER
 70
0
  3
Border __ __ . __ __ . __ __ . __ __ . __ __ .
 72
65
 73
6
 40
44.4500000000000028
 49
12.6999999999999993
 74
0
 49
-6.3499999999999996
 74
0
 49
12.6999999999999993
 74
0
 49
-6.3499999999999996
 74
0
 49
0.0
 74
0
 49
-6.3499999999999996
 74
0
  0
LTYPE
  5
41
100
AcDbSymbolTableRecord
100
AcDbLinetypeTableRecord
  2
BORDER2
 70
0
  3
Border (.5x) __.__.__.__.__.__.__.__.__.__.__.
 72
65
 73
6
 40
22.2250000000000014
 49
6.3499999999999996
 74
0
 49
-3.1749999999999998
 74
0
 49
6.3499999999999996
 74
0
 49
-3.1749999999999998
 74
0
 49
0.0
 74
0
 49
-3.1749999999999998
 74
0
  0
LTYPE
  5
42
100
AcDbSymbolTableRecord
100
AcDbLinetypeTableRecord
  2
BORDERX2
 70
0
  3
Border (2x) ____  ____  .  ____  ____  .  ___
 72
65
 73
6
 40
88.9000000000000057
 49
25.3999999999999986
 74
0
 49
-12.6999999999999993
 74
0
 49
25.3999999999999986
 74
0
 49
-12.6999999999999993
 74
0
 49
0.0
 74
0
 49
-12.6999999999999993
 74
0
  0
ENDTAB
  0
TABLE
  2
LAYER
  5
2
100
AcDbSymbolTable
 70
1
  0
LAYER
  5
10
100
AcDbSymbolTableRecord
100
AcDbLayerTableRecord
  2
0
 70
0
 62
7
  6
CONTINUOUS
290
1
390
F
  0
ENDTAB
  0
TABLE
  2
STYLE
  5
3
100
AcDbSymbolTable
 70
1
  0
STYLE
  5
11
100
AcDbSymbolTableRecord
100
AcDbTextStyleTableRecord
  2
Standard
 70
0
 40
0.0
 41
0.75
 50
0.0
 71
0
 42
2.5
  3
txt
  4

  0
ENDTAB
  0
TABLE
  2
VIEW
  5
6
100
AcDbSymbolTable
 70
0
  0
ENDTAB
  0
TABLE
  2
UCS
  5
7
100
AcDbSymbolTable
 70
0
  0
ENDTAB
  0
TABLE
  2
APPID
  5
9
100
AcDbSymbolTable
 70
1
  0
APPID
  5
12
100
AcDbSymbolTableRecord
100
AcDbRegAppTableRecord
  2
ACAD
 70
0
  0
ENDTAB
  0
TABLE
  2
DIMSTYLE
  5
A
100
AcDbSymbolTable
 70
1
100
AcDbDimStyleTable
 71
0
  0
DIMSTYLE
105
27
100
AcDbSymbolTableRecord
100
AcDbDimStyleTableRecord
  2
Standard
 41
2.5
 42
0.625
 43
3.75
 44
1.25
 70
0
 73
0
 74
0
 77
1
 78
8
140
2.5
141
2.5
143
0.03937007874016
147
0.625
171
3
172
1
271
2
272
2
274
3
278
44
283
0
284
8
340
11
  0
ENDTAB
  0
TABLE
  2
BLOCK_RECORD
  5
1
100
AcDbSymbolTable
 70
1
  0
BLOCK_RECORD
  5
1F
100
AcDbSymbolTableRecord
100
AcDbBlockTableRecord
  2
*Model_Space
340
22
  0
BLOCK_RECORD
  5
1B
100
AcDbSymbolTableRecord
100
AcDbBlockTableRecord
  2
*Paper_Space
340
1E
  0
BLOCK_RECORD
  5
23
100
AcDbSymbolTableRecord
100
AcDbBlockTableRecord
  2
*Paper_Space0
340
26
  0
ENDTAB
  0
ENDSEC
  0
SECTION
  2
BLOCKS
  0
BLOCK
  5
20
100
AcDbEntity
  8
0
100
AcDbBlockBegin
  2
*Model_Space
 70
0
 10
0.0
 20
0.0
 30
0.0
  3
*Model_Space
  1

  0
ENDBLK
  5
21
100
AcDbEntity
  8
0
100
AcDbBlockEnd
  0
BLOCK
  5
1C
100
AcDbEntity
 67
1
  8
0
100
AcDbBlockBegin
  2
*Paper_Space
 70
0
 10
0.0
 20
0.0
 30
0.0
  3
*Paper_Space
  1

  0
ENDBLK
  5
1D
100
AcDbEntity
 67
1
  8
0
100
AcDbBlockEnd
  0
BLOCK
  5
24
100
AcDbEntity
  8
0
100
AcDbBlockBegin
  2
*Paper_Space0
 70
0
 10
0.0
 20
0.0
 30
0.0
  3
*Paper_Space0
  1

  0
ENDBLK
  5
25
100
AcDbEntity
  8
0
100
AcDbBlockEnd
  0
ENDSEC
  0
SECTION
  2
ENTITIES
  0
LINE
  5
43
100
AcDbEntity
100
AcDbLine
  8
0
 62
256
370
-1
  6
ByLayer
 10
-19.9999999999999964
 20
-25.0
 30
0.0
 11
19.9999999999999893
 21
-25.0000000000000071
 31
0.0
  0
LINE
  5
44
100
AcDbEntity
100
AcDbLine
  8
0
 62
256
370
-1
  6
ByLayer
 10
-19.9999999999999929
 20
25.0000000000000036
 30
0.0
 11
20.0
 21
24.9999999999999964
 31
0.0
  0
LINE
  5
45
100
AcDbEntity
100
AcDbLine
  8
0
 62
256
370
-1
  6
ByLayer
 10
19.9999999999999964
 20
-10.0000000000000071
 30
0.0
 11
26.0
 21
-10.0000000000000036
 31
0.0
  0
LINE
  5
46
100
AcDbEntity
100
AcDbLine
  8
0
 62
256
370
-1
  6
ByLayer
 10
26.0
 20
-10.0000000000000036
 30
0.0
 11
26.0000000000000036
 21
9.9999999999999911
 31
0.0
  0
LINE
  5
47
100
AcDbEntity
100
AcDbLine
  8
0
 62
256
370
-1
  6
ByLayer
 10
26.0000000000000036
 20
9.9999999999999911
 30
0.0
 11
20.0000000000000036
 21
9.9999999999999964
 31
0.0
  0
LINE
  5
48
100
AcDbEntity
100
AcDbLine
  8
0
 62
256
370
-1
  6
ByLayer
 10
20.0000000000000036
 20
9.9999999999999964
 30
0.0
 11
20.0
 21
24.9999999999999964
 31
0.0
  0
LINE
  5
49
100
AcDbEntity
100
AcDbLine
  8
0
 62
256
370
-1
  6
ByLayer
 10
19.9999999999999964
 20
-10.0000000000000071
 30
0.0
 11
19.9999999999999893
 21
-25.0000000000000071
 31
0.0
  0
LINE
  5
4A
100
AcDbEntity
100
AcDbLine
  8
0
 62
256
370
-1
  6
ByLayer
 10
-26.0000000000000036
 20
-9.9999999999999947
 30
0.0
 11
-26.0
 21
10.0
 31
0.0
  0
LINE
  5
4B
100
AcDbEntity
100
AcDbLine
  8
0
 62
256
370
-1
  6
ByLayer
 10
-26.0
 20
10.0
 30
0.0
 11
-20.0
 21
10.0000000000000036
 31
0.0
  0
LINE
  5
4C
100
AcDbEntity
100
AcDbLine
  8
0
 62
256
370
-1
  6
ByLayer
 10
-20.0
 20
10.0000000000000036
 30
0.0
 11
-19.9999999999999929
 21
25.0000000000000036
 31
0.0
  0
CIRCLE
  5
4D
100
AcDbEntity
100
AcDbCircle
  8
0
 62
256
370
-1
  6
ByLayer
 10
5.0
 20
15.0
 30
0.0
 40
3.0
  0
CIRCLE
  5
4E
100
AcDbEntity
100
AcDbCircle
  8
0
 62
256
370
-1
  6
ByLayer
 10
5.0
 20
-15.0
 30
0.0
 40
3.0
  0
CIRCLE
  5
4F
100
AcDbEntity
100
AcDbCircle
  8
0
 62
256
370
-1
  6
ByLayer
 10
-37.0
 20
0.0
 30
0.0
 40
9.5
  0
LINE
  5
50
100
AcDbEntity
100
AcDbLine
  8
0
 62
256
370
-1
  6
ByLayer
 10
-42.0
 20
25.0
 30
0.0
 11
-42.0
 21
19.0
 31
0.0
  0
LINE
  5
51
100
AcDbEntity
100
AcDbLine
  8
0
 62
256
370
-1
  6
ByLayer
 10
-42.0
 20
19.0
 30
0.0
 11
-32.0
 21
19.0
 31
0.0
  0
LINE
  5
52
100
AcDbEntity
100
AcDbLine
  8
0
 62
256
370
-1
  6
ByLayer
 10
-32.0
 20
19.0
 30
0.0
 11
-32.0
 21
25.0
 31
0.0
  0
LINE
  5
53
100
AcDbEntity
100
AcDbLine
  8
0
 62
256
370
-1
  6
ByLayer
 10
-42.0
 20
-25.0
 30
0.0
 11
-42.0
 21
-19.0
 31
0.0
  0
LINE
  5
54
100
AcDbEntity
100
AcDbLine
  8
0
 62
256
370
-1
  6
ByLayer
 10
-42.0
 20
-19.0
 30
0.0
 11
-32.0
 21
-19.0
 31
0.0
  0
LINE
  5
55
100
AcDbEntity
100
AcDbLine
  8
0
 62
256
370
-1
  6
ByLayer
 10
-32.0
 20
-19.0
 30
0.0
 11
-32.0
 21
-25.0
 31
0.0
  0
LINE
  5
56
100
AcDbEntity
100
AcDbLine
  8
0
 62
256
370
-1
  6
ByLayer
 10
-20.0
 20
-10.0
 30
0.0
 11
-26.0
 21
-10.0
 31
0.0
  0
LINE
  5
57
100
AcDbEntity
100
AcDbLine
  8
0
 62
256
370
-1
  6
ByLayer
 10
-48.0
 20
20.0
 30
0.0
 11
-54.0
 21
20.0
 31
0.0
  0
LINE
  5
58
100
AcDbEntity
100
AcDbLine
  8
0
 62
256
370
-1
  6
ByLayer
 10
-54.0
 20
20.0
 30
0.0
 11
-54.0
 21
10.0
 31
0.0
  0
LINE
  5
59
100
AcDbEntity
100
AcDbLine
  8
0
 62
256
370
-1
  6
ByLayer
 10
-54.0
 20
10.0
 30
0.0
 11
-48.0
 21
10.0
 31
0.0
  0
LINE
  5
5A
100
AcDbEntity
100
AcDbLine
  8
0
 62
256
370
-1
  6
ByLayer
 10
-48.0
 20
-10.0
 30
0.0
 11
-54.0
 21
-10.0
 31
0.0
  0
LINE
  5
5B
100
AcDbEntity
100
AcDbLine
  8
0
 62
256
370
-1
  6
ByLayer
 10
-54.0
 20
-10.0
 30
0.0
 11
-54.0
 21
-20.0
 31
0.0
  0
LINE
  5
5C
100
AcDbEntity
100
AcDbLine
  8
0
 62
256
370
-1
  6
ByLayer
 10
-54.0
 20
-20.0
 30
0.0
 11
-48.0
 21
-20.0
 31
0.0
  0
LINE
  5
5D
100
AcDbEntity
100
AcDbLine
  8
0
 62
256
370
-1
  6
ByLayer
 10
-48.0
 20
-20.0
 30
0.0
 11
-48.0
 21
-10.0
 31
0.0
  0
LINE
  5
5E
100
AcDbEntity
100
AcDbLine
  8
0
 62
256
370
-1
  6
ByLayer
 10
-48.0
 20
20.0
 30
0.0
 11
-48.0
 21
10.0
 31
0.0
  0
LINE
  5
5F
100
AcDbEntity
100
AcDbLine
  8
0
 62
256
370
-1
  6
ByLayer
 10
-59.0
 20
20.0
 30
0.0
 11
-59.0
 21
-20.0
 31
0.0
  0
ARC
  5
60
100
AcDbEntity
  8
0
 62
256
370
-1
  6
ByLayer
100
AcDbCircle
 10
-54.0
 20
20.0
 30
0.0
 40
5.0
100
AcDbArc
 50
90.0
 51
180.0
  0
ARC
  5
61
100
AcDbEntity
  8
0
 62
256
370
-1
  6
ByLayer
100
AcDbCircle
 10
-54.0
 20
-20.0
 30
0.0
 40
5.0
100
AcDbArc
 50
180.0
 51
270.0
  0
LINE
  5
62
100
AcDbEntity
100
AcDbLine
  8
0
 62
256
370
-1
  6
ByLayer
 10
-54.0
 20
25.0
 30
0.0
 11
-42.0
 21
25.0
 31
0.0
  0
LINE
  5
63
100
AcDbEntity
100
AcDbLine
  8
0
 62
256
370
-1
  6
ByLayer
 10
-54.0
 20
-25.0
 30
0.0
 11
-42.0
 21
-25.0
 31
0.0
  0
LINE
  5
64
100
AcDbEntity
100
AcDbLine
  8
0
 62
256
370
-1
  6
ByLayer
 10
-32.0
 20
25.0
 30
0.0
 11
-20.0
 21
25.0
 31
0.0
  0
LINE
  5
65
100
AcDbEntity
100
AcDbLine
  8
0
 62
256
370
-1
  6
ByLayer
 10
-20.0
 20
-10.0
 30
0.0
 11
-20.0
 21
-25.0
 31
0.0
  0
LINE
  5
66
100
AcDbEntity
100
AcDbLine
  8
0
 62
256
370
-1
  6
ByLayer
 10
-20.0
 20
-25.0
 30
0.0
 11
-32.0
 21
-25.0
 31
0.0
  0
LINE
  5
67
100
AcDbEntity
100
AcDbLine
  8
0
 62
256
370
-1
  6
ByLayer
 10
-26.0000000000000107
 20
35.0000000000000071
 30
0.0
 11
-32.0000000000000213
 21
35.0000000000000142
 31
0.0
  0
LINE
  5
68
100
AcDbEntity
100
AcDbLine
  8
0
 62
256
370
-1
  6
ByLayer
 10
-32.0000000000000213
 20
35.0000000000000142
 30
0.0
 11
-32.0
 21
25.0
 31
0.0
  0
LINE
  5
69
100
AcDbEntity
100
AcDbLine
  8
0
 62
256
370
-1
  6
ByLayer
 10
-26.0000000000000107
 20
35.0000000000000071
 30
0.0
 11
-26.0000000000000142
 21
40.0000000000000142
 31
0.0
  0
LINE
  5
6A
100
AcDbEntity
100
AcDbLine
  8
0
 62
256
370
-1
  6
ByLayer
 10
13.9999999999999787
 20
40.0000000000000355
 30
0.0
 11
13.9999999999999858
 21
34.9999999999999645
 31
0.0
  0
LINE
  5
6B
100
AcDbEntity
100
AcDbLine
  8
0
 62
256
370
-1
  6
ByLayer
 10
13.9999999999999858
 20
34.9999999999999645
 30
0.0
 11
19.9999999999999858
 21
35.0000000000000284
 31
0.0
  0
LINE
  5
6C
100
AcDbEntity
100
AcDbLine
  8
0
 62
256
370
-1
  6
ByLayer
 10
19.9999999999999858
 20
35.0000000000000284
 30
0.0
 11
19.9999999999999893
 21
25.0000000000000071
 31
0.0
  0
CIRCLE
  5
6D
100
AcDbEntity
100
AcDbCircle
  8
0
 62
256
370
-1
  6
ByLayer
 10
-1.0000000000000036
 20
30.0
 30
0.0
 40
3.0
  0
LINE
  5
6E
100
AcDbEntity
100
AcDbLine
  8
0
 62
256
370
-1
  6
ByLayer
 10
-26.0000000000000142
 20
-35.0000000000000071
 30
0.0
 11
-32.0000000000000284
 21
-35.0000000000000142
 31
0.0
  0
LINE
  5
6F
100
AcDbEntity
100
AcDbLine
  8
0
 62
256
370
-1
  6
ByLayer
 10
-32.0000000000000284
 20
-35.0000000000000142
 30
0.0
 11
-32.0000000000000142
 21
-24.9999999999999893
 31
0.0
  0
LINE
  5
70
100
AcDbEntity
100
AcDbLine
  8
0
 62
256
370
-1
  6
ByLayer
 10
-26.0000000000000142
 20
-35.0000000000000071
 30
0.0
 11
-26.0000000000000178
 21
-40.0000000000000142
 31
0.0
  0
LINE
  5
71
100
AcDbEntity
100
AcDbLine
  8
0
 62
256
370
-1
  6
ByLayer
 10
13.9999999999999503
 20
-40.0000000000000568
 30
0.0
 11
13.9999999999999716
 21
-34.9999999999999787
 31
0.0
  0
LINE
  5
72
100
AcDbEntity
100
AcDbLine
  8
0
 62
256
370
-1
  6
ByLayer
 10
13.9999999999999716
 20
-34.9999999999999787
 30
0.0
 11
20.0000000000000071
 21
-35.0000000000000071
 31
0.0
  0
LINE
  5
73
100
AcDbEntity
100
AcDbLine
  8
0
 62
256
370
-1
  6
ByLayer
 10
20.0000000000000071
 20
-35.0000000000000071
 30
0.0
 11
19.9999999999999716
 21
-25.0000000000000355
 31
0.0
  0
CIRCLE
  5
74
100
AcDbEntity
100
AcDbCircle
  8
0
 62
256
370
-1
  6
ByLayer
 10
-1.0000000000000568
 20
-30.0000000000000284
 30
0.0
 40
3.0
  0
LINE
  5
75
100
AcDbEntity
100
AcDbLine
  8
0
 62
256
370
-1
  6
ByLayer
 10
-26.0000000000000178
 20
-40.0000000000000142
 30
0.0
 11
13.9999999999999503
 21
-40.0000000000000568
 31
0.0
  0
LINE
  5
76
100
AcDbEntity
100
AcDbLine
  8
0
 62
256
370
-1
  6
ByLayer
 10
19.9999999999999858
 20
56.0000000000000142
 30
0.0
 11
13.9999999999999858
 21
56.0000000000000142
 31
0.0
  0
LINE
  5
77
100
AcDbEntity
100
AcDbLine
  8
0
 62
256
370
-1
  6
ByLayer
 10
13.9999999999999858
 20
56.0000000000000142
 30
0.0
 11
13.9999999999999858
 21
62.0000000000000142
 31
0.0
  0
LINE
  5
78
100
AcDbEntity
100
AcDbLine
  8
0
 62
256
370
-1
  6
ByLayer
 10
13.9999999999999858
 20
62.0000000000000142
 30
0.0
 11
-26.0000000000000142
 21
62.0000000000000142
 31
0.0
  0
LINE
  5
79
100
AcDbEntity
100
AcDbLine
  8
0
 62
256
370
-1
  6
ByLayer
 10
-26.0000000000000142
 20
62.0000000000000142
 30
0.0
 11
-26.0000000000000142
 21
56.0000000000000142
 31
0.0
  0
LINE
  5
7A
100
AcDbEntity
100
AcDbLine
  8
0
 62
256
370
-1
  6
ByLayer
 10
-26.0000000000000142
 20
56.0000000000000142
 30
0.0
 11
-32.0000000000000142
 21
56.0000000000000142
 31
0.0
  0
LINE
  5
7B
100
AcDbEntity
100
AcDbLine
  8
0
 62
256
370
-1
  6
ByLayer
 10
-32.0000000000000142
 20
56.0000000000000142
 30
0.0
 11
-32.0000000000000142
 21
46.0000000000000142
 31
0.0
  0
LINE
  5
7C
100
AcDbEntity
100
AcDbLine
  8
0
 62
256
370
-1
  6
ByLayer
 10
-32.0000000000000142
 20
46.0000000000000142
 30
0.0
 11
-26.0000000000000142
 21
46.0000000000000142
 31
0.0
  0
LINE
  5
7D
100
AcDbEntity
100
AcDbLine
  8
0
 62
256
370
-1
  6
ByLayer
 10
-26.0000000000000142
 20
46.0000000000000142
 30
0.0
 11
-26.0000000000000142
 21
40.0000000000000142
 31
0.0
  0
LINE
  5
7E
100
AcDbEntity
100
AcDbLine
  8
0
 62
256
370
-1
  6
ByLayer
 10
-26.0000000000000142
 20
40.0000000000000142
 30
0.0
 11
13.9999999999999858
 21
40.0000000000000142
 31
0.0
  0
LINE
  5
7F
100
AcDbEntity
100
AcDbLine
  8
0
 62
256
370
-1
  6
ByLayer
 10
13.9999999999999858
 20
40.0000000000000142
 30
0.0
 11
13.9999999999999858
 21
46.0000000000000142
 31
0.0
  0
LINE
  5
80
100
AcDbEntity
100
AcDbLine
  8
0
 62
256
370
-1
  6
ByLayer
 10
13.9999999999999858
 20
46.0000000000000142
 30
0.0
 11
19.9999999999999858
 21
46.0000000000000142
 31
0.0
  0
LINE
  5
81
100
AcDbEntity
100
AcDbLine
  8
0
 62
256
370
-1
  6
ByLayer
 10
19.9999999999999858
 20
46.0000000000000142
 30
0.0
 11
19.9999999999999858
 21
56.0000000000000142
 31
0.0
  0
LINE
  5
82
100
AcDbEntity
100
AcDbLine
  8
0
 62
256
370
-1
  6
ByLayer
 10
-7.5000000000000142
 20
56.0000000000000142
 30
0.0
 11
-7.5000000000000142
 21
46.0000000000000142
 31
0.0
  0
LINE
  5
83
100
AcDbEntity
100
AcDbLine
  8
0
 62
256
370
-1
  6
ByLayer
 10
-4.5000000000000142
 20
56.0000000000000142
 30
0.0
 11
-4.5000000000000142
 21
46.0000000000000142
 31
0.0
  0
ARC
  5
84
100
AcDbEntity
  8
0
 62
256
370
-1
  6
ByLayer
100
AcDbCircle
 10
-6.0000000000000142
 20
56.0000000000000142
 30
0.0
 40
1.5
100
AcDbArc
 50
0.0
 51
180.0
  0
ARC
  5
85
100
AcDbEntity
  8
0
 62
256
370
-1
  6
ByLayer
100
AcDbCircle
 10
-6.0000000000000142
 20
46.0000000000000142
 30
0.0
 40
1.5
100
AcDbArc
 50
180.0
 51
0.0
  0
LINE
  5
86
100
AcDbEntity
100
AcDbLine
  8
0
 62
256
370
-1
  6
ByLayer
 10
-18.0000000000000142
 20
56.0000000000000142
 30
0.0
 11
-18.0000000000000142
 21
46.0000000000000142
 31
0.0
  0
LINE
  5
87
100
AcDbEntity
100
AcDbLine
  8
0
 62
256
370
-1
  6
ByLayer
 10
-14.0000000000000142
 20
56.0000000000000142
 30
0.0
 11
-14.0000000000000142
 21
46.0000000000000142
 31
0.0
  0
LINE
  5
88
100
AcDbEntity
100
AcDbLine
  8
0
 62
256
370
-1
  6
ByLayer
 10
1.9999999999999858
 20
56.0000000000000142
 30
0.0
 11
1.9999999999999858
 21
46.0000000000000142
 31
0.0
  0
LINE
  5
89
100
AcDbEntity
100
AcDbLine
  8
0
 62
256
370
-1
  6
ByLayer
 10
5.9999999999999858
 20
56.0000000000000142
 30
0.0
 11
5.9999999999999858
 21
46.0000000000000142
 31
0.0
  0
ARC
  5
8A
100
AcDbEntity
  8
0
 62
256
370
-1
  6
ByLayer
100
AcDbCircle
 10
-16.0000000000000142
 20
56.0000000000000142
 30
0.0
 40
2.0
100
AcDbArc
 50
0.0
 51
180.0
  0
ARC
  5
8B
100
AcDbEntity
  8
0
 62
256
370
-1
  6
ByLayer
100
AcDbCircle
 10
3.9999999999999858
 20
56.0000000000000142
 30
0.0
 40
2.0
100
AcDbArc
 50
0.0
 51
180.0
  0
ARC
  5
8C
100
AcDbEntity
  8
0
 62
256
370
-1
  6
ByLayer
100
AcDbCircle
 10
-16.0000000000000142
 20
46.0000000000000142
 30
0.0
 40
2.0
100
AcDbArc
 50
180.0
 51
0.0
  0
ARC
  5
8D
100
AcDbEntity
  8
0
 62
256
370
-1
  6
ByLayer
100
AcDbCircle
 10
3.9999999999999858
 20
46.0000000000000142
 30
0.0
 40
2.0
100
AcDbArc
 50
180.0
 51
0.0
  0
LINE
  5
8E
100
AcDbEntity
100
AcDbLine
  8
0
 62
256
370
-1
  6
ByLayer
 10
19.9999999999999858
 20
-56.0000000000000142
 30
0.0
 11
13.9999999999999787
 21
-56.0000000000000284
 31
0.0
  0
LINE
  5
8F
100
AcDbEntity
100
AcDbLine
  8
0
 62
256
370
-1
  6
ByLayer
 10
13.9999999999999787
 20
-56.0000000000000284
 30
0.0
 11
13.9999999999998792
 21
-62.0000000000000924
 31
0.0
  0
LINE
  5
90
100
AcDbEntity
100
AcDbLine
  8
0
 62
256
370
-1
  6
ByLayer
 10
13.9999999999998792
 20
-62.0000000000000924
 30
0.0
 11
-26.0000000000000249
 21
-62.0000000000000142
 31
0.0
  0
LINE
  5
91
100
AcDbEntity
100
AcDbLine
  8
0
 62
256
370
-1
  6
ByLayer
 10
-26.0000000000000249
 20
-62.0000000000000142
 30
0.0
 11
-26.0000000000000249
 21
-56.0000000000000142
 31
0.0
  0
LINE
  5
92
100
AcDbEntity
100
AcDbLine
  8
0
 62
256
370
-1
  6
ByLayer
 10
-26.0000000000000249
 20
-56.0000000000000142
 30
0.0
 11
-31.9999999999999929
 21
-56.0000000000000142
 31
0.0
  0
LINE
  5
93
100
AcDbEntity
100
AcDbLine
  8
0
 62
256
370
-1
  6
ByLayer
 10
-31.9999999999999929
 20
-56.0000000000000142
 30
0.0
 11
-32.0000000000000426
 21
-46.0000000000000071
 31
0.0
  0
LINE
  5
94
100
AcDbEntity
100
AcDbLine
  8
0
 62
256
370
-1
  6
ByLayer
 10
-32.0000000000000426
 20
-46.0000000000000071
 30
0.0
 11
-26.0000000000000213
 21
-46.0000000000000142
 31
0.0
  0
LINE
  5
95
100
AcDbEntity
100
AcDbLine
  8
0
 62
256
370
-1
  6
ByLayer
 10
-26.0000000000000213
 20
-46.0000000000000142
 30
0.0
 11
-26.0000000000000178
 21
-40.0000000000000142
 31
0.0
  0
LINE
  5
96
100
AcDbEntity
100
AcDbLine
  8
0
 62
256
370
-1
  6
ByLayer
 10
13.9999999999999503
 20
-40.0000000000000568
 30
0.0
 11
14.0000000000000071
 21
-46.0
 31
0.0
  0
LINE
  5
97
100
AcDbEntity
100
AcDbLine
  8
0
 62
256
370
-1
  6
ByLayer
 10
14.0000000000000071
 20
-46.0
 30
0.0
 11
20.0000000000000142
 21
-45.9999999999999787
 31
0.0
  0
LINE
  5
98
100
AcDbEntity
100
AcDbLine
  8
0
 62
256
370
-1
  6
ByLayer
 10
20.0000000000000142
 20
-45.9999999999999787
 30
0.0
 11
19.9999999999999858
 21
-56.0000000000000142
 31
0.0
  0
LINE
  5
99
100
AcDbEntity
100
AcDbLine
  8
0
 62
256
370
-1
  6
ByLayer
 10
-7.5000000000000604
 20
-56.0000000000000284
 30
0.0
 11
-7.5000000000000213
 21
-46.0000000000000142
 31
0.0
  0
LINE
  5
9A
100
AcDbEntity
100
AcDbLine
  8
0
 62
256
370
-1
  6
ByLayer
 10
-4.5000000000000924
 20
-56.0000000000000497
 30
0.0
 11
-4.5000000000000142
 21
-46.0000000000000142
 31
0.0
  0
ARC
  5
9B
100
AcDbEntity
  8
0
 62
256
370
-1
  6
ByLayer
100
AcDbCircle
 10
-6.0000000000001066
 20
-56.0000000000000497
 30
0.0
 40
1.5
100
AcDbArc
 50
180.0
 51
360.0
  0
ARC
  5
9C
100
AcDbEntity
  8
0
 62
256
370
-1
  6
ByLayer
100
AcDbCircle
 10
-6.0000000000000888
 20
-46.0000000000000497
 30
0.0
 40
1.5
100
AcDbArc
 50
360.0
 51
180.0
  0
LINE
  5
9D
100
AcDbEntity
100
AcDbLine
  8
0
 62
256
370
-1
  6
ByLayer
 10
-18.0000000000000639
 20
-56.0000000000000284
 30
0.0
 11
-18.0000000000000426
 21
-46.0000000000000142
 31
0.0
  0
LINE
  5
9E
100
AcDbEntity
100
AcDbLine
  8
0
 62
256
370
-1
  6
ByLayer
 10
-13.9999999999999858
 20
-56.0000000000000142
 30
0.0
 11
-13.9999999999999982
 21
-46.0000000000000071
 31
0.0
  0
LINE
  5
9F
100
AcDbEntity
100
AcDbLine
  8
0
 62
256
370
-1
  6
ByLayer
 10
1.9999999999999361
 20
-56.0000000000000426
 30
0.0
 11
1.9999999999999893
 21
-46.0000000000000142
 31
0.0
  0
LINE
  5
A0
100
AcDbEntity
100
AcDbLine
  8
0
 62
256
370
-1
  6
ByLayer
 10
5.9999999999999609
 20
-56.0000000000000355
 30
0.0
 11
5.9999999999999432
 21
-46.0000000000000497
 31
0.0
  0
ARC
  5
A1
100
AcDbEntity
  8
0
 62
256
370
-1
  6
ByLayer
100
AcDbCircle
 10
-16.0000000000000639
 20
-56.0000000000000284
 30
0.0
 40
2.0
100
AcDbArc
 50
180.0
 51
360.0
  0
ARC
  5
A2
100
AcDbEntity
  8
0
 62
256
370
-1
  6
ByLayer
100
AcDbCircle
 10
3.9999999999999076
 20
-56.0000000000000568
 30
0.0
 40
2.0
100
AcDbArc
 50
180.0
 51
360.0
  0
ARC
  5
A3
100
AcDbEntity
  8
0
 62
256
370
-1
  6
ByLayer
100
AcDbCircle
 10
-16.0000000000000604
 20
-46.0000000000000213
 30
0.0
 40
2.0
100
AcDbArc
 50
360.0
 51
180.0
  0
ARC
  5
A4
100
AcDbEntity
  8
0
 62
256
370
-1
  6
ByLayer
100
AcDbCircle
 10
3.999999999999968
 20
-46.0000000000000213
 30
0.0
 40
2.0
100
AcDbArc
 50
360.0
 51
180.0
  0
CIRCLE
  5
A5
100
AcDbEntity
100
AcDbCircle
  8
0
 62
256
370
-1
  6
ByLayer
 10
-42.0000000000000213
 20
40.0000000000000142
 30
0.0
 40
3.0
  0
LINE
  5
A6
100
AcDbEntity
100
AcDbLine
  8
0
 62
256
370
-1
  6
ByLayer
 10
-42.0000000000000142
 20
49.0000000000000355
 30
0.0
 11
-32.0000000000000142
 21
49.0000000000000213
 31
0.0
  0
LINE
  5
A7
100
AcDbEntity
100
AcDbLine
  8
0
 62
256
370
-1
  6
ByLayer
 10
-42.0000000000000284
 20
31.0000000000000213
 30
0.0
 11
-32.0000000000000284
 21
31.0000000000000142
 31
0.0
  0
ARC
  5
A8
100
AcDbEntity
  8
0
 62
256
370
-1
  6
ByLayer
100
AcDbCircle
 10
-42.0000000000000213
 20
40.0000000000000142
 30
0.0
 40
9.0
100
AcDbArc
 50
89.9999999999999858
 51
270.0
  0
LINE
  5
A9
100
AcDbEntity
100
AcDbLine
  8
0
 62
256
370
-1
  6
ByLayer
 10
-32.0
 20
46.0
 30
0.0
 11
-32.0
 21
45.0
 31
0.0
  0
LINE
  5
AA
100
AcDbEntity
100
AcDbLine
  8
0
 62
256
370
-1
  6
ByLayer
 10
-32.0
 20
45.0
 30
0.0
 11
-26.0
 21
45.0
 31
0.0
  0
CIRCLE
  5
AB
100
AcDbEntity
100
AcDbCircle
  8
0
 62
256
370
-1
  6
ByLayer
 10
-42.0000000000000284
 20
-40.0000000000000142
 30
0.0
 40
3.0
  0
LINE
  5
AC
100
AcDbEntity
100
AcDbLine
  8
0
 62
256
370
-1
  6
ByLayer
 10
-42.0000000000000284
 20
-49.0000000000000284
 30
0.0
 11
-32.0000000000000639
 21
-49.0000000000000142
 31
0.0
  0
LINE
  5
AD
100
AcDbEntity
100
AcDbLine
  8
0
 62
256
370
-1
  6
ByLayer
 10
-42.0000000000000284
 20
-31.0000000000000178
 30
0.0
 11
-32.0000000000000711
 21
-31.0
 31
0.0
  0
ARC
  5
AE
100
AcDbEntity
  8
0
 62
256
370
-1
  6
ByLayer
100
AcDbCircle
 10
-42.0000000000000284
 20
-40.0000000000000142
 30
0.0
 40
9.0
100
AcDbArc
 50
89.9999999999999858
 51
270.0
  0
LINE
  5
AF
100
AcDbEntity
100
AcDbLine
  8
0
 62
256
370
-1
  6
ByLayer
 10
-32.0000000000000426
 20
-45.9999999999999929
 30
0.0
 11
-32.0000000000000071
 21
-45.0
 31
0.0
  0
LINE
  5
B0
100
AcDbEntity
100
AcDbLine
  8
0
 62
256
370
-1
  6
ByLayer
 10
-32.0000000000000071
 20
-45.0
 30
0.0
 11
-26.0000000000000178
 21
-45.0
 31
0.0
  0
CIRCLE
  5
B1
100
AcDbEntity
100
AcDbCircle
  8
0
 62
256
370
-1
  6
ByLayer
 10
44.9999999999999858
 20
-31.0
 30
0.0
 40
11.0
  0
CIRCLE
  5
B2
100
AcDbEntity
100
AcDbCircle
  8
0
 62
256
370
-1
  6
ByLayer
 10
44.9999999999999858
 20
-76.0
 30
0.0
 40
9.5
  0
CIRCLE
  5
B3
100
AcDbEntity
100
AcDbCircle
  8
0
 62
256
370
-1
  6
ByLayer
 10
29.2499999999999929
 20
-46.75
 30
0.0
 40
1.5
  0
CIRCLE
  5
B4
100
AcDbEntity
100
AcDbCircle
  8
0
 62
256
370
-1
  6
ByLayer
 10
29.2499999999999716
 20
-15.25
 30
0.0
 40
1.5
  0
CIRCLE
  5
B5
100
AcDbEntity
100
AcDbCircle
  8
0
 62
256
370
-1
  6
ByLayer
 10
60.7500000000000213
 20
-15.2500000000000071
 30
0.0
 40
1.5
  0
CIRCLE
  5
B6
100
AcDbEntity
100
AcDbCircle
  8
0
 62
256
370
-1
  6
ByLayer
 10
60.75
 20
-46.7500000000000142
 30
0.0
 40
1.5
  0
LINE
  5
B7
100
AcDbEntity
100
AcDbLine
  8
0
 62
256
370
-1
  6
ByLayer
 10
19.9999999999999858
 20
-81.0
 30
0.0
 11
25.9999999999999893
 21
-81.0
 31
0.0
  0
LINE
  5
B8
100
AcDbEntity
100
AcDbLine
  8
0
 62
256
370
-1
  6
ByLayer
 10
25.9999999999999893
 20
-81.0
 30
0.0
 11
25.9999999999999893
 21
-71.0
 31
0.0
  0
LINE
  5
B9
100
AcDbEntity
100
AcDbLine
  8
0
 62
256
370
-1
  6
ByLayer
 10
25.9999999999999893
 20
-71.0
 30
0.0
 11
19.9999999999999858
 21
-71.0
 31
0.0
  0
LINE
  5
BA
100
AcDbEntity
100
AcDbLine
  8
0
 62
256
370
-1
  6
ByLayer
 10
69.9999999999999858
 20
-81.0
 30
0.0
 11
63.9999999999999858
 21
-81.0000000000000142
 31
0.0
  0
LINE
  5
BB
100
AcDbEntity
100
AcDbLine
  8
0
 62
256
370
-1
  6
ByLayer
 10
63.9999999999999858
 20
-81.0000000000000142
 30
0.0
 11
63.9999999999999858
 21
-71.0000000000000142
 31
0.0
  0
LINE
  5
BC
100
AcDbEntity
100
AcDbLine
  8
0
 62
256
370
-1
  6
ByLayer
 10
63.9999999999999858
 20
-71.0000000000000142
 30
0.0
 11
69.9999999999999858
 21
-71.0000000000000142
 31
0.0
  0
LINE
  5
BD
100
AcDbEntity
100
AcDbLine
  8
0
 62
256
370
-1
  6
ByLayer
 10
70.0
 20
-10.0
 30
0.0
 11
69.9999999999999858
 21
-71.0000000000000142
 31
0.0
  0
LINE
  5
BE
100
AcDbEntity
100
AcDbLine
  8
0
 62
256
370
-1
  6
ByLayer
 10
34.9999999999999858
 20
-65.0
 30
0.0
 11
34.9999999999999858
 21
-59.0
 31
0.0
  0
LINE
  5
BF
100
AcDbEntity
100
AcDbLine
  8
0
 62
256
370
-1
  6
ByLayer
 10
34.9999999999999858
 20
-59.0
 30
0.0
 11
54.9999999999999858
 21
-59.0
 31
0.0
  0
LINE
  5
C0
100
AcDbEntity
100
AcDbLine
  8
0
 62
256
370
-1
  6
ByLayer
 10
54.9999999999999858
 20
-59.0
 30
0.0
 11
54.9999999999999858
 21
-65.0
 31
0.0
  0
LINE
  5
C1
100
AcDbEntity
100
AcDbLine
  8
0
 62
256
370
-1
  6
ByLayer
 10
54.9999999999999858
 20
-65.0
 30
0.0
 11
34.9999999999999858
 21
-65.0
 31
0.0
  0
LINE
  5
C2
100
AcDbEntity
100
AcDbLine
  8
0
 62
256
370
-1
  6
ByLayer
 10
24.9999999999999858
 20
-87.0
 30
0.0
 11
24.9999999999999822
 21
-93.0
 31
0.0
  0
LINE
  5
C3
100
AcDbEntity
100
AcDbLine
  8
0
 62
256
370
-1
  6
ByLayer
 10
24.9999999999999822
 20
-93.0
 30
0.0
 11
34.9999999999999858
 21
-93.0
 31
0.0
  0
LINE
  5
C4
100
AcDbEntity
100
AcDbLine
  8
0
 62
256
370
-1
  6
ByLayer
 10
34.9999999999999858
 20
-93.0
 30
0.0
 11
34.9999999999999858
 21
-87.0
 31
0.0
  0
LINE
  5
C5
100
AcDbEntity
100
AcDbLine
  8
0
 62
256
370
-1
  6
ByLayer
 10
54.9999999999999787
 20
-87.0
 30
0.0
 11
54.9999999999999787
 21
-93.0
 31
0.0
  0
LINE
  5
C6
100
AcDbEntity
100
AcDbLine
  8
0
 62
256
370
-1
  6
ByLayer
 10
54.9999999999999787
 20
-93.0
 30
0.0
 11
64.9999999999999858
 21
-93.0
 31
0.0
  0
LINE
  5
C7
100
AcDbEntity
100
AcDbLine
  8
0
 62
256
370
-1
  6
ByLayer
 10
64.9999999999999858
 20
-93.0
 30
0.0
 11
64.9999999999999858
 21
-87.0
 31
0.0
  0
LINE
  5
C8
100
AcDbEntity
100
AcDbLine
  8
0
 62
256
370
-1
  6
ByLayer
 10
64.9999999999999858
 20
-87.0
 30
0.0
 11
54.9999999999999787
 21
-87.0
 31
0.0
  0
LINE
  5
C9
100
AcDbEntity
100
AcDbLine
  8
0
 62
256
370
-1
  6
ByLayer
 10
24.9999999999999858
 20
-87.0
 30
0.0
 11
34.9999999999999858
 21
-87.0
 31
0.0
  0
LINE
  5
CA
100
AcDbEntity
100
AcDbLine
  8
0
 62
256
370
-1
  6
ByLayer
 10
24.9999999999999787
 20
-98.0
 30
0.0
 11
64.9999999999999716
 21
-98.0000000000000142
 31
0.0
  0
ARC
  5
CB
100
AcDbEntity
  8
0
 62
256
370
-1
  6
ByLayer
100
AcDbCircle
 10
24.9999999999999822
 20
-93.0
 30
0.0
 40
5.0
100
AcDbArc
 50
180.0
 51
270.0
  0
ARC
  5
CC
100
AcDbEntity
  8
0
 62
256
370
-1
  6
ByLayer
100
AcDbCircle
 10
64.9999999999999858
 20
-93.0
 30
0.0
 40
5.0
100
AcDbArc
 50
270.0
 51
360.0
  0
LINE
  5
CD
100
AcDbEntity
100
AcDbLine
  8
0
 62
256
370
-1
  6
ByLayer
 10
19.9999999999999893
 20
-93.0
 30
0.0
 11
19.9999999999999858
 21
-81.0
 31
0.0
  0
LINE
  5
CE
100
AcDbEntity
100
AcDbLine
  8
0
 62
256
370
-1
  6
ByLayer
 10
69.9999999999999716
 20
-93.0000000000000284
 30
0.0
 11
69.9999999999999858
 21
-81.0
 31
0.0
  0
LINE
  5
CF
100
AcDbEntity
100
AcDbLine
  8
0
 62
256
370
-1
  6
ByLayer
 10
26.0
 20
-10.0000000000000036
 30
0.0
 11
70.0
 21
-10.0
 31
0.0
  0
LINE
  5
D0
100
AcDbEntity
100
AcDbLine
  8
0
 62
256
370
-1
  6
ByLayer
 10
20.0000000000000071
 20
-35.0000000000000071
 30
0.0
 11
20.0000000000000142
 21
-45.9999999999999787
 31
0.0
  0
LINE
  5
D1
100
AcDbEntity
100
AcDbLine
  8
0
 62
256
370
-1
  6
ByLayer
 10
19.9999999999999858
 20
-56.0000000000000142
 30
0.0
 11
19.9999999999999858
 21
-71.0
 31
0.0
  0
LINE
  5
D2
100
AcDbEntity
100
AcDbLine
  8
0
 62
256
370
-1
  6
ByLayer
 10
-1.0
 20
-81.0
 30
0.0
 11
-1.0000000000000009
 21
-87.0
 31
0.0
  0
LINE
  5
D3
100
AcDbEntity
100
AcDbLine
  8
0
 62
256
370
-1
  6
ByLayer
 10
-0.9999999999999982
 20
-73.0
 30
0.0
 11
-0.9999999999999964
 21
-67.0
 31
0.0
  0
LINE
  5
D4
100
AcDbEntity
100
AcDbLine
  8
0
 62
256
370
-1
  6
ByLayer
 10
-1.0
 20
-81.0
 30
0.0
 11
-11.0
 21
-81.0
 31
0.0
  0
LINE
  5
D5
100
AcDbEntity
100
AcDbLine
  8
0
 62
256
370
-1
  6
ByLayer
 10
-11.0
 20
-81.0
 30
0.0
 11
-11.0000000000000036
 21
-87.0
 31
0.0
  0
LINE
  5
D6
100
AcDbEntity
100
AcDbLine
  8
0
 62
256
370
-1
  6
ByLayer
 10
-11.0
 20
-73.0
 30
0.0
 11
-0.9999999999999982
 21
-73.0
 31
0.0
  0
LINE
  5
D7
100
AcDbEntity
100
AcDbLine
  8
0
 62
256
370
-1
  6
ByLayer
 10
-11.0
 20
-67.0
 30
0.0
 11
-11.0
 21
-73.0
 31
0.0
  0
CIRCLE
  5
D8
100
AcDbEntity
100
AcDbCircle
  8
0
 62
256
370
-1
  6
ByLayer
 10
-21.0
 20
-72.0
 30
0.0
 40
3.0
  0
CIRCLE
  5
D9
100
AcDbEntity
100
AcDbCircle
  8
0
 62
256
370
-1
  6
ByLayer
 10
9.0000000000000018
 20
-72.0
 30
0.0
 40
3.0
  0
LINE
  5
DA
100
AcDbEntity
100
AcDbLine
  8
0
 62
256
370
-1
  6
ByLayer
 10
-11.0000000000000036
 20
-87.0
 30
0.0
 11
-14.9999999999999982
 21
-87.0
 31
0.0
  0
LINE
  5
DB
100
AcDbEntity
100
AcDbLine
  8
0
 62
256
370
-1
  6
ByLayer
 10
-1.0000000000000009
 20
-87.0
 30
0.0
 11
3.0
 21
-87.0
 31
0.0
  0
LINE
  5
DC
100
AcDbEntity
100
AcDbLine
  8
0
 62
256
370
-1
  6
ByLayer
 10
-25.9934353680744366
 20
-80.6640408138964347
 30
0.0
 11
-14.9999999999999982
 21
-87.0
 31
0.0
  0
LINE
  5
DD
100
AcDbEntity
100
AcDbLine
  8
0
 62
256
370
-1
  6
ByLayer
 10
13.9934353680744366
 20
-80.6640408138964489
 30
0.0
 11
3.0
 21
-87.0
 31
0.0
  0
LINE
  5
DE
100
AcDbEntity
100
AcDbLine
  8
0
 62
256
370
-1
  6
ByLayer
 10
3.0000000000000053
 20
-64.0
 30
0.0
 11
-0.9999999999999964
 21
-67.0
 31
0.0
  0
LINE
  5
DF
100
AcDbEntity
100
AcDbLine
  8
0
 62
256
370
-1
  6
ByLayer
 10
-15.0
 20
-64.0
 30
0.0
 11
-11.0
 21
-67.0
 31
0.0
  0
ARC
  5
E0
100
AcDbEntity
  8
0
 62
7
370
0
  6
CONTINUOUS
100
AcDbCircle
 10
-21.0
 20
-72.0
 30
0.0
 40
10.0
100
AcDbArc
 50
53.1301023541559871
 51
240.0434217598590294
  0
ARC
  5
E1
100
AcDbEntity
  8
0
 62
7
370
0
  6
CONTINUOUS
100
AcDbCircle
 10
9.0000000000000018
 20
-72.0
 30
0.0
 40
10.0
100
AcDbArc
 50
299.9565782401409706
 51
126.86989764584402
  0
LWPOLYLINE
  5
E2
  8
0
 62
7
370
-1
  6
ByLayer
100
AcDbEntity
100
AcDbPolyline
 90
89
 70
0
 10
-32.3882104099999992
 20
-61.1620560387500021
 10
-31.3604724350000055
 20
-61.0084794837500084
 10
-31.1364398900000054
 20
-61.0138230087499949
 10
-29.8203493175000034
 20
-61.5167076162499953
 10
-29.8203493175000034
 20
-62.4832923837500047
 10
-31.1364398900000054
 20
-62.9861769912500051
 10
-31.3604724350000055
 20
-62.9915205162500129
 10
-32.3882104099999992
 20
-62.8379439612499979
 10
-32.8251915425000007
 20
-64.3266100550000033
 10
-31.8776064424999959
 20
-64.7531025912499985
 10
-31.6921664899999982
 20
-64.8785765524999931
 10
-30.8567954149999935
 20
-66.0133827800000006
 10
-31.3794714012500009
 20
-66.8263902912500072
 10
-32.7584963562499993
 20
-66.5378399412499988
 10
-32.9496760399999999
 20
-66.4214703087500027
 10
-33.7314141125000049
 20
-65.7365089437499961
 10
-34.903822767500003
 20
-66.7525704050000002
 10
-34.3372113650000017
 20
-67.6235649799999976
 10
-34.2491420787500047
 20
-67.8295880225000047
 10
-34.1598855762500051
 20
-69.2357268087500017
 10
-35.0389943149999965
 20
-69.6372821937499964
 10
-36.0431815099999966
 20
-68.6489285225000003
 10
-36.1411461349999996
 20
-68.4474572937499914
 10
-36.4283108150000032
 20
-67.4488120774999942
 10
-37.964079169999998
 20
-67.6694800250000128
 10
-37.9583401399999971
 20
-68.7086967612499961
 10
-37.9955470625000018
 20
-68.9295624612500006
 10
-38.6807054787499993
 20
-70.1607498912499921
 10
-39.6373942062500007
 20
-70.0232039112500075
 10
-39.9479126149999999
 20
-68.6489285225000003
 10
-39.9213927425000037
 20
-68.4264794000000052
 10
-39.6229470537499964
 20
-67.4310003275000014
 10
-41.0342316125000011
 20
-66.7866111837499972
 10
-41.5913431812500036
 20
-67.6639387474999978
 10
-41.7419513450000039
 20
-67.8295880225000047
 10
-42.9840242787499989
 20
-68.4949557612499973
 10
-43.714503781249995
 20
-67.8620446774999948
 10
-43.2325970675000022
 20
-66.5378399412499988
 10
-43.090103067500003
 20
-66.3652637187500005
 10
-42.3008447899999993
 20
-65.6890111775000065
 10
-43.1397782149999998
 20
-64.383806108750008
 10
-44.0826137487499992
 20
-64.8207872412500024
 10
-44.2989276349999983
 20
-64.8785765524999931
 10
-45.7034829987499975
 20
-64.7669564862500096
 10
-45.9758043199999946
 20
-63.8395575687500028
 10
-44.8546542349999982
 20
-62.9861769912500051
 10
-44.6413087399999995
 20
-62.9178990837499938
 10
-43.6117895900000008
 20
-62.7758005887500019
 10
-43.6117895900000008
 20
-61.2241994112499981
 10
-44.6413087399999995
 20
-61.0821009162500062
 10
-44.8546542349999982
 20
-61.0138230087499949
 10
-45.9758043199999946
 20
-60.1604417300000023
 10
-45.7034829987499975
 20
-59.2330435137499975
 10
-44.2989276349999983
 20
-59.1214234475000069
 10
-44.0826137487499992
 20
-59.1792127587499976
 10
-43.1397782149999998
 20
-59.616193891249992
 10
-42.3008447899999993
 20
-58.3109888224999935
 10
-43.090103067500003
 20
-57.6347355799999974
 10
-43.2325970675000022
 20
-57.4621600587500083
 10
-43.714503781249995
 20
-56.1379553225000052
 10
-42.9840242787499989
 20
-55.5050442387500027
 10
-41.7419513450000039
 20
-56.1704119774999953
 10
-41.5913431812500036
 20
-56.3360612524999951
 10
-41.0342316125000011
 20
-57.2133888162499957
 10
-39.6229470537499964
 20
-56.5689996724999986
 10
-39.9213927425000037
 20
-55.5735205999999948
 10
-39.9479126149999999
 20
-55.3510714774999997
 10
-39.6373942062500007
 20
-53.9767960887499925
 10
-38.6807054787499993
 20
-53.8392501087500079
 10
-37.9955470625000018
 20
-55.0704375387499923
 10
-37.9583401399999971
 20
-55.2913032387500039
 10
-37.964079169999998
 20
-56.3305199749999943
 10
-36.4283108150000032
 20
-56.5511879225000058
 10
-36.1411461349999996
 20
-55.5525420050000065
 10
-36.0431815099999966
 20
-55.3510714774999997
 10
-35.0389943149999965
 20
-54.3627171050000086
 10
-34.1598855762500051
 20
-54.7642731912499912
 10
-34.2491420787500047
 20
-56.1704119774999953
 10
-34.3372113650000017
 20
-56.3764343187500074
 10
-34.903822767500003
 20
-57.2474288937499978
 10
-33.7314141125000049
 20
-58.2634903550000089
 10
-32.9496760399999999
 20
-57.5785296912499973
 10
-32.7584963562499993
 20
-57.4621600587500083
 10
-31.3794714012500009
 20
-57.1736097087499999
 10
-30.8567954149999935
 20
-57.9866165187499973
 10
-31.6921664899999982
 20
-59.1214234475000069
 10
-31.8776064424999959
 20
-59.2468974087499944
 10
-32.8251915425000007
 20
-59.6733892437500018
 10
-32.3882104099999992
 20
-61.1620560387500021
  0
LWPOLYLINE
  5
E3
  8
0
 62
7
370
-1
  6
ByLayer
100
AcDbEntity
100
AcDbPolyline
 90
473
 70
0
 10
94.8945352287500157
 20
30.1549929359375035
 10
94.9705324962500015
 20
30.1573680696875037
 10
96.1597634374999899
 20
29.9893436609375001
 10
97.4279600374999859
 20
29.6137134884375115
 10
97.4279600374999859
 20
28.3862861609374981
 10
96.1597634374999899
 20
28.0106559884375095
 10
94.9705324962500015
 20
27.8426322809375044
 10
94.8945352287500157
 20
27.8450067134375097
 10
94.8139868487500053
 20
26.3335808496874968
 10
94.8897856625000031
 20
26.3278418196874959
 10
96.0544763599999953
 20
26.0345419034374999
 10
97.2755706987499877
 20
25.5261153171874966
 10
97.1451494187500089
 20
24.3058119884374939
 10
95.8440999574999921
 20
24.0669367859375143
 10
94.6437857599999859
 20
24.0263659671875018
 10
94.5683824512500024
 20
24.0368545634375081
 10
94.3277260737500001
 20
22.5424487384374928
 10
94.4025354237500096
 20
22.5287932971875122
 10
95.5294252399999948
 20
22.1131855634375043
 10
96.689564123750003
 20
21.4779000471875037
 10
96.4301065325000053
 20
20.2783775609375141
 10
95.1110475687499957
 20
20.1790279671874977
 10
93.9131078037500089
 20
20.2663055421874958
 10
93.8394863712500182
 20
20.2849090034375052
 10
93.4410964287500008
 20
18.8245432559375097
 10
93.5141246037500053
 20
18.8029714034375033
 10
94.5905482625000076
 20
18.2700038721874947
 10
95.6764710537500065
 20
17.5149834246875002
 10
95.2909462437499997
 20
16.3496994696875078
 10
93.9689181874999804
 20
16.3912604534375106
 10
92.7870096987499835
 20
16.6053969584375096
 10
92.7157626987499981
 20
16.6315206246875036
 10
92.1643901599999964
 20
15.2218194884375091
 10
92.2346476962499935
 20
15.1927274309374951
 10
93.2483340237499903
 20
14.5483375859374977
 10
94.2479687037500042
 20
13.6820932784374936
 10
93.7407300349999844
 20
12.5645048421874996
 10
92.4305769462499995
 20
12.7461846921875086
 10
91.2781567212499994
 20
13.0848056946875015
 10
91.2100758650000074
 20
13.1184502671875016
 10
90.5120537187499963
 20
11.7752458634374939
 10
90.5787482037499956
 20
11.7388313534374937
 10
91.5182191399999851
 20
10.9903416471874955
 10
92.4200876487499983
 20
10.0227681171874963
 10
91.7970719037499947
 20
8.9653434246874966
 10
90.5136364399999991
 20
9.2853616671874981
 10
89.40376666249999
 20
9.7445086109374941
 10
89.3394466100000102
 20
9.7852778834375052
 10
88.5026898649999936
 20
8.5238104784374933
 10
88.5652294437499847
 20
8.4804683196875033
 10
89.4197972374999921
 20
7.6363891221875058
 10
90.2136073287499869
 20
6.5785689246874988
 10
89.4817428574999951
 20
5.5933813971875068
 10
88.2396699237500002
 20
6.0479772284374995
 10
87.1848188187500028
 20
6.6225050421875054
 10
87.1252483324999929
 20
6.6698050559374984
 10
86.1590597712499999
 20
5.5045203996875038
 10
86.2166506287499885
 20
5.4546474996874998
 10
86.9766190962499905
 20
4.5246763971875055
 10
87.6534655962499869
 20
3.3882867471875038
 10
86.8210629124999969
 20
2.4864182384374978
 10
85.6344048574999874
 20
3.070643638437506
 10
84.6464459899999895
 20
3.7540215809375042
 10
84.5924174824999966
 20
3.8072590784375038
 10
83.5078796599999862
 20
2.7514178084375018
 10
83.5597314875000023
 20
2.6958058784375076
 10
84.2165895574999865
 20
1.6900352609375027
 10
84.768951560000005
 20
0.4883360946875044
 10
83.8453134462499889
 20
-0.3199218503125003
 10
82.7273288037499981
 20
0.3870068721875057
 10
81.8177423374999933
 20
1.1715155834375075
 10
81.7696506124999871
 20
1.2302943584374972
 10
80.5790340012499939
 20
0.2955729884375025
 10
80.6247512937499948
 20
0.234815285937497
 10
81.1707803074999958
 20
-0.8350769303124963
 10
81.5923248237499905
 20
-2.0888263778125022
 10
80.5879398762500045
 20
-2.7941716778124928
 10
79.5514937787499861
 20
-1.972456044062497
 10
78.7305705575000019
 20
-1.0957224390625022
 10
78.688811821249999
 20
-1.0319956440624978
 10
77.4057718625000035
 20
-1.8349100640624947
 10
77.4445622074999847
 20
-1.9002195803125019
 10
77.8740231349999874
 20
-3.0219643253124957
 10
78.1598028462500025
 20
-4.3135139528124995
 10
77.0861498262499936
 20
-4.9082286503125019
 10
76.1429187875000082
 20
-3.9808297328124951
 10
75.4197617375000107
 20
-3.0219643253124957
 10
75.385127701249985
 20
-2.9542796753124954
 10
74.0239144962499864
 20
-3.6160850640625029
 10
74.0557778937500046
 20
-3.6851546828124953
 10
74.3633272099999942
 20
-4.8462830303124989
 10
74.5103730237499917
 20
-6.160790180312496
 10
73.3795246512499943
 20
-6.6379473278124976
 10
72.5401957212500008
 20
-5.6157506303125047
 10
71.9231174599999861
 20
-4.5852420165624963
 10
71.8958058762500087
 20
-4.5141927690624968
 10
70.4718553399999905
 20
-5.0277651278125006
 10
70.4961985325000029
 20
-5.0998038390624956
 10
70.6786700937500001
 20
-6.2870558528124931
 10
70.6852008349999892
 20
-7.6096771665625056
 10
69.5100208399999957
 20
-7.9639332390625057
 10
68.7840931512499907
 20
-6.8582190690624927
 10
68.2800206262499927
 20
-5.7679422165625027
 10
68.2604277012499949
 20
-5.6945185365625051
 10
66.7899688624999897
 20
-6.0537219278124965
 10
66.806593396249994
 20
-6.1279373190625037
 10
66.8618098212500058
 20
-7.3278560115624956
 10
66.7276277375000006
 20
-8.6437481303124954
 10
65.5215745099999936
 20
-8.8711445715625032
 10
64.9173599787499853
 20
-7.6945796078124999
 10
64.5318351687499927
 20
-6.5570027415624992
 10
64.5201579537499867
 20
-6.4817978865625037
 10
63.0200130987499989
 20
-6.6826744553124939
 10
63.0285234687499951
 20
-6.7582755165624988
 10
62.9558907987499907
 20
-7.9572040440625003
 10
62.6825793124999961
 20
-9.2513265578124972
 10
61.4591098399999964
 20
-9.3492911828125003
 10
60.9833383625000067
 20
-8.1151353615624942
 10
60.7211101325000016
 20
-6.942923757812494
 10
60.7175477824999916
 20
-6.8669271915624961
 10
59.2043407437499951
 20
-6.9073002578125013
 10
59.2047362487499953
 20
-6.9832975253125014
 10
59.0052446487500077
 20
-8.1677789003124985
 10
58.5957721512500029
 20
-9.4254862028125004
 10
57.3689387825000026
 20
-9.3928310940625082
 10
57.0271509349999945
 20
-8.1151353615624942
 10
56.8909899237499985
 20
-6.9217481115625006
 10
56.8953439849999967
 20
-6.8457508440624935
 10
55.3864910074999983
 20
-6.7250271503124992
 10
55.3787723487499974
 20
-6.800628211562497
 10
55.0545984987499963
 20
-7.9572040440625003
 10
54.5137152574999959
 20
-9.1642474365624977
 10
53.2973704849999947
 20
-9.0013688003124912
 10
53.0931293187499946
 20
-7.6945796078124999
 10
53.0846189487499984
 20
-6.4934744003125004
 10
53.0970871737499976
 20
-6.4184665965624959
 10
51.6096082962499949
 20
-6.1380311115624977
 10
51.5939732262500002
 20
-6.2124442553124979
 10
51.1486794762499954
 20
-7.3278560115624956
 10
50.4825200262500005
 20
-8.470578650312504
 10
49.2903206937499974
 20
-8.1794554140625024
 10
49.2263961462499964
 20
-6.8582190690624927
 10
49.3455371187499949
 20
-5.6630506440624941
 10
49.3659210537500002
 20
-5.5898247165624966
 10
47.9166385624999975
 20
-5.1528428828125001
 10
47.8930877824999897
 20
-5.2250793465625023
 10
47.3318192037499941
 20
-6.2870558528124931
 10
46.5481022037499983
 20
-7.3523962553124989
 10
45.3935052987500001
 20
-6.9361952640624978
 10
45.4702935762500005
 20
-5.6157506303125047
 10
45.7157002212499961
 20
-4.4399773778125038
 10
45.7438028149999951
 20
-4.3693243365625065
 10
44.3491427899999948
 20
-3.7807448753125001
 10
44.3182695574999883
 20
-3.8500122465624997
 10
43.6471620874999928
 20
-4.8462830303124989
 10
42.7545956599999926
 20
-5.8223669303124979
 10
41.6508611187500009
 20
-5.2856392965625005
 10
41.8675705100000002
 20
-3.9808297328124951
 10
42.2364714874999976
 20
-2.8379093415624936
 10
42.2720949874999903
 20
-2.7706201965625006
 10
40.9478902512500014
 20
-2.0371723028124968
 10
40.9096938649999942
 20
-2.1028780253125028
 10
40.1364661624999997
 20
-3.0219643253124957
 10
39.145143398750001
 20
-3.8977084665624986
 10
38.1047394462499938
 20
-3.2467878803124961
 10
38.458995518750001
 20
-1.972456044062497
 10
38.9474329737499971
 20
-0.8750544915624978
 10
38.9897856687499882
 20
-0.8119216553125028
 10
37.7510773325000031
 20
0.0580834559375063
 10
37.7061517512499975
 20
-0.0032682053124979
 10
36.8397089899999912
 20
-0.8350769303124963
 10
35.7609108987499908
 20
-1.6003882215624969
 10
34.7955140487499932
 20
-0.8425978365625042
 10
35.2831604937500032
 20
0.3870068721875057
 10
35.8855931487499973
 20
1.4262236084375033
 10
35.9342788324999987
 20
1.4844084246875049
 10
34.795118543749993
 20
2.4812731671874992
 10
34.7438599737499914
 20
2.4250672784374991
 10
33.7938997400000005
 20
1.6900352609375027
 10
32.6398967937499975
 20
1.0436664884375055
 10
31.7605896012499969
 20
1.899818405937495
 10
32.3760844399999925
 20
3.070643638437506
 10
33.0855860487499953
 20
4.0398012921874979
 10
33.1404069687499998
 20
4.0926425834375024
 10
32.1136584574999944
 20
5.2048874946875081
 10
32.0566608574999918
 20
5.1544206359375053
 10
31.0338702012499965
 20
4.5246763971875055
 10
29.8177238824999904
 20
4.0045732971875019
 10
29.0344023874999948
 20
4.9493877584375028
 10
29.7708193737500011
 20
6.0479772284374995
 10
30.5792750712499952
 20
6.9363873471875017
 10
30.6394388150000054
 20
6.9828956496875065
 10
29.736581543749999
 20
8.1980532059375051
 10
29.674635923750003
 20
8.1539193359375055
 10
28.590692059999995
 20
7.6363891221875058
 10
27.3262555625000019
 20
7.2484891784375023
 10
26.6478256399999935
 20
8.2712791334375027
 10
27.4968528574999951
 20
9.2853616671874981
 10
28.3951583150000033
 20
10.0829318609375065
 10
28.4598745737499996
 20
10.1229094221875044
 10
27.6913964374999892
 20
11.4269272746874933
 10
27.6250974574999901
 20
11.3897210534374942
 10
26.4922701574999948
 20
10.9903416471874955
 10
25.1935951287499904
 20
10.7389982196875025
 10
24.6277754374999986
 20
11.8280878559374969
 10
25.5799123512500017
 20
12.7461846921875086
 10
26.5577774262499915
 20
13.4436135809375106
 10
26.6262537874999978
 20
13.4764664421874958
 10
26.000863609999989
 20
14.8548974384374972
 10
25.9310015787499921
 20
14.8250136696875092
 10
24.7621552737499968
 20
14.5483375859374977
 10
23.4442835262499898
 20
14.4365197671875123
 10
22.9972086012499872
 20
15.5794401584375048
 10
24.0415711099999996
 20
16.3912604534375106
 10
25.0881102987499958
 20
16.9808293784374982
 10
25.1597528037499956
 20
17.0061613334375004
 10
24.6843775324999939
 20
18.4431740534375024
 10
24.6115471099999894
 20
18.4208097884375022
 10
23.4199410350000008
 20
18.2700038721874947
 10
22.0977152262500027
 20
18.2988988784375053
 10
21.7747292937499921
 20
19.4829840471875073
 10
22.8994417287499985
 20
20.1790279671874977
 10
24.002583012499997
 20
20.6540077334375027
 10
24.076600651249997
 20
20.6716217309374954
 10
23.7565831099999869
 20
22.1511841971874972
 10
23.6819715124999917
 20
22.1365392921874999
 10
22.4810640574999923
 20
22.1131855634375043
 10
21.1693275462500026
 20
22.282595642187502
 10
20.9739915537499968
 20
23.4941901471875063
 10
22.1663893399999949
 20
24.0669367859375143
 10
23.3138622462499967
 20
24.4217868171875097
 10
23.3892648537499994
 20
24.4314844034375014
 10
23.22836584625
 20
25.9365772784374968
 10
23.152567032499995
 20
25.9300458359375057
 10
21.9560129374999917
 20
26.0345419034374999
 10
20.6696090824999956
 20
26.3422889721874931
 10
20.604298864999997
 20
27.5677373721874979
 10
21.8507258599999972
 20
28.0106559884375095
 10
23.0294675037499914
 20
28.241615480937508
 10
23.1054647712499914
 20
28.2431989034374951
 10
23.1054647712499914
 20
29.7568014471874953
 10
23.0294675037499914
 20
29.7583848696875037
 10
21.8507258599999972
 20
29.9893436609375001
 10
20.604298864999997
 20
30.4322629784375103
 10
20.6696090824999956
 20
31.6577113784374973
 10
21.9560129374999917
 20
31.9654584471875083
 10
23.152567032499995
 20
32.0699538134375075
 10
23.22836584625
 20
32.0634230721875113
 10
23.3892648537499994
 20
33.5685159471875068
 10
23.3138622462499967
 20
33.5782135334374985
 10
22.1663893399999949
 20
33.9330628634374989
 10
20.9739915537499968
 20
34.5058102034375054
 10
21.1693275462500026
 20
35.7174047084375061
 10
22.4810640574999923
 20
35.8868140859375018
 10
23.6819715124999917
 20
35.8634610584375082
 10
23.7565831099999869
 20
35.8488161534374967
 10
24.076600651249997
 20
37.3283786196875127
 10
24.002583012499997
 20
37.3459926171875054
 10
22.8994417287499985
 20
37.8209723834375069
 10
21.7747292937499921
 20
38.5170163034375008
 10
22.0977152262500027
 20
39.7011014721875028
 10
23.4199410350000008
 20
39.7299964784374993
 10
24.6115471099999894
 20
39.579189860937511
 10
24.6843775324999939
 20
39.5568262971875058
 10
25.1597528037499956
 20
40.9938390171875113
 10
25.0881102987499958
 20
41.01917097218751
 10
24.0415711099999996
 20
41.6087398971874975
 10
22.9972086012499872
 20
42.4205601921875015
 10
23.4442835262499898
 20
43.5634805834374959
 10
24.7621552737499968
 20
43.4516620634375101
 10
25.9310015787499921
 20
43.1749866809375007
 10
26.000863609999989
 20
43.1451022109375089
 10
26.6262537874999978
 20
44.523533908437507
 10
26.5577774262499915
 20
44.5563867696874922
 10
25.5799123512500017
 20
45.253815658437496
 10
24.6277754374999986
 20
46.1719124946875041
 10
25.1935951287499904
 20
47.2610021309374986
 10
26.4922701574999948
 20
47.0096587034375091
 10
27.6250974574999901
 20
46.6102792971875104
 10
27.6913964374999892
 20
46.5730723746874986
 10
28.4598745737499996
 20
47.8770909284375037
 10
28.3951583150000033
 20
47.9170677884374996
 10
27.4968528574999951
 20
48.7146386834375065
 10
26.6478256399999935
 20
49.7287212171874984
 10
27.3262555625000019
 20
50.7515111721875058
 10
28.590692059999995
 20
50.3636112284375059
 10
29.674635923750003
 20
49.8460803134375041
 10
29.736581543749999
 20
49.8019471446874959
 10
30.6394388150000054
 20
51.0171039996874924
 10
30.5792750712499952
 20
51.0636130034375029
 10
29.7708193737500011
 20
51.9520231221875122
 10
29.0344023874999948
 20
53.0506125921874911
 10
29.8177238824999904
 20
53.9954270534374956
 10
31.0338702012499965
 20
53.4753239534374956
 10
32.0566608574999918
 20
52.8455790134374936
 10
32.1136584574999944
 20
52.7951128559375107
 10
33.1404069687499998
 20
53.9073577671875057
 10
33.0855860487499953
 20
53.9601990584375102
 10
32.3760844399999925
 20
54.9293560109374965
 10
31.7605896012499969
 20
56.1001819446875061
 10
32.6398967937499975
 20
56.9563331609375041
 10
33.7938997400000005
 20
56.3099643884374998
 10
34.7438599737499914
 20
55.5749330721875054
 10
34.795118543749993
 20
55.5187271834375053
 10
35.9342788324999987
 20
56.5155912246874976
 10
35.8855931487499973
 20
56.5737767421875049
 10
35.2831604937500032
 20
57.6129934784375166
 10
34.7955140487499932
 20
58.8425974859375103
 10
35.7609108987499908
 20
59.600388572187498
 10
36.8397089899999912
 20
58.8350772809375044
 10
37.7061517512499975
 20
58.0032685559374954
 10
37.7510773325000031
 20
57.9419168946874947
 10
38.9897856687499882
 20
58.8119220059375039
 10
38.9474329737499971
 20
58.8750548421874953
 10
38.458995518750001
 20
59.972456394687498
 10
38.1047394462499938
 20
61.2467882309374971
 10
39.145143398750001
 20
61.8977088171875067
 10
40.1364661624999997
 20
61.021963974687516
 10
40.9096938649999942
 20
60.1028776746875053
 10
40.9478902512500014
 20
60.0371726534374943
 10
42.2720949874999903
 20
60.7706205471875052
 10
42.2364714874999976
 20
60.8379096921875018
 10
41.8675705100000002
 20
61.9808300834374961
 10
41.6508611187500009
 20
63.2856396471874945
 10
42.7545956599999926
 20
63.8223672809374989
 10
43.6471620874999928
 20
62.8462833809374999
 10
44.3182695574999883
 20
61.8500125971875079
 10
44.3491427899999948
 20
61.7807445246874991
 10
45.7438028149999951
 20
62.3693239859375126
 10
45.7157002212499961
 20
62.4399777284375119
 10
45.4702935762500005
 20
63.6157509809375057
 10
45.3935052987500001
 20
64.9361949134375038
 10
46.5481022037499983
 20
65.3523966059374999
 10
47.3318192037499941
 20
64.2870562034374871
 10
47.8930877824999897
 20
63.2250796971875104
 10
47.9166385624999975
 20
63.1528432334375012
 10
49.3659210537500002
 20
63.5898250671875118
 10
49.3455371187499949
 20
63.6630509946875094
 10
49.2263961462499964
 20
64.8582194196874866
 10
49.2903206937499974
 20
66.1794550634375014
 10
50.4825200262500005
 20
66.470578299687503
 10
51.1486794762499954
 20
65.3278556609375016
 10
51.5939732262500002
 20
64.212444605937506
 10
51.6096082962499949
 20
64.1380307609374967
 10
53.0970871737499976
 20
64.4184669471875111
 10
53.0846189487499984
 20
64.4934740496875065
 10
53.0931293187499946
 20
65.6945799584375152
 10
53.2973704849999947
 20
67.0013684496875044
 10
54.5137152574999959
 20
67.1642470859374896
 10
55.0545984987499963
 20
65.9572043946874942
 10
55.3787723487499974
 20
64.8006278609375101
 10
55.3864910074999983
 20
64.7250267996874982
 10
56.8953439849999967
 20
64.8457511946874945
 10
56.8909899237499985
 20
64.9217477609375067
 10
57.0271509349999945
 20
66.1151350109375073
 10
57.3689387825000026
 20
67.3928314446875163
 10
58.5957721512500029
 20
67.4254865534375085
 10
59.0052446487500077
 20
66.1677785496875117
 10
59.2047362487499953
 20
64.9832971746875074
 10
59.2043407437499951
 20
64.9073006084375095
 10
60.7175477824999916
 20
64.8669275421875113
 10
60.7211101325000016
 20
64.9429241084375093
 10
60.9833383625000067
 20
66.1151350109375073
 10
61.4591098399999964
 20
67.3492915334375084
 10
62.6825793124999961
 20
67.2513269084375054
 10
62.9558907987499907
 20
65.9572043946874942
 10
63.0285234687499951
 20
64.7582758671875069
 10
63.0200130987499989
 20
64.682674805937495
 10
64.5201579537499867
 20
64.4817975359375168
 10
64.5318351687499927
 20
64.5570030921875002
 10
64.9173599787499853
 20
65.6945799584375152
 10
65.5215745099999936
 20
66.8711449221875114
 10
66.7276277375000006
 20
66.6437484809374894
 10
66.8618098212500058
 20
65.3278556609375016
 10
66.806593396249994
 20
64.1279376696874976
 10
66.7899688624999897
 20
64.0537222784375047
 10
68.2604277012499949
 20
63.6945181859375111
 10
68.2800206262499927
 20
63.7679425671875038
 10
68.7840931512499907
 20
64.8582194196874866
 10
69.5100208399999957
 20
65.9639328884375118
 10
70.6852008349999892
 20
65.6096775171875066
 10
70.6786700937500001
 20
64.2870562034374871
 10
70.4961985325000029
 20
63.0998034884375016
 10
70.4718553399999905
 20
63.0277654784375088
 10
71.8958058762500087
 20
62.5141931196875049
 10
71.9231174599999861
 20
62.5852423671874973
 10
72.5401957212500008
 20
63.6157509809375057
 10
73.3795246512499943
 20
64.6379476784374987
 10
74.5103730237499917
 20
64.1607905309375042
 10
74.3633272099999942
 20
62.8462833809374999
 10
74.0557778937500046
 20
61.6851550334374963
 10
74.0239144962499864
 20
61.6160847134375089
 10
75.385127701249985
 20
60.9542793246874908
 10
75.4197617375000107
 20
61.021963974687516
 10
76.1429187875000082
 20
61.9808300834374961
 10
77.0861498262499936
 20
62.9082282996875009
 10
78.1598028462500025
 20
62.3135143034375076
 10
77.8740231349999874
 20
61.021963974687516
 10
77.4445622074999847
 20
59.9002199309375101
 10
77.4057718625000035
 20
59.8349097134374972
 10
78.688811821249999
 20
59.0319959946875059
 10
78.7305705575000019
 20
59.0957220884375118
 10
79.5514937787499861
 20
59.972456394687498
 10
80.5879398762500045
 20
60.7941720284375151
 10
81.5923248237499905
 20
60.0888267284375104
 10
81.1707803074999958
 20
58.8350772809375044
 10
80.6247512937499948
 20
57.7651843634375126
 10
80.5790340012499939
 20
57.7044266609375001
 10
81.7696506124999871
 20
56.7697059921875109
 10
81.8177423374999933
 20
56.8284847671875113
 10
82.7273288037499981
 20
57.6129934784375166
 10
83.8453134462499889
 20
58.3199214996875099
 10
84.768951560000005
 20
57.511664255937518
 10
84.2165895574999865
 20
56.3099643884374998
 10
83.5597314875000023
 20
55.3041944721875112
 10
83.5078796599999862
 20
55.2485825421875063
 10
84.5924174824999966
 20
54.1927412721874902
 10
84.6464459899999895
 20
54.2459787696874969
 10
85.6344048574999874
 20
54.9293560109374965
 10
86.8210629124999969
 20
55.5135814109375048
 10
87.6534655962499869
 20
54.6117136034374937
 10
86.9766190962499905
 20
53.4753239534374956
 10
86.2166506287499885
 20
52.5453521496875098
 10
86.1590597712499999
 20
52.4954792496875058
 10
87.1252483324999929
 20
51.3301952946875133
 10
87.1848188187500028
 20
51.377495308437517
 10
88.2396699237500002
 20
51.9520231221875122
 10
89.4817428574999951
 20
52.4066189534374942
 10
90.2136073287499869
 20
51.4214307246874966
 10
89.4197972374999921
 20
50.3636112284375059
 10
88.5652294437499847
 20
49.5195320309375049
 10
88.5026898649999936
 20
49.4761898721875113
 10
89.3394466100000102
 20
48.2147224671874994
 10
89.40376666249999
 20
48.2554910384374978
 10
90.5136364399999991
 20
48.7146386834375065
 10
91.7970719037499947
 20
49.0346562246875095
 10
92.4200876487499983
 20
47.9772322334375119
 10
91.5182191399999851
 20
47.0096587034375091
 10
90.5787482037499956
 20
46.2611689971874966
 10
90.5120537187499963
 20
46.2247537859375086
 10
91.2100758650000074
 20
44.881550083437503
 10
91.2781567212499994
 20
44.9151946559375048
 10
92.4305769462499995
 20
45.253815658437496
 10
93.7407300349999844
 20
45.435495508437505
 10
94.2479687037500042
 20
44.3179070721875092
 10
93.2483340237499903
 20
43.4516620634375101
 10
92.2346476962499935
 20
42.8072729196874917
 10
92.1643901599999964
 20
42.7781801609375023
 10
92.7157626987499981
 20
41.3684790246875025
 10
92.7870096987499835
 20
41.3946033921874985
 10
93.9689181874999804
 20
41.6087398971874975
 10
95.2909462437499997
 20
41.6503008809375004
 10
95.6764710537500065
 20
40.4850162246875058
 10
94.5905482625000076
 20
39.7299964784374993
 10
93.5141246037500053
 20
39.1970289471875049
 10
93.4410964287500008
 20
39.175457094687502
 10
93.8394863712500182
 20
37.7150913471875029
 10
93.9131078037500089
 20
37.7336948084375123
 10
95.1110475687499957
 20
37.8209723834375069
 10
96.4301065325000053
 20
37.7216220884374991
 10
96.689564123750003
 20
36.5221003034375045
 10
95.5294252399999948
 20
35.8868140859375018
 10
94.4025354237500096
 20
35.4712070534374959
 10
94.3277260737500001
 20
35.4575509109374991
 10
94.5683824512500024
 20
33.963145085937505
 10
94.6437857599999859
 20
33.9736343834375063
 10
95.8440999574999921
 20
33.9330628634374989
 10
97.1451494187500089
 20
33.6941876609374944
 10
97.2755706987499877
 20
32.4738850334375115
 10
96.0544763599999953
 20
31.9654584471875083
 10
94.8897856625000031
 20
31.6721585309375122
 10
94.8139868487500053
 20
31.6664187996874951
 10
94.8945352287500157
 20
30.1549929359375035
  0
CIRCLE
  5
E4
100
AcDbEntity
100
AcDbCircle
  8
0
 62
256
370
-1
  6
ByLayer
 10
59.0
 20
29.0
 30
0.0
 40
3.0
  0
LINE
  5
E5
100
AcDbEntity
100
AcDbLine
  8
0
 62
256
370
-1
  6
ByLayer
 10
50.475143743755666
 20
34.2275066533072732
 30
0.0
 11
38.6810345545169909
 21
51.0712401832173271
 31
0.0
  0
LINE
  5
E6
100
AcDbEntity
100
AcDbLine
  8
0
 62
256
370
-1
  6
ByLayer
 10
58.7352745679059041
 20
38.9964954081719384
 30
0.0
 11
50.0452280310473938
 21
57.6323603460151475
 31
0.0
  0
LINE
  5
E7
100
AcDbEntity
100
AcDbLine
  8
0
 62
256
370
-1
  6
ByLayer
 10
58.7352745679058899
 20
19.0035045918280616
 30
0.0
 11
50.0452280310473796
 21
0.3676396539848561
 31
0.0
  0
LINE
  5
E8
100
AcDbEntity
100
AcDbLine
  8
0
 62
256
370
-1
  6
ByLayer
 10
50.4751437437556518
 20
23.7724933466927446
 30
0.0
 11
38.6810345545169696
 21
6.9287598167826872
 31
0.0
  0
LINE
  5
E9
100
AcDbEntity
100
AcDbLine
  8
0
 62
256
370
-1
  6
ByLayer
 10
67.7895816883384441
 20
33.7689887548646652
 30
0.0
 11
88.2737374144356295
 21
35.5611201627978133
 31
0.0
  0
LINE
  5
EA
100
AcDbEntity
100
AcDbLine
  8
0
 62
256
370
-1
  6
ByLayer
 10
67.7895816883384299
 20
24.2310112451353277
 30
0.0
 11
88.2737374144356295
 21
22.4388798372021903
 31
0.0
  0
ARC
  5
EB
100
AcDbEntity
  8
0
 62
256
370
-1
  6
ByLayer
100
AcDbCircle
 10
59.0
 20
29.0
 30
0.0
 40
10.0
100
AcDbArc
 50
268.4830577882064517
 51
331.5169422117934346
  0
ARC
  5
EC
100
AcDbEntity
  8
0
 62
256
370
-1
  6
ByLayer
100
AcDbCircle
 10
59.0
 20
29.0
 30
0.0
 40
10.0
100
AcDbArc
 50
28.4830577882064979
 51
91.516942211793463
  0
ARC
  5
ED
100
AcDbEntity
  8
0
 62
256
370
-1
  6
ByLayer
100
AcDbCircle
 10
59.0
 20
29.0
 30
0.0
 40
10.0
100
AcDbArc
 50
148.4830577882064517
 51
211.5169422117934062
  0
ARC
  5
EE
100
AcDbEntity
  8
0
 62
256
370
-1
  6
ByLayer
100
AcDbCircle
 10
59.0
 20
29.0
 30
0.0
 40
30.0
100
AcDbArc
 50
132.6329244038462889
 51
227.3670755961536827
  0
ARC
  5
EF
100
AcDbEntity
  8
0
 62
256
370
-1
  6
ByLayer
100
AcDbCircle
 10
59.0
 20
29.0
 30
0.0
 40
30.0
100
AcDbArc
 50
252.6329244038462321
 51
347.3670755961537111
  0
ARC
  5
F0
100
AcDbEntity
  8
0
 62
256
370
-1
  6
ByLayer
100
AcDbCircle
 10
59.0
 20
29.0
 30
0.0
 40
30.0
100
AcDbArc
 50
12.6329244038462623
 51
107.3670755961537537
  0
ARC
  5
F1
100
AcDbEntity
  8
0
 62
256
370
-1
  6
ByLayer
100
AcDbCircle
 10
-38.0
 20
-62.0
 30
0.0
 40
2.5
100
AcDbArc
 50
216.86989764584402
 51
143.13010235415598
  0
LINE
  5
F2
100
AcDbEntity
100
AcDbLine
  8
0
 62
256
370
-1
  6
ByLayer
 10
-40.0
 20
-60.5
 30
0.0
 11
-40.0
 21
-63.5
 31
0.0
  0
ENDSEC
  0
SECTION
  2
OBJECTS
  0
DICTIONARY
  5
C
100
AcDbDictionary
280
0
281
1
  3
ACAD_GROUP
350
D
  3
ACAD_LAYOUT
350
1A
  3
ACAD_MLINESTYLE
350
17
  3
ACAD_PLOTSETTINGS
350
19
  3
ACAD_PLOTSTYLENAME
350
E
  3
AcDbVariableDictionary
350
F3
  0
DICTIONARY
  5
D
100
AcDbDictionary
280
0
281
1
  0
ACDBDICTIONARYWDFLT
  5
E
100
AcDbDictionary
281
1
  3
Normal
350
F
100
AcDbDictionaryWithDefault
340
F
  0
ACDBPLACEHOLDER
  5
F
  0
DICTIONARY
  5
17
100
AcDbDictionary
280
0
281
1
  3
Standard
350
18
  0
MLINESTYLE
  5
18
100
AcDbMlineStyle
  2
STANDARD
 70
0
  3

 62
256
 51
90.0
 52
90.0
 71
2
 49
0.5
 62
256
  6
BYLAYER
 49
-0.5
 62
256
  6
BYLAYER
  0
DICTIONARY
  5
19
100
AcDbDictionary
280
0
281
1
  0
DICTIONARY
  5
1A
100
AcDbDictionary
281
1
  3
Layout1
350
1E
  3
Layout2
350
26
  3
Model
350
22
  0
LAYOUT
  5
1E
100
AcDbPlotSettings
  1

  2
C:\Program Files\AutoCAD 2002\plotters\DWF ePlot (optimized for plotting).pc3
  4

  6

 40
0.0
 41
0.0
 42
0.0
 43
0.0
 44
0.0
 45
0.0
 46
0.0
 47
0.0
 48
0.0
 49
0.0
140
0.0
141
0.0
142
1.0
143
1.0
 70
688
 72
0
 73
0
 74
5
  7

 75
16
147
1.0
148
0.0
149
0.0
100
AcDbLayout
  1
Layout1
 70
1
 71
1
 10
0.0
 20
0.0
 11
420.0
 21
297.0
 12
0.0
 22
0.0
 32
0.0
 14
100000000000000000000.0
 24
100000000000000000000.0
 34
100000000000000000000.0
 15
-100000000000000000000.0
 25
-100000000000000000000.0
 35
-100000000000000000000.0
146
0.0
 13
0.0
 23
0.0
 33
0.0
 16
1.0
 26
0.0
 36
0.0
 17
0.0
 27
1.0
 37
0.0
 76
0
330
1B
  0
LAYOUT
  5
22
100
AcDbPlotSettings
  1

  2
C:\Program Files\AutoCAD 2002\plotters\DWF ePlot (optimized for plotting).pc3
  4

  6

 40
0.0
 41
0.0
 42
0.0
 43
0.0
 44
0.0
 45
0.0
 46
0.0
 47
0.0
 48
0.0
 49
0.0
140
0.0
141
0.0
142
1.0
143
1.0
 70
1712
 72
0
 73
0
 74
0
  7

 75
0
147
1.0
148
0.0
149
0.0
100
AcDbLayout
  1
Model
 70
1
 71
0
 10
0.0
 20
0.0
 11
12.0
 21
9.0
 12
0.0
 22
0.0
 32
0.0
 14
0.0
 24
0.0
 34
0.0
 15
0.0
 25
0.0
 35
0.0
146
0.0
 13
0.0
 23
0.0
 33
0.0
 16
1.0
 26
0.0
 36
0.0
 17
0.0
 27
1.0
 37
0.0
 76
0
330
1F
  0
LAYOUT
  5
26
100
AcDbPlotSettings
  1

  2
C:\Program Files\AutoCAD 2002\plotters\DWF ePlot (optimized for plotting).pc3
  4

  6

 40
0.0
 41
0.0
 42
0.0
 43
0.0
 44
0.0
 45
0.0
 46
0.0
 47
0.0
 48
0.0
 49
0.0
140
0.0
141
0.0
142
1.0
143
1.0
 70
688
 72
0
 73
0
 74
5
  7

 75
16
147
1.0
148
0.0
149
0.0
100
AcDbLayout
  1
Layout2
 70
1
 71
2
 10
0.0
 20
0.0
 11
12.0
 21
9.0
 12
0.0
 22
0.0
 32
0.0
 14
0.0
 24
0.0
 34
0.0
 15
0.0
 25
0.0
 35
0.0
146
0.0
 13
0.0
 23
0.0
 33
0.0
 16
1.0
 26
0.0
 36
0.0
 17
0.0
 27
1.0
 37
0.0
 76
0
330
23
  0
DICTIONARY
  5
F3
100
AcDbDictionary
281
1
  3
DIMASSOC
350
F5
  3
HIDETEXT
350
F4
  0
DICTIONARYVAR
  5
F4
100
DictionaryVariables
280
0
  1
2
  0
DICTIONARYVAR
  5
F5
100
DictionaryVariables
280
0
  1
1
  0
ENDSEC
  0
EOF
