999
dxfrw 0.5.0
0
SECTION
2
HEADER
9
$ACADVER
1
AC1021
9
$HANDSEED
5
20000
9
$DWGCODEPAGE
3
ANSI_1252
9
$INSBASE
10
0
20
0
30
0
9
$EXTMIN
10
1e+20
20
1e+20
30
1e+20
9
$EXTMAX
10
-1e+20
20
-1e+20
30
-1e+20
9
$LIMMIN
10
0
20
0
9
$LIMMAX
10
420
20
297
9
$ORTHOMODE
70
0
9
$LTSCALE
40
1
9
$TEXTSTYLE
7
STANDARD
9
$DIMASZ
40
2.5
9
$DIMEXO
40
0.625
9
$DIMEXE
40
1.25
9
$DIMTXT
40
2.5
9
$DIMTSZ
40
0
9
$DIMAUNIT
70
0
9
$DIMADEC
70
0
9
$DIMSTYLE
2
Standard
9
$DIMGAP
40
0.625
9
$LUNITS
70
2
9
$LUPREC
70
4
9
$AUNITS
70
0
9
$AUPREC
70
2
9
$SPLINESEGS
70
8
9
$SNAPSTYLE
70
0
9
$PINSBASE
10
0
20
0
30
0
9
$PLIMMIN
10
0
20
0
9
$PLIMMAX
10
210
20
297
9
$INSUNITS
70
4
9
$PSVPSCALE
40
0
0
ENDSEC
0
SECTION
2
CLASSES
0
ENDSEC
0
SECTION
2
TABLES
0
TABLE
2
VPORT
5
8
330
0
100
AcDbSymbolTable
70
1
0
VPORT
5
31
330
2
100
AcDbSymbolTableRecord
100
AcDbViewportTableRecord
2
*ACTIVE
70
0
10
0
20
0
11
1
21
1
12
0.651828
22
-0.16
13
0
23
0
14
10
24
10
15
10
25
10
16
0
26
0
36
1
17
0
27
0
37
0
40
5.13732
41
2.4426877
42
50
43
0
44
0
50
0
51
0
71
0
72
100
73
1
74
3
75
0
76
0
77
0
78
0
281
0
65
1
110
0
120
0
130
0
111
1
121
0
131
0
112
0
122
1
132
0
79
0
146
0
348
10020
60
3
61
5
292
1
282
1
141
0
142
0
63
250
421
3358443
0
ENDTAB
0
TABLE
2
LTYPE
5
5
330
0
100
AcDbSymbolTable
70
4
0
LTYPE
5
14
330
5
100
AcDbSymbolTableRecord
100
AcDbLinetypeTableRecord
2
ByBlock
70
0
3

72
65
73
0
40
0
0
LTYPE
5
15
330
5
100
AcDbSymbolTableRecord
100
AcDbLinetypeTableRecord
2
ByLayer
70
0
3

72
65
73
0
40
0
0
LTYPE
5
16
330
5
100
AcDbSymbolTableRecord
100
AcDbLinetypeTableRecord
2
Continuous
70
0
3
Solid line
72
65
73
0
40
0
0
LTYPE
5
32
330
5
100
AcDbSymbolTableRecord
100
AcDbLinetypeTableRecord
2
DOT
70
0
3
Dot . . . . . . . . . . . . . . . . . . . . . .
72
65
73
2
40
6.35
49
0
74
0
49
-6.35
74
0
0
LTYPE
5
33
330
5
100
AcDbSymbolTableRecord
100
AcDbLinetypeTableRecord
2
DOT2
70
0
3
Dot (.5x) .....................................
72
65
73
2
40
3.175
49
0
74
0
49
-3.175
74
0
0
LTYPE
5
34
330
5
100
AcDbSymbolTableRecord
100
AcDbLinetypeTableRecord
2
DOTX2
70
0
3
Dot (2x) .  .  .  .  .  .  .  .  .  .  .  .  .
72
65
73
2
40
12.7
49
0
74
0
49
-12.7
74
0
0
LTYPE
5
35
330
5
100
AcDbSymbolTableRecord
100
AcDbLinetypeTableRecord
2
DASHED
70
0
3
Dot . . . . . . . . . . . . . . . . . . . . . .
72
65
73
2
40
19.05
49
12.7
74
0
49
-6.35
74
0
0
LTYPE
5
36
330
5
100
AcDbSymbolTableRecord
100
AcDbLinetypeTableRecord
2
DASHED2
70
0
3
Dashed (.5x) _ _ _ _ _ _ _ _ _ _ _ _ _ _ _ _ _
72
65
73
2
40
9.525
49
6.35
74
0
49
-3.175
74
0
0
LTYPE
5
37
330
5
100
AcDbSymbolTableRecord
100
AcDbLinetypeTableRecord
2
DASHEDX2
70
0
3
Dashed (2x) ____  ____  ____  ____  ____  ___
72
65
73
2
40
38.1
49
25.4
74
0
49
-12.7
74
0
0
LTYPE
5
38
330
5
100
AcDbSymbolTableRecord
100
AcDbLinetypeTableRecord
2
DASHDOT
70
0
3
Dash dot __ . __ . __ . __ . __ . __ . __ . __
72
65
73
4
40
25.4
49
12.7
74
0
49
-6.35
74
0
49
0
74
0
49
-6.35
74
0
0
LTYPE
5
39
330
5
100
AcDbSymbolTableRecord
100
AcDbLinetypeTableRecord
2
DASHDOT2
70
0
3
Dash dot (.5x) _._._._._._._._._._._._._._._.
72
65
73
4
40
12.7
49
6.35
74
0
49
-3.175
74
0
49
0
74
0
49
-3.175
74
0
0
LTYPE
5
3A
330
5
100
AcDbSymbolTableRecord
100
AcDbLinetypeTableRecord
2
DASHDOTX2
70
0
3
Dash dot (2x) ____  .  ____  .  ____  .  ___
72
65
73
4
40
50.8
49
25.4
74
0
49
-12.7
74
0
49
0
74
0
49
-12.7
74
0
0
LTYPE
5
3B
330
5
100
AcDbSymbolTableRecord
100
AcDbLinetypeTableRecord
2
DIVIDE
70
0
3
Divide ____ . . ____ . . ____ . . ____ . . ____
72
65
73
6
40
31.75
49
12.7
74
0
49
-6.35
74
0
49
0
74
0
49
-6.35
74
0
49
0
74
0
49
-6.35
74
0
0
LTYPE
5
3C
330
5
100
AcDbSymbolTableRecord
100
AcDbLinetypeTableRecord
2
DIVIDE2
70
0
3
Divide (.5x) __..__..__..__..__..__..__..__.._
72
65
73
6
40
15.875
49
6.35
74
0
49
-3.175
74
0
49
0
74
0
49
-3.175
74
0
49
0
74
0
49
-3.175
74
0
0
LTYPE
5
3D
330
5
100
AcDbSymbolTableRecord
100
AcDbLinetypeTableRecord
2
DIVIDEX2
70
0
3
Divide (2x) ________  .  .  ________  .  .  _
72
65
73
6
40
63.5
49
25.4
74
0
49
-12.7
74
0
49
0
74
0
49
-12.7
74
0
49
0
74
0
49
-12.7
74
0
0
LTYPE
5
3E
330
5
100
AcDbSymbolTableRecord
100
AcDbLinetypeTableRecord
2
BORDER
70
0
3
Border __ __ . __ __ . __ __ . __ __ . __ __ .
72
65
73
6
40
44.45
49
12.7
74
0
49
-6.35
74
0
49
12.7
74
0
49
-6.35
74
0
49
0
74
0
49
-6.35
74
0
0
LTYPE
5
3F
330
5
100
AcDbSymbolTableRecord
100
AcDbLinetypeTableRecord
2
BORDER2
70
0
3
Border (.5x) __.__.__.__.__.__.__.__.__.__.__.
72
65
73
6
40
22.225
49
6.35
74
0
49
-3.175
74
0
49
6.35
74
0
49
-3.175
74
0
49
0
74
0
49
-3.175
74
0
0
LTYPE
5
40
330
5
100
AcDbSymbolTableRecord
100
AcDbLinetypeTableRecord
2
BORDERX2
70
0
3
Border (2x) ____  ____  .  ____  ____  .  ___
72
65
73
6
40
88.9
49
25.4
74
0
49
-12.7
74
0
49
25.4
74
0
49
-12.7
74
0
49
0
74
0
49
-12.7
74
0
0
LTYPE
5
41
330
5
100
AcDbSymbolTableRecord
100
AcDbLinetypeTableRecord
2
CENTER
70
0
3
Center ____ _ ____ _ ____ _ ____ _ ____ _ ____
72
65
73
4
40
50.8
49
31.75
74
0
49
-6.35
74
0
49
6.35
74
0
49
-6.35
74
0
0
LTYPE
5
42
330
5
100
AcDbSymbolTableRecord
100
AcDbLinetypeTableRecord
2
CENTER2
70
0
3
Center (.5x) ___ _ ___ _ ___ _ ___ _ ___ _ ___
72
65
73
4
40
28.575
49
19.05
74
0
49
-3.175
74
0
49
3.175
74
0
49
-3.175
74
0
0
LTYPE
5
43
330
5
100
AcDbSymbolTableRecord
100
AcDbLinetypeTableRecord
2
CENTERX2
70
0
3
Center (2x) ________  __  ________  __  _____
72
65
73
4
40
101.6
49
63.5
74
0
49
-12.7
74
0
49
12.7
74
0
49
-12.7
74
0
0
ENDTAB
0
TABLE
2
LAYER
5
2
330
0
100
AcDbSymbolTable
70
1
0
LAYER
5
10
330
2
100
AcDbSymbolTableRecord
100
AcDbLayerTableRecord
2
0
70
0
62
7
6
CONTINUOUS
370
0
390
F
0
LAYER
5
44
330
2
100
AcDbSymbolTableRecord
100
AcDbLayerTableRecord
2
corner_rod_face
70
0
62
7
6
CONTINUOUS
370
0
390
F
0
LAYER
5
45
330
2
100
AcDbSymbolTableRecord
100
AcDbLayerTableRecord
2
top_front_support
70
0
62
7
6
CONTINUOUS
370
0
390
F
0
LAYER
5
46
330
2
100
AcDbSymbolTableRecord
100
AcDbLayerTableRecord
2
top_inner_support
70
0
62
7
6
CONTINUOUS
370
0
390
F
0
LAYER
5
47
330
2
100
AcDbSymbolTableRecord
100
AcDbLayerTableRecord
2
corner_blank_face
70
0
62
7
6
CONTINUOUS
370
0
390
F
0
LAYER
5
48
330
2
100
AcDbSymbolTableRecord
100
AcDbLayerTableRecord
2
top_rear_support
70
0
62
7
6
CONTINUOUS
370
0
390
F
0
LAYER
5
49
330
2
100
AcDbSymbolTableRecord
100
AcDbLayerTableRecord
2
top_motor_support
70
0
62
7
6
CONTINUOUS
370
0
390
F
0
LAYER
5
4A
330
2
100
AcDbSymbolTableRecord
100
AcDbLayerTableRecord
2
base_front_support
70
0
62
7
6
CONTINUOUS
370
0
390
F
0
LAYER
5
4B
330
2
100
AcDbSymbolTableRecord
100
AcDbLayerTableRecord
2
base_inner_support
70
0
62
7
6
CONTINUOUS
370
0
390
F
0
LAYER
5
4C
330
2
100
AcDbSymbolTableRecord
100
AcDbLayerTableRecord
2
base_pulley_support
70
0
62
7
6
CONTINUOUS
370
0
390
F
0
LAYER
5
4D
330
2
100
AcDbSymbolTableRecord
100
AcDbLayerTableRecord
2
base_rear_support
70
0
62
7
6
CONTINUOUS
370
0
390
F
0
LAYER
5
4E
330
2
100
AcDbSymbolTableRecord
100
AcDbLayerTableRecord
2
carrige_body
70
0
62
7
6
CONTINUOUS
370
0
390
F
0
LAYER
5
4F
330
2
100
AcDbSymbolTableRecord
100
AcDbLayerTableRecord
2
carrige_side
70
0
62
7
6
CONTINUOUS
370
0
390
F
0
LAYER
5
50
330
2
100
AcDbSymbolTableRecord
100
AcDbLayerTableRecord
2
top_rod_plate
70
0
62
7
6
CONTINUOUS
370
0
390
F
0
LAYER
5
51
330
2
100
AcDbSymbolTableRecord
100
AcDbLayerTableRecord
2
base_rod_plate
70
0
62
7
6
CONTINUOUS
370
0
390
F
0
LAYER
5
52
330
2
100
AcDbSymbolTableRecord
100
AcDbLayerTableRecord
2
rod_support_body_side
70
0
62
7
6
CONTINUOUS
370
0
390
F
0
LAYER
5
53
330
2
100
AcDbSymbolTableRecord
100
AcDbLayerTableRecord
2
rod_support_outer_side
70
0
62
7
6
CONTINUOUS
370
0
390
F
0
LAYER
5
54
330
2
100
AcDbSymbolTableRecord
100
AcDbLayerTableRecord
2
rod_support_edge
70
0
62
7
6
CONTINUOUS
370
0
390
F
0
LAYER
5
55
330
2
100
AcDbSymbolTableRecord
100
AcDbLayerTableRecord
2
head_side
70
0
62
7
6
CONTINUOUS
370
0
390
F
0
LAYER
5
56
330
2
100
AcDbSymbolTableRecord
100
AcDbLayerTableRecord
2
head_plate
70
0
62
7
6
CONTINUOUS
370
0
390
F
0
LAYER
5
57
330
2
100
AcDbSymbolTableRecord
100
AcDbLayerTableRecord
2
head
70
0
62
7
6
CONTINUOUS
370
0
390
F
0
LAYER
5
58
330
2
100
AcDbSymbolTableRecord
100
AcDbLayerTableRecord
2
carrige_rear
70
0
62
7
6
CONTINUOUS
370
0
390
F
0
LAYER
5
59
330
2
100
AcDbSymbolTableRecord
100
AcDbLayerTableRecord
2
corner_rod_support
70
0
62
7
6
CONTINUOUS
370
0
390
F
0
LAYER
5
5A
330
2
100
AcDbSymbolTableRecord
100
AcDbLayerTableRecord
2
head_side_2
70
0
62
7
6
CONTINUOUS
370
0
390
F
0
ENDTAB
0
TABLE
2
STYLE
5
3
330
0
100
AcDbSymbolTable
70
3
0
STYLE
5
5B
330
2
100
AcDbSymbolTableRecord
100
AcDbTextStyleTableRecord
2
Standard
70
0
40
0
41
1
50
0
71
0
42
1
3
txt
4

1071

0
ENDTAB
0
TABLE
2
VIEW
5
6
330
0
100
AcDbSymbolTable
70
0
0
ENDTAB
0
TABLE
2
UCS
5
7
330
0
100
AcDbSymbolTable
70
0
0
ENDTAB
0
TABLE
2
APPID
5
9
330
0
100
AcDbSymbolTable
70
1
0
APPID
5
12
330
9
100
AcDbSymbolTableRecord
100
AcDbRegAppTableRecord
2
ACAD
70
0
0
ENDTAB
0
TABLE
2
DIMSTYLE
5
A
330
0
100
AcDbSymbolTable
70
1
100
AcDbDimStyleTable
71
1
0
DIMSTYLE
105
5C
330
A
100
AcDbSymbolTableRecord
100
AcDbDimStyleTableRecord
2
Standard
70
0
40
1
41
2.5
42
0.625
43
0.38
44
1.25
45
0
46
0
47
0
48
0
140
2.5
141
0.09
142
0
143
25.4
144
1
145
0
146
1
147
0.625
148
0
71
0
72
0
73
1
74
1
75
0
76
0
77
0
78
0
79
0
170
0
171
2
172
0
173
0
174
0
175
0
176
0
177
0
178
0
179
0
271
4
272
4
273
2
274
2
275
0
276
0
277
2
278
46
279
0
280
0
281
0
282
0
283
1
284
0
285
0
286
0
288
0
289
3
340
Standard
341

371
-2
372
-2
0
DIMSTYLE
105
5D
330
A
100
AcDbSymbolTableRecord
100
AcDbDimStyleTableRecord
2
Standard
70
0
40
1
41
0.18
42
0.0625
43
0.38
44
0.18
45
0
46
0
47
0
48
0
140
0.18
141
0.09
142
0
143
25.4
144
1
145
0
146
1
147
0.09
148
0
71
0
72
0
73
1
74
1
75
0
76
0
77
0
78
0
79
0
170
0
171
2
172
0
173
0
174
0
175
0
176
0
177
0
178
0
179
0
271
4
272
4
273
2
274
2
275
0
276
0
277
2
278
46
279
0
280
0
281
0
282
0
283
1
284
0
285
0
286
0
288
0
289
3
340
Standard
341

371
-2
372
-2
0
ENDTAB
0
TABLE
2
BLOCK_RECORD
5
1
330
0
100
AcDbSymbolTable
70
2
0
BLOCK_RECORD
5
1F
330
1
100
AcDbSymbolTableRecord
100
AcDbBlockTableRecord
2
*Model_Space
70
0
280
1
281
0
0
BLOCK_RECORD
5
1E
330
1
100
AcDbSymbolTableRecord
100
AcDbBlockTableRecord
2
*Paper_Space
70
0
280
1
281
0
0
ENDTAB
0
ENDSEC
0
SECTION
2
BLOCKS
0
BLOCK
5
20
330
1F
100
AcDbEntity
8
0
100
AcDbBlockBegin
2
*Model_Space
70
0
10
0
20
0
30
0
3
*Model_Space
1

0
ENDBLK
5
21
330
1F
100
AcDbEntity
8
0
100
AcDbBlockEnd
0
BLOCK
5
1C
330
1B
100
AcDbEntity
8
0
100
AcDbBlockBegin
2
*Paper_Space
70
0
10
0
20
0
30
0
3
*Paper_Space
1

0
ENDBLK
5
1D
330
1F
100
AcDbEntity
8
0
100
AcDbBlockEnd
0
ENDSEC
0
SECTION
2
ENTITIES
0
LINE
5
5E
100
AcDbEntity
8
top_front_support
6
ByLayer
62
256
370
-1
100
AcDbLine
10
-10
20
0
11
-10
21
-6
0
LINE
5
5F
100
AcDbEntity
8
top_front_support
6
ByLayer
62
256
370
-1
100
AcDbLine
10
-10
20
-6
11
10
21
-6
0
LINE
5
60
100
AcDbEntity
8
top_front_support
6
ByLayer
62
256
370
-1
100
AcDbLine
10
10
20
-6
11
10
21
0
0
LINE
5
61
100
AcDbEntity
8
top_front_support
6
ByLayer
62
256
370
-1
100
AcDbLine
10
10
20
0
11
20
21
0
0
LINE
5
62
100
AcDbEntity
8
top_front_support
6
ByLayer
62
256
370
-1
100
AcDbLine
10
20
20
0
11
20
21
52
0
LINE
5
63
100
AcDbEntity
8
top_front_support
6
ByLayer
62
256
370
-1
100
AcDbLine
10
20
20
52
11
10
21
52
0
LINE
5
64
100
AcDbEntity
8
top_front_support
6
ByLayer
62
256
370
-1
100
AcDbLine
10
10
20
52
11
10
21
58
0
LINE
5
65
100
AcDbEntity
8
top_front_support
6
ByLayer
62
256
370
-1
100
AcDbLine
10
10
20
58
11
-10
21
58
0
LINE
5
66
100
AcDbEntity
8
top_front_support
6
ByLayer
62
256
370
-1
100
AcDbLine
10
-10
20
58
11
-10
21
52
0
CIRCLE
5
67
100
AcDbEntity
8
top_front_support
6
ByLayer
62
256
370
-1
100
AcDbCircle
10
0
20
26
40
3
0
CIRCLE
5
68
100
AcDbEntity
8
top_inner_support
6
ByLayer
62
256
370
-1
100
AcDbCircle
10
0
20
26
40
3
0
LINE
5
69
100
AcDbEntity
8
top_rear_support
6
ByLayer
62
256
370
-1
100
AcDbLine
10
10
20
0
11
10
21
-6
0
LINE
5
6A
100
AcDbEntity
8
top_rear_support
6
ByLayer
62
256
370
-1
100
AcDbLine
10
10
20
-6
11
-10
21
-6
0
LINE
5
6B
100
AcDbEntity
8
top_rear_support
6
ByLayer
62
256
370
-1
100
AcDbLine
10
-10
20
-6
11
-10
21
0
0
LINE
5
6C
100
AcDbEntity
8
top_rear_support
6
ByLayer
62
256
370
-1
100
AcDbLine
10
-10
20
52
11
-10
21
58
0
LINE
5
6D
100
AcDbEntity
8
top_rear_support
6
ByLayer
62
256
370
-1
100
AcDbLine
10
-10
20
58
11
10
21
58
0
LINE
5
6E
100
AcDbEntity
8
top_rear_support
6
ByLayer
62
256
370
-1
100
AcDbLine
10
10
20
58
11
10
21
52
0
LINE
5
6F
100
AcDbEntity
8
top_motor_support
6
ByLayer
62
256
370
-1
100
AcDbLine
10
21
20
52
11
10
21
52
0
LINE
5
70
100
AcDbEntity
8
top_motor_support
6
ByLayer
62
256
370
-1
100
AcDbLine
10
10
20
52
11
10
21
58
0
LINE
5
71
100
AcDbEntity
8
top_motor_support
6
ByLayer
62
256
370
-1
100
AcDbLine
10
10
20
58
11
-10
21
58
0
LINE
5
72
100
AcDbEntity
8
top_motor_support
6
ByLayer
62
256
370
-1
100
AcDbLine
10
-10
20
58
11
-10
21
52
0
LINE
5
73
100
AcDbEntity
8
top_motor_support
6
ByLayer
62
256
370
-1
100
AcDbLine
10
-10
20
52
11
-21
21
52
0
LINE
5
74
100
AcDbEntity
8
top_motor_support
6
ByLayer
62
256
370
-1
100
AcDbLine
10
-21
20
52
11
-21
21
0
0
LINE
5
75
100
AcDbEntity
8
top_motor_support
6
ByLayer
62
256
370
-1
100
AcDbLine
10
-21
20
0
11
-10
21
0
0
LINE
5
76
100
AcDbEntity
8
top_motor_support
6
ByLayer
62
256
370
-1
100
AcDbLine
10
-10
20
0
11
-10
21
-6
0
LINE
5
77
100
AcDbEntity
8
top_motor_support
6
ByLayer
62
256
370
-1
100
AcDbLine
10
-10
20
-6
11
10
21
-6
0
LINE
5
78
100
AcDbEntity
8
top_motor_support
6
ByLayer
62
256
370
-1
100
AcDbLine
10
10
20
-6
11
10
21
0
0
LINE
5
79
100
AcDbEntity
8
top_motor_support
6
ByLayer
62
256
370
-1
100
AcDbLine
10
10
20
0
11
21
21
0
0
LINE
5
7A
100
AcDbEntity
8
top_motor_support
6
ByLayer
62
256
370
-1
100
AcDbLine
10
21
20
0
11
21
21
52
0
CIRCLE
5
7B
100
AcDbEntity
8
top_motor_support
6
ByLayer
62
256
370
-1
100
AcDbCircle
10
-15.75
20
41.75
40
1.5
0
CIRCLE
5
7C
100
AcDbEntity
8
top_motor_support
6
ByLayer
62
256
370
-1
100
AcDbCircle
10
15.75
20
41.75
40
1.5
0
CIRCLE
5
7D
100
AcDbEntity
8
top_motor_support
6
ByLayer
62
256
370
-1
100
AcDbCircle
10
15.75
20
10.25
40
1.5
0
CIRCLE
5
7E
100
AcDbEntity
8
top_motor_support
6
ByLayer
62
256
370
-1
100
AcDbCircle
10
-15.75
20
10.25
40
1.5
0
CIRCLE
5
7F
100
AcDbEntity
8
top_motor_support
6
ByLayer
62
256
370
-1
100
AcDbCircle
10
0
20
26
40
11
0
LINE
5
80
100
AcDbEntity
8
corner_blank_face
6
ByLayer
62
256
370
-1
100
AcDbLine
10
10
20
74
11
-10
21
74
0
LINE
5
81
100
AcDbEntity
8
corner_blank_face
6
ByLayer
62
256
370
-1
100
AcDbLine
10
-10
20
80
11
-10
21
74
0
LINE
5
82
100
AcDbEntity
8
corner_blank_face
6
ByLayer
62
256
370
-1
100
AcDbLine
10
10
20
80
11
10
21
74
0
LINE
5
83
100
AcDbEntity
8
base_front_support
6
ByLayer
62
256
370
-1
100
AcDbLine
10
20
20
0
11
10
21
0
0
LINE
5
84
100
AcDbEntity
8
base_front_support
6
ByLayer
62
256
370
-1
100
AcDbLine
10
10
20
0
11
10
21
-6
0
LINE
5
85
100
AcDbEntity
8
base_front_support
6
ByLayer
62
256
370
-1
100
AcDbLine
10
10
20
-6
11
-10
21
-6
0
LINE
5
86
100
AcDbEntity
8
base_front_support
6
ByLayer
62
256
370
-1
100
AcDbLine
10
-10
20
-6
11
-10
21
0
0
LINE
5
87
100
AcDbEntity
8
base_pulley_support
6
ByLayer
62
256
370
-1
100
AcDbLine
10
-21
20
0
11
-10
21
0
0
LINE
5
88
100
AcDbEntity
8
base_pulley_support
6
ByLayer
62
256
370
-1
100
AcDbLine
10
-10
20
0
11
-10
21
-6
0
LINE
5
89
100
AcDbEntity
8
base_pulley_support
6
ByLayer
62
256
370
-1
100
AcDbLine
10
-10
20
-6
11
10
21
-6
0
LINE
5
8A
100
AcDbEntity
8
base_pulley_support
6
ByLayer
62
256
370
-1
100
AcDbLine
10
10
20
-6
11
10
21
0
0
LINE
5
8B
100
AcDbEntity
8
base_pulley_support
6
ByLayer
62
256
370
-1
100
AcDbLine
10
10
20
0
11
21
21
0
0
LINE
5
8C
100
AcDbEntity
8
base_pulley_support
6
ByLayer
62
256
370
-1
100
AcDbLine
10
21
20
40
11
10
21
40
0
LINE
5
8D
100
AcDbEntity
8
base_pulley_support
6
ByLayer
62
256
370
-1
100
AcDbLine
10
10
20
40
11
10
21
46
0
LINE
5
8E
100
AcDbEntity
8
base_pulley_support
6
ByLayer
62
256
370
-1
100
AcDbLine
10
10
20
46
11
-10
21
46
0
LINE
5
8F
100
AcDbEntity
8
base_pulley_support
6
ByLayer
62
256
370
-1
100
AcDbLine
10
-10
20
46
11
-10
21
40
0
LINE
5
90
100
AcDbEntity
8
base_pulley_support
6
ByLayer
62
256
370
-1
100
AcDbLine
10
-10
20
40
11
-21
21
40
0
CIRCLE
5
91
100
AcDbEntity
8
base_pulley_support
6
ByLayer
62
256
370
-1
100
AcDbCircle
10
0
20
20
40
9.5
0
LINE
5
92
100
AcDbEntity
8
base_pulley_support
6
ByLayer
62
256
370
-1
100
AcDbLine
10
-21
20
40
11
-21
21
0
0
LINE
5
93
100
AcDbEntity
8
base_pulley_support
6
ByLayer
62
256
370
-1
100
AcDbLine
10
21
20
40
11
21
21
0
0
CIRCLE
5
94
100
AcDbEntity
8
base_inner_support
6
ByLayer
62
256
370
-1
100
AcDbCircle
10
0
20
20
40
3
0
LINE
5
95
100
AcDbEntity
8
base_front_support
6
ByLayer
62
256
370
-1
100
AcDbLine
10
-10
20
40
11
-10
21
46
0
LINE
5
96
100
AcDbEntity
8
base_front_support
6
ByLayer
62
256
370
-1
100
AcDbLine
10
-10
20
46
11
10
21
46
0
LINE
5
97
100
AcDbEntity
8
base_front_support
6
ByLayer
62
256
370
-1
100
AcDbLine
10
10
20
46
11
10
21
40
0
LINE
5
98
100
AcDbEntity
8
base_front_support
6
ByLayer
62
256
370
-1
100
AcDbLine
10
10
20
40
11
20
21
40
0
LINE
5
99
100
AcDbEntity
8
base_front_support
6
ByLayer
62
256
370
-1
100
AcDbLine
10
20
20
40
11
20
21
0
0
CIRCLE
5
9A
100
AcDbEntity
8
base_front_support
6
ByLayer
62
256
370
-1
100
AcDbCircle
10
0
20
20
40
3
0
LINE
5
9B
100
AcDbEntity
8
base_rear_support
6
ByLayer
62
256
370
-1
100
AcDbLine
10
-10
20
0
11
-10
21
-6
0
LINE
5
9C
100
AcDbEntity
8
base_rear_support
6
ByLayer
62
256
370
-1
100
AcDbLine
10
-10
20
-6
11
10
21
-6
0
LINE
5
9D
100
AcDbEntity
8
base_rear_support
6
ByLayer
62
256
370
-1
100
AcDbLine
10
10
20
-6
11
10
21
0
0
LINE
5
9E
100
AcDbEntity
8
base_rear_support
6
ByLayer
62
256
370
-1
100
AcDbLine
10
10
20
40
11
10
21
46
0
LINE
5
9F
100
AcDbEntity
8
base_rear_support
6
ByLayer
62
256
370
-1
100
AcDbLine
10
10
20
46
11
-10
21
46
0
LINE
5
A0
100
AcDbEntity
8
base_rear_support
6
ByLayer
62
256
370
-1
100
AcDbLine
10
-10
20
46
11
-10
21
40
0
LINE
5
A1
100
AcDbEntity
8
carrige_side
6
ByLayer
62
256
370
-1
100
AcDbLine
10
0
20
5
11
-8.5
21
5
0
LINE
5
A2
100
AcDbEntity
8
carrige_side
6
ByLayer
62
256
370
-1
100
AcDbLine
10
0
20
5
11
8.5
21
5
0
CIRCLE
5
A3
100
AcDbEntity
8
corner_rod_face
6
ByLayer
62
256
370
-1
100
AcDbCircle
10
25
20
25
40
5
0
CIRCLE
5
A4
100
AcDbEntity
8
corner_rod_face
6
ByLayer
62
256
370
-1
100
AcDbCircle
10
-25
20
25
40
5
0
CIRCLE
5
A5
100
AcDbEntity
8
corner_rod_face
6
ByLayer
62
256
370
-1
100
AcDbCircle
10
-25
20
41
40
2.5
0
CIRCLE
5
A6
100
AcDbEntity
8
corner_rod_face
6
ByLayer
62
256
370
-1
100
AcDbCircle
10
-25
20
9
40
2.5
0
CIRCLE
5
A7
100
AcDbEntity
8
corner_rod_face
6
ByLayer
62
256
370
-1
100
AcDbCircle
10
25
20
41
40
2.5
0
CIRCLE
5
A8
100
AcDbEntity
8
corner_rod_face
6
ByLayer
62
256
370
-1
100
AcDbCircle
10
25
20
9
40
2.5
0
LINE
5
A9
100
AcDbEntity
8
corner_rod_face
6
ByLayer
62
256
370
-1
100
AcDbLine
10
-15
20
20
11
-15
21
10
0
LINE
5
AA
100
AcDbEntity
8
corner_rod_face
6
ByLayer
62
256
370
-1
100
AcDbLine
10
-15
20
10
11
15
21
10
0
LINE
5
AB
100
AcDbEntity
8
corner_rod_face
6
ByLayer
62
256
370
-1
100
AcDbLine
10
15
20
10
11
15
21
20
0
CIRCLE
5
AC
100
AcDbEntity
8
carrige_body
6
ByLayer
62
256
370
-1
100
AcDbCircle
10
25
20
25
40
9.5
0
CIRCLE
5
AD
100
AcDbEntity
8
carrige_body
6
ByLayer
62
256
370
-1
100
AcDbCircle
10
-25
20
25
40
9.5
0
LINE
5
AE
100
AcDbEntity
8
carrige_body
6
ByLayer
62
256
370
-1
100
AcDbLine
10
-15
20
10
11
-15
21
20
0
LINE
5
AF
100
AcDbEntity
8
top_rear_support
6
ByLayer
62
256
370
-1
100
AcDbLine
10
30
20
52
11
30
21
0
0
LINE
5
B0
100
AcDbEntity
8
top_rear_support
6
ByLayer
62
256
370
-1
100
AcDbLine
10
-30
20
0
11
-30
21
52
0
LINE
5
B1
100
AcDbEntity
8
top_rear_support
6
ByLayer
62
256
370
-1
100
AcDbLine
10
-30
20
52
11
-10
21
52
0
LINE
5
B2
100
AcDbEntity
8
top_rear_support
6
ByLayer
62
256
370
-1
100
AcDbLine
10
10
20
52
11
30
21
52
0
LINE
5
B3
100
AcDbEntity
8
top_rear_support
6
ByLayer
62
256
370
-1
100
AcDbLine
10
10
20
0
11
30
21
0
0
LINE
5
B4
100
AcDbEntity
8
top_rear_support
6
ByLayer
62
256
370
-1
100
AcDbLine
10
-30
20
0
11
-10
21
0
0
LINE
5
B5
100
AcDbEntity
8
corner_blank_face
6
ByLayer
62
256
370
-1
100
AcDbLine
10
35.6602540378
20
10.1961524227
11
52.9807621135
21
20.1961524227
0
LINE
5
B6
100
AcDbEntity
8
corner_blank_face
6
ByLayer
62
256
370
-1
100
AcDbLine
10
38.6602540378
20
5
11
30
21
0
0
LINE
5
B7
100
AcDbEntity
8
corner_blank_face
6
ByLayer
62
256
370
-1
100
AcDbLine
10
64.6410161514
20
20
11
55.9807621135
21
15
0
LINE
5
B8
100
AcDbEntity
8
corner_blank_face
6
ByLayer
62
256
370
-1
100
AcDbLine
10
55.9807621135
20
15
11
52.9807621135
21
20.1961524227
0
LINE
5
B9
100
AcDbEntity
8
corner_blank_face
6
ByLayer
62
256
370
-1
100
AcDbLine
10
38.6602540378
20
5
11
35.6602540378
21
10.1961524227
0
LINE
5
BA
100
AcDbEntity
8
corner_blank_face
6
ByLayer
62
256
370
-1
100
AcDbLine
10
-35.6602540378
20
10.1961524227
11
-52.9807621135
21
20.1961524227
0
LINE
5
BB
100
AcDbEntity
8
corner_blank_face
6
ByLayer
62
256
370
-1
100
AcDbLine
10
-35.6602540378
20
10.1961524227
11
-38.6602540378
21
5
0
LINE
5
BC
100
AcDbEntity
8
corner_blank_face
6
ByLayer
62
256
370
-1
100
AcDbLine
10
-52.9807621135
20
20.1961524227
11
-55.9807621135
21
15
0
LINE
5
BD
100
AcDbEntity
8
corner_blank_face
6
ByLayer
62
256
370
-1
100
AcDbLine
10
-38.6602540378
20
5
11
-30
21
0
0
LINE
5
BE
100
AcDbEntity
8
corner_blank_face
6
ByLayer
62
256
370
-1
100
AcDbLine
10
-64.6410161514
20
20
11
-55.9807621135
21
15
0
LINE
5
BF
100
AcDbEntity
8
corner_blank_face
6
ByLayer
62
256
370
-1
100
AcDbLine
10
-30
20
80
11
-10
21
80
0
LINE
5
C0
100
AcDbEntity
8
corner_blank_face
6
ByLayer
62
256
370
-1
100
AcDbLine
10
10
20
80
11
30
21
80
0
LINE
5
C1
100
AcDbEntity
8
corner_blank_face
6
ByLayer
62
256
370
-1
100
AcDbLine
10
30
20
0
11
-30
21
0
0
LINE
5
C2
100
AcDbEntity
8
corner_rod_face
6
ByLayer
62
256
370
-1
100
AcDbLine
10
10
20
74
11
-10
21
74
0
LINE
5
C3
100
AcDbEntity
8
corner_rod_face
6
ByLayer
62
256
370
-1
100
AcDbLine
10
-10
20
80
11
-10
21
74
0
LINE
5
C4
100
AcDbEntity
8
corner_rod_face
6
ByLayer
62
256
370
-1
100
AcDbLine
10
10
20
80
11
10
21
74
0
LINE
5
C5
100
AcDbEntity
8
corner_rod_face
6
ByLayer
62
256
370
-1
100
AcDbLine
10
35.6602540378
20
10.1961524227
11
52.9807621135
21
20.1961524227
0
LINE
5
C6
100
AcDbEntity
8
corner_rod_face
6
ByLayer
62
256
370
-1
100
AcDbLine
10
38.6602540378
20
5
11
30
21
0
0
LINE
5
C7
100
AcDbEntity
8
corner_rod_face
6
ByLayer
62
256
370
-1
100
AcDbLine
10
64.6410161514
20
20
11
55.9807621135
21
15
0
LINE
5
C8
100
AcDbEntity
8
corner_rod_face
6
ByLayer
62
256
370
-1
100
AcDbLine
10
55.9807621135
20
15
11
52.9807621135
21
20.1961524227
0
LINE
5
C9
100
AcDbEntity
8
corner_rod_face
6
ByLayer
62
256
370
-1
100
AcDbLine
10
38.6602540378
20
5
11
35.6602540378
21
10.1961524227
0
LINE
5
CA
100
AcDbEntity
8
corner_rod_face
6
ByLayer
62
256
370
-1
100
AcDbLine
10
-35.6602540378
20
10.1961524227
11
-52.9807621135
21
20.1961524227
0
LINE
5
CB
100
AcDbEntity
8
corner_rod_face
6
ByLayer
62
256
370
-1
100
AcDbLine
10
-35.6602540378
20
10.1961524227
11
-38.6602540378
21
5
0
LINE
5
CC
100
AcDbEntity
8
corner_rod_face
6
ByLayer
62
256
370
-1
100
AcDbLine
10
-52.9807621135
20
20.1961524227
11
-55.9807621135
21
15
0
LINE
5
CD
100
AcDbEntity
8
corner_rod_face
6
ByLayer
62
256
370
-1
100
AcDbLine
10
-38.6602540378
20
5
11
-30
21
0
0
LINE
5
CE
100
AcDbEntity
8
corner_rod_face
6
ByLayer
62
256
370
-1
100
AcDbLine
10
-64.6410161514
20
20
11
-55.9807621135
21
15
0
LINE
5
CF
100
AcDbEntity
8
corner_rod_face
6
ByLayer
62
256
370
-1
100
AcDbLine
10
-30
20
80
11
-10
21
80
0
LINE
5
D0
100
AcDbEntity
8
corner_rod_face
6
ByLayer
62
256
370
-1
100
AcDbLine
10
10
20
80
11
30
21
80
0
LINE
5
D1
100
AcDbEntity
8
corner_rod_face
6
ByLayer
62
256
370
-1
100
AcDbLine
10
30
20
0
11
-30
21
0
0
LINE
5
D2
100
AcDbEntity
8
corner_blank_face
6
ByLayer
62
256
370
-1
100
AcDbLine
10
-26.9903810568
20
35.2128129211
11
-29.9903810568
21
30.0166604984
0
LINE
5
D3
100
AcDbEntity
8
corner_blank_face
6
ByLayer
62
256
370
-1
100
AcDbLine
10
-35.6506350946
20
40.2128129211
11
-38.6506350946
21
35.0166604984
0
LINE
5
D4
100
AcDbEntity
8
corner_blank_face
6
ByLayer
62
256
370
-1
100
AcDbLine
10
26.9903810568
20
35.2128129211
11
29.9903810568
21
30.0166604984
0
LINE
5
D5
100
AcDbEntity
8
corner_blank_face
6
ByLayer
62
256
370
-1
100
AcDbLine
10
35.6506350946
20
40.2128129211
11
38.6506350946
21
35.0166604984
0
LINE
5
D6
100
AcDbEntity
8
corner_blank_face
6
ByLayer
62
256
370
-1
100
AcDbLine
10
-38.6506350946
20
35.0166604984
11
-29.9903810568
21
30.0166604984
0
LINE
5
D7
100
AcDbEntity
8
corner_blank_face
6
ByLayer
62
256
370
-1
100
AcDbLine
10
-35.6506350946
20
40.2128129211
11
-26.9903810568
21
35.2128129211
0
LINE
5
D8
100
AcDbEntity
8
corner_blank_face
6
ByLayer
62
256
370
-1
100
AcDbLine
10
38.6506350946
20
35.0166604984
11
29.9903810568
21
30.0166604984
0
LINE
5
D9
100
AcDbEntity
8
corner_blank_face
6
ByLayer
62
256
370
-1
100
AcDbLine
10
35.6506350946
20
40.2128129211
11
26.9903810568
21
35.2128129211
0
LINE
5
DA
100
AcDbEntity
8
top_inner_support
6
ByLayer
62
256
370
-1
100
AcDbLine
10
-5
20
52
11
-5
21
58
0
LINE
5
DB
100
AcDbEntity
8
top_inner_support
6
ByLayer
62
256
370
-1
100
AcDbLine
10
-5
20
58
11
5
21
58
0
LINE
5
DC
100
AcDbEntity
8
top_inner_support
6
ByLayer
62
256
370
-1
100
AcDbLine
10
5
20
58
11
5
21
52
0
LINE
5
DD
100
AcDbEntity
8
top_inner_support
6
ByLayer
62
256
370
-1
100
AcDbLine
10
-5
20
0
11
-5
21
-6
0
LINE
5
DE
100
AcDbEntity
8
top_inner_support
6
ByLayer
62
256
370
-1
100
AcDbLine
10
-5
20
-6
11
5
21
-6
0
LINE
5
DF
100
AcDbEntity
8
top_inner_support
6
ByLayer
62
256
370
-1
100
AcDbLine
10
5
20
-6
11
5
21
0
0
ARC
5
E0
100
AcDbEntity
8
top_inner_support
6
ByLayer
62
256
370
-1
100
AcDbCircle
10
0
20
26
40
10
100
AcDbArc
50
300
51
60
0
LINE
5
E1
100
AcDbEntity
8
top_inner_support
6
ByLayer
62
256
370
-1
100
AcDbLine
10
5
20
17.3397459622
11
5
21
0
0
LINE
5
E2
100
AcDbEntity
8
top_inner_support
6
ByLayer
62
256
370
-1
100
AcDbLine
10
5
20
52
11
5
21
34.6602540378
0
LINE
5
E3
100
AcDbEntity
8
base_rear_support
6
ByLayer
62
256
370
-1
100
AcDbLine
10
-30
20
40
11
-30
21
0
0
LINE
5
E4
100
AcDbEntity
8
base_rear_support
6
ByLayer
62
256
370
-1
100
AcDbLine
10
30
20
40
11
30
21
0
0
LINE
5
E5
100
AcDbEntity
8
base_rear_support
6
ByLayer
62
256
370
-1
100
AcDbLine
10
-10
20
40
11
-30
21
40
0
LINE
5
E6
100
AcDbEntity
8
base_rear_support
6
ByLayer
62
256
370
-1
100
AcDbLine
10
-10
20
0
11
-30
21
0
0
LINE
5
E7
100
AcDbEntity
8
base_rear_support
6
ByLayer
62
256
370
-1
100
AcDbLine
10
30
20
40
11
10
21
40
0
LINE
5
E8
100
AcDbEntity
8
base_rear_support
6
ByLayer
62
256
370
-1
100
AcDbLine
10
30
20
0
11
10
21
0
0
LINE
5
E9
100
AcDbEntity
8
base_inner_support
6
ByLayer
62
256
370
-1
100
AcDbLine
10
-5
20
40
11
-5
21
46
0
LINE
5
EA
100
AcDbEntity
8
base_inner_support
6
ByLayer
62
256
370
-1
100
AcDbLine
10
-5
20
46
11
5
21
46
0
LINE
5
EB
100
AcDbEntity
8
base_inner_support
6
ByLayer
62
256
370
-1
100
AcDbLine
10
5
20
46
11
5
21
40
0
LINE
5
EC
100
AcDbEntity
8
base_inner_support
6
ByLayer
62
256
370
-1
100
AcDbLine
10
-5
20
0
11
-5
21
-6
0
LINE
5
ED
100
AcDbEntity
8
base_inner_support
6
ByLayer
62
256
370
-1
100
AcDbLine
10
-5
20
-6
11
5
21
-6
0
LINE
5
EE
100
AcDbEntity
8
base_inner_support
6
ByLayer
62
256
370
-1
100
AcDbLine
10
5
20
-6
11
5
21
0
0
LINE
5
EF
100
AcDbEntity
8
base_inner_support
6
ByLayer
62
256
370
-1
100
AcDbLine
10
5
20
40
11
5
21
28.6602540378
0
LINE
5
F0
100
AcDbEntity
8
base_inner_support
6
ByLayer
62
256
370
-1
100
AcDbLine
10
5
20
11.3397459622
11
5
21
0
0
ARC
5
F1
100
AcDbEntity
8
base_inner_support
6
ByLayer
62
256
370
-1
100
AcDbCircle
10
0
20
20
40
10
100
AcDbArc
50
300
51
60
0
LINE
5
F2
100
AcDbEntity
8
corner_rod_face
6
ByLayer
62
256
370
-1
100
AcDbLine
10
26.9903810568
20
35.2128129211
11
35.6506350946
21
40.2128129211
0
LINE
5
F3
100
AcDbEntity
8
corner_rod_face
6
ByLayer
62
256
370
-1
100
AcDbLine
10
35.6506350946
20
40.2128129211
11
38.6506350946
21
35.0166604984
0
LINE
5
F4
100
AcDbEntity
8
corner_rod_face
6
ByLayer
62
256
370
-1
100
AcDbLine
10
38.6506350946
20
35.0166604984
11
29.9903810568
21
30.0166604984
0
LINE
5
F5
100
AcDbEntity
8
corner_rod_face
6
ByLayer
62
256
370
-1
100
AcDbLine
10
29.9903810568
20
30.0166604984
11
26.9903810568
21
35.2128129211
0
LINE
5
F6
100
AcDbEntity
8
corner_rod_face
6
ByLayer
62
256
370
-1
100
AcDbLine
10
-26.9903810568
20
35.2128129211
11
-35.6506350946
21
40.2128129211
0
LINE
5
F7
100
AcDbEntity
8
corner_rod_face
6
ByLayer
62
256
370
-1
100
AcDbLine
10
-35.6506350946
20
40.2128129211
11
-38.6506350946
21
35.0166604984
0
LINE
5
F8
100
AcDbEntity
8
corner_rod_face
6
ByLayer
62
256
370
-1
100
AcDbLine
10
-38.6506350946
20
35.0166604984
11
-29.9903810568
21
30.0166604984
0
LINE
5
F9
100
AcDbEntity
8
corner_rod_face
6
ByLayer
62
256
370
-1
100
AcDbLine
10
-29.9903810568
20
30.0166604984
11
-26.9903810568
21
35.2128129211
0
LINE
5
FA
100
AcDbEntity
8
corner_rod_face
6
ByLayer
62
256
370
-1
100
AcDbLine
10
48.9448637287
20
35.1865334795
11
53.9448637287
21
26.5262794416
0
LINE
5
FB
100
AcDbEntity
8
corner_rod_face
6
ByLayer
62
256
370
-1
100
AcDbLine
10
30
20
80
11
54.1410161514
21
38.1865334795
0
LINE
5
FC
100
AcDbEntity
8
corner_rod_face
6
ByLayer
62
256
370
-1
100
AcDbLine
10
59.1410161514
20
29.5262794416
11
64.6410161514
21
20
0
LINE
5
FD
100
AcDbEntity
8
corner_rod_face
6
ByLayer
62
256
370
-1
100
AcDbLine
10
59.1410161514
20
29.5262794416
11
53.9448637287
21
26.5262794416
0
LINE
5
FE
100
AcDbEntity
8
corner_rod_face
6
ByLayer
62
256
370
-1
100
AcDbLine
10
54.1410161514
20
38.1865334795
11
48.9448637287
21
35.1865334795
0
LINE
5
FF
100
AcDbEntity
8
corner_rod_face
6
ByLayer
62
256
370
-1
100
AcDbLine
10
-48.9448637287
20
35.1865334795
11
-53.9448637287
21
26.5262794416
0
LINE
5
100
100
AcDbEntity
8
corner_rod_face
6
ByLayer
62
256
370
-1
100
AcDbLine
10
-30
20
80
11
-54.1410161514
21
38.1865334795
0
LINE
5
101
100
AcDbEntity
8
corner_rod_face
6
ByLayer
62
256
370
-1
100
AcDbLine
10
-59.1410161514
20
29.5262794416
11
-64.6410161514
21
20
0
LINE
5
102
100
AcDbEntity
8
corner_rod_face
6
ByLayer
62
256
370
-1
100
AcDbLine
10
-59.1410161514
20
29.5262794416
11
-53.9448637287
21
26.5262794416
0
LINE
5
103
100
AcDbEntity
8
corner_rod_face
6
ByLayer
62
256
370
-1
100
AcDbLine
10
-54.1410161514
20
38.1865334795
11
-48.9448637287
21
35.1865334795
0
LINE
5
104
100
AcDbEntity
8
corner_blank_face
6
ByLayer
62
256
370
-1
100
AcDbLine
10
30
20
80
11
54.1410161514
21
38.1865334795
0
LINE
5
105
100
AcDbEntity
8
corner_blank_face
6
ByLayer
62
256
370
-1
100
AcDbLine
10
54.1410161514
20
38.1865334795
11
48.9448637287
21
35.1865334795
0
LINE
5
106
100
AcDbEntity
8
corner_blank_face
6
ByLayer
62
256
370
-1
100
AcDbLine
10
48.9448637287
20
35.1865334795
11
53.9448637287
21
26.5262794416
0
LINE
5
107
100
AcDbEntity
8
corner_blank_face
6
ByLayer
62
256
370
-1
100
AcDbLine
10
53.9448637287
20
26.5262794416
11
59.1410161514
21
29.5262794416
0
LINE
5
108
100
AcDbEntity
8
corner_blank_face
6
ByLayer
62
256
370
-1
100
AcDbLine
10
59.1410161514
20
29.5262794416
11
64.6410161514
21
20
0
LINE
5
109
100
AcDbEntity
8
corner_blank_face
6
ByLayer
62
256
370
-1
100
AcDbLine
10
-30
20
80
11
-54.1410161514
21
38.1865334795
0
LINE
5
10A
100
AcDbEntity
8
corner_blank_face
6
ByLayer
62
256
370
-1
100
AcDbLine
10
-54.1410161514
20
38.1865334795
11
-48.9448637287
21
35.1865334795
0
LINE
5
10B
100
AcDbEntity
8
corner_blank_face
6
ByLayer
62
256
370
-1
100
AcDbLine
10
-48.9448637287
20
35.1865334795
11
-53.9448637287
21
26.5262794416
0
LINE
5
10C
100
AcDbEntity
8
corner_blank_face
6
ByLayer
62
256
370
-1
100
AcDbLine
10
-53.9448637287
20
26.5262794416
11
-59.1410161514
21
29.5262794416
0
LINE
5
10D
100
AcDbEntity
8
corner_blank_face
6
ByLayer
62
256
370
-1
100
AcDbLine
10
-59.1410161514
20
29.5262794416
11
-64.6410161514
21
20
0
LINE
5
10E
100
AcDbEntity
8
top_rod_plate
6
ByLayer
62
256
370
-1
100
AcDbLine
10
-5
20
0
11
-5
21
-6
0
LINE
5
10F
100
AcDbEntity
8
top_rod_plate
6
ByLayer
62
256
370
-1
100
AcDbLine
10
-5
20
-6
11
5
21
-6
0
LINE
5
110
100
AcDbEntity
8
top_rod_plate
6
ByLayer
62
256
370
-1
100
AcDbLine
10
5
20
-6
11
5
21
0
0
LINE
5
111
100
AcDbEntity
8
top_rod_plate
6
ByLayer
62
256
370
-1
100
AcDbLine
10
-5
20
52
11
-5
21
58
0
LINE
5
112
100
AcDbEntity
8
top_rod_plate
6
ByLayer
62
256
370
-1
100
AcDbLine
10
-5
20
58
11
5
21
58
0
LINE
5
113
100
AcDbEntity
8
top_rod_plate
6
ByLayer
62
256
370
-1
100
AcDbLine
10
5
20
58
11
5
21
52
0
LINE
5
114
100
AcDbEntity
8
top_rod_plate
6
ByLayer
62
256
370
-1
100
AcDbLine
10
5
20
52
11
16
21
52
0
LINE
5
115
100
AcDbEntity
8
top_rod_plate
6
ByLayer
62
256
370
-1
100
AcDbLine
10
5
20
0
11
16
21
0
0
LINE
5
116
100
AcDbEntity
8
top_rod_plate
6
ByLayer
62
256
370
-1
100
AcDbLine
10
-5
20
52
11
-16
21
52
0
LINE
5
117
100
AcDbEntity
8
top_rod_plate
6
ByLayer
62
256
370
-1
100
AcDbLine
10
-5
20
0
11
-16
21
0
0
LINE
5
118
100
AcDbEntity
8
top_rod_plate
6
ByLayer
62
256
370
-1
100
AcDbLine
10
-10
20
16
11
-10
21
36
0
LINE
5
119
100
AcDbEntity
8
top_rod_plate
6
ByLayer
62
256
370
-1
100
AcDbLine
10
10
20
16
11
10
21
36
0
LINE
5
11A
100
AcDbEntity
8
top_rod_plate
6
ByLayer
62
256
370
-1
100
AcDbLine
10
-10
20
36
11
-16
21
36
0
LINE
5
11B
100
AcDbEntity
8
top_rod_plate
6
ByLayer
62
256
370
-1
100
AcDbLine
10
-10
20
16
11
-16
21
16
0
LINE
5
11C
100
AcDbEntity
8
top_rod_plate
6
ByLayer
62
256
370
-1
100
AcDbLine
10
10
20
36
11
16
21
36
0
LINE
5
11D
100
AcDbEntity
8
top_rod_plate
6
ByLayer
62
256
370
-1
100
AcDbLine
10
10
20
16
11
16
21
16
0
LINE
5
11E
100
AcDbEntity
8
top_rod_plate
6
ByLayer
62
256
370
-1
100
AcDbLine
10
-16
20
52
11
-16
21
36
0
LINE
5
11F
100
AcDbEntity
8
top_rod_plate
6
ByLayer
62
256
370
-1
100
AcDbLine
10
16
20
52
11
16
21
36
0
LINE
5
120
100
AcDbEntity
8
top_rod_plate
6
ByLayer
62
256
370
-1
100
AcDbLine
10
-16
20
16
11
-16
21
0
0
LINE
5
121
100
AcDbEntity
8
top_rod_plate
6
ByLayer
62
256
370
-1
100
AcDbLine
10
16
20
16
11
16
21
0
0
LINE
5
122
100
AcDbEntity
8
top_inner_support
6
ByLayer
62
256
370
-1
100
AcDbLine
10
-20
20
16
11
-20
21
36
0
LINE
5
123
100
AcDbEntity
8
top_inner_support
6
ByLayer
62
256
370
-1
100
AcDbLine
10
-20
20
36
11
-14
21
36
0
LINE
5
124
100
AcDbEntity
8
top_inner_support
6
ByLayer
62
256
370
-1
100
AcDbLine
10
-20
20
16
11
-14
21
16
0
LINE
5
125
100
AcDbEntity
8
top_inner_support
6
ByLayer
62
256
370
-1
100
AcDbLine
10
-14
20
36
11
-14
21
52
0
LINE
5
126
100
AcDbEntity
8
top_inner_support
6
ByLayer
62
256
370
-1
100
AcDbLine
10
-14
20
16
11
-14
21
0
0
LINE
5
127
100
AcDbEntity
8
top_inner_support
6
ByLayer
62
256
370
-1
100
AcDbLine
10
-14
20
52
11
-5
21
52
0
LINE
5
128
100
AcDbEntity
8
top_inner_support
6
ByLayer
62
256
370
-1
100
AcDbLine
10
-14
20
0
11
-5
21
0
0
LINE
5
129
100
AcDbEntity
8
top_front_support
6
ByLayer
62
256
370
-1
100
AcDbLine
10
-14
20
52
11
-14
21
36
0
LINE
5
12A
100
AcDbEntity
8
top_front_support
6
ByLayer
62
256
370
-1
100
AcDbLine
10
-14
20
36
11
-20
21
36
0
LINE
5
12B
100
AcDbEntity
8
top_front_support
6
ByLayer
62
256
370
-1
100
AcDbLine
10
-20
20
36
11
-20
21
16
0
LINE
5
12C
100
AcDbEntity
8
top_front_support
6
ByLayer
62
256
370
-1
100
AcDbLine
10
-20
20
16
11
-14
21
16
0
LINE
5
12D
100
AcDbEntity
8
top_front_support
6
ByLayer
62
256
370
-1
100
AcDbLine
10
-14
20
16
11
-14
21
0
0
LINE
5
12E
100
AcDbEntity
8
top_front_support
6
ByLayer
62
256
370
-1
100
AcDbLine
10
-14
20
52
11
-10
21
52
0
LINE
5
12F
100
AcDbEntity
8
top_front_support
6
ByLayer
62
256
370
-1
100
AcDbLine
10
-14
20
0
11
-10
21
0
0
LINE
5
130
100
AcDbEntity
8
base_inner_support
6
ByLayer
62
256
370
-1
100
AcDbLine
10
-14
20
0
11
-14
21
10
0
LINE
5
131
100
AcDbEntity
8
base_inner_support
6
ByLayer
62
256
370
-1
100
AcDbLine
10
-14
20
10
11
-20
21
10
0
LINE
5
132
100
AcDbEntity
8
base_inner_support
6
ByLayer
62
256
370
-1
100
AcDbLine
10
-20
20
10
11
-20
21
30
0
LINE
5
133
100
AcDbEntity
8
base_inner_support
6
ByLayer
62
256
370
-1
100
AcDbLine
10
-20
20
30
11
-14
21
30
0
LINE
5
134
100
AcDbEntity
8
base_inner_support
6
ByLayer
62
256
370
-1
100
AcDbLine
10
-14
20
30
11
-14
21
40
0
LINE
5
135
100
AcDbEntity
8
base_inner_support
6
ByLayer
62
256
370
-1
100
AcDbLine
10
-14
20
40
11
-5
21
40
0
LINE
5
136
100
AcDbEntity
8
base_inner_support
6
ByLayer
62
256
370
-1
100
AcDbLine
10
-14
20
0
11
-5
21
0
0
LINE
5
137
100
AcDbEntity
8
base_front_support
6
ByLayer
62
256
370
-1
100
AcDbLine
10
-14
20
40
11
-14
21
30
0
LINE
5
138
100
AcDbEntity
8
base_front_support
6
ByLayer
62
256
370
-1
100
AcDbLine
10
-14
20
30
11
-20
21
30
0
LINE
5
139
100
AcDbEntity
8
base_front_support
6
ByLayer
62
256
370
-1
100
AcDbLine
10
-20
20
30
11
-20
21
10
0
LINE
5
13A
100
AcDbEntity
8
base_front_support
6
ByLayer
62
256
370
-1
100
AcDbLine
10
-20
20
10
11
-14
21
10
0
LINE
5
13B
100
AcDbEntity
8
base_front_support
6
ByLayer
62
256
370
-1
100
AcDbLine
10
-14
20
10
11
-14
21
0
0
LINE
5
13C
100
AcDbEntity
8
base_front_support
6
ByLayer
62
256
370
-1
100
AcDbLine
10
-10
20
40
11
-14
21
40
0
LINE
5
13D
100
AcDbEntity
8
base_front_support
6
ByLayer
62
256
370
-1
100
AcDbLine
10
-10
20
0
11
-14
21
0
0
LINE
5
13E
100
AcDbEntity
8
base_rod_plate
6
ByLayer
62
256
370
-1
100
AcDbLine
10
-5
20
0
11
-5
21
-6
0
LINE
5
13F
100
AcDbEntity
8
base_rod_plate
6
ByLayer
62
256
370
-1
100
AcDbLine
10
-5
20
-6
11
5
21
-6
0
LINE
5
140
100
AcDbEntity
8
base_rod_plate
6
ByLayer
62
256
370
-1
100
AcDbLine
10
5
20
-6
11
5
21
0
0
LINE
5
141
100
AcDbEntity
8
base_rod_plate
6
ByLayer
62
256
370
-1
100
AcDbLine
10
10
20
10
11
16
21
10
0
LINE
5
142
100
AcDbEntity
8
base_rod_plate
6
ByLayer
62
256
370
-1
100
AcDbLine
10
16
20
30
11
10
21
30
0
LINE
5
143
100
AcDbEntity
8
base_rod_plate
6
ByLayer
62
256
370
-1
100
AcDbLine
10
5
20
40
11
5
21
46
0
LINE
5
144
100
AcDbEntity
8
base_rod_plate
6
ByLayer
62
256
370
-1
100
AcDbLine
10
5
20
46
11
-5
21
46
0
LINE
5
145
100
AcDbEntity
8
base_rod_plate
6
ByLayer
62
256
370
-1
100
AcDbLine
10
-5
20
46
11
-5
21
40
0
LINE
5
146
100
AcDbEntity
8
base_rod_plate
6
ByLayer
62
256
370
-1
100
AcDbLine
10
-16
20
10
11
-10
21
10
0
LINE
5
147
100
AcDbEntity
8
base_rod_plate
6
ByLayer
62
256
370
-1
100
AcDbLine
10
10
20
30
11
10
21
10
0
LINE
5
148
100
AcDbEntity
8
base_rod_plate
6
ByLayer
62
256
370
-1
100
AcDbLine
10
-10
20
30
11
-10
21
10
0
LINE
5
149
100
AcDbEntity
8
base_rod_plate
6
ByLayer
62
256
370
-1
100
AcDbLine
10
16
20
10
11
16
21
0
0
LINE
5
14A
100
AcDbEntity
8
base_rod_plate
6
ByLayer
62
256
370
-1
100
AcDbLine
10
16
20
0
11
5
21
0
0
LINE
5
14B
100
AcDbEntity
8
base_rod_plate
6
ByLayer
62
256
370
-1
100
AcDbLine
10
16
20
30
11
16
21
40
0
LINE
5
14C
100
AcDbEntity
8
base_rod_plate
6
ByLayer
62
256
370
-1
100
AcDbLine
10
-16
20
40
11
-16
21
30
0
LINE
5
14D
100
AcDbEntity
8
base_rod_plate
6
ByLayer
62
256
370
-1
100
AcDbLine
10
-16
20
30
11
-10
21
30
0
LINE
5
14E
100
AcDbEntity
8
base_rod_plate
6
ByLayer
62
256
370
-1
100
AcDbLine
10
-16
20
10
11
-16
21
0
0
LINE
5
14F
100
AcDbEntity
8
base_rod_plate
6
ByLayer
62
256
370
-1
100
AcDbLine
10
-16
20
0
11
-5
21
0
0
LINE
5
150
100
AcDbEntity
8
base_rod_plate
6
ByLayer
62
256
370
-1
100
AcDbLine
10
-16
20
40
11
-5
21
40
0
LINE
5
151
100
AcDbEntity
8
base_rod_plate
6
ByLayer
62
256
370
-1
100
AcDbLine
10
5
20
40
11
16
21
40
0
LINE
5
152
100
AcDbEntity
8
rod_support_body_side
6
ByLayer
62
256
370
-1
100
AcDbLine
10
16
20
10
11
16
21
5
0
LINE
5
153
100
AcDbEntity
8
rod_support_body_side
6
ByLayer
62
256
370
-1
100
AcDbLine
10
16
20
5
11
10
21
5
0
LINE
5
154
100
AcDbEntity
8
rod_support_body_side
6
ByLayer
62
256
370
-1
100
AcDbLine
10
10
20
5
11
10
21
-5
0
LINE
5
155
100
AcDbEntity
8
rod_support_body_side
6
ByLayer
62
256
370
-1
100
AcDbLine
10
10
20
-5
11
16
21
-5
0
LINE
5
156
100
AcDbEntity
8
rod_support_body_side
6
ByLayer
62
256
370
-1
100
AcDbLine
10
16
20
-5
11
16
21
-10
0
LINE
5
157
100
AcDbEntity
8
rod_support_body_side
6
ByLayer
62
256
370
-1
100
AcDbLine
10
16
20
-10
11
-16
21
-10
0
LINE
5
158
100
AcDbEntity
8
rod_support_body_side
6
ByLayer
62
256
370
-1
100
AcDbLine
10
-16
20
-10
11
-16
21
-5
0
LINE
5
159
100
AcDbEntity
8
rod_support_body_side
6
ByLayer
62
256
370
-1
100
AcDbLine
10
-16
20
-5
11
-10
21
-5
0
LINE
5
15A
100
AcDbEntity
8
rod_support_body_side
6
ByLayer
62
256
370
-1
100
AcDbLine
10
-10
20
-5
11
-10
21
5
0
LINE
5
15B
100
AcDbEntity
8
rod_support_body_side
6
ByLayer
62
256
370
-1
100
AcDbLine
10
-10
20
5
11
-16
21
5
0
LINE
5
15C
100
AcDbEntity
8
rod_support_body_side
6
ByLayer
62
256
370
-1
100
AcDbLine
10
-16
20
5
11
-16
21
10
0
CIRCLE
5
15D
100
AcDbEntity
8
rod_support_body_side
6
ByLayer
62
256
370
-1
100
AcDbCircle
10
0
20
13
40
3
0
LINE
5
15E
100
AcDbEntity
8
rod_support_body_side
6
ByLayer
62
256
370
-1
100
AcDbLine
10
-3.20146953626
20
18.0745041934
11
-16
21
10
0
LINE
5
15F
100
AcDbEntity
8
rod_support_body_side
6
ByLayer
62
256
370
-1
100
AcDbLine
10
3.20146953626
20
18.0745041934
11
16
21
10
0
ARC
5
160
100
AcDbEntity
8
rod_support_body_side
6
ByLayer
62
256
370
-1
100
AcDbCircle
10
0
20
13
40
6
100
AcDbArc
50
57.7524564754
51
122.247543525
0
LINE
5
161
100
AcDbEntity
8
rod_support_outer_side
6
ByLayer
62
256
370
-1
100
AcDbLine
10
-16
20
10
11
16
21
10
0
LINE
5
162
100
AcDbEntity
8
rod_support_outer_side
6
ByLayer
62
256
370
-1
100
AcDbLine
10
16
20
10
11
16
21
5
0
LINE
5
163
100
AcDbEntity
8
rod_support_outer_side
6
ByLayer
62
256
370
-1
100
AcDbLine
10
16
20
5
11
10
21
5
0
LINE
5
164
100
AcDbEntity
8
rod_support_outer_side
6
ByLayer
62
256
370
-1
100
AcDbLine
10
10
20
5
11
10
21
-5
0
LINE
5
165
100
AcDbEntity
8
rod_support_outer_side
6
ByLayer
62
256
370
-1
100
AcDbLine
10
10
20
-5
11
16
21
-5
0
LINE
5
166
100
AcDbEntity
8
rod_support_outer_side
6
ByLayer
62
256
370
-1
100
AcDbLine
10
16
20
-5
11
16
21
-10
0
LINE
5
167
100
AcDbEntity
8
rod_support_outer_side
6
ByLayer
62
256
370
-1
100
AcDbLine
10
16
20
-10
11
-16
21
-10
0
LINE
5
168
100
AcDbEntity
8
rod_support_outer_side
6
ByLayer
62
256
370
-1
100
AcDbLine
10
-16
20
-10
11
-16
21
-5
0
LINE
5
169
100
AcDbEntity
8
rod_support_outer_side
6
ByLayer
62
256
370
-1
100
AcDbLine
10
-16
20
-5
11
-10
21
-5
0
LINE
5
16A
100
AcDbEntity
8
rod_support_outer_side
6
ByLayer
62
256
370
-1
100
AcDbLine
10
-10
20
-5
11
-10
21
5
0
LINE
5
16B
100
AcDbEntity
8
rod_support_outer_side
6
ByLayer
62
256
370
-1
100
AcDbLine
10
-10
20
5
11
-16
21
5
0
LINE
5
16C
100
AcDbEntity
8
rod_support_outer_side
6
ByLayer
62
256
370
-1
100
AcDbLine
10
-16
20
5
11
-16
21
10
0
CIRCLE
5
16D
100
AcDbEntity
8
rod_support_edge
6
ByLayer
62
256
370
-1
100
AcDbCircle
10
0
20
0
40
3
0
LINE
5
16E
100
AcDbEntity
8
rod_support_edge
6
ByLayer
62
256
370
-1
100
AcDbLine
10
5
20
-10
11
5
21
-5
0
LINE
5
16F
100
AcDbEntity
8
rod_support_edge
6
ByLayer
62
256
370
-1
100
AcDbLine
10
5
20
-5
11
11
21
-5
0
LINE
5
170
100
AcDbEntity
8
rod_support_edge
6
ByLayer
62
256
370
-1
100
AcDbLine
10
11
20
-5
11
11
21
5
0
LINE
5
171
100
AcDbEntity
8
rod_support_edge
6
ByLayer
62
256
370
-1
100
AcDbLine
10
11
20
5
11
5
21
5
0
LINE
5
172
100
AcDbEntity
8
rod_support_edge
6
ByLayer
62
256
370
-1
100
AcDbLine
10
5
20
5
11
5
21
10
0
LINE
5
173
100
AcDbEntity
8
rod_support_edge
6
ByLayer
62
256
370
-1
100
AcDbLine
10
-5
20
5
11
-11
21
5
0
LINE
5
174
100
AcDbEntity
8
rod_support_edge
6
ByLayer
62
256
370
-1
100
AcDbLine
10
-11
20
5
11
-11
21
-5
0
LINE
5
175
100
AcDbEntity
8
rod_support_edge
6
ByLayer
62
256
370
-1
100
AcDbLine
10
-11
20
-5
11
-5
21
-5
0
LINE
5
176
100
AcDbEntity
8
rod_support_edge
6
ByLayer
62
256
370
-1
100
AcDbLine
10
-5
20
-5
11
-5
21
-10
0
LINE
5
177
100
AcDbEntity
8
rod_support_edge
6
ByLayer
62
256
370
-1
100
AcDbLine
10
-5
20
10
11
-5
21
5
0
LINE
5
178
100
AcDbEntity
8
rod_support_edge
6
ByLayer
62
256
370
-1
100
AcDbLine
10
-5
20
10
11
5
21
10
0
LINE
5
179
100
AcDbEntity
8
rod_support_edge
6
ByLayer
62
256
370
-1
100
AcDbLine
10
-5
20
-10
11
5
21
-10
0
CIRCLE
5
17A
100
AcDbEntity
8
base_rod_plate
6
ByLayer
62
256
370
-1
100
AcDbCircle
10
0
20
30
40
3
0
CIRCLE
5
17B
100
AcDbEntity
8
top_rod_plate
6
ByLayer
62
256
370
-1
100
AcDbCircle
10
0
20
42
40
3
0
CIRCLE
5
17C
100
AcDbEntity
8
head_plate
6
ByLayer
62
256
370
-1
100
AcDbCircle
10
0
20
0
40
5
0
LINE
5
17D
100
AcDbEntity
8
head_side
6
ByLayer
62
256
370
-1
100
AcDbLine
10
10
20
0
11
10
21
-6
0
LINE
5
17E
100
AcDbEntity
8
head_side
6
ByLayer
62
256
370
-1
100
AcDbLine
10
10
20
-6
11
3.6e-15
21
-6
0
LINE
5
17F
100
AcDbEntity
8
head_side
6
ByLayer
62
256
370
-1
100
AcDbLine
10
3.6e-15
20
-6
11
0
21
-1.8e-15
0
LINE
5
180
100
AcDbEntity
8
head_side
6
ByLayer
62
256
370
-1
100
AcDbLine
10
0
20
-1.8e-15
11
-10
21
1.8e-15
0
LINE
5
181
100
AcDbEntity
8
head_side
6
ByLayer
62
256
370
-1
100
AcDbLine
10
-10
20
1.8e-15
11
-10
21
-6
0
LINE
5
182
100
AcDbEntity
8
head_side
6
ByLayer
62
256
370
-1
100
AcDbLine
10
10
20
0
11
10
21
20
0
LINE
5
183
100
AcDbEntity
8
head_side
6
ByLayer
62
256
370
-1
100
AcDbLine
10
10
20
20
11
10
21
26
0
LINE
5
184
100
AcDbEntity
8
head_side
6
ByLayer
62
256
370
-1
100
AcDbLine
10
10
20
26
11
0
21
26
0
LINE
5
185
100
AcDbEntity
8
head_side
6
ByLayer
62
256
370
-1
100
AcDbLine
10
0
20
26
11
-3.6e-15
21
20
0
LINE
5
186
100
AcDbEntity
8
head_side
6
ByLayer
62
256
370
-1
100
AcDbLine
10
-3.6e-15
20
20
11
-10
21
20
0
LINE
5
187
100
AcDbEntity
8
head_side
6
ByLayer
62
256
370
-1
100
AcDbLine
10
-10
20
20
11
-10
21
26
0
LINE
5
188
100
AcDbEntity
8
head_side
6
ByLayer
62
256
370
-1
100
AcDbLine
10
-10
20
26
11
-15
21
26
0
LINE
5
189
100
AcDbEntity
8
head_side
6
ByLayer
62
256
370
-1
100
AcDbLine
10
-10
20
-6
11
-15
21
-6
0
LINE
5
18A
100
AcDbEntity
8
head_side
6
ByLayer
62
256
370
-1
100
AcDbLine
10
-24.7068956615
20
6.27909510578
11
-15
21
-6
0
LINE
5
18B
100
AcDbEntity
8
head_side
6
ByLayer
62
256
370
-1
100
AcDbLine
10
-15
20
20
11
-15
21
26
0
LINE
5
18C
100
AcDbEntity
8
head_side
6
ByLayer
62
256
370
-1
100
AcDbLine
10
-19
20
16
11
-20
21
16
0
ARC
5
18D
100
AcDbEntity
8
head_side
6
ByLayer
62
256
370
-1
100
AcDbCircle
10
-19
20
20
40
4
100
AcDbArc
50
270
51
0
0
ARC
5
18E
100
AcDbEntity
8
head_side
6
ByLayer
62
256
370
-1
100
AcDbCircle
10
-20
20
10
40
6
100
AcDbArc
50
90
51
218.327148672
0
LINE
5
18F
100
AcDbEntity
8
carrige_body
6
ByLayer
62
256
370
-1
100
AcDbLine
10
-10
20
46
11
-10
21
40
0
LINE
5
190
100
AcDbEntity
8
carrige_body
6
ByLayer
62
256
370
-1
100
AcDbLine
10
-10
20
40
11
10
21
40
0
LINE
5
191
100
AcDbEntity
8
carrige_body
6
ByLayer
62
256
370
-1
100
AcDbLine
10
10
20
40
11
10
21
46
0
LINE
5
192
100
AcDbEntity
8
carrige_body
6
ByLayer
62
256
370
-1
100
AcDbLine
10
-40
20
46
11
-10
21
46
0
LINE
5
193
100
AcDbEntity
8
carrige_body
6
ByLayer
62
256
370
-1
100
AcDbLine
10
10
20
46
11
40
21
46
0
LINE
5
194
100
AcDbEntity
8
carrige_body
6
ByLayer
62
256
370
-1
100
AcDbLine
10
-30
20
10
11
-30
21
5
0
LINE
5
195
100
AcDbEntity
8
carrige_body
6
ByLayer
62
256
370
-1
100
AcDbLine
10
30
20
10
11
30
21
5
0
LINE
5
196
100
AcDbEntity
8
carrige_body
6
ByLayer
62
256
370
-1
100
AcDbLine
10
-30
20
10
11
-24
21
10
0
LINE
5
197
100
AcDbEntity
8
carrige_body
6
ByLayer
62
256
370
-1
100
AcDbLine
10
-24
20
10
11
-24
21
5
0
LINE
5
198
100
AcDbEntity
8
carrige_body
6
ByLayer
62
256
370
-1
100
AcDbLine
10
-24
20
5
11
24
21
5
0
LINE
5
199
100
AcDbEntity
8
carrige_body
6
ByLayer
62
256
370
-1
100
AcDbLine
10
24
20
5
11
24
21
10
0
LINE
5
19A
100
AcDbEntity
8
carrige_body
6
ByLayer
62
256
370
-1
100
AcDbLine
10
24
20
10
11
30
21
10
0
LINE
5
19B
100
AcDbEntity
8
carrige_side
6
ByLayer
62
256
370
-1
100
AcDbLine
10
-8.5
20
10
11
-14.5
21
10
0
LINE
5
19C
100
AcDbEntity
8
carrige_side
6
ByLayer
62
256
370
-1
100
AcDbLine
10
8.5
20
10
11
14.5
21
10
0
LINE
5
19D
100
AcDbEntity
8
carrige_side
6
ByLayer
62
256
370
-1
100
AcDbLine
10
-14.5
20
10
11
-14.5
21
5
0
LINE
5
19E
100
AcDbEntity
8
carrige_side
6
ByLayer
62
256
370
-1
100
AcDbLine
10
14.5
20
10
11
14.5
21
5
0
LINE
5
19F
100
AcDbEntity
8
carrige_side
6
ByLayer
62
256
370
-1
100
AcDbLine
10
-8.5
20
10
11
-8.5
21
5
0
LINE
5
1A0
100
AcDbEntity
8
carrige_side
6
ByLayer
62
256
370
-1
100
AcDbLine
10
8.5
20
10
11
8.5
21
5
0
LINE
5
1A1
100
AcDbEntity
8
carrige_rear
6
ByLayer
62
256
370
-1
100
AcDbLine
10
-10
20
0
11
-10
21
6
0
LINE
5
1A2
100
AcDbEntity
8
carrige_rear
6
ByLayer
62
256
370
-1
100
AcDbLine
10
10
20
0
11
10
21
6
0
LINE
5
1A3
100
AcDbEntity
8
carrige_rear
6
ByLayer
62
256
370
-1
100
AcDbLine
10
10
20
6
11
40
21
6
0
LINE
5
1A4
100
AcDbEntity
8
carrige_rear
6
ByLayer
62
256
370
-1
100
AcDbLine
10
10
20
23
11
40
21
23
0
LINE
5
1A5
100
AcDbEntity
8
carrige_rear
6
ByLayer
62
256
370
-1
100
AcDbLine
10
-10
20
23
11
-40
21
23
0
LINE
5
1A6
100
AcDbEntity
8
carrige_rear
6
ByLayer
62
256
370
-1
100
AcDbLine
10
-10
20
6
11
-40
21
6
0
LINE
5
1A7
100
AcDbEntity
8
carrige_rear
6
ByLayer
62
256
370
-1
100
AcDbLine
10
-10
20
29
11
10
21
29
0
LINE
5
1A8
100
AcDbEntity
8
carrige_rear
6
ByLayer
62
256
370
-1
100
AcDbLine
10
-10
20
29
11
-10
21
23
0
LINE
5
1A9
100
AcDbEntity
8
carrige_rear
6
ByLayer
62
256
370
-1
100
AcDbLine
10
10
20
29
11
10
21
23
0
LINE
5
1AA
100
AcDbEntity
8
carrige_rear
6
ByLayer
62
256
370
-1
100
AcDbLine
10
40
20
23
11
40
21
6
0
LINE
5
1AB
100
AcDbEntity
8
carrige_rear
6
ByLayer
62
256
370
-1
100
AcDbLine
10
-40
20
23
11
-40
21
6
0
LINE
5
1AC
100
AcDbEntity
8
carrige_rear
6
ByLayer
62
256
370
-1
100
AcDbLine
10
-10
20
0
11
10
21
0
0
ARC
5
1AD
100
AcDbEntity
8
carrige_body
6
ByLayer
62
256
370
-1
100
AcDbCircle
10
-30
20
15
40
10
100
AcDbArc
50
180
51
270
0
LINE
5
1AE
100
AcDbEntity
8
carrige_body
6
ByLayer
62
256
370
-1
100
AcDbLine
10
-40
20
15
11
-40
21
46
0
LINE
5
1AF
100
AcDbEntity
8
carrige_body
6
ByLayer
62
256
370
-1
100
AcDbLine
10
40
20
46
11
40
21
15
0
ARC
5
1B0
100
AcDbEntity
8
carrige_body
6
ByLayer
62
256
370
-1
100
AcDbCircle
10
30
20
15
40
10
100
AcDbArc
50
270
51
0
0
LINE
5
1B1
100
AcDbEntity
8
carrige_body
6
ByLayer
62
256
370
-1
100
AcDbLine
10
0
20
20
11
0
21
10
0
LINE
5
1B2
100
AcDbEntity
8
carrige_body
6
ByLayer
62
256
370
-1
100
AcDbLine
10
-15
20
20
11
0
21
20
0
LINE
5
1B3
100
AcDbEntity
8
carrige_body
6
ByLayer
62
256
370
-1
100
AcDbLine
10
-15
20
10
11
0
21
10
0
LINE
5
1B4
100
AcDbEntity
8
carrige_body
6
ByLayer
62
256
370
-1
100
AcDbLine
10
4
20
20
11
4
21
10
0
LINE
5
1B5
100
AcDbEntity
8
carrige_body
6
ByLayer
62
256
370
-1
100
AcDbLine
10
4
20
10
11
6
21
10
0
LINE
5
1B6
100
AcDbEntity
8
carrige_body
6
ByLayer
62
256
370
-1
100
AcDbLine
10
6
20
10
11
6
21
20
0
LINE
5
1B7
100
AcDbEntity
8
carrige_body
6
ByLayer
62
256
370
-1
100
AcDbLine
10
6
20
20
11
4
21
20
0
CIRCLE
5
1B8
100
AcDbEntity
8
carrige_body
6
ByLayer
62
256
370
-1
100
AcDbCircle
10
10
20
22
40
2
0
LINE
5
1B9
100
AcDbEntity
8
carrige_body
6
ByLayer
62
256
370
-1
100
AcDbLine
10
14
20
20
11
16
21
20
0
LINE
5
1BA
100
AcDbEntity
8
carrige_body
6
ByLayer
62
256
370
-1
100
AcDbLine
10
16
20
20
11
16
21
10
0
LINE
5
1BB
100
AcDbEntity
8
carrige_body
6
ByLayer
62
256
370
-1
100
AcDbLine
10
16
20
10
11
14
21
10
0
LINE
5
1BC
100
AcDbEntity
8
carrige_body
6
ByLayer
62
256
370
-1
100
AcDbLine
10
14
20
10
11
14
21
20
0
LINE
5
1BD
100
AcDbEntity
8
corner_rod_face
6
ByLayer
62
256
370
-1
100
AcDbLine
10
2.88675134595
20
62.5
11
-2.88675134595
21
62.5
0
LINE
5
1BE
100
AcDbEntity
8
corner_rod_face
6
ByLayer
62
256
370
-1
100
AcDbLine
10
5.7735026919
20
57.5
11
2.88675134595
21
62.5
0
LINE
5
1BF
100
AcDbEntity
8
corner_rod_face
6
ByLayer
62
256
370
-1
100
AcDbLine
10
2.88675134595
20
52.5
11
5.7735026919
21
57.5
0
LINE
5
1C0
100
AcDbEntity
8
corner_rod_face
6
ByLayer
62
256
370
-1
100
AcDbLine
10
-2.88675134595
20
52.5
11
2.88675134595
21
52.5
0
LINE
5
1C1
100
AcDbEntity
8
corner_rod_face
6
ByLayer
62
256
370
-1
100
AcDbLine
10
-2.88675134595
20
62.5
11
-5.7735026919
21
57.5
0
LINE
5
1C2
100
AcDbEntity
8
corner_rod_face
6
ByLayer
62
256
370
-1
100
AcDbLine
10
-5.7735026919
20
57.5
11
-2.88675134595
21
52.5
0
CIRCLE
5
1C3
100
AcDbEntity
8
corner_rod_face
6
ByLayer
62
256
370
-1
100
AcDbCircle
10
10
20
57.5
40
2
0
CIRCLE
5
1C4
100
AcDbEntity
8
corner_rod_face
6
ByLayer
62
256
370
-1
100
AcDbCircle
10
-10
20
57.5
40
2
0
CIRCLE
5
1C5
100
AcDbEntity
8
corner_rod_support
6
ByLayer
62
256
370
-1
100
AcDbCircle
10
0
20
57.5
40
3
0
CIRCLE
5
1C6
100
AcDbEntity
8
corner_rod_support
6
ByLayer
62
256
370
-1
100
AcDbCircle
10
10
20
57.5
40
2
0
CIRCLE
5
1C7
100
AcDbEntity
8
corner_rod_support
6
ByLayer
62
256
370
-1
100
AcDbCircle
10
-10
20
57.5
40
2
0
LINE
5
1C8
100
AcDbEntity
8
corner_rod_support
6
ByLayer
62
256
370
-1
100
AcDbLine
10
-10
20
62.5
11
10
21
62.5
0
LINE
5
1C9
100
AcDbEntity
8
corner_rod_support
6
ByLayer
62
256
370
-1
100
AcDbLine
10
10
20
52.5
11
-10
21
52.5
0
ARC
5
1CA
100
AcDbEntity
8
corner_rod_support
6
CONTINUOUS
62
7
370
0
100
AcDbCircle
10
-10
20
57.5
40
5
100
AcDbArc
50
90
51
270
0
ARC
5
1CB
100
AcDbEntity
8
corner_rod_support
6
CONTINUOUS
62
7
370
0
100
AcDbCircle
10
10
20
57.5
40
5
100
AcDbArc
50
270
51
90
0
LINE
5
1CC
100
AcDbEntity
8
corner_rod_face
6
ByLayer
62
256
370
-1
100
AcDbLine
10
-15
20
20
11
-10
21
20
0
LINE
5
1CD
100
AcDbEntity
8
corner_rod_face
6
ByLayer
62
256
370
-1
100
AcDbLine
10
-10
20
20
11
-10
21
26
0
LINE
5
1CE
100
AcDbEntity
8
corner_rod_face
6
ByLayer
62
256
370
-1
100
AcDbLine
10
-10
20
26
11
10
21
26
0
LINE
5
1CF
100
AcDbEntity
8
corner_rod_face
6
ByLayer
62
256
370
-1
100
AcDbLine
10
10
20
26
11
10
21
20
0
LINE
5
1D0
100
AcDbEntity
8
corner_rod_face
6
ByLayer
62
256
370
-1
100
AcDbLine
10
10
20
20
11
15
21
20
0
LINE
5
1D1
100
AcDbEntity
8
corner_blank_face
6
ByLayer
62
256
370
-1
100
AcDbLine
10
10
20
20
11
10
21
26
0
LINE
5
1D2
100
AcDbEntity
8
corner_blank_face
6
ByLayer
62
256
370
-1
100
AcDbLine
10
10
20
26
11
-10
21
26
0
LINE
5
1D3
100
AcDbEntity
8
corner_blank_face
6
ByLayer
62
256
370
-1
100
AcDbLine
10
-10
20
26
11
-10
21
20
0
LINE
5
1D4
100
AcDbEntity
8
corner_blank_face
6
ByLayer
62
256
370
-1
100
AcDbLine
10
-10
20
20
11
10
21
20
0
LINE
5
1D5
100
AcDbEntity
8
head_side_2
6
ByLayer
62
256
370
-1
100
AcDbLine
10
-10
20
3
11
-10
21
-3
0
LINE
5
1D6
100
AcDbEntity
8
head_side_2
6
ByLayer
62
256
370
-1
100
AcDbLine
10
-10
20
-3
11
0
21
-3
0
LINE
5
1D7
100
AcDbEntity
8
head_side_2
6
ByLayer
62
256
370
-1
100
AcDbLine
10
0
20
-3
11
0
21
3
0
LINE
5
1D8
100
AcDbEntity
8
head_side_2
6
ByLayer
62
256
370
-1
100
AcDbLine
10
0
20
3
11
-10
21
3
0
LINE
5
1D9
100
AcDbEntity
8
head_side_2
6
ByLayer
62
256
370
-1
100
AcDbLine
10
10
20
3
11
0
21
6
0
LINE
5
1DA
100
AcDbEntity
8
head_side_2
6
ByLayer
62
256
370
-1
100
AcDbLine
10
10
20
3
11
10
21
-3
0
LINE
5
1DB
100
AcDbEntity
8
head_side_2
6
ByLayer
62
256
370
-1
100
AcDbLine
10
10
20
-3
11
0
21
-6
0
CIRCLE
5
1DC
100
AcDbEntity
8
head_side
6
ByLayer
62
256
370
-1
100
AcDbCircle
10
-20
20
10
40
2.5
0
LINE
5
1DD
100
AcDbEntity
8
head
6
ByLayer
62
256
370
-1
100
AcDbLine
10
30
20
38
11
30
21
28
0
LINE
5
1DE
100
AcDbEntity
8
head
6
ByLayer
62
256
370
-1
100
AcDbLine
10
30
20
28
11
24
21
28
0
LINE
5
1DF
100
AcDbEntity
8
head
6
ByLayer
62
256
370
-1
100
AcDbLine
10
24
20
28
11
24
21
18
0
LINE
5
1E0
100
AcDbEntity
8
head
6
ByLayer
62
256
370
-1
100
AcDbLine
10
24
20
18
11
30
21
18
0
LINE
5
1E1
100
AcDbEntity
8
head
6
ByLayer
62
256
370
-1
100
AcDbLine
10
-30
20
38
11
-30
21
28
0
LINE
5
1E2
100
AcDbEntity
8
head
6
ByLayer
62
256
370
-1
100
AcDbLine
10
-30
20
28
11
-24
21
28
0
LINE
5
1E3
100
AcDbEntity
8
head
6
ByLayer
62
256
370
-1
100
AcDbLine
10
-24
20
28
11
-24
21
18
0
LINE
5
1E4
100
AcDbEntity
8
head
6
ByLayer
62
256
370
-1
100
AcDbLine
10
-24
20
18
11
-30
21
18
0
LINE
5
1E5
100
AcDbEntity
8
head
6
ByLayer
62
256
370
-1
100
AcDbLine
10
-30
20
38
11
30
21
38
0
LINE
5
1E6
100
AcDbEntity
8
head
6
ByLayer
62
256
370
-1
100
AcDbLine
10
-47.9089653438
20
6.98076211353
11
-39.248711306
21
11.9807621135
0
LINE
5
1E7
100
AcDbEntity
8
head
6
ByLayer
62
256
370
-1
100
AcDbLine
10
-39.248711306
20
11.9807621135
11
-36.248711306
21
6.78460969083
0
LINE
5
1E8
100
AcDbEntity
8
head
6
ByLayer
62
256
370
-1
100
AcDbLine
10
-36.248711306
20
6.78460969083
11
-27.5884572681
21
11.7846096908
0
LINE
5
1E9
100
AcDbEntity
8
head
6
ByLayer
62
256
370
-1
100
AcDbLine
10
-27.5884572681
20
11.7846096908
11
-30.5884572681
21
16.9807621135
0
LINE
5
1EA
100
AcDbEntity
8
head
6
ByLayer
62
256
370
-1
100
AcDbLine
10
-17.9089653438
20
-44.9807621135
11
-9.24871130596
21
-39.9807621135
0
LINE
5
1EB
100
AcDbEntity
8
head
6
ByLayer
62
256
370
-1
100
AcDbLine
10
-9.24871130596
20
-39.9807621135
11
-12.248711306
21
-34.7846096908
0
LINE
5
1EC
100
AcDbEntity
8
head
6
ByLayer
62
256
370
-1
100
AcDbLine
10
-12.248711306
20
-34.7846096908
11
-3.58845726812
21
-29.7846096908
0
LINE
5
1ED
100
AcDbEntity
8
head
6
ByLayer
62
256
370
-1
100
AcDbLine
10
-3.58845726812
20
-29.7846096908
11
-0.58845726812
21
-34.9807621135
0
LINE
5
1EE
100
AcDbEntity
8
head
6
ByLayer
62
256
370
-1
100
AcDbLine
10
-17.9089653438
20
-44.9807621135
11
-47.9089653438
21
6.98076211353
0
LINE
5
1EF
100
AcDbEntity
8
head
6
ByLayer
62
256
370
-1
100
AcDbLine
10
17.9089653438
20
-44.9807621135
11
9.24871130596
21
-39.9807621135
0
LINE
5
1F0
100
AcDbEntity
8
head
6
ByLayer
62
256
370
-1
100
AcDbLine
10
9.24871130596
20
-39.9807621135
11
12.248711306
21
-34.7846096908
0
LINE
5
1F1
100
AcDbEntity
8
head
6
ByLayer
62
256
370
-1
100
AcDbLine
10
12.248711306
20
-34.7846096908
11
3.58845726812
21
-29.7846096908
0
LINE
5
1F2
100
AcDbEntity
8
head
6
ByLayer
62
256
370
-1
100
AcDbLine
10
3.58845726812
20
-29.7846096908
11
0.58845726812
21
-34.9807621135
0
LINE
5
1F3
100
AcDbEntity
8
head
6
ByLayer
62
256
370
-1
100
AcDbLine
10
47.9089653438
20
6.98076211353
11
39.248711306
21
11.9807621135
0
LINE
5
1F4
100
AcDbEntity
8
head
6
ByLayer
62
256
370
-1
100
AcDbLine
10
39.248711306
20
11.9807621135
11
36.248711306
21
6.78460969083
0
LINE
5
1F5
100
AcDbEntity
8
head
6
ByLayer
62
256
370
-1
100
AcDbLine
10
36.248711306
20
6.78460969083
11
27.5884572681
21
11.7846096908
0
LINE
5
1F6
100
AcDbEntity
8
head
6
ByLayer
62
256
370
-1
100
AcDbLine
10
27.5884572681
20
11.7846096908
11
30.5884572681
21
16.9807621135
0
LINE
5
1F7
100
AcDbEntity
8
head
6
ByLayer
62
256
370
-1
100
AcDbLine
10
47.9089653438
20
6.98076211353
11
17.9089653438
21
-44.9807621135
0
LINE
5
1F8
100
AcDbEntity
8
head
6
ByLayer
62
256
370
-1
100
AcDbLine
10
-30
20
18
11
-30.5884572681
21
16.9807621135
0
LINE
5
1F9
100
AcDbEntity
8
head
6
ByLayer
62
256
370
-1
100
AcDbLine
10
30
20
18
11
30.5884572681
21
16.9807621135
0
LINE
5
1FA
100
AcDbEntity
8
head
6
ByLayer
62
256
370
-1
100
AcDbLine
10
0.58845726812
20
-34.9807621135
11
-0.58845726812
21
-34.9807621135
0
CIRCLE
5
1FB
100
AcDbEntity
8
head
6
ByLayer
62
256
370
-1
100
AcDbCircle
10
0
20
0
40
15
0
CIRCLE
5
1FC
100
AcDbEntity
8
head
6
ByLayer
62
256
370
-1
100
AcDbCircle
10
0
20
20
40
2
0
CIRCLE
5
1FD
100
AcDbEntity
8
head
6
ByLayer
62
256
370
-1
100
AcDbCircle
10
0
20
-20
40
2
0
CIRCLE
5
1FE
100
AcDbEntity
8
head_plate
6
ByLayer
62
256
370
-1
100
AcDbCircle
10
0
20
0
40
25
0
CIRCLE
5
1FF
100
AcDbEntity
8
head_plate
6
ByLayer
62
256
370
-1
100
AcDbCircle
10
0
20
20
40
2
0
CIRCLE
5
200
100
AcDbEntity
8
head_plate
6
ByLayer
62
256
370
-1
100
AcDbCircle
10
0
20
-20
40
2
0
CIRCLE
5
201
100
AcDbEntity
8
head_side_2
6
ByLayer
62
256
370
-1
100
AcDbCircle
10
-14
20
0
40
2.5
0
LINE
5
202
100
AcDbEntity
8
head_side_2
6
ByLayer
62
256
370
-1
100
AcDbLine
10
-14
20
6
11
0
21
6
0
LINE
5
203
100
AcDbEntity
8
head_side_2
6
ByLayer
62
256
370
-1
100
AcDbLine
10
0
20
-6
11
-14
21
-6
0
ARC
5
204
100
AcDbEntity
8
head_side_2
6
ByLayer
62
256
370
-1
100
AcDbCircle
10
-14
20
0
40
6
100
AcDbArc
50
90
51
270
0
CIRCLE
5
205
100
AcDbEntity
8
carrige_side
6
ByLayer
62
256
370
-1
100
AcDbCircle
10
25
20
10
40
2.5
0
LINE
5
206
100
AcDbEntity
8
carrige_side
6
ByLayer
62
256
370
-1
100
AcDbLine
10
25
20
5
11
14.5
21
5
0
ARC
5
207
100
AcDbEntity
8
carrige_side
6
ByLayer
62
256
370
-1
100
AcDbCircle
10
25
20
10
40
5
100
AcDbArc
50
270
51
90
0
LINE
5
208
100
AcDbEntity
8
carrige_side
6
ByLayer
62
256
370
-1
100
AcDbLine
10
-15
20
15
11
25
21
15
0
ARC
5
209
100
AcDbEntity
8
carrige_side
6
ByLayer
62
256
370
-1
100
AcDbCircle
10
-15
20
10
40
5
100
AcDbArc
50
90
51
270
0
LINE
5
20A
100
AcDbEntity
8
carrige_side
6
ByLayer
62
256
370
-1
100
AcDbLine
10
-15
20
5
11
-14.5
21
5
0
CIRCLE
5
20B
100
AcDbEntity
8
head_plate
6
ByLayer
62
256
370
-1
100
AcDbCircle
10
-17.3205080757
20
10
40
2
0
CIRCLE
5
20C
100
AcDbEntity
8
head_plate
6
ByLayer
62
256
370
-1
100
AcDbCircle
10
17.3205080757
20
-10
40
2
0
CIRCLE
5
20D
100
AcDbEntity
8
head_plate
6
ByLayer
62
256
370
-1
100
AcDbCircle
10
-17.3205080757
20
-10
40
2
0
CIRCLE
5
20E
100
AcDbEntity
8
head_plate
6
ByLayer
62
256
370
-1
100
AcDbCircle
10
17.3205080757
20
10
40
2
0
CIRCLE
5
20F
100
AcDbEntity
8
head
6
ByLayer
62
256
370
-1
100
AcDbCircle
10
-17.3205080757
20
10
40
2
0
CIRCLE
5
210
100
AcDbEntity
8
head
6
ByLayer
62
256
370
-1
100
AcDbCircle
10
17.3205080757
20
-10
40
2
0
CIRCLE
5
211
100
AcDbEntity
8
head
6
ByLayer
62
256
370
-1
100
AcDbCircle
10
-17.3205080757
20
-10
40
2
0
CIRCLE
5
212
100
AcDbEntity
8
head
6
ByLayer
62
256
370
-1
100
AcDbCircle
10
17.3205080757
20
10
40
2
0
CIRCLE
5
213
100
AcDbEntity
8
head_plate
6
ByLayer
62
256
370
-1
100
AcDbCircle
10
8
20
8
40
2
0
CIRCLE
5
214
100
AcDbEntity
8
head_plate
6
ByLayer
62
256
370
-1
100
AcDbCircle
10
-8
20
8
40
2
0
CIRCLE
5
215
100
AcDbEntity
8
head_plate
6
ByLayer
62
256
370
-1
100
AcDbCircle
10
-8
20
-8
40
2
0
CIRCLE
5
216
100
AcDbEntity
8
head_plate
6
ByLayer
62
256
370
-1
100
AcDbCircle
10
8
20
-8
40
2
0
ENDSEC
0
SECTION
2
OBJECTS
0
DICTIONARY
5
C
330
0
100
AcDbDictionary
281
1
3
ACAD_GROUP
350
D
0
DICTIONARY
5
D
330
C
100
AcDbDictionary
281
1
0
ENDSEC
0
EOF
